<svg width="194" height="187" viewBox="0 0 194 187" fill="none" xmlns="http://www.w3.org/2000/svg">
<path d="M135.445 74.0082C148.161 83.9242 156.875 97.0282 160 113C160 115.31 160 117.62 160 120C171.22 120 182.44 120 194 120C194 125.28 194 130.56 194 136C182.45 136 170.9 136 159 136C158.67 138.64 158.34 141.28 158 144C153.743 158.123 144.323 170.548 131.566 178.008C121.283 183.421 112.463 186.545 100.812 186.375C99.799 186.364 98.786 186.353 97.743 186.342C80.389 185.975 66.318 181.123 53.574 168.863C45.54 159.927 38 148.366 38 136C25.46 136 12.92 136 0 136C0 130.72 0 125.44 0 120C12.21 120 24.42 120 37 120C37.33 116.37 37.66 112.74 38 109C42.4 92.5632 52.438 79.7932 66.719 70.8322C87.611 59.1672 115.736 60.3812 135.445 74.0082Z" fill="#FBE051"/>
<path d="M123.516 86.5041C133.752 93.7281 139.471 103.873 142 116C142 117.32 142 118.64 142 120C113.29 120 84.58 120 55 120C57.341 105.953 61.165 95.8551 72.855 87.4181C88.496 77.0761 107.493 76.9251 123.516 86.5041Z" fill="#FEFEFD"/>
<path d="M56 136C84.05 136 112.1 136 141 136C138.899 146.507 133.615 155.854 124.875 162.125C119.891 165.311 114.61 167.207 109 169C108.01 169.33 107.02 169.66 106 170C91.503 170.914 80.218 168.507 68.77 159.184C61.624 152.548 58.649 145.272 56 136Z" fill="#FEFEFB"/>
<path d="M12 33C17.635 35.423 21.527 40.118 25.812 44.375C26.709 45.239 27.606 46.102 28.529 46.992C29.372 47.827 30.214 48.663 31.082 49.523C31.858 50.286 32.634 51.048 33.433 51.833C35 54 35 54 34.824 56.171C33.873 58.282 32.808 59.66 31.188 61.312C30.686 61.845 30.185 62.377 29.668 62.926C28 64 28 64 26.194 63.847C23.16 62.676 21.507 60.844 19.234 58.527C18.345 57.628 17.455 56.729 16.539 55.803C15.619 54.857 14.698 53.912 13.75 52.938C12.805 51.978 11.86 51.019 10.914 50.061C8.603 47.714 6.298 45.36 4 43C6.041 38.734 8.586 36.266 12 33Z" fill="#FBE156"/>
<path d="M91.9998 0C96.2898 0 100.58 0 105 0C105 10.89 105 21.78 105 33C101.04 33 97.0798 33 92.9998 33C91.9998 32 91.9997 32 91.8857 28.949C91.8867 27.6 91.8917 26.251 91.9017 24.9023C91.9037 24.1935 91.9047 23.4846 91.9067 22.7543C91.9117 20.482 91.9247 18.2098 91.9377 15.9375C91.9427 14.4004 91.9467 12.8633 91.9507 11.3262C91.9617 7.5507 91.9788 3.7754 91.9998 0Z" fill="#FBE158"/>
<path d="M183 34C186.215 35.408 188.322 37.103 190.75 39.625C191.67 40.572 191.67 40.572 192.609 41.539C193.068 42.021 193.527 42.503 194 43C189.616 48.252 184.992 53.132 180.125 57.938C179.437 58.621 178.748 59.305 178.039 60.01C176.362 61.676 174.682 63.339 173 65C168.734 62.959 166.266 60.414 163 57C164.45 53.654 166.277 51.499 168.879 48.961C169.635 48.216 170.391 47.471 171.17 46.703C172.354 45.551 172.354 45.551 173.562 44.375C175.128 42.843 176.692 41.31 178.254 39.773C178.948 39.097 179.642 38.421 180.358 37.724C182.08 36.085 182.08 36.085 183 34Z" fill="#FBE052"/>
</svg>
