<svg width="32" height="32" viewBox="0 0 32 32" fill="none" xmlns="http://www.w3.org/2000/svg">
<path d="M7.9209 8.89474C7.9209 6.80092 8.75266 4.79287 10.2332 3.31232C11.7138 1.83176 13.7218 1 15.8156 1C17.9095 1 19.9175 1.83176 21.3981 3.31232C22.8786 4.79287 23.7104 6.80092 23.7104 8.89474V13.6316C23.7104 15.7254 22.8786 17.7335 21.3981 19.214C19.9175 20.6946 17.9095 21.5263 15.8156 21.5263C13.7218 21.5263 11.7138 20.6946 10.2332 19.214C8.75266 17.7335 7.9209 15.7254 7.9209 13.6316V8.89474Z" stroke="#FCFCFC" stroke-width="1.5"/>
<path d="M17.3954 8.89474H23.7111M17.3954 13.6316H23.7111M15.8164 26.2632V31" stroke="#FCFCFC" stroke-width="1.5" stroke-linecap="round"/>
<path d="M29.6316 12.0526C29.6316 11.7386 29.5068 11.4374 29.2847 11.2153C29.0626 10.9932 28.7614 10.8684 28.4474 10.8684C28.1333 10.8684 27.8321 10.9932 27.61 11.2153C27.3879 11.4374 27.2632 11.7386 27.2632 12.0526H29.6316ZM4.36842 12.0526C4.36842 11.7386 4.24366 11.4374 4.02157 11.2153C3.79949 10.9932 3.49828 10.8684 3.18421 10.8684C2.87014 10.8684 2.56893 10.9932 2.34685 11.2153C2.12476 11.4374 2 11.7386 2 12.0526H4.36842ZM21.3611 23.6484C21.0863 23.8009 20.8834 24.0562 20.797 24.3582C20.7105 24.6602 20.7476 24.9843 20.9 25.259C21.0524 25.5337 21.3077 25.7366 21.6098 25.823C21.9118 25.9095 22.2358 25.8724 22.5105 25.72L21.3611 23.6484ZM27.2632 12.0526V13.6316H29.6316V12.0526H27.2632ZM4.36842 13.6316V12.0526H2V13.6316H4.36842ZM15.8158 25.079C12.7798 25.079 9.86808 23.8729 7.72128 21.7261C5.57448 19.5793 4.36842 16.6676 4.36842 13.6316H2C2 17.2958 3.45559 20.8099 6.04655 23.4008C8.63751 25.9918 12.1516 27.4474 15.8158 27.4474V25.079ZM27.2632 13.6316C27.2639 15.6762 26.7168 17.6837 25.6789 19.4453C24.6409 21.2069 23.1499 22.6583 21.3611 23.6484L22.5105 25.72C24.669 24.5247 26.4678 22.7731 27.7201 20.6472C28.9724 18.5214 29.6325 16.0989 29.6316 13.6316H27.2632Z" fill="#FCFCFC"/>
</svg>
