<svg width="80" height="81" viewBox="0 0 80 81" fill="none" xmlns="http://www.w3.org/2000/svg">
<path fill-rule="evenodd" clip-rule="evenodd" d="M19.4866 19.7492C27.6305 15.4154 34.4103 25.3334 42.9517 26.9988C51.1202 28.5916 62.8185 22.0831 66.8663 28.9877C70.9188 35.9002 61.5347 44.0492 57.4581 51.7432C53.3568 59.4837 52.1995 70.9718 43.6654 72.7756C35.1702 74.5711 31.968 63.5406 25.7434 58.4463C19.9819 53.7311 10.7001 52.293 9.48955 44.8058C8.05708 35.9462 10.9342 24.3004 19.4866 19.7492Z" fill="#FFDF18"/>
<g clip-path="url(#clip0_88_639)">
<path d="M55.8057 38.8533L40.8057 23.8533C40.6184 23.667 40.3649 23.5625 40.1007 23.5625C39.8365 23.5625 39.5831 23.667 39.3957 23.8533L24.3957 38.8533C24.2319 39.0446 24.1463 39.2907 24.156 39.5423C24.1657 39.794 24.2701 40.0328 24.4482 40.2109C24.6263 40.389 24.865 40.4933 25.1167 40.503C25.3684 40.5127 25.6144 40.4271 25.8057 40.2633L40.0957 25.9733L54.3857 40.2733C54.577 40.4371 54.8231 40.5227 55.0748 40.513C55.3265 40.5033 55.5652 40.399 55.7433 40.2209C55.9214 40.0428 56.0257 39.804 56.0354 39.5523C56.0452 39.3007 55.9596 39.0546 55.7957 38.8633L55.8057 38.8533Z" fill="#231F20"/>
<path d="M50.0957 53.5632H45.0957V43.5632H35.0957V53.5632H30.0957V39.5632L28.0957 41.5632V53.5632C28.0957 54.0937 28.3064 54.6024 28.6815 54.9775C29.0566 55.3525 29.5653 55.5632 30.0957 55.5632H37.0957V45.5632H43.0957V55.5632H50.0957C50.6261 55.5632 51.1348 55.3525 51.5099 54.9775C51.885 54.6024 52.0957 54.0937 52.0957 53.5632V41.3232L50.0957 39.3232V53.5632Z" fill="#231F20"/>
</g>
<defs>
<clipPath id="clip0_88_639">
<rect width="36" height="36" fill="white" transform="translate(22.0957 21.5632)"/>
</clipPath>
</defs>
</svg>
