<svg width="44" height="44" viewBox="0 0 44 44" fill="none" xmlns="http://www.w3.org/2000/svg">
<g clip-path="url(#clip0_396_2575)">
<path d="M38.5 22C38.5 12.8874 31.1126 5.5 22 5.5C12.8874 5.5 5.5 12.8874 5.5 22C5.5 30.2356 11.5338 37.0618 19.4219 38.2996V26.7695H15.2324V22H19.4219V18.3648C19.4219 14.2295 21.8853 11.9453 25.6542 11.9453C27.4594 11.9453 29.3477 12.2676 29.3477 12.2676V16.3281H27.2671C25.2174 16.3281 24.5781 17.6 24.5781 18.905V22H29.1543L28.4228 26.7695H24.5781V38.2996C32.4662 37.0618 38.5 30.2357 38.5 22Z" fill="#1877F2"/>
<path d="M28.4228 26.7695L29.1543 22H24.5781V18.905C24.5781 17.5999 25.2174 16.3281 27.2671 16.3281H29.3477V12.2676C29.3477 12.2676 27.4594 11.9453 25.6541 11.9453C21.8853 11.9453 19.4219 14.2295 19.4219 18.3648V22H15.2324V26.7695H19.4219V38.2996C20.2747 38.4332 21.1367 38.5002 22 38.5C22.8633 38.5002 23.7253 38.4332 24.5781 38.2996V26.7695H28.4228Z" fill="white"/>
</g>
<defs>
<clipPath id="clip0_396_2575">
<rect width="33" height="33" fill="white" transform="translate(5.5 5.5)"/>
</clipPath>
</defs>
</svg>
