<svg width="80" height="81" viewBox="0 0 80 81" fill="none" xmlns="http://www.w3.org/2000/svg">
<path fill-rule="evenodd" clip-rule="evenodd" d="M19.3909 19.7491C27.5348 15.4154 34.3146 25.3333 42.856 26.9988C51.0245 28.5915 62.7228 22.0831 66.7706 28.9876C70.8231 35.9001 61.439 44.0491 57.3624 51.7431C53.2611 59.4836 52.1038 70.9718 43.5697 72.7755C35.0745 74.5711 31.8723 63.5406 25.6477 58.4463C19.8862 53.731 10.6044 52.293 9.39384 44.8057C7.96137 35.9462 10.8385 24.3003 19.3909 19.7491Z" fill="#FFDF18"/>
<g clip-path="url(#clip0_1272_2668)">
<path d="M37.6968 30.9876C37.7476 30.9871 37.7984 30.9867 37.8507 30.9862C38.0186 30.9848 38.1865 30.984 38.3544 30.9833C38.4121 30.983 38.4697 30.9827 38.5291 30.9824C38.8346 30.9809 39.1401 30.9799 39.4456 30.9793C39.7593 30.9785 40.0729 30.9761 40.3865 30.9733C40.6292 30.9714 40.872 30.9708 41.1147 30.9706C41.2302 30.9703 41.3457 30.9694 41.4612 30.9681C42.5973 30.956 43.6284 31.2028 44.487 32.002C45.13 32.7046 45.4488 33.4951 45.583 34.4237C45.5919 34.4846 45.6008 34.5454 45.6101 34.6081C45.7304 35.4422 45.8303 36.279 45.9314 37.1156C45.9532 37.2947 45.975 37.4739 45.9967 37.6531C46.042 38.0257 46.087 38.3983 46.132 38.771C46.1837 39.1998 46.2359 39.6286 46.2884 40.0574C46.3392 40.4736 46.3896 40.8899 46.4398 41.3062C46.4611 41.4819 46.4825 41.6575 46.504 41.8332C46.534 42.0783 46.5635 42.3235 46.5928 42.5688C46.6017 42.6403 46.6106 42.7119 46.6197 42.7856C46.7299 43.7185 46.7219 44.4507 46.1349 45.2295C45.7543 45.6744 45.3582 45.9249 44.7814 46.0469C44.6886 46.0469 44.5958 46.0469 44.5002 46.0469C44.501 46.0955 44.5019 46.1442 44.5028 46.1943C44.5085 46.782 44.4727 47.3624 44.4261 47.9479C44.4181 48.0513 44.4101 48.1546 44.4022 48.258C44.3807 48.536 44.3588 48.814 44.3367 49.092C44.323 49.266 44.3093 49.44 44.2956 49.614C44.2479 50.2218 44.1997 50.8295 44.1513 51.4372C44.1062 52.0027 44.062 52.5683 44.0183 53.1339C43.9806 53.6209 43.9422 54.1078 43.9033 54.5947C43.8801 54.8849 43.8572 55.1752 43.835 55.4655C43.8141 55.7381 43.7924 56.0106 43.7701 56.283C43.762 56.3828 43.7543 56.4827 43.7469 56.5825C43.7367 56.7191 43.7253 56.8556 43.7138 56.9921C43.7078 57.0684 43.7018 57.1446 43.6956 57.2233C43.6508 57.4682 43.5733 57.6462 43.4455 57.8594C43.1658 58.0459 42.9214 58.0213 42.5966 58.0216C42.5313 58.0221 42.4659 58.0227 42.3987 58.0233C42.1824 58.025 41.9661 58.0256 41.7497 58.0261C41.5996 58.0267 41.4494 58.0274 41.2992 58.028C40.9841 58.0292 40.6691 58.0297 40.354 58.0299C39.9503 58.0303 39.5465 58.033 39.1428 58.0362C38.8325 58.0383 38.5222 58.0388 38.2119 58.0389C38.0631 58.0391 37.9142 58.04 37.7653 58.0415C37.5571 58.0434 37.349 58.043 37.1407 58.0422C37.0792 58.0432 37.0177 58.0442 36.9543 58.0453C36.6435 58.0416 36.5231 58.0308 36.2722 57.8304C36.1043 57.611 36.054 57.4915 36.0321 57.2224C36.0246 57.1325 36.0246 57.1325 36.0169 57.0409C36.0117 56.9749 36.0064 56.909 36.0011 56.841C35.9925 56.7368 35.9925 56.7368 35.9837 56.6305C35.9646 56.3981 35.9459 56.1657 35.9273 55.9332C35.9139 55.7689 35.9005 55.6047 35.887 55.4404C35.8587 55.0928 35.8305 54.7451 35.8025 54.3974C35.7675 53.964 35.7322 53.5306 35.6968 53.0972C35.5049 50.7477 35.3232 48.3977 35.1486 46.0469C35.1004 46.0381 35.0523 46.0293 35.0026 46.0202C34.9394 46.0083 34.8762 45.9963 34.811 45.9839C34.717 45.9664 34.717 45.9664 34.6211 45.9485C34.0949 45.822 33.6265 45.366 33.3309 44.9252C32.8815 44.1242 33.0243 43.2198 33.1316 42.3417C33.1414 42.2576 33.1513 42.1736 33.1614 42.087C33.1882 41.8593 33.2154 41.6316 33.2429 41.404C33.266 41.2126 33.2888 41.0211 33.3115 40.8296C33.3653 40.3771 33.4197 39.9246 33.4744 39.4721C33.5304 39.0087 33.5856 38.5451 33.6402 38.0814C33.6875 37.6804 33.7354 37.2794 33.7837 36.8786C33.8124 36.6404 33.8409 36.4023 33.8689 36.164C34.262 32.8302 34.262 32.8302 35.5996 31.7004C36.0051 31.3979 36.4229 31.214 36.9064 31.0703C36.9459 31.0579 36.9853 31.0455 37.026 31.0328C37.2508 30.9872 37.4674 30.9893 37.6968 30.9876Z" fill="black"/>
<path d="M48.1669 32.4652C48.217 32.4649 48.2671 32.4645 48.3188 32.4642C48.4844 32.4631 48.65 32.4627 48.8156 32.4623C48.8725 32.4621 48.9294 32.4619 48.988 32.4617C49.2894 32.4606 49.5908 32.46 49.8922 32.4597C50.2016 32.4593 50.5109 32.4576 50.8203 32.4556C51.0598 32.4543 51.2992 32.4539 51.5387 32.4538C51.6526 32.4536 51.7666 32.453 51.8805 32.4521C53.1843 32.4422 54.2728 32.7117 55.2426 33.6406C55.8651 34.3266 56.1436 35.0922 56.2732 35.9932C56.2822 36.0546 56.2912 36.1161 56.3005 36.1794C56.4026 36.8853 56.4899 37.5931 56.5753 38.3012C56.5837 38.3709 56.5921 38.4407 56.6008 38.5125C56.6452 38.8801 56.6893 39.2477 56.7332 39.6153C56.7783 39.9919 56.8243 40.3683 56.8706 40.7447C56.9064 41.0376 56.9415 41.3306 56.9763 41.6237C56.9929 41.7625 57.0099 41.9013 57.0271 42.04C57.3063 44.2933 57.3063 44.2933 56.6654 45.1866C56.2764 45.6453 55.9212 45.9425 55.3186 46.0144C55.1842 46.0305 55.1842 46.0305 55.0471 46.0469C55.042 46.121 55.0369 46.1951 55.0317 46.2714C54.9008 48.178 54.7632 50.0841 54.6177 51.9896C54.596 52.274 54.5745 52.5584 54.5533 52.8428C54.5269 53.195 54.5002 53.5473 54.4732 53.8995C54.4632 54.0311 54.4533 54.1628 54.4435 54.2944C54.3087 56.1112 54.3087 56.1112 54.1063 56.3629C53.8291 56.5825 53.4913 56.5348 53.1564 56.5359C53.0924 56.5363 53.0285 56.5368 52.9626 56.5373C52.7509 56.5387 52.5392 56.5395 52.3274 56.5402C52.2551 56.5405 52.1828 56.5408 52.1084 56.5411C51.7259 56.5425 51.3435 56.5435 50.961 56.5442C50.5658 56.545 50.1705 56.5474 49.7753 56.5502C49.4715 56.552 49.1678 56.5526 48.864 56.5529C48.7183 56.5532 48.5725 56.554 48.4268 56.5553C48.223 56.557 48.0192 56.557 47.8154 56.5565C47.725 56.5578 47.725 56.5578 47.6329 56.5592C47.3641 56.5569 47.2049 56.5412 46.9649 56.4115C46.6299 56.0186 46.6461 55.4888 46.6123 54.9953C46.604 54.8837 46.604 54.8837 46.5956 54.7699C46.5776 54.5249 46.5603 54.2798 46.5431 54.0348C46.5307 53.8637 46.5183 53.6927 46.5059 53.5217C46.4799 53.1635 46.4543 52.8053 46.429 52.447C46.3965 51.989 46.3635 51.5311 46.3301 51.0732C46.3045 50.72 46.2791 50.3668 46.2538 50.0136C46.2417 49.8448 46.2295 49.6761 46.2173 49.5073C46.2002 49.2708 46.1834 49.0342 46.1668 48.7976C46.1618 48.7286 46.1567 48.6596 46.1515 48.5885C46.0619 47.296 46.0619 47.296 46.2888 46.9917C46.3466 46.9137 46.3466 46.9137 46.4055 46.834C46.5445 46.6736 46.6922 46.5305 46.8469 46.3852C47.4974 45.7545 47.9595 44.8325 48.0341 43.9268C48.0434 43.0014 47.9216 42.0913 47.8075 41.1743C47.7779 40.9354 47.7491 40.6964 47.7201 40.4575C47.6715 40.0569 47.6224 39.6564 47.5729 39.256C47.5097 38.7442 47.4473 38.2322 47.3852 37.7203C47.3314 37.2768 47.2772 36.8333 47.2229 36.3899C47.2057 36.2488 47.1885 36.1078 47.1713 35.9667C47.1391 35.7028 47.1066 35.4389 47.0739 35.175C47.0646 35.098 47.0552 35.021 47.0456 34.9417C46.9933 34.5224 46.9293 34.1079 46.8495 33.693C46.7971 33.4006 46.783 33.1942 46.904 32.9204C47.2412 32.4902 47.6543 32.4679 48.1669 32.4652Z" fill="black"/>
<path d="M28.1785 32.4554C28.2864 32.4552 28.3944 32.4549 28.5023 32.4545C28.7276 32.454 28.9528 32.454 29.1781 32.4544C29.4653 32.4548 29.7525 32.4536 30.0398 32.452C30.2624 32.4509 30.485 32.4509 30.7076 32.4511C30.8134 32.4511 30.9192 32.4507 31.0251 32.45C32.3265 32.4423 32.3265 32.4423 32.7369 32.7888C32.9632 33.0615 32.8522 33.5464 32.8279 33.8828C32.8018 34.1049 32.7683 34.3257 32.7346 34.5468C32.6083 35.4028 32.5015 36.2609 32.3964 37.1197C32.3865 37.2003 32.3766 37.2809 32.3664 37.3639C32.3143 37.7889 32.2623 38.2138 32.2105 38.6388C32.1573 39.075 32.1035 39.5111 32.0495 39.9472C32.0077 40.2858 31.9664 40.6244 31.9252 40.963C31.9056 41.1238 31.8857 41.2847 31.8657 41.4454C31.6395 43.2676 31.609 44.8611 32.7785 46.3982C32.9882 46.6502 33.2251 46.7686 33.5258 46.8923C33.6717 46.961 33.6717 46.961 33.8211 47.1455C33.9691 47.7166 33.8768 48.3501 33.8332 48.9333C33.8279 49.0067 33.8227 49.0801 33.8173 49.1557C33.8 49.3957 33.7823 49.6357 33.7645 49.8756C33.7522 50.0436 33.7399 50.2116 33.7277 50.3795C33.702 50.7304 33.6761 51.0812 33.65 51.432C33.6167 51.8811 33.5841 52.3302 33.5517 52.7794C33.5266 53.1257 33.501 53.4721 33.4753 53.8184C33.4631 53.984 33.451 54.1497 33.4391 54.3153C33.4225 54.5467 33.4052 54.778 33.3877 55.0093C33.3829 55.0774 33.3782 55.1454 33.3733 55.2155C33.305 56.0953 33.305 56.0953 33.035 56.4114C32.7472 56.5671 32.5093 56.5624 32.1869 56.5587C32.1229 56.5591 32.059 56.5595 31.9931 56.5599C31.7821 56.5608 31.5711 56.5596 31.3601 56.5583C31.2133 56.5584 31.0665 56.5585 30.9196 56.5586C30.612 56.5587 30.3045 56.5579 29.9969 56.5563C29.6027 56.5543 29.2086 56.5545 28.8145 56.5554C28.5113 56.5558 28.2081 56.5553 27.905 56.5544C27.7596 56.5541 27.6143 56.5541 27.469 56.5544C27.2658 56.5546 27.0627 56.5534 26.8596 56.5519C26.7696 56.5523 26.7696 56.5523 26.6778 56.5528C26.3523 56.5487 26.1268 56.5306 25.867 56.3125C25.7134 56.0925 25.6988 55.8777 25.6768 55.614C25.6655 55.483 25.6655 55.483 25.654 55.3494C25.6461 55.2513 25.6383 55.1532 25.6305 55.0551C25.6217 54.9503 25.6129 54.8454 25.6041 54.7406C25.5735 54.374 25.5444 54.0073 25.5154 53.6406C25.5099 53.5714 25.5044 53.5021 25.4987 53.4307C25.4105 52.3216 25.325 51.2124 25.2402 50.1031C25.2142 49.7646 25.1881 49.4261 25.162 49.0877C25.1368 48.7604 25.1116 48.4331 25.0865 48.1058C25.0746 47.9502 25.0626 47.7946 25.0506 47.6391C25.034 47.4238 25.0176 47.2086 25.0012 46.9934C24.9963 46.9298 24.9913 46.8662 24.9863 46.8006C24.9818 46.7422 24.9774 46.6837 24.9728 46.6235C24.969 46.5729 24.9651 46.5224 24.9611 46.4703C24.953 46.3294 24.9529 46.1881 24.9529 46.0469C24.9087 46.0425 24.8644 46.038 24.8189 46.0334C24.157 45.9387 23.8334 45.6029 23.4192 45.1021C22.8443 44.3223 22.9528 43.5077 23.0647 42.5837C23.0733 42.5097 23.0819 42.4356 23.0907 42.3592C23.1189 42.117 23.1478 41.875 23.1767 41.6329C23.1967 41.4629 23.2167 41.2928 23.2367 41.1228C23.2785 40.7675 23.3207 40.4123 23.3631 40.0571C23.4172 39.6039 23.4704 39.1506 23.5234 38.6973C23.5644 38.3465 23.606 37.9957 23.6477 37.645C23.6675 37.478 23.6871 37.3109 23.7066 37.1439C24.0496 34.2119 24.0496 34.2119 25.366 33.1577C26.2413 32.5434 27.1415 32.4543 28.1785 32.4554Z" fill="black"/>
<path d="M42.022 22.5938C42.8814 23.1897 43.4013 24.0445 43.6079 25.0718C43.7561 26.0723 43.5714 27.0461 43.0234 27.9063C42.4174 28.6986 41.6126 29.3189 40.6111 29.5034C39.4357 29.6279 38.4407 29.4638 37.4688 28.75C37.3948 28.6978 37.3208 28.6456 37.2446 28.5918C36.4724 27.8367 36.0585 26.8712 36.0449 25.7925C36.0468 24.6802 36.4426 23.7443 37.2128 22.9429C38.5267 21.7437 40.5521 21.6498 42.022 22.5938Z" fill="black"/>
<path d="M31.7034 24.1094C32.522 24.7359 33.028 25.4916 33.2502 26.5C33.3542 27.778 33.1724 28.8294 32.334 29.8355C31.61 30.6119 30.7475 30.991 29.6995 31.0318C28.5164 31.0526 27.6276 30.7389 26.7488 29.9256C25.9684 29.1257 25.7 28.1768 25.7057 27.0886C25.7301 26.0955 26.1308 25.196 26.818 24.4788C28.1577 23.2615 30.2011 23.1005 31.7034 24.1094Z" fill="black"/>
<path d="M52.9189 24.2503C53.6452 24.8654 54.1276 25.6951 54.2735 26.6406C54.3389 27.8585 54.1579 28.8678 53.3419 29.8223C52.6068 30.5928 51.7586 31.0005 50.6956 31.0381C49.5306 31.0472 48.6141 30.736 47.752 29.9321C47.0034 29.1419 46.7363 28.2968 46.7237 27.2339C46.7227 27.1724 46.7217 27.1109 46.7207 27.0476C46.7283 26.0181 47.1718 25.1643 47.8825 24.4401C49.2637 23.1502 51.431 23.1599 52.9189 24.2503Z" fill="black"/>
</g>
<defs>
<clipPath id="clip0_1272_2668">
<rect width="36" height="36" fill="white" transform="translate(22 22)"/>
</clipPath>
</defs>
</svg>
