<svg width="80" height="81" viewBox="0 0 80 81" fill="none" xmlns="http://www.w3.org/2000/svg">
<path fill-rule="evenodd" clip-rule="evenodd" d="M19.4866 19.7492C27.6305 15.4154 34.4103 25.3334 42.9517 26.9988C51.1202 28.5916 62.8185 22.0831 66.8663 28.9877C70.9188 35.9002 61.5347 44.0492 57.4581 51.7432C53.3568 59.4837 52.1995 70.9718 43.6654 72.7756C35.1702 74.5711 31.968 63.5406 25.7434 58.4463C19.9819 53.7311 10.7001 52.293 9.48955 44.8058C8.05708 35.9462 10.9342 24.3004 19.4866 19.7492Z" fill="#FFDF18"/>
<path d="M37.7067 15.3109C36.4004 15.2894 35.3262 18.1864 36.6496 18.7312L37.4145 19.0415L38.9442 17.7094L38.7895 15.6899L38.0418 15.3805C37.9473 15.3436 37.8613 15.3221 37.7668 15.3135H37.7067V15.3109ZM49.2567 15.9915H49.059C48.4231 16.0173 47.7442 16.1737 47.0567 16.4857C45.2348 17.3167 43.3098 19.2933 41.9262 22.9946L33.0832 46.9196L33.0746 46.9368V46.954C33.152 46.9969 33.384 47.1172 33.7621 47.2977C34.6043 47.7102 35.8246 48.6469 36.0051 50.6321V50.675L35.9192 55.4532H44.2207C44.2121 53.9407 44.341 52.4883 44.9168 51.0274C45.9223 48.5008 48.2942 46.3094 53.2527 44.4102C53.2527 44.393 53.2527 44.4102 53.2613 44.3758C53.2871 44.204 53.2957 43.8602 53.2613 43.4305C53.1754 42.5626 52.9176 41.2907 52.5223 39.804C51.7317 36.8219 50.391 32.9118 48.8785 29.0704L48.6723 28.5376L49.1192 28.1766C52.2215 25.7532 53.5106 23.3297 53.7426 21.3394C53.9746 19.3577 53.184 17.7747 51.9121 16.8492C51.1645 16.3069 50.2535 15.9907 49.2567 15.9881V15.9915ZM40.4824 17.5066L40.5426 18.3668L39.8895 18.934L41.7543 19.7015C41.8574 19.515 41.9692 19.3336 42.0809 19.1575L42.4246 18.3076L40.4824 17.5066ZM46.4121 19.1016C47.1684 19.1016 47.7871 19.7169 47.7871 20.4766C47.7871 21.2363 47.1684 21.8516 46.4121 21.8516C45.6559 21.8516 45.0371 21.2363 45.0371 20.4766C45.0371 19.7169 45.6559 19.1016 46.4121 19.1016ZM34.6645 23.3727C33.3582 23.3469 32.2668 26.243 33.6074 26.793L34.3637 27.1024L35.8934 25.7704L35.7473 23.7422L34.991 23.4329C34.8965 23.3985 34.8106 23.3813 34.7246 23.3727H34.6645ZM37.4317 25.5641L37.4918 26.4235L36.8387 26.9907L38.5488 27.6868L39.0817 26.243L37.4317 25.5641ZM43.5848 27.2657C44.341 27.2657 44.9598 27.8844 44.9598 28.6407C44.9598 29.3969 44.341 30.0157 43.5848 30.0157C42.8285 30.0157 42.2098 29.3969 42.2098 28.6407C42.2098 27.8844 42.8285 27.2657 43.5848 27.2657ZM31.5707 31.6141C30.2559 31.5883 29.1817 34.4844 30.5051 35.0344L31.2699 35.3438L32.7996 34.0118L32.6449 31.9836L31.8973 31.6743C31.8027 31.6399 31.7168 31.6227 31.6309 31.6141H31.5707ZM34.3379 33.8055L34.3981 34.6649L33.7449 35.2321L35.4981 35.9454L36.0309 34.5016L34.3379 33.8055ZM40.1129 35.4641C40.8692 35.4641 41.4879 36.0829 41.4879 36.8391C41.4879 37.5954 40.8692 38.2141 40.1129 38.2141C39.3567 38.2141 38.7379 37.5954 38.7379 36.8391C38.7379 36.0829 39.3567 35.4641 40.1129 35.4641ZM28.0731 40.1391C26.7668 40.1133 25.6857 43.0094 27.016 43.5594L27.7723 43.8688L29.302 42.5368L29.1473 40.5086L28.3996 40.1993C28.3051 40.1649 28.2192 40.1477 28.1332 40.1391H28.0731ZM30.8402 42.3305L30.9004 43.1899L30.2473 43.7571L32.2067 44.5563L32.791 43.1297L30.8402 42.3305ZM36.7957 43.9204C37.552 43.9204 38.1707 44.5391 38.1707 45.2954C38.1707 46.0516 37.552 46.6704 36.7957 46.6704C36.0395 46.6704 35.4207 46.0516 35.4207 45.2954C35.4207 44.5391 36.0395 43.9204 36.7957 43.9204Z" fill="#231F20"/>
</svg>
