<svg width="77" height="77" viewBox="0 0 77 77" fill="none" xmlns="http://www.w3.org/2000/svg">
<path fill-rule="evenodd" clip-rule="evenodd" d="M5.85983 24.3616C12.3619 16.9332 26.5529 25.4134 37.4031 24.356C47.7796 23.3447 56.9357 12.3672 66.0463 18.4961C75.1674 24.6321 69.7228 36.6126 70.0534 46.3206C70.3859 56.0875 76.5177 68.9306 67.9274 73.7468C59.3762 78.541 48.5552 67.6554 38.1296 64.2188C28.4798 61.0379 16.9304 62.59 10.6868 54.8783C3.29872 45.7531 -0.968451 32.1626 5.85983 24.3616Z" fill="#FFDF18"/>
<g clip-path="url(#clip0_1272_2534)">
<path d="M18.4088 30.3317C18.5138 30.3308 18.5138 30.3308 18.621 30.3299C18.8575 30.3284 19.0939 30.3298 19.3304 30.3312C19.501 30.3307 19.6715 30.3301 19.8421 30.3293C20.3121 30.3276 20.7821 30.3284 21.2521 30.3297C21.7585 30.3306 22.2649 30.3292 22.7712 30.3281C23.7637 30.3263 24.7562 30.3267 25.7487 30.3278C26.5551 30.3288 27.3614 30.3289 28.1678 30.3284C28.2824 30.3284 28.397 30.3283 28.515 30.3283C28.7478 30.3281 28.9806 30.328 29.2133 30.3279C31.398 30.3267 33.5826 30.328 35.7673 30.3302C37.6434 30.332 39.5195 30.3317 41.3956 30.3298C43.5723 30.3277 45.7489 30.3268 47.9255 30.3281C48.1574 30.3282 48.3894 30.3283 48.6213 30.3284C48.7925 30.3285 48.7925 30.3285 48.9671 30.3286C49.7729 30.329 50.5786 30.3284 51.3844 30.3274C52.3658 30.3263 53.3472 30.3266 54.3286 30.3288C54.8297 30.3298 55.3308 30.3302 55.8319 30.3289C56.2901 30.3277 56.7483 30.3284 57.2065 30.3305C57.3727 30.331 57.539 30.3307 57.7053 30.3298C57.9304 30.3285 58.1553 30.3298 58.3803 30.3317C58.5056 30.3317 58.6309 30.3318 58.76 30.3319C59.0625 30.3828 59.0625 30.3828 59.2552 30.5695C59.4119 30.8767 59.4032 31.1222 59.4005 31.4659C59.4 31.5965 59.3995 31.7272 59.3989 31.8618C59.3979 31.9295 59.3968 31.9972 59.3958 32.0669C59.3926 32.2744 59.3916 32.4819 59.391 32.6894C59.3829 33.703 59.3829 33.703 59.2656 33.9375C59.3714 33.934 59.4772 33.9304 59.5862 33.9268C62.0916 33.8681 64.0967 34.5555 65.937 36.2925C67.493 37.9017 68.0456 39.8324 68.0367 42.0093C68.0016 44.0761 67.1624 45.7953 65.7418 47.2755C64.5488 48.4218 62.8031 49.3424 61.1186 49.3815C61.0231 49.3788 60.9277 49.3761 60.8294 49.3733C60.7202 49.3707 60.6111 49.3682 60.4986 49.3655C60.3821 49.3627 60.2656 49.36 60.1456 49.3571C59.7672 49.3532 59.3889 49.3505 59.0105 49.3479C58.7493 49.3448 58.488 49.3393 58.2269 49.3315C56.8685 49.221 56.8685 49.221 55.6191 49.6127C55.2859 49.9915 55.1574 50.4234 55 50.8984C54.7823 51.231 54.7823 51.231 54.5684 51.5078C54.4932 51.6051 54.4181 51.7023 54.3406 51.8026C53.1815 53.2344 53.1815 53.2344 52.5625 53.8437C53.0564 54.0268 53.5583 54.1376 54.0715 54.2503C59.1421 55.3663 59.1421 55.3663 60.4844 57.1699C60.8371 57.7431 60.8661 58.2624 60.7891 58.9219C60.4081 59.9775 59.3519 60.6045 58.3933 61.0685C55.1468 62.5758 51.4514 63.05 47.9224 63.416C47.8482 63.4238 47.774 63.4317 47.6976 63.4397C47.1194 63.4997 46.5406 63.549 45.9609 63.5937C45.8463 63.6026 45.7317 63.6115 45.6137 63.6206C43.3411 63.7901 41.0758 63.8339 38.7975 63.8291C38.5234 63.8286 38.2492 63.8284 37.975 63.8281C35.177 63.8248 32.3958 63.7686 29.6094 63.4922C29.4913 63.4808 29.4913 63.4808 29.3708 63.4691C19.128 62.4754 19.128 62.4754 16.4063 59.6328C15.984 59.119 15.9581 58.6649 15.9659 58.0149C16.0183 57.5357 16.193 57.2474 16.5078 56.8906C16.5598 56.8316 16.6118 56.7725 16.6653 56.7117C18.4414 54.9592 21.56 54.4696 23.8889 53.9999C24.1258 53.9548 24.1258 53.9548 24.3281 53.8437C24.2335 53.755 24.1388 53.6662 24.0413 53.5748C22.5972 52.193 21.4818 50.6429 20.5703 48.8672C20.5327 48.7949 20.495 48.7226 20.4562 48.6481C18.0004 43.8861 17.4096 38.2346 17.3975 32.9421C17.3965 32.6759 17.3933 32.4097 17.3901 32.1435C17.3895 31.9726 17.3889 31.8018 17.3886 31.6309C17.3873 31.5521 17.386 31.4733 17.3848 31.3921C17.386 31.0865 17.3958 30.8412 17.5339 30.5653C17.8167 30.2974 18.0235 30.3319 18.4088 30.3317ZM18.9453 31.8047C18.9296 34.244 18.9296 34.244 19.0659 36.667C19.0726 36.7416 19.0792 36.8163 19.086 36.8932C19.4959 41.4774 20.3361 46.6424 23.2109 50.3906C23.2751 50.4757 23.3392 50.5608 23.4053 50.6485C23.6057 50.9064 23.8125 51.157 24.0234 51.4062C24.0983 51.4961 24.1732 51.5859 24.2504 51.6784C26.0372 53.7397 28.4732 55.0189 31.1011 55.6592C31.2201 55.6883 31.2201 55.6883 31.3415 55.718C32.9165 56.072 34.4984 56.1099 36.105 56.1087C36.3163 56.1091 36.5275 56.1095 36.7388 56.11C37.179 56.1107 37.6192 56.1107 38.0593 56.1102C38.6175 56.1096 39.1757 56.1113 39.7339 56.1137C40.1695 56.1152 40.6051 56.1152 41.0407 56.1149C41.2463 56.115 41.4518 56.1155 41.6574 56.1165C43.3577 56.1241 45.0655 56.0195 46.6973 55.5005C46.7801 55.4748 46.863 55.4491 46.9484 55.4227C50.5207 54.2658 53.1184 51.5648 54.7925 48.2876C56.6624 44.5056 57.351 40.3319 57.7422 36.1719C57.7533 36.0579 57.7643 35.9439 57.7757 35.8265C57.8862 34.4817 57.8438 33.1644 57.8438 31.8047C45.0073 31.8047 32.1708 31.8047 18.9453 31.8047ZM59.2656 35.4609C59.1331 35.726 59.1319 35.9479 59.1089 36.2441C59.0936 36.4279 59.0936 36.4279 59.0779 36.6154C59.0724 36.6815 59.0669 36.7476 59.0612 36.8157C58.7493 40.4553 58.1141 44.0861 56.6867 47.4664C56.6087 47.6645 56.6087 47.6645 56.625 47.9531C57.1901 47.9607 57.7552 47.9662 58.3204 47.9699C58.512 47.9714 58.7035 47.9734 58.8951 47.9761C61.1248 48.0063 63.0611 47.7432 64.75 46.125C65.925 44.8986 66.5694 43.3483 66.6162 41.6562C66.5637 39.7589 65.7951 38.2674 64.4453 36.9844C62.9397 35.6214 61.2052 35.4061 59.2656 35.4609ZM17.777 57.7495C17.5617 57.9716 17.4241 58.1299 17.4155 58.4458C17.7223 59.2217 18.6066 59.5516 19.3258 59.8641C23.1434 61.4472 27.5515 61.881 31.6406 62.1719C31.7117 62.1771 31.7827 62.1823 31.8559 62.1876C39.7551 62.7615 51.4899 63.4643 59.0427 58.9695C59.2549 58.7447 59.3617 58.571 59.3926 58.2617C58.8729 57.2223 57.4096 56.7675 56.3743 56.4154C55.087 55.9972 53.7756 55.696 52.4496 55.4292C52.2046 55.3774 51.9648 55.3183 51.7234 55.2521C50.987 55.0792 50.5828 55.1874 49.9536 55.564C49.816 55.6499 49.6785 55.736 49.541 55.8222C48.5089 56.4592 47.2878 56.7832 46.1196 57.0747C46.0038 57.1044 46.0038 57.1044 45.8857 57.1347C44.3006 57.5035 42.6491 57.5314 41.0296 57.527C40.8466 57.5271 40.6636 57.5273 40.4806 57.5276C40.1004 57.5279 39.7203 57.5274 39.3402 57.5265C38.8599 57.5253 38.3797 57.526 37.8994 57.5272C33.0469 57.5372 33.0469 57.5372 31.0503 57.0683C30.9539 57.0464 30.8576 57.0244 30.7583 57.0018C29.1759 56.6279 27.757 56.0191 26.3328 55.2418C24.4868 54.4287 19.1863 56.5557 17.777 57.7495Z" fill="black"/>
<path d="M41.0862 36.9844C42.6747 38.1564 43.4982 40.1681 43.8537 42.0561C44.1882 44.5447 43.8657 47.2268 42.4255 49.3405C41.4702 50.5866 40.3413 51.498 38.7502 51.7109C37.42 51.82 36.3446 51.3117 35.3384 50.4767C34.1149 49.342 33.4921 47.9127 33.0627 46.3281C33.0356 46.2287 33.0085 46.1294 32.9806 46.027C32.4418 43.4963 32.9128 40.6575 34.3011 38.4798C35.0985 37.2954 36.0659 36.5496 37.4267 36.1068C38.8031 35.8633 39.9634 36.2027 41.0862 36.9844ZM36.2608 38.4126C34.7336 39.9904 34.3179 42.0746 34.3352 44.1941C34.3845 46.0611 34.8809 47.8893 36.2112 49.2734C36.6626 49.706 36.6626 49.706 37.2268 49.8828C37.2048 49.7624 37.1828 49.6419 37.1601 49.5178C36.7679 47.2799 36.8856 45.3739 37.8731 43.2943C37.9174 43.1999 37.9618 43.1055 38.0076 43.0083C38.0477 42.9262 38.0879 42.8441 38.1294 42.7595C38.4048 42.051 38.4849 41.3457 38.4836 40.5898C38.4837 40.5029 38.4837 40.4159 38.4838 40.3263C38.4686 39.4279 38.3448 38.4078 37.9377 37.5937C37.347 37.5937 36.7009 38.0512 36.2608 38.4126ZM39.5627 37.8984C39.5847 38.0201 39.6067 38.1417 39.6294 38.267C40.0264 40.5474 39.9364 42.5268 38.8391 44.6079C38.0231 46.2465 38.1924 48.1868 38.7502 49.8828C38.7837 49.9498 38.8173 50.0169 38.8518 50.0859C39.7096 50.0216 40.324 49.4915 40.8957 48.8874C42.2221 47.3316 42.6245 45.0703 42.4742 43.0787C42.2923 41.2901 41.6949 39.5718 40.3752 38.3047C40.0117 37.9991 40.0117 37.9991 39.5627 37.8984Z" fill="black"/>
<path d="M50.4169 12.1333C50.9622 12.4278 51.1256 12.939 51.3017 13.5156C52.0168 16.0559 51.9166 18.341 50.7519 20.7166C49.8976 22.4885 50.1258 24.4648 50.7533 26.2759C50.7882 26.3682 50.8232 26.4605 50.8592 26.5556C50.9479 26.8648 50.9619 27.1173 50.9374 27.4375C50.725 27.7479 50.6029 27.83 50.2328 27.9009C49.8125 27.8237 49.6888 27.6594 49.4139 27.336C49.2604 26.9888 49.2604 26.9888 49.141 26.606C49.1199 26.5386 49.0988 26.4712 49.077 26.4018C48.333 23.9713 48.4564 21.5566 49.6361 19.2808C49.6857 19.1911 49.7353 19.1014 49.7865 19.009C50.1126 18.2716 50.1643 17.5208 50.163 16.7227C50.1629 16.6257 50.1628 16.5288 50.1627 16.4289C50.1452 15.3659 49.9361 14.3821 49.5516 13.3914C49.4148 13.0179 49.3702 12.8712 49.5155 12.5078C49.7716 12.1818 49.9978 12.0878 50.4169 12.1333Z" fill="black"/>
<path d="M34.6837 12.1329C35.03 12.2506 35.124 12.5011 35.2966 12.8125C35.3967 13.0742 35.4847 13.3257 35.5632 13.5933C35.5847 13.6656 35.6062 13.7379 35.6284 13.8124C35.6889 14.0203 35.7471 14.2287 35.8044 14.4375C35.83 14.5285 35.8555 14.6195 35.8818 14.7133C36.3594 16.803 35.9337 18.8317 35.0096 20.7166C34.1972 22.4015 34.3635 24.2667 34.8904 26.0157C34.9434 26.1626 34.9979 26.309 35.0538 26.4548C35.1935 26.824 35.2569 27.0492 35.1951 27.4375C34.9827 27.7479 34.8606 27.83 34.4905 27.9009C34.0702 27.8237 33.9465 27.6594 33.6716 27.336C33.5181 26.9888 33.5181 26.9888 33.3987 26.606C33.3776 26.5386 33.3565 26.4712 33.3347 26.4018C32.5888 23.9653 32.7204 21.5582 33.8938 19.2744C33.9682 19.1382 33.9682 19.1382 34.0442 18.9991C34.3781 18.2685 34.4219 17.5718 34.4207 16.7798C34.4206 16.6777 34.4205 16.5756 34.4204 16.4704C34.404 15.4213 34.2409 14.4085 33.8093 13.4457C33.6513 13.0687 33.6503 12.894 33.7732 12.5078C33.9807 12.1417 34.2859 12.1582 34.6837 12.1329Z" fill="black"/>
<path d="M42.914 12.3047C43.6192 13.3233 43.879 15.0416 43.9296 16.2657C43.9336 16.3364 43.9377 16.4071 43.9419 16.4799C43.9898 18.024 43.5415 19.4298 42.8593 20.7927C42.4529 21.6209 42.3667 22.3655 42.3681 23.2735C42.3681 23.3758 42.3681 23.4781 42.3681 23.5835C42.3835 24.5983 42.5904 25.4825 42.9251 26.4394C43.0517 26.8415 43.0569 27.1184 43.0155 27.5391C42.7934 27.8125 42.6515 27.8376 42.3046 27.8882C41.9196 27.8321 41.8385 27.7353 41.5936 27.4375C40.6756 25.3439 40.3497 22.7008 41.1874 20.5313C41.3502 20.1586 41.5286 19.7939 41.7083 19.4291C42.538 17.7231 42.487 15.7852 41.8892 14.0067C41.8184 13.8206 41.7469 13.6348 41.6746 13.4493C41.5703 13.1523 41.5406 12.9203 41.5936 12.6094C41.7297 12.3577 41.8249 12.2386 42.0824 12.1143C42.4038 12.0959 42.6199 12.1761 42.914 12.3047Z" fill="black"/>
<path d="M26.9689 12.2032C27.6784 12.7196 27.8712 14.0551 28.0286 14.8644C28.3634 17.109 28.0016 18.9928 27.0026 21.0355C26.2638 22.7189 26.5348 24.6731 27.153 26.3521C27.1997 26.469 27.2465 26.5859 27.2946 26.7064C27.3917 27.0979 27.3478 27.2814 27.172 27.6407C26.8175 27.877 26.6752 27.8949 26.258 27.8438C25.8114 27.5108 25.6947 27.0782 25.5343 26.5679C25.5088 26.4919 25.4833 26.4159 25.457 26.3376C24.6906 23.9762 24.8816 21.6335 25.9664 19.4289C26.8161 17.6804 26.7011 15.8509 26.1564 14.0313C26.1032 13.8854 26.0486 13.7401 25.9926 13.5953C25.8439 13.198 25.8023 12.928 25.8517 12.5078C26.0647 12.0951 26.5563 12.1183 26.9689 12.2032Z" fill="black"/>
</g>
<defs>
<clipPath id="clip0_1272_2534">
<rect width="52" height="52" fill="white" transform="translate(16 12)"/>
</clipPath>
</defs>
</svg>
