<svg width="77" height="77" viewBox="0 0 77 77" fill="none" xmlns="http://www.w3.org/2000/svg">
<path fill-rule="evenodd" clip-rule="evenodd" d="M5.85983 24.3616C12.3619 16.9332 26.5529 25.4134 37.4031 24.356C47.7796 23.3447 56.9357 12.3672 66.0463 18.4961C75.1674 24.6321 69.7228 36.6126 70.0534 46.3206C70.3859 56.0875 76.5177 68.9306 67.9274 73.7468C59.3762 78.541 48.5552 67.6554 38.1296 64.2188C28.4798 61.0379 16.9304 62.59 10.6868 54.8783C3.29872 45.7531 -0.968451 32.1626 5.85983 24.3616Z" fill="#FFDF18"/>
<path d="M36.8635 14.5361C38.3983 15.7773 39.5351 17.4608 39.789 19.4453C39.8447 20.2856 39.8218 21.1299 39.8133 21.9714C39.812 22.2258 39.8109 22.4802 39.8098 22.7347C39.8075 23.2802 39.8042 23.8257 39.8003 24.3712C39.7944 25.2344 39.7922 26.0976 39.7907 26.9608C39.7905 27.1083 39.7902 27.2558 39.7899 27.4033C39.7895 27.6267 39.7891 27.8501 39.7887 28.0735C39.7871 28.9131 39.785 29.7528 39.7825 30.5925C39.7822 30.7074 39.7822 30.7074 39.7818 30.8247C39.778 32.068 39.7702 33.3112 39.7612 34.5544C39.7521 35.834 39.7484 37.1136 39.7493 38.3932C39.7496 39.1105 39.7472 39.8275 39.7388 40.5448C39.7309 41.219 39.7294 41.893 39.733 42.5673C39.7331 42.8141 39.7309 43.061 39.726 43.3079C39.6494 44.6616 39.6494 44.6616 40.1985 45.8376C40.4303 46.0511 40.6725 46.2278 40.9381 46.3966C42.9496 47.68 44.1784 50.5794 44.6809 52.8263C45.3497 56.0951 44.7266 59.3818 42.9966 62.2219C41.2581 64.8296 38.5833 66.8864 35.4922 67.5703C31.9973 68.2594 28.4857 67.7845 25.4853 65.7766C22.595 63.7368 20.8203 60.7907 20.1724 57.3363C19.8212 53.949 20.4849 50.5576 22.6217 47.845C24.2458 45.9569 24.2458 45.9569 24.8648 45.6554C25.2046 45.3049 25.1309 44.9084 25.1258 44.4388C25.1264 44.3348 25.127 44.2308 25.1276 44.1237C25.129 43.7736 25.1274 43.4237 25.1258 43.0736C25.1262 42.8232 25.1268 42.5728 25.1276 42.3225C25.1289 41.7823 25.1288 41.2421 25.1277 40.7019C25.1262 39.9191 25.1272 39.1363 25.129 38.3535C25.1318 37.0812 25.133 35.8089 25.1329 34.5365C25.1328 34.4604 25.1328 34.3842 25.1328 34.3057C25.1328 33.9972 25.1328 33.6886 25.1327 33.3801C25.1326 32.5336 25.1328 31.687 25.1331 30.8405C25.1331 30.7648 25.1331 30.6891 25.1331 30.6111C25.1336 29.3451 25.1354 28.0791 25.1379 26.8132C25.1396 25.9642 25.1395 25.1153 25.1382 24.2663C25.1377 23.7361 25.1385 23.2059 25.1396 22.6756C25.1399 22.431 25.1396 22.1864 25.1387 21.9418C25.1275 18.6789 25.1275 18.6789 25.898 17.2633C25.9354 17.192 25.9728 17.1207 26.0114 17.0472C27.0147 15.1918 28.5287 14.0607 30.5059 13.4276C32.6368 12.8163 35.0726 13.2173 36.8635 14.5361ZM28.2878 16.941C27.335 18.0804 26.9887 19.488 26.9925 20.9392C26.9922 21.1012 26.9922 21.1012 26.992 21.2664C26.9916 21.6287 26.992 21.991 26.9923 22.3532C26.9922 22.6128 26.992 22.8724 26.9917 23.1319C26.9913 23.6186 26.991 24.1053 26.991 24.592C26.991 25.5482 26.9896 26.5043 26.9878 27.4604C26.9875 27.611 26.9873 27.7616 26.987 27.9122C26.9866 28.1404 26.9861 28.3686 26.9857 28.5968C26.9841 29.4566 26.9826 30.3165 26.9813 31.1763C26.9812 31.2549 26.9811 31.3335 26.981 31.4144C26.9791 32.6887 26.9788 33.963 26.979 35.2373C26.9791 36.5457 26.9772 37.8542 26.9735 39.1627C26.9713 39.9697 26.9707 40.7767 26.9722 41.5837C26.9732 42.2019 26.9715 42.82 26.9686 43.4381C26.9679 43.6918 26.9681 43.9455 26.9693 44.1993C26.9708 44.5451 26.969 44.8907 26.9664 45.2366C26.9682 45.3879 26.9682 45.3879 26.9701 45.5423C26.9629 46.0274 26.9529 46.2324 26.6417 46.6227C26.5492 46.6937 26.4566 46.7647 26.3613 46.8379C26.234 46.9419 26.234 46.9419 26.1041 47.0481C25.9755 47.1468 25.9755 47.1468 25.8443 47.2474C23.8342 48.8478 22.5937 50.9954 22.0644 53.498C22.0438 53.5941 22.0232 53.6902 22.0019 53.7892C21.6482 56.5729 22.2281 59.381 23.8906 61.6621C24.2567 62.1188 24.6606 62.5357 25.0722 62.9512C25.1397 63.0238 25.2071 63.0965 25.2766 63.1715C27.0053 65.0059 29.625 65.9533 32.1 66.0861C34.6937 66.1351 37.2786 65.3086 39.2519 63.5957C39.3375 63.5255 39.4231 63.4553 39.5113 63.3829C41.7268 61.5001 42.8772 58.8272 43.1191 55.9687C43.3139 53.4525 42.3529 50.8238 40.8079 48.8659C40.1037 48.0499 39.3493 47.2975 38.4723 46.6662C38.2324 46.4731 38.0836 46.2965 38.0434 45.9848C38.0434 45.8652 38.0434 45.8652 38.0434 45.7432C38.0428 45.651 38.0423 45.5588 38.0418 45.4638C38.0423 45.3624 38.0428 45.2611 38.0433 45.1567C38.0429 45.049 38.0426 44.9414 38.0423 44.8305C38.0415 44.4681 38.0422 44.1057 38.0429 43.7432C38.0426 43.4841 38.0422 43.2249 38.0417 42.9657C38.0408 42.4065 38.0406 41.8473 38.0408 41.2881C38.0411 40.4781 38.0399 39.6681 38.0382 38.8581C38.0354 37.5419 38.0332 36.2257 38.0318 34.9095C38.0317 34.8307 38.0316 34.7519 38.0315 34.6707C38.0303 33.5544 38.0298 32.4381 38.0294 31.3218C38.0294 31.2433 38.0294 31.1648 38.0294 31.084C38.0294 31.0056 38.0293 30.9272 38.0293 30.8465C38.0289 29.5366 38.0269 28.2266 38.0235 26.9167C38.0214 26.1096 38.0208 25.3024 38.0219 24.4952C38.0227 23.8753 38.0212 23.2553 38.019 22.6354C38.0184 22.382 38.0186 22.1286 38.0195 21.8753C38.0267 19.8036 37.8168 18.1249 36.3557 16.5319C35.1386 15.4104 33.6975 14.9807 32.0769 15.0116C30.5691 15.0808 29.3048 15.8678 28.2878 16.941Z" fill="black"/>
<path d="M34.2461 17.9586C34.8729 18.4019 35.2703 19.0346 35.4924 19.7676C35.5353 20.1491 35.5298 20.5268 35.5236 20.9104C35.5231 21.0242 35.5226 21.1381 35.5221 21.2554C35.5201 21.6363 35.5158 22.0171 35.5115 22.398C35.5097 22.6714 35.508 22.9447 35.5065 23.2181C35.5035 23.7304 35.4999 24.2426 35.4957 24.7549C35.4873 25.7619 35.4831 26.7689 35.4804 27.7759C35.4799 27.9347 35.4795 28.0934 35.479 28.2522C35.4784 28.4927 35.4777 28.7333 35.477 28.9739C35.4745 29.88 35.4716 30.7861 35.4681 31.6922C35.4678 31.775 35.4675 31.8578 35.4672 31.9431C35.462 33.2844 35.4516 34.6255 35.4397 35.9667C35.4276 37.3454 35.422 38.7239 35.4223 40.1026C35.4222 40.9522 35.4169 41.8014 35.4048 42.6509C35.396 43.3026 35.3962 43.9539 35.3998 44.6056C35.3999 44.8722 35.397 45.1389 35.3909 45.4054C35.3104 46.7269 35.3104 46.7269 35.7684 47.9169C36.1717 48.2889 36.6196 48.5365 37.1123 48.7708C37.61 49.0317 37.9984 49.452 38.3927 49.8457C38.4594 49.911 38.526 49.9764 38.5946 50.0437C39.9873 51.5143 40.5938 53.4752 40.6822 55.4652C40.6118 57.8255 39.6656 59.9185 37.9631 61.5547C36.2308 63.0156 34.1003 63.7383 31.84 63.5957C29.4621 63.2937 27.59 62.2447 26.0258 60.4188C24.5947 58.5673 24.181 56.3038 24.4567 54.0104C24.8251 51.8923 26.1324 49.9811 27.8523 48.7324C29.1733 47.8047 29.1733 47.8047 29.4767 47.8047C29.4766 47.7462 29.4765 47.6877 29.4764 47.6274C29.4691 44.1585 29.4636 40.6897 29.4603 37.2209C29.4599 36.8042 29.4595 36.3875 29.459 35.9708C29.4589 35.8879 29.4589 35.8049 29.4588 35.7195C29.4574 34.377 29.4548 33.0346 29.4519 31.6921C29.4489 30.3142 29.4471 28.9364 29.4464 27.5585C29.446 26.7085 29.4446 25.8586 29.442 25.0086C29.44 24.3564 29.4398 23.7043 29.4403 23.0521C29.4402 22.7849 29.4395 22.5176 29.4383 22.2504C29.4367 21.8852 29.4371 21.5201 29.438 21.1549C29.437 21.0495 29.4361 20.944 29.4351 20.8354C29.4423 19.7297 29.7238 18.9746 30.496 18.1751C31.5851 17.2317 33.0315 17.2776 34.2461 17.9586ZM31.5177 19.7676C31.2912 20.201 31.2768 20.5714 31.2785 21.0559C31.2785 21.1293 31.2784 21.2028 31.2784 21.2784C31.2786 21.5196 31.2802 21.7608 31.2819 22.002C31.2823 22.1698 31.2826 22.3377 31.2828 22.5055C31.2837 22.9461 31.2858 23.3867 31.2881 23.8273C31.2904 24.2774 31.2913 24.7274 31.2924 25.1775C31.2947 26.0597 31.2985 26.942 31.3029 27.8242C32.0828 27.8242 32.8627 27.8242 33.6662 27.8242C33.6783 26.8269 33.6882 25.8296 33.694 24.8323C33.6968 24.3691 33.7006 23.906 33.7067 23.4429C33.7125 22.9958 33.7158 22.5486 33.7171 22.1014C33.7181 21.9311 33.7201 21.7607 33.723 21.5903C33.7269 21.3512 33.7274 21.1122 33.7272 20.873C33.7284 20.737 33.7295 20.601 33.7308 20.461C33.6452 19.9694 33.4778 19.7963 33.1291 19.4453C32.5218 19.1416 32.0004 19.3522 31.5177 19.7676ZM31.3029 29.6504C31.3027 29.886 31.3026 30.1217 31.3024 30.3645C31.3007 32.5823 31.2961 34.8 31.2887 37.0178C31.285 38.158 31.2823 39.2982 31.2819 40.4385C31.2816 41.4322 31.2794 42.4259 31.2749 43.4197C31.2726 43.946 31.2713 44.4722 31.2722 44.9985C31.273 45.4938 31.2713 45.989 31.2677 46.4842C31.2668 46.6661 31.2668 46.8479 31.2678 47.0297C31.2691 47.278 31.267 47.526 31.2641 47.7743C31.2637 47.9827 31.2637 47.9827 31.2632 48.1953C31.1625 48.7327 30.8521 48.9499 30.4288 49.2642C30.3536 49.3123 30.2784 49.3605 30.201 49.4101C30.1166 49.4653 30.0323 49.5205 29.9453 49.5774C29.8131 49.6637 29.8131 49.6637 29.6781 49.7517C28.0426 50.8498 26.8294 52.0866 26.3246 54.0515C26.0154 55.8644 26.345 57.5224 27.3283 59.084C28.4154 60.5548 29.8669 61.3838 31.6428 61.728C33.3182 61.9564 34.981 61.478 36.3324 60.4691C37.7896 59.2102 38.6049 57.7846 38.8224 55.8613C38.8692 54.0088 38.2347 52.3209 36.9614 50.9707C36.3004 50.3599 35.5437 49.8728 34.7908 49.3837C34.6744 49.3079 34.5581 49.2322 34.4383 49.1542C34.3335 49.0878 34.2286 49.0215 34.1206 48.9532C33.881 48.7715 33.881 48.7715 33.7736 48.4492C33.7624 48.1986 33.7579 47.9476 33.7566 47.6968C33.7558 47.5812 33.7558 47.5812 33.755 47.4633C33.7533 47.2045 33.7525 46.9457 33.7515 46.6869C33.7505 46.5017 33.7494 46.3164 33.7483 46.1312C33.7454 45.6276 33.7432 45.1241 33.741 44.6205C33.7387 44.0945 33.7357 43.5685 33.7329 43.0424C33.7275 42.0461 33.7227 41.0497 33.718 40.0533C33.7127 38.9191 33.7068 37.7849 33.7009 36.6507C33.6886 34.3172 33.6772 31.9838 33.6662 29.6504C32.8863 29.6504 32.1064 29.6504 31.3029 29.6504Z" fill="black"/>
<path d="M55.7267 24.2268C57.3352 25.5788 58.0951 27.3098 58.3766 29.3613C58.3725 29.8427 58.2768 30.0884 58.051 30.5098C57.7148 30.6778 57.3408 30.6921 56.9767 30.6172C56.6253 30.3709 56.553 30.2128 56.4535 29.7914C56.432 29.6371 56.4118 29.4827 56.3926 29.3281C56.1694 27.8609 55.6516 26.6113 54.4322 25.7026C53.1628 24.868 51.7831 24.478 50.275 24.7824C49.2553 25.0732 48.3382 25.5121 47.631 26.3203C47.5424 26.4156 47.4538 26.5108 47.3625 26.609C46.5767 27.5708 46.3096 28.6508 46.3108 29.8617C46.31 29.9666 46.3093 30.0716 46.3086 30.1796C46.3065 30.5251 46.3061 30.8705 46.3059 31.216C46.3052 31.4575 46.3045 31.699 46.3037 31.9405C46.3024 32.4464 46.302 32.9523 46.3022 33.4583C46.3022 34.104 46.2993 34.7496 46.2956 35.3953C46.2932 35.8941 46.2927 36.393 46.2928 36.8918C46.2926 37.1297 46.2916 37.3676 46.29 37.6055C46.278 39.4909 46.401 40.9023 47.7418 42.3463C48.7428 43.3038 49.948 43.8019 51.3237 43.8636C52.7427 43.8236 53.9901 43.2396 55.0079 42.2745C55.9966 41.2045 56.3163 40.0754 56.4799 38.6612C56.5521 38.3284 56.6317 38.1634 56.8693 37.9219C57.2799 37.8078 57.5224 37.7771 57.9234 37.9286C58.227 38.1975 58.2762 38.3884 58.3732 38.7812C58.3382 40.6965 57.5709 42.4051 56.2697 43.7957C54.8685 45.1402 53.0147 45.8171 51.0832 45.7855C49.1694 45.6615 47.4415 44.8724 46.1124 43.4826C44.9705 42.1514 44.3553 40.5527 44.3667 38.8039C44.3661 38.6948 44.3656 38.5856 44.365 38.4731C44.3636 38.1161 44.3645 37.759 44.3656 37.402C44.3654 37.1514 44.3651 36.9009 44.3646 36.6504C44.3642 36.1268 44.3649 35.6032 44.3664 35.0796C44.3682 34.4113 44.3671 33.743 44.3652 33.0747C44.364 32.5578 44.3644 32.0409 44.3653 31.524C44.3655 31.2777 44.3652 31.0314 44.3645 30.7851C44.3585 28.3105 44.7292 26.5456 46.4679 24.6725C48.9341 22.2517 53.0217 22.115 55.7267 24.2268Z" fill="black"/>
<path d="M64.496 23.2051C65.1264 23.6729 65.6039 24.2595 65.785 25.0312C65.9182 26.1855 65.7766 27.0055 65.0864 27.9341C64.5434 28.5544 63.8454 28.8193 63.0412 28.9391C62.233 28.979 61.4601 28.7668 60.808 28.2828C60.0391 27.5682 59.75 26.8888 59.709 25.8436C59.7375 24.895 60.0221 24.249 60.6422 23.5408C61.7244 22.5477 63.249 22.5434 64.496 23.2051ZM61.8104 25.0312C61.522 25.4638 61.5223 25.812 61.5956 26.3203C61.818 26.6936 62.0378 26.9373 62.455 27.0722C62.8837 27.1282 63.0667 27.0905 63.4486 26.8775C63.743 26.6434 63.9335 26.4776 63.9949 26.0962C64.0023 25.6638 63.9969 25.4174 63.7709 25.0379C63.4375 24.7324 63.2402 24.6199 62.7906 24.5613C62.3642 24.6124 62.1439 24.7659 61.8104 25.0312Z" fill="black"/>
<path d="M17.5861 17.4547C17.6941 17.4542 17.8022 17.4538 17.9135 17.4534C18.1418 17.4531 18.3701 17.4539 18.5983 17.4557C18.9478 17.458 19.297 17.4557 19.6464 17.453C19.8682 17.4533 20.0901 17.4538 20.3119 17.4547C20.4164 17.4538 20.521 17.4529 20.6287 17.452C21.3502 17.462 21.3502 17.462 21.6975 17.7104C21.897 18.0138 21.9494 18.2226 21.9568 18.5859C21.7845 18.965 21.6623 19.1045 21.3123 19.3379C21.1018 19.3659 21.1018 19.3659 20.8602 19.3674C20.7695 19.3684 20.6788 19.3694 20.5853 19.3705C20.4876 19.3704 20.3899 19.3703 20.2893 19.3702C20.1885 19.3707 20.0877 19.3711 19.9838 19.3716C19.7705 19.3722 19.5572 19.3723 19.344 19.3718C19.0181 19.3715 18.6924 19.374 18.3666 19.3767C18.1593 19.377 17.952 19.377 17.7447 19.3769C17.6474 19.3779 17.5502 19.3789 17.45 19.3799C16.9325 19.3761 16.5733 19.3583 16.156 19.0156C15.988 18.6795 15.9737 18.3055 16.0486 17.9414C16.4295 17.3637 16.9603 17.4494 17.5861 17.4547Z" fill="black"/>
<path d="M17.6806 38.6167C17.7861 38.6163 17.8916 38.6159 18.0003 38.6155C18.2229 38.6152 18.4454 38.616 18.668 38.6178C19.0087 38.6201 19.3492 38.6178 19.6899 38.6151C19.9064 38.6153 20.1228 38.6159 20.3393 38.6167C20.492 38.6154 20.492 38.6154 20.6478 38.6141C21.3496 38.6241 21.3496 38.6241 21.6954 38.8691C21.9168 39.206 21.9569 39.4537 21.9569 39.8555C21.7671 40.1564 21.6313 40.3405 21.3123 40.5C21.166 40.5112 21.0192 40.5159 20.8725 40.5173C20.7364 40.5188 20.7364 40.5188 20.5975 40.5204C20.4993 40.5209 20.401 40.5213 20.2998 40.5218C20.1989 40.5224 20.0979 40.523 19.9939 40.5237C19.78 40.5247 19.5661 40.5254 19.3521 40.5258C19.0254 40.5268 18.6986 40.5302 18.3719 40.5336C18.1641 40.5343 17.9563 40.5348 17.7485 40.5352C17.651 40.5366 17.5534 40.5379 17.4528 40.5393C16.934 40.5374 16.5742 40.522 16.1561 40.1777C15.9878 39.8411 15.9572 39.4653 16.0487 39.1035C16.5287 38.5727 17.012 38.611 17.6806 38.6167Z" fill="black"/>
<path d="M17.1232 28.0218C17.2118 28.0207 17.3004 28.0197 17.3917 28.0186C17.4876 28.0182 17.5835 28.0177 17.6823 28.0173C17.7808 28.0167 17.8794 28.016 17.9809 28.0154C18.1898 28.0144 18.3987 28.0137 18.6075 28.0133C18.9265 28.0122 19.2455 28.0089 19.5644 28.0055C19.7673 28.0048 19.9702 28.0042 20.1731 28.0038C20.2683 28.0025 20.3636 28.0012 20.4617 27.9998C20.9778 28.0017 21.3229 28.0251 21.742 28.3613C21.9492 28.6344 21.9579 28.7678 21.9435 29.1133C21.8284 29.5078 21.7556 29.626 21.4198 29.8653C21.0509 29.9304 20.6858 29.9254 20.312 29.9223C20.2039 29.9227 20.0959 29.9231 19.9846 29.9236C19.7563 29.9239 19.528 29.9231 19.2998 29.9213C18.9503 29.919 18.6011 29.9213 18.2517 29.924C18.0298 29.9237 17.808 29.9232 17.5862 29.9223C17.4816 29.9232 17.3771 29.9241 17.2694 29.925C16.5463 29.9149 16.5463 29.9149 16.1979 29.6603C15.9901 29.3473 15.9882 29.1465 16.0059 28.7805C16.0711 28.469 16.2275 28.3309 16.4784 28.1465C16.7205 28.0254 16.8546 28.0243 17.1232 28.0218Z" fill="black"/>
<path d="M19.9699 43.8771C20.0911 43.8759 20.2122 43.8747 20.3371 43.8735C21.2129 43.8813 21.2129 43.8813 21.6588 44.1326C21.9241 44.4585 21.9498 44.7035 21.9572 45.1191C21.8388 45.4842 21.7508 45.5432 21.4201 45.7637C20.9607 45.8141 20.4989 45.8035 20.037 45.804C19.9098 45.8066 19.7825 45.8092 19.6514 45.8119C19.4672 45.8125 19.4672 45.8125 19.2792 45.8132C19.1671 45.8141 19.0549 45.8149 18.9394 45.8159C18.5451 45.75 18.3671 45.6184 18.09 45.334C18.0069 44.8102 17.9902 44.629 18.2788 44.1826C18.816 43.8046 19.3294 43.8635 19.9699 43.8771Z" fill="black"/>
<path d="M19.1806 33.3568C19.3082 33.3568 19.4357 33.3567 19.5671 33.3566C19.6999 33.3588 19.8327 33.3609 19.9695 33.3631C20.1023 33.3624 20.2351 33.3616 20.3719 33.3608C21.4879 33.3687 21.4879 33.3687 21.8494 33.7324C21.9643 34.1462 21.9966 34.385 21.836 34.7865C21.5501 35.12 21.2922 35.2188 20.8528 35.2583C20.5603 35.2691 20.2689 35.2709 19.9762 35.2699C19.8266 35.2725 19.8266 35.2725 19.6739 35.2751C19.1026 35.2755 18.6875 35.2418 18.1971 34.914C18.029 34.5779 18.0148 34.2039 18.0896 33.8398C18.4228 33.414 18.6486 33.3559 19.1806 33.3568Z" fill="black"/>
<path d="M19.9696 22.7149C20.0908 22.7138 20.212 22.7126 20.3368 22.7114C21.2131 22.7191 21.2131 22.7191 21.6578 22.9709C21.9295 23.3027 21.9644 23.531 21.957 23.957C21.7672 24.258 21.6314 24.442 21.3124 24.6015C20.8723 24.6363 20.4312 24.6364 19.9898 24.6418C19.8059 24.6478 19.8059 24.6478 19.6182 24.654C18.7144 24.6635 18.7144 24.6635 18.2773 24.354C18.0283 23.9696 18.0095 23.7622 18.0898 23.3125C18.5572 22.5989 19.1984 22.6986 19.9696 22.7149Z" fill="black"/>
</svg>
