<svg width="77" height="77" viewBox="0 0 77 77" fill="none" xmlns="http://www.w3.org/2000/svg">
<path fill-rule="evenodd" clip-rule="evenodd" d="M5.85983 24.3616C12.3619 16.9332 26.5529 25.4134 37.4031 24.356C47.7796 23.3447 56.9357 12.3672 66.0463 18.4961C75.1674 24.6321 69.7228 36.6126 70.0534 46.3206C70.3859 56.0875 76.5177 68.9306 67.9274 73.7468C59.3762 78.541 48.5552 67.6554 38.1296 64.2188C28.4798 61.0379 16.9304 62.59 10.6868 54.8783C3.29872 45.7531 -0.968451 32.1626 5.85983 24.3616Z" fill="#FFDF18"/>
<g clip-path="url(#clip0_1272_2549)">
<path d="M38.4665 12.0406C38.6072 12.0412 38.7479 12.0417 38.8929 12.0422C40.0068 12.0556 41.0671 12.1466 42.1524 12.3965C42.2717 12.4233 42.2717 12.4233 42.3935 12.4506C46.5489 13.4139 50.1924 16.0562 52.4833 19.6349C53.2745 20.9064 53.8556 22.2442 54.291 23.6758C54.3126 23.7467 54.3342 23.8176 54.3565 23.8907C55.6556 28.3224 54.7396 33.1028 52.5872 37.0964C52.407 37.4233 52.2222 37.7473 52.0352 38.0703C52.1117 38.099 52.1882 38.1277 52.267 38.1572C52.5812 38.2889 52.8654 38.4427 53.1602 38.6133C53.2735 38.6787 53.3869 38.7442 53.5037 38.8116C53.6239 38.8816 53.7442 38.9516 53.8681 39.0237C53.9932 39.0962 54.1183 39.1687 54.2434 39.2412C56.3885 40.4864 56.3885 40.4864 57.2889 41.0531C57.5088 41.1897 57.5088 41.1897 57.7408 41.2798C58.2185 41.5001 58.423 41.7587 58.6209 42.248C58.7666 42.6468 58.8955 43.0504 59.0243 43.4548C59.0865 43.6419 59.149 43.8289 59.2118 44.0158C59.3542 44.4406 59.4951 44.8659 59.6352 45.2915C59.901 46.0958 60.176 46.8968 60.4519 47.6976C60.4897 47.8073 60.4897 47.8074 60.5282 47.9193C60.6321 48.2209 60.736 48.5224 60.8399 48.8239C61.1078 49.6013 61.3744 50.3792 61.641 51.1571C62.1905 52.7604 62.7419 54.3631 63.2952 55.9651C63.4205 56.3281 63.5456 56.691 63.6707 57.054C64.0662 58.2005 64.4659 59.3452 64.8734 60.4875C64.9869 60.8072 65.1004 61.127 65.2138 61.4468C65.3186 61.7407 65.4248 62.034 65.5311 62.3273C65.5939 62.504 65.6566 62.6807 65.7193 62.8575C65.7624 62.9742 65.7624 62.9742 65.8064 63.0933C65.9896 63.6167 66.036 64.0484 66 64.6035C65.8792 64.8184 65.8792 64.8184 65.6778 64.9258C65.1413 64.9766 64.8478 64.8624 64.3908 64.5867C64.3305 64.5509 64.2702 64.5151 64.2081 64.4782C64.0101 64.3601 63.8134 64.2401 63.6166 64.1201C63.4769 64.0363 63.337 63.9527 63.1971 63.8691C62.9095 63.6972 62.6224 63.5245 62.3356 63.3513C61.8382 63.051 61.3379 62.7555 60.8376 62.4601C60.2954 62.1399 59.7541 61.8183 59.2127 61.4967C58.9385 61.3338 58.6642 61.171 58.3899 61.0081C57.8816 60.7064 57.3734 60.4046 56.8651 60.1028C55.7716 59.4533 54.6777 58.8048 53.5834 58.1567C53.472 58.0907 53.3606 58.0248 53.2458 57.9568C53.149 57.8994 53.0521 57.8421 52.9524 57.7831C52.6797 57.6211 52.6797 57.6211 52.4161 57.4323C52.0563 57.2567 51.879 57.297 51.4981 57.4062C51.2226 57.5342 51.2226 57.5342 50.9572 57.705C50.8541 57.768 50.751 57.831 50.6447 57.8959C50.5342 57.9647 50.4236 58.0336 50.3097 58.1045C50.1314 58.2136 49.9531 58.3227 49.7746 58.4315C49.6493 58.5079 49.524 58.5845 49.3988 58.6611C48.7345 59.0673 48.0627 59.4605 47.3901 59.8529C46.4295 60.4133 45.4708 60.9763 44.5186 61.5508C43.7836 61.9933 43.0448 62.4296 42.3058 62.8655C41.6999 63.2231 41.0957 63.583 40.4957 63.9506C40.3887 64.0156 40.2817 64.0805 40.1714 64.1475C39.9709 64.2694 39.771 64.3923 39.5719 64.5165C39.4823 64.5707 39.3926 64.6249 39.3002 64.6807C39.2231 64.7283 39.1459 64.7758 39.0664 64.8249C38.7444 64.958 38.5241 64.9638 38.1778 64.9258C37.8646 64.7854 37.8646 64.7854 37.5353 64.5867C37.475 64.5509 37.4147 64.5151 37.3526 64.4782C37.1547 64.3601 36.9579 64.2401 36.7611 64.1201C36.6214 64.0363 36.4816 63.9527 36.3416 63.8691C36.0541 63.6972 35.7669 63.5245 35.4801 63.3513C34.9827 63.051 34.4825 62.7555 33.9821 62.4601C33.4399 62.1399 32.8986 61.8183 32.3572 61.4967C32.083 61.3338 31.8087 61.171 31.5344 61.0081C31.0261 60.7064 30.5179 60.4046 30.0097 60.1028C28.9162 59.4533 27.8222 58.8048 26.7279 58.1567C26.6165 58.0907 26.5051 58.0248 26.3903 57.9568C26.2935 57.8994 26.1967 57.8421 26.0969 57.7831C25.8242 57.6211 25.8242 57.6211 25.5606 57.4323C25.2008 57.2567 25.0235 57.297 24.6426 57.4062C24.3672 57.5342 24.3672 57.5342 24.1017 57.705C23.947 57.7995 23.947 57.7995 23.7893 57.8959C23.6787 57.9647 23.5682 58.0336 23.4542 58.1045C23.2759 58.2136 23.0976 58.3227 22.9191 58.4315C22.7938 58.5079 22.6686 58.5845 22.5434 58.6611C21.879 59.0673 21.2072 59.4605 20.5346 59.8529C19.5741 60.4133 18.6154 60.9763 17.6631 61.5508C16.9281 61.9933 16.1893 62.4296 15.4503 62.8655C14.8444 63.2231 14.2402 63.583 13.6403 63.9506C13.5332 64.0156 13.4262 64.0805 13.3159 64.1475C13.1154 64.2694 12.9155 64.3923 12.7164 64.5165C11.8879 65.0172 11.8879 65.0172 11.3223 64.9258C11.1209 64.8184 11.1209 64.8184 11 64.6035C10.9557 63.9407 11.0635 63.4456 11.2921 62.8273C11.3231 62.7398 11.3542 62.6523 11.3862 62.5621C11.4536 62.3726 11.5217 62.1833 11.5903 61.9942C11.7389 61.5844 11.8845 61.1736 12.0303 60.7628C12.1072 60.5462 12.1843 60.3296 12.2615 60.1131C12.6396 59.0511 13.0028 57.9842 13.3639 56.9163C13.9776 55.1021 14.6013 53.2916 15.2347 51.4842C15.7023 50.1496 16.1628 48.8127 16.6162 47.4732C16.7643 47.036 16.9146 46.5996 17.0668 46.1638C17.5145 44.8789 17.5145 44.8789 17.8624 43.5648C18.1777 42.2484 18.6469 41.5946 19.7851 40.8962C20.3089 40.5887 20.8451 40.3061 21.3868 40.0315C22.1526 39.6431 22.8788 39.1998 23.6087 38.7484C23.8262 38.6153 24.0441 38.4828 24.2624 38.351C24.3519 38.2965 24.4414 38.242 24.5337 38.1858C24.75 38.0703 24.75 38.0703 24.9649 38.0703C24.9238 37.9959 24.8828 37.9216 24.8405 37.845C22.4415 33.4628 21.3041 28.7263 22.6507 23.787C23.8971 19.5678 26.7119 16.1127 30.576 14.0049C33.0428 12.6979 35.6679 12.0281 38.4665 12.0406ZM35.0625 13.793C34.9867 13.8114 34.9108 13.8298 34.8326 13.8488C32.2654 14.4957 30.0136 15.7487 28.0801 17.5527C27.9844 17.6397 27.8887 17.7266 27.7901 17.8162C24.9721 20.4883 23.6056 24.2635 23.461 28.0801C23.3924 32.0127 24.8828 35.9537 27.4356 38.9297C27.5376 39.0502 27.6395 39.1708 27.7415 39.2914C28.2288 39.8655 28.7215 40.4337 29.2282 40.9908C29.5516 41.3468 29.8596 41.7108 30.1614 42.0852C30.5569 42.5744 30.9729 43.0372 31.4011 43.4974C31.7203 43.8424 32.0224 44.1962 32.3166 44.5626C32.6781 45.0122 33.0571 45.4376 33.4512 45.8584C33.9302 46.3698 34.3791 46.8966 34.8179 47.4433C35.086 47.7665 35.3673 48.0755 35.6533 48.3828C36.1106 48.8741 36.5379 49.3824 36.9588 49.9056C37.4157 50.4553 37.9049 50.9757 38.3926 51.498C38.8026 51.332 39.0339 51.0804 39.3258 50.7528C39.3727 50.7004 39.4196 50.648 39.4679 50.5939C39.8632 50.1483 40.2371 49.6861 40.6111 49.2225C40.9301 48.8398 41.267 48.4765 41.6062 48.1119C41.9254 47.767 42.2275 47.4132 42.5216 47.0467C42.9345 46.5334 43.3737 46.0527 43.8237 45.5722C44.1585 45.2127 44.4765 44.8454 44.7842 44.4619C45.1433 44.0143 45.5202 43.5913 45.9121 43.1728C46.3911 42.6614 46.84 42.1346 47.2788 41.5879C47.5469 41.2647 47.8283 40.9558 48.1143 40.6484C48.6601 40.0601 49.1747 39.4525 49.6719 38.8223C49.7501 38.7245 49.8284 38.6267 49.909 38.526C52.6216 35.0391 53.9132 30.7007 53.4082 26.3059C52.9022 22.4921 50.899 18.9994 47.8749 16.6236C45.7485 15.0052 43.3913 14.0168 40.7559 13.5781C40.6422 13.5575 40.5285 13.5369 40.4114 13.5156C38.6474 13.3212 36.7898 13.3713 35.0625 13.793ZM25.1277 39.4987C25.0025 39.5753 24.8773 39.6519 24.7522 39.7285C24.6861 39.7691 24.62 39.8097 24.5519 39.8515C23.4315 40.5387 22.3058 41.213 21.1595 41.8562C21.0751 41.9037 20.9907 41.9511 20.9038 42C20.8318 42.0401 20.7598 42.0803 20.6857 42.1216C20.6089 42.1672 20.5322 42.2128 20.4531 42.2598C20.3479 42.3088 20.2427 42.3578 20.1343 42.4084C19.6095 42.7657 19.4909 43.4353 19.3038 44.0091C19.2342 44.2133 19.1645 44.4175 19.0948 44.6216C19.022 44.8361 18.9502 45.0509 18.8787 45.2658C18.7171 45.7508 18.5498 46.2338 18.3823 46.7168C18.2125 47.2069 18.0438 47.6975 17.8759 48.1883C17.8513 48.2602 17.8268 48.332 17.8014 48.4061C17.751 48.5536 17.7006 48.701 17.6501 48.8485C17.5174 49.2366 17.3844 49.6246 17.2514 50.0126C17.1967 50.1722 17.142 50.3318 17.0873 50.4914C17.0465 50.6106 17.0465 50.6106 17.0048 50.7322C16.9221 50.9736 16.8394 51.215 16.7567 51.4563C16.2103 53.0512 15.6619 54.6454 15.113 56.2394C14.9985 56.572 14.884 56.9045 14.7695 57.2371C14.726 57.3634 14.6825 57.4896 14.6377 57.6197C14.553 57.866 14.4683 58.1124 14.3837 58.3588C14.1675 58.9881 13.9483 59.6163 13.7249 60.2432C13.6793 60.3721 13.6337 60.5009 13.5868 60.6337C13.4996 60.88 13.4116 61.126 13.3227 61.3717C13.2648 61.5358 13.2648 61.5358 13.2057 61.7033C13.1712 61.7995 13.1367 61.8957 13.1012 61.9949C13.0142 62.2553 13.0142 62.2553 13.1485 62.5625C14.5144 61.7793 15.8793 60.995 17.2274 60.1814C17.9225 59.762 18.6196 59.3462 19.3177 58.9321C19.6134 58.7567 19.9087 58.5805 20.2036 58.4037C20.8546 58.0144 21.506 57.6287 22.1727 57.2668C22.4433 57.1197 22.7123 56.9697 22.9812 56.8196C23.1668 56.7177 23.3548 56.6203 23.5428 56.5231C23.655 56.4602 23.7671 56.3972 23.8827 56.3324C23.9806 56.2802 24.0786 56.2279 24.1795 56.1741C24.4551 55.8724 24.4946 55.7176 24.5864 55.3265C24.6137 55.2106 24.641 55.0946 24.6692 54.9752C24.7979 54.3988 24.9204 53.8215 25.0382 53.2428C25.065 53.1125 25.0918 52.9822 25.1193 52.848C25.2067 52.4217 25.2936 51.9954 25.3803 51.569C25.4025 51.4596 25.4025 51.4596 25.4252 51.3481C25.5651 50.6598 25.7047 49.9714 25.8436 49.2829C26.0207 48.406 26.1991 47.5294 26.3794 46.6532C26.5065 46.0345 26.6321 45.4154 26.7565 44.7961C26.8307 44.4271 26.9056 44.0582 26.9821 43.6897C27.0673 43.2798 27.1492 42.8693 27.2307 42.4587C27.2565 42.3371 27.2823 42.2155 27.3088 42.0902C27.3413 41.9224 27.3413 41.9224 27.3745 41.7512C27.3942 41.6544 27.4139 41.5575 27.4342 41.4577C27.4367 40.967 27.111 40.6253 26.8036 40.267C26.747 40.2009 26.6904 40.1348 26.632 40.0666C26.5737 39.9994 26.5154 39.9322 26.4553 39.8629C26.3667 39.7589 26.3667 39.7589 26.2762 39.6529C26.1282 39.4811 25.9765 39.3125 25.8242 39.1445C25.5875 39.1445 25.3174 39.382 25.1277 39.4987ZM51.1758 39.1445C50.9468 39.4035 50.7188 39.6633 50.491 39.9233C50.3938 40.0332 50.3938 40.0332 50.2946 40.1453C50.2323 40.2166 50.17 40.2879 50.1058 40.3614C50.0484 40.4267 49.991 40.4919 49.9319 40.5592C49.6939 40.866 49.5567 41.0653 49.5824 41.464C49.6036 41.5701 49.6248 41.6762 49.6466 41.7856C49.6702 41.9077 49.6939 42.0299 49.7182 42.1557C49.7456 42.2893 49.773 42.4228 49.8012 42.5604C49.8294 42.7028 49.8574 42.8452 49.8853 42.9877C49.9614 43.3744 50.0394 43.7606 50.1178 44.1469C50.1995 44.551 50.2798 44.9554 50.3603 45.3597C50.4958 46.0387 50.6324 46.7175 50.7697 47.3962C50.9285 48.1809 51.0854 48.966 51.2413 49.7514C51.3912 50.5067 51.5425 51.2616 51.6945 52.0165C51.7592 52.3379 51.8233 52.6593 51.8871 52.9808C51.9622 53.3594 52.0386 53.7377 52.1159 54.1159C52.1575 54.321 52.1979 54.5264 52.2383 54.7319C52.2761 54.9146 52.2761 54.9146 52.3146 55.1011C52.3359 55.2072 52.3573 55.3133 52.3793 55.4226C52.5242 55.8713 52.8208 56.0461 53.2147 56.275C53.3464 56.3521 53.3464 56.3521 53.4808 56.4308C53.5776 56.4868 53.6744 56.5428 53.7741 56.6006C53.9889 56.7263 54.2038 56.852 54.4186 56.9778C54.5358 57.0463 54.6529 57.1147 54.7736 57.1853C55.3895 57.5459 56.0026 57.9113 56.6161 58.2761C56.9847 58.4953 57.3535 58.7142 57.7222 58.9332C57.7951 58.9765 57.8679 59.0198 57.943 59.0643C59.911 60.233 61.8807 61.3988 63.8516 62.5625C63.975 62.1922 63.9422 62.1121 63.8193 61.7543C63.7857 61.6551 63.7521 61.5558 63.7175 61.4536C63.6798 61.3454 63.642 61.2372 63.6032 61.1257C63.5645 61.0124 63.5258 60.8991 63.486 60.7823C63.3581 60.4086 63.2289 60.0354 63.0996 59.6621C63.0103 59.4018 62.921 59.1415 62.8318 58.8811C62.2311 57.1312 61.6224 55.384 61.0104 53.638C60.5498 52.3231 60.0983 51.0053 59.6508 49.6858C59.3675 48.8509 59.083 48.0163 58.7985 47.1817C58.6958 46.8802 58.5933 46.5785 58.4909 46.2769C58.3307 45.8058 58.1692 45.3351 58.0067 44.8648C57.9472 44.6921 57.8882 44.5192 57.8297 44.3462C57.7496 44.1098 57.6679 43.874 57.5859 43.6382C57.5406 43.5061 57.4952 43.3739 57.4485 43.2378C57.2174 42.7228 56.8919 42.4652 56.4122 42.1876C56.3218 42.1347 56.2313 42.0819 56.1381 42.0274C56.0404 41.9712 55.9426 41.9149 55.8419 41.8569C55.6306 41.7337 55.4192 41.6105 55.2079 41.4872C55.0389 41.389 55.0389 41.389 54.8664 41.2887C54.4832 41.0649 54.1014 40.8388 53.7199 40.6119C53.6545 40.573 53.589 40.5341 53.5216 40.494C53.2619 40.3395 53.0023 40.1851 52.7428 40.0305C52.5615 39.9226 52.3802 39.8149 52.1988 39.7072C52.0425 39.6142 52.0425 39.6142 51.883 39.5194C51.6505 39.3853 51.4175 39.261 51.1758 39.1445ZM28.5098 42.4746C28.1729 44.144 27.8367 45.8136 27.5014 47.4834C27.3456 48.2587 27.1897 49.034 27.0332 49.8091C26.8967 50.4849 26.7607 51.1607 26.6253 51.8366C26.5535 52.1944 26.4816 52.5521 26.4091 52.9098C26.3283 53.3093 26.2482 53.709 26.1683 54.1087C26.1442 54.227 26.1201 54.3452 26.0953 54.467C25.9364 55.2321 25.9364 55.2321 25.9317 56.0098C26.0905 56.192 26.0905 56.192 26.3278 56.3064C26.4166 56.3568 26.5055 56.4072 26.597 56.4591C26.6965 56.5124 26.796 56.5658 26.8985 56.6207C27.1163 56.7433 27.3341 56.8662 27.5518 56.9891C27.671 57.0556 27.7902 57.122 27.9129 57.1905C28.5359 57.5401 29.1475 57.9093 29.7607 58.2756C30.1299 58.496 30.4996 58.7154 30.8693 58.9349C30.9423 58.9783 31.0153 59.0216 31.0905 59.0663C31.5571 59.3434 32.0242 59.6199 32.4915 59.8958C33.4898 60.4856 34.4874 61.076 35.4779 61.6788C35.5829 61.7426 35.5829 61.7426 35.69 61.8078C36.0301 62.0149 36.3699 62.2224 36.7094 62.4304C36.89 62.5406 36.89 62.5406 37.0742 62.6531C37.1812 62.7187 37.2881 62.7843 37.3984 62.8518C37.6095 63.0012 37.6095 63.0012 37.7481 62.9922C37.7705 61.6961 37.7877 60.4 37.7982 59.1037C37.8032 58.5017 37.81 57.8998 37.821 57.2978C37.8316 56.7162 37.8373 56.1348 37.8398 55.5531C37.8416 55.3319 37.845 55.1107 37.8503 54.8895C37.9088 53.4367 37.9088 53.4367 37.2787 52.1807C37.1172 52.0203 36.9518 51.8636 36.7813 51.7129C36.6736 51.5955 36.567 51.4771 36.4624 51.357C36.3278 51.2141 36.3278 51.2141 36.1905 51.0684C35.8193 50.6703 35.4637 50.2643 35.1229 49.8397C34.7614 49.3902 34.3824 48.9647 33.9883 48.5439C33.5093 48.0325 33.0604 47.5057 32.6216 46.959C32.3535 46.6358 32.0722 46.3268 31.7862 46.0195C31.4154 45.6211 31.0594 45.2155 30.7187 44.7909C30.291 44.2586 29.8357 43.7582 29.3675 43.2616C29.129 43.0077 28.9185 42.7654 28.7246 42.4746C28.6537 42.4746 28.5828 42.4746 28.5098 42.4746ZM48.2754 42.4746C48.0707 42.6965 47.8768 42.9202 47.6846 43.1527C47.5677 43.2919 47.4506 43.4309 47.3334 43.5698C47.2749 43.6392 47.2163 43.7086 47.156 43.7801C46.92 44.0561 46.6754 44.3227 46.4291 44.5895C46.0844 44.9649 45.7552 45.3474 45.4354 45.7443C45.0424 46.2316 44.6286 46.6918 44.2024 47.1498C43.8833 47.4947 43.5811 47.8485 43.287 48.215C42.8742 48.7282 42.4351 49.2089 41.9852 49.6892C41.5648 50.1407 41.1745 50.6109 40.7886 51.0923C40.4564 51.4927 40.105 51.8736 39.7492 52.2532C39.2104 52.8304 39.1137 53.1802 39.1202 53.9556C39.1201 54.0531 39.1201 54.1506 39.1201 54.251C39.1202 54.5736 39.1219 54.8962 39.1236 55.2188C39.124 55.4423 39.1243 55.6658 39.1245 55.8893C39.1253 56.478 39.1274 57.0666 39.1298 57.6552C39.132 58.2557 39.133 58.8562 39.1341 59.4567C39.1364 60.6352 39.14 61.8137 39.1446 62.9922C39.4985 62.8534 39.8226 62.7064 40.1491 62.5113C40.2839 62.4312 40.2839 62.4312 40.4214 62.3495C40.5185 62.2913 40.6156 62.2331 40.7156 62.1731C40.9299 62.0455 41.1442 61.918 41.3585 61.7904C41.471 61.7232 41.5835 61.6561 41.6994 61.5869C42.1566 61.3143 42.6147 61.0431 43.0728 60.772C43.6301 60.4421 44.1871 60.1117 44.7442 59.7814C44.9516 59.6584 45.159 59.5354 45.3664 59.4125C47.2704 58.2838 49.1718 57.1509 51.0684 56.0098C51.0097 55.1784 50.8886 54.3761 50.722 53.56C50.6978 53.4393 50.6737 53.3186 50.6489 53.1943C50.5698 52.7995 50.4899 52.405 50.41 52.0104C50.3547 51.7351 50.2995 51.4598 50.2443 51.1846C50.1143 50.5366 49.9837 49.8888 49.8528 49.241C49.7037 48.5027 49.5553 47.7644 49.407 47.026C49.1022 45.5087 48.7965 43.9916 48.4903 42.4746C48.4194 42.4746 48.3485 42.4746 48.2754 42.4746Z" fill="black"/>
<path d="M43.8344 22.9268C45.4614 24.3174 46.5316 26.2707 46.7713 28.4024C46.9282 30.9473 46.2534 33.1199 44.6027 35.0827C43.1754 36.6133 41.0925 37.5732 39.0071 37.6662C37.8388 37.6937 36.8191 37.5673 35.7068 37.211C35.6078 37.1799 35.5088 37.1489 35.4068 37.117C33.4275 36.4121 31.9669 34.8338 31.0004 33.0215C30.0411 30.9902 29.9375 28.6838 30.6651 26.5649C31.5137 24.4001 32.9291 22.7749 35.0455 21.7724C38.0326 20.5598 41.2547 20.9607 43.8344 22.9268ZM33.2697 24.8306C31.9601 26.4119 31.4978 28.2087 31.6248 30.2285C31.8445 32.0043 32.8026 33.6398 34.176 34.7772C35.8485 36.0083 37.6775 36.4522 39.7288 36.1984C41.5897 35.8263 43.2288 34.7293 44.2838 33.1558C45.2913 31.5165 45.6393 29.6913 45.2606 27.7981C44.7638 25.9244 43.6071 24.3968 41.9641 23.3871C39.0248 21.7314 35.5509 22.3929 33.2697 24.8306Z" fill="black"/>
</g>
<defs>
<clipPath id="clip0_1272_2549">
<rect width="55" height="55" fill="white" transform="translate(11 11)"/>
</clipPath>
</defs>
</svg>
