<svg width="77" height="77" viewBox="0 0 77 77" fill="none" xmlns="http://www.w3.org/2000/svg">
<path fill-rule="evenodd" clip-rule="evenodd" d="M5.85983 24.3616C12.3619 16.9332 26.5529 25.4134 37.4031 24.356C47.7796 23.3447 56.9357 12.3672 66.0463 18.4961C75.1674 24.6321 69.7228 36.6126 70.0534 46.3206C70.3859 56.0875 76.5177 68.9306 67.9274 73.7468C59.3762 78.541 48.5552 67.6554 38.1296 64.2188C28.4798 61.0379 16.9304 62.59 10.6868 54.8783C3.29872 45.7531 -0.968451 32.1626 5.85983 24.3616Z" fill="#FFDF18"/>
<g clip-path="url(#clip0_1271_2346)">
<path d="M35.5213 11.9556C35.6278 11.9564 35.7343 11.9572 35.844 11.9581C37.856 12.0016 39.5428 12.818 40.9478 14.2582C42.2153 15.7279 42.8144 17.591 42.7576 19.5156C42.6332 21.1893 42.0163 22.6019 40.9295 23.8828C40.8659 23.958 40.8023 24.0331 40.7367 24.1105C39.5358 25.4127 37.7499 26.1316 36.0045 26.241C35.0054 26.2659 34.0339 26.1457 33.0794 25.8393C32.6902 25.8013 32.4832 25.937 32.1396 26.1196C32.075 26.1534 32.0103 26.1872 31.9437 26.222C31.7306 26.3339 31.5186 26.4477 31.3065 26.5615C31.1583 26.6396 31.01 26.7176 30.8617 26.7954C30.551 26.9585 30.2407 27.1223 29.9307 27.2866C29.2277 27.6588 28.5214 28.0245 27.8146 28.3893C27.5958 28.5025 27.3774 28.6163 27.159 28.7302C27.0248 28.7997 26.8906 28.8692 26.7564 28.9387C26.6394 28.9995 26.5225 29.0603 26.402 29.123C26.1014 29.2656 26.1014 29.2656 25.6951 29.3672C25.6951 32.5512 25.6951 35.7351 25.6951 39.0156C26.0303 38.9486 26.3655 38.8816 26.7108 38.8125C27.0668 38.7784 27.4196 38.7786 27.7772 38.7808C27.8733 38.781 27.9695 38.7813 28.0686 38.7816C29.1112 38.7968 30.1409 38.9295 31.1422 39.2267C31.8036 39.4077 32.5213 39.4447 33.1536 39.1489C33.7172 38.8169 34.195 38.3445 34.3856 37.7051C34.444 37.4221 34.4459 37.141 34.4538 36.8529C34.5117 34.9243 34.9395 33.2957 36.3933 31.9253C37.765 30.799 39.5004 30.4708 41.2342 30.5859C42.6847 30.7436 44.0838 31.1862 45.3487 31.9122C45.5927 32.0368 45.5927 32.0368 45.8 31.9299C46.0024 31.8079 46.1615 31.6826 46.3334 31.5211C46.3954 31.4632 46.4573 31.4054 46.5211 31.3458C46.5879 31.2825 46.6546 31.2191 46.7234 31.1539C46.7946 31.0869 46.8659 31.02 46.9392 30.951C47.5974 30.3301 48.2479 29.7011 48.896 29.0698C49.3307 28.6466 49.7674 28.2263 50.2106 27.8121C52.4903 25.8936 52.4903 25.8936 53.5793 23.2756C53.5638 22.838 53.5034 22.4176 53.4308 21.9864C53.4217 21.75 53.4217 21.75 53.6353 21.4416C53.8971 21.2641 54.15 21.0967 54.4302 20.9502C54.5748 20.8734 54.5748 20.8734 54.7222 20.7951C54.8251 20.7416 54.928 20.688 55.034 20.6328C55.2536 20.5162 55.4732 20.3994 55.6926 20.2825C55.8045 20.223 55.9163 20.1635 56.0316 20.1022C56.5582 19.8191 57.0785 19.5252 57.5985 19.23C57.6954 19.1751 57.7923 19.1203 57.8922 19.0638C58.3113 18.8263 58.7292 18.5872 59.1437 18.3417C59.2087 18.3035 59.2737 18.2653 59.3407 18.226C59.5064 18.1282 59.6714 18.0293 59.8364 17.9303C60.1515 17.776 60.3832 17.7005 60.7342 17.6875C61.2752 17.9365 61.6711 18.3865 62.0878 18.8003C62.168 18.8796 62.2482 18.9589 62.3309 19.0406C62.4998 19.208 62.6685 19.3758 62.8369 19.5438C63.0948 19.8005 63.3546 20.0553 63.6145 20.3101C63.7786 20.4732 63.9425 20.6365 64.1064 20.7998C64.2232 20.9136 64.2232 20.9136 64.3423 21.0298C64.8725 21.5645 64.8725 21.5645 65.0034 21.9909C64.9992 22.3098 64.9354 22.4786 64.784 22.7593C64.7269 22.8661 64.6699 22.9729 64.611 23.083C64.5378 23.2143 64.4642 23.3455 64.3905 23.4766C64.3467 23.5547 64.3029 23.6329 64.2578 23.7134C64.048 24.087 63.8374 24.46 63.6254 24.8323C63.2903 25.4206 62.9595 26.0109 62.6337 26.6044C62.5971 26.671 62.5605 26.7377 62.5228 26.8064C62.3774 27.0714 62.232 27.3364 62.0873 27.6018C61.9864 27.7866 61.8852 27.9713 61.784 28.156C61.7259 28.2624 61.6678 28.3688 61.608 28.4784C61.2248 29.1359 61.2248 29.1359 60.8358 29.2656C60.6554 29.2617 60.4752 29.2522 60.2952 29.2396C59.2363 29.1963 58.2888 29.1662 57.4326 29.8584C57.0327 30.2286 56.6617 30.62 56.2932 31.0211C56.1291 31.19 55.9643 31.3584 55.799 31.5262C55.3701 31.9648 54.9493 32.4104 54.5299 32.8581C54.0988 33.3154 53.6601 33.7655 53.2222 34.2162C52.3672 35.0982 51.5208 35.9878 50.6795 36.8828C50.8095 37.2835 50.9559 37.6636 51.1327 38.0462C51.6247 39.1149 52.0507 40.2656 52.1014 41.4531C52.1093 41.62 52.1093 41.62 52.1173 41.7903C52.1631 43.6494 51.6879 45.2863 50.4002 46.6518C49.1445 47.8481 47.5988 48.1626 45.9227 48.1999C45.231 48.2265 44.6485 48.339 44.1034 48.7974C43.4336 49.5973 43.2839 50.1777 43.367 51.2031C43.4346 51.5749 43.5243 51.9406 43.6198 52.3061C44.2538 54.7346 43.9441 57.4617 42.7323 59.6582C42.0087 60.8359 41.012 61.8012 39.8123 62.4766C39.8826 62.4767 39.9529 62.4769 40.0253 62.477C41.735 62.4808 43.4447 62.4868 45.1543 62.4952C45.9811 62.4993 46.8079 62.5026 47.6347 62.5041C48.3553 62.5054 49.0758 62.5081 49.7964 62.5126C50.1779 62.5149 50.5595 62.5165 50.9411 62.5164C51.3669 62.5163 51.7927 62.5193 52.2185 62.5227C52.3453 62.5222 52.472 62.5216 52.6026 62.5211C52.7185 62.5225 52.8345 62.5239 52.9539 62.5254C53.0546 62.5258 53.1554 62.5262 53.2592 62.5265C53.5982 62.5927 53.7197 62.7147 53.9295 62.9844C53.9785 63.3204 53.9732 63.5121 53.8124 63.8127C53.5494 64.0753 53.3841 64.0509 53.0163 64.0511C52.8883 64.0522 52.7603 64.0532 52.6284 64.0543C52.4856 64.0534 52.3428 64.0525 52.1999 64.0516C52.0488 64.052 51.8977 64.0527 51.7466 64.0535C51.3302 64.0552 50.9139 64.0544 50.4976 64.0531C50.0489 64.0522 49.6003 64.0536 49.1517 64.0547C48.2721 64.0565 47.3926 64.0561 46.513 64.0549C45.7979 64.054 45.0829 64.0539 44.3678 64.0544C44.2661 64.0544 44.1645 64.0545 44.0597 64.0545C43.8532 64.0547 43.6466 64.0548 43.4401 64.0549C41.5012 64.0561 39.5623 64.0548 37.6235 64.0526C35.9606 64.0508 34.2976 64.0511 32.6347 64.053C30.7042 64.0551 28.7736 64.056 26.8431 64.0547C26.6371 64.0546 26.431 64.0545 26.225 64.0544C26.1236 64.0543 26.0222 64.0542 25.9178 64.0542C25.2041 64.0538 24.4905 64.0544 23.7769 64.0554C22.9063 64.0565 22.0357 64.0562 21.1651 64.054C20.7211 64.053 20.2771 64.0525 19.833 64.0539C19.426 64.0551 19.0191 64.0544 18.6121 64.0523C18.4653 64.0518 18.3186 64.052 18.1718 64.053C16.7726 64.0617 15.5274 63.7228 14.4777 62.7551C13.2583 61.4692 12.9836 60.0411 12.9863 58.3241C12.986 58.2149 12.9858 58.1058 12.9856 57.9934C12.9849 57.6289 12.985 57.2644 12.9851 56.9C12.9848 56.6382 12.9844 56.3764 12.984 56.1146C12.9832 55.478 12.9829 54.8414 12.9829 54.2049C12.9828 53.6873 12.9826 53.1697 12.9823 52.6522C12.9814 51.1835 12.9809 49.7148 12.981 48.2461C12.981 48.167 12.981 48.0879 12.981 48.0064C12.981 47.8877 12.981 47.8877 12.981 47.7665C12.9811 46.4829 12.9801 45.1993 12.9787 43.9156C12.9772 42.5964 12.9765 41.2771 12.9766 39.9578C12.9766 39.2176 12.9764 38.4775 12.9753 37.7373C12.9742 37.0413 12.9743 36.3453 12.975 35.6493C12.9751 35.3941 12.9749 35.1388 12.9743 34.8835C12.9735 34.5348 12.9739 34.186 12.9747 33.8372C12.9742 33.7365 12.9737 33.6358 12.9731 33.532C12.9778 32.5906 13.0875 31.7308 13.7108 30.9922C14.1084 30.6251 14.4862 30.2773 15.0311 30.1797C15.0069 30.0764 15.0069 30.0764 14.9823 29.971C14.7826 28.8392 14.8855 27.7742 15.4853 26.7845C16.1668 25.8275 17.262 25.2698 18.2367 24.6509C18.4611 24.5078 18.6855 24.3647 18.9099 24.2216C19.0252 24.1482 19.1406 24.0747 19.2559 24.0013C19.8117 23.6474 20.3667 23.2922 20.9217 22.937C21.0284 22.8687 21.1351 22.8005 21.2451 22.7301C21.8993 22.3113 22.5522 21.8906 23.2039 21.4678C23.8464 21.0514 24.4915 20.639 25.1366 20.2266C27.0927 19.2141 27.0927 19.2141 28.531 17.7906C28.5587 17.6644 28.5865 17.5382 28.6151 17.4082C29.0491 15.6292 30.0635 14.149 31.5858 13.1172C31.8518 12.959 32.1226 12.8135 32.3983 12.6728C32.462 12.6402 32.5258 12.6075 32.5915 12.5738C33.5397 12.1155 34.4729 11.9448 35.5213 11.9556ZM32.4998 14.3359C32.5879 17.8982 34.6442 20.9132 37.0884 23.3123C37.2176 23.4349 37.3469 23.5574 37.4764 23.6797C37.5646 23.7674 37.6529 23.8551 37.7438 23.9455C37.9826 24.1194 37.9826 24.1194 38.2865 24.0348C39.5719 23.3987 40.4292 22.2432 40.9331 20.9284C41.4208 19.4573 41.3177 17.9754 40.6756 16.5576C39.8727 15.0689 38.6109 14.1217 37.021 13.6194C35.4079 13.1857 33.9407 13.5205 32.4998 14.3359ZM31.078 15.6562C30.1458 17.0688 29.7727 18.4416 30.004 20.1373C30.3353 21.6678 31.2455 23.0038 32.5443 23.8765C33.5133 24.4496 34.458 24.7147 35.5785 24.7017C35.6537 24.7012 35.7289 24.7007 35.8064 24.7003C35.9907 24.6991 36.1749 24.6973 36.3592 24.6953C36.1264 24.4617 35.8937 24.2283 35.6562 23.9994C33.3042 21.7178 31.8526 18.8382 31.1795 15.6562C31.146 15.6562 31.1125 15.6562 31.078 15.6562ZM59.9241 19.6787C59.7637 19.7648 59.7637 19.7648 59.6 19.8527C59.4262 19.9466 59.4262 19.9466 59.2489 20.0425C59.1309 20.1061 59.013 20.1697 58.8915 20.2352C57.7366 20.8597 56.5893 21.4985 55.453 22.1562C55.3605 22.2001 55.268 22.244 55.1727 22.2892C54.919 22.4415 54.919 22.4415 54.8895 22.725C54.8924 22.8289 54.8953 22.9327 54.8983 23.0398C54.8986 23.1542 54.8989 23.2687 54.8991 23.3867C54.9044 23.6266 54.9104 23.8665 54.9174 24.1064C54.9174 24.2215 54.9174 24.3366 54.9174 24.4553C54.9201 24.5597 54.9228 24.6641 54.9256 24.7717C54.7339 25.5429 53.8943 26.1697 53.347 26.7242C53.2719 26.8006 53.1968 26.877 53.1195 26.9557C52.3429 27.745 51.5628 28.5309 50.7825 29.3165C50.4125 29.6892 50.0437 30.063 49.6758 30.4378C49.2303 30.8916 48.7828 31.3434 48.3339 31.7939C48.1635 31.9655 47.9938 32.1379 47.8248 32.3109C47.5888 32.5523 47.3504 32.7911 47.1112 33.0294C47.0421 33.1012 46.973 33.1731 46.9018 33.2471C46.5721 33.5705 46.3495 33.7765 45.8744 33.7868C45.4754 33.731 45.2667 33.6401 44.9349 33.417C43.2351 32.3594 41.2253 31.8092 39.2311 32.1796C38.1749 32.4748 37.281 33.0149 36.6639 33.9375C36.2618 34.7386 36.0544 35.4533 36.0251 36.3433C35.9767 37.7621 35.7373 39.0043 34.6517 40.0185C33.6884 40.8025 32.5904 40.9576 31.3826 40.8437C30.957 40.7683 30.5447 40.6541 30.129 40.5363C28.1065 39.9982 25.789 40.1927 23.946 41.1798C22.3593 42.1461 21.2954 43.5672 20.8265 45.3633C20.7877 45.5489 20.7513 45.7351 20.7186 45.9219C20.6955 46.0517 20.6725 46.1816 20.6488 46.3154C20.3412 49.5093 21.5362 52.595 23.3592 55.1641C23.402 55.2247 23.4447 55.2854 23.4887 55.3479C25.9359 58.7671 29.5785 61.2094 33.7186 61.9687C35.8359 62.3009 37.9857 61.9827 39.7489 60.7183C41.1879 59.5739 42.1327 58.0242 42.3514 56.1797C42.4402 54.7775 42.3581 53.4806 42.0263 52.1163C41.7122 50.8049 41.6771 49.6003 42.403 48.4137C42.9876 47.5966 43.8288 47.0321 44.8032 46.7796C45.1234 46.7297 45.4338 46.7188 45.7574 46.7101C47.266 46.6651 48.5582 46.3664 49.6385 45.249C50.5859 44.1056 50.6845 42.6689 50.578 41.25C50.4142 40.055 49.9308 38.9802 49.358 37.9282C49.3244 37.865 49.2908 37.8017 49.2562 37.7366C49.1613 37.559 49.0635 37.3829 48.9657 37.2069C48.8173 36.7861 48.8655 36.6766 49.0545 36.2734C49.2954 35.9752 49.5657 35.7099 49.8389 35.4414C49.9198 35.3602 50.0007 35.2791 50.0841 35.1954C50.3514 34.9279 50.6202 34.6618 50.889 34.3957C51.075 34.2102 51.261 34.0246 51.4468 33.8389C51.8362 33.4503 52.2262 33.0623 52.6168 32.6749C53.1185 32.1774 53.6189 31.6787 54.1189 31.1796C54.5949 30.7045 55.0715 30.23 55.5482 29.7556C55.6852 29.619 55.6852 29.619 55.825 29.4797C56.0825 29.2234 56.3404 28.9675 56.5983 28.7117C56.6751 28.6351 56.752 28.5586 56.8311 28.4797C56.9012 28.4104 56.9712 28.341 57.0434 28.2696C57.1044 28.2091 57.1654 28.1485 57.2282 28.0862C57.4431 27.8902 57.541 27.8423 57.8351 27.8519C57.9382 27.8598 58.0413 27.8677 58.1475 27.8759C59.3364 27.9732 59.3364 27.9732 60.4257 27.6026C60.763 27.1978 60.9303 26.705 61.115 26.2173C61.3408 25.6783 61.6417 25.1784 61.9323 24.6724C62.405 23.8465 62.8573 23.0121 63.2733 22.1562C62.8849 21.7654 62.4963 21.3749 62.1073 20.9847C61.9749 20.8517 61.8426 20.7187 61.7103 20.5856C61.5207 20.3948 61.3308 20.2043 61.1409 20.0139C61.0517 19.9239 61.0517 19.9239 60.9607 19.8321C60.8194 19.6908 60.6755 19.5521 60.5311 19.4141C60.3196 19.4141 60.1033 19.5824 59.9241 19.6787ZM27.9327 20.2381C27.7747 20.3394 27.7747 20.3394 27.6135 20.4428C27.4988 20.5167 27.3841 20.5906 27.2694 20.6645C27.152 20.7399 27.0346 20.8153 26.9173 20.8907C26.2223 21.3371 25.5284 21.7854 24.8354 22.2349C24.0823 22.723 23.3258 23.2058 22.5696 23.6891C21.8949 24.1207 21.2212 24.5538 20.55 24.9908C20.1465 25.2529 19.7405 25.5106 19.3324 25.7657C19.2329 25.8282 19.1333 25.8907 19.0308 25.9551C18.8374 26.0763 18.6437 26.197 18.4496 26.317C17.1797 27.1008 17.1797 27.1008 16.453 28.3516C16.3532 29.0555 16.3797 29.6293 16.8096 30.2118C17.3147 30.7832 17.7916 31.0549 18.5604 31.1318C19.5079 31.1038 20.4464 30.4824 21.2708 30.0654C21.376 30.0128 21.4812 29.9602 21.5896 29.9059C22.3401 29.5287 23.0836 29.139 23.8263 28.7468C24.6343 28.3206 25.4468 27.9035 26.2603 27.4878C26.6879 27.2692 27.1153 27.0503 27.5427 26.8313C27.6273 26.788 27.7119 26.7446 27.799 26.7C28.962 26.1039 30.1218 25.5017 31.2811 24.8984C31.2811 24.8314 31.2811 24.7644 31.2811 24.6953C31.1233 24.5397 31.1233 24.5397 30.9193 24.3779C29.5242 23.1741 28.8986 21.7013 28.5389 19.9219C28.3251 19.9219 28.103 20.1286 27.9327 20.2381ZM23.1482 30.6962C23.0665 30.7386 22.9848 30.7809 22.9006 30.8246C22.5505 31.0061 22.2008 31.1887 21.8511 31.3712C21.596 31.5041 21.3406 31.6366 21.0852 31.769C21.0067 31.8101 20.9283 31.8513 20.8475 31.8937C19.707 32.4847 18.594 32.6765 17.34 32.3149C16.7903 32.1091 16.3499 31.8216 15.9451 31.3984C15.4287 31.5807 14.9716 31.7937 14.6598 32.2585C14.4729 32.7496 14.4811 33.188 14.4846 33.7092C14.4841 33.8194 14.4836 33.9295 14.4831 34.043C14.4819 34.412 14.4829 34.7811 14.4838 35.1502C14.4834 35.4148 14.4829 35.6794 14.4822 35.944C14.4809 36.5882 14.4812 37.2325 14.4821 37.8767C14.4827 38.4006 14.4828 38.9244 14.4825 39.4483C14.4825 39.5229 14.4824 39.5975 14.4824 39.6744C14.4823 39.8259 14.4822 39.9775 14.4821 40.1291C14.4812 41.5503 14.4822 42.9715 14.4838 44.3927C14.4852 45.6109 14.485 46.8291 14.4836 48.0473C14.4819 49.4629 14.4813 50.8784 14.4822 52.2939C14.4823 52.4451 14.4824 52.5962 14.4825 52.7473C14.4825 52.8217 14.4826 52.896 14.4826 52.9726C14.4829 53.4954 14.4825 54.0181 14.4817 54.5409C14.4808 55.2454 14.4815 55.95 14.4832 56.6546C14.4836 56.9129 14.4835 57.1713 14.4829 57.4296C14.482 57.7828 14.4831 58.1359 14.4846 58.4892C14.4839 58.5909 14.4832 58.6926 14.4825 58.7975C14.4914 59.8664 14.7454 60.6992 15.4564 61.5117C16.5938 62.5227 17.6213 62.6093 19.1035 62.598C19.2502 62.5976 19.3969 62.5973 19.5436 62.5971C19.9268 62.5963 20.31 62.5943 20.6931 62.5921C21.0853 62.59 21.4775 62.5891 21.8697 62.588C22.637 62.5859 23.4044 62.5824 24.1717 62.5781C24.1996 62.0074 24.2197 61.4372 24.2331 60.866C24.2387 60.6723 24.2462 60.4786 24.256 60.2851C24.3469 58.9897 24.3469 58.9897 23.7959 57.8684C23.5592 57.6306 23.3094 57.4137 23.0545 57.1953C22.8492 56.9578 22.6655 56.7081 22.4832 56.4526C22.4376 56.3892 22.3919 56.3259 22.3449 56.2606C21.1863 54.6288 20.2311 52.836 19.703 50.8984C19.683 50.8265 19.6631 50.7545 19.6426 50.6803C18.9714 48.1502 19.0081 45.225 20.2679 42.8849C20.6811 42.2029 21.1763 41.6148 21.7342 41.0469C21.8165 40.9626 21.8165 40.9626 21.9004 40.8767C22.5128 40.3044 23.3789 39.7877 24.1717 39.5234C24.1717 36.4735 24.1717 33.4236 24.1717 30.2812C23.8001 30.2812 23.4724 30.5261 23.1482 30.6962ZM25.6951 59.8359C25.6951 60.7408 25.6951 61.6458 25.6951 62.5781C27.2034 62.5781 28.7116 62.5781 30.2655 62.5781C30.0646 62.3773 29.9401 62.3085 29.6847 62.198C28.5483 61.6918 27.5272 61.1026 26.5109 60.3857C26.2417 60.1985 25.968 60.0178 25.6951 59.8359Z" fill="black"/>
<path d="M64.6951 37.4921C65.0096 37.9734 65.0431 38.4082 65.0376 38.9673C65.038 39.0521 65.0383 39.1369 65.0387 39.2243C65.0395 39.5034 65.0382 39.7826 65.0367 40.0617C65.0366 40.2568 65.0367 40.4518 65.0368 40.6469C65.0368 41.0554 65.0358 41.4639 65.0339 41.8724C65.0316 42.3942 65.0316 42.916 65.0323 43.4378C65.0326 43.8406 65.0319 44.2434 65.0309 44.6462C65.0305 44.8385 65.0304 45.0308 65.0306 45.223C65.0306 45.4928 65.0293 45.7625 65.0277 46.0322C65.0279 46.1106 65.0282 46.189 65.0284 46.2697C65.0197 47.1731 64.8881 47.9667 64.2238 48.6263C63.6244 49.167 63.0631 49.3601 62.2576 49.3749C61.5834 49.3169 61.0452 48.9874 60.531 48.5624C60.0379 47.9682 59.8747 47.3187 59.8967 46.5578C59.974 45.847 60.3015 45.2755 60.8357 44.8046C61.4719 44.4002 62.1088 44.2172 62.867 44.2968C63.0681 44.3638 63.2692 44.4309 63.4764 44.4999C63.4428 43.595 63.4093 42.6901 63.3748 41.7578C62.9739 41.8677 62.573 41.9777 62.16 42.091C61.8408 42.1784 61.5216 42.2658 61.2024 42.3531C60.8651 42.4454 60.5279 42.5377 60.1907 42.6303C59.8041 42.7365 59.4174 42.8422 59.0306 42.9479C58.9095 42.9813 58.7883 43.0146 58.6635 43.0489C58.5517 43.0794 58.4399 43.1099 58.3247 43.1413C58.1765 43.1819 58.1765 43.1819 58.0253 43.2234C57.7889 43.2812 57.7889 43.2812 57.5857 43.2812C57.5864 43.3557 57.5871 43.4303 57.5878 43.5071C57.5939 44.2123 57.5985 44.9175 57.6015 45.6227C57.6031 45.9852 57.6052 46.3476 57.6087 46.7101C57.612 47.0605 57.6139 47.4108 57.6146 47.7611C57.6155 47.9587 57.6178 48.1562 57.6202 48.3538C57.6204 49.2248 57.5601 49.9821 56.9379 50.656C56.2862 51.2134 55.6091 51.391 54.7606 51.353C54.0443 51.2458 53.5146 50.9611 53.0662 50.3906C52.5731 49.6796 52.5261 49.0046 52.6092 48.1562C52.8166 47.4531 53.317 46.921 53.9295 46.5312C54.5448 46.2461 55.3182 46.2155 55.9607 46.4296C55.9613 46.3506 55.9619 46.2716 55.9625 46.1901C55.9684 45.4445 55.9757 44.6988 55.9847 43.9532C55.9892 43.5699 55.9932 43.1865 55.9959 42.8032C55.9986 42.4331 56.0027 42.063 56.0078 41.6929C56.0095 41.5519 56.0106 41.4109 56.0113 41.2698C56.0122 41.072 56.0153 40.8741 56.0184 40.6762C56.0195 40.5637 56.0206 40.4511 56.0218 40.3352C56.0676 39.9913 56.1593 39.7993 56.367 39.5234C56.6449 39.3926 56.6449 39.3926 57.0077 39.2909C57.0769 39.271 57.1461 39.251 57.2174 39.2305C57.3799 39.1841 57.5427 39.1387 57.7057 39.0941C58.0295 39.0053 58.3523 38.9135 58.6752 38.8217C59.2602 38.656 59.8459 38.4934 60.4323 38.333C60.775 38.2393 61.1175 38.145 61.4597 38.0493C61.8597 37.9374 62.2604 37.8277 62.6611 37.7183C62.8445 37.6666 62.8445 37.6666 63.0317 37.6138C64.1881 37.3022 64.1881 37.3022 64.6951 37.4921ZM62.8537 39.2554C62.7425 39.2855 62.6314 39.3157 62.5168 39.3468C62.3958 39.3798 62.2748 39.4128 62.1501 39.4468C62.0267 39.4804 61.9034 39.514 61.7763 39.5486C61.5147 39.6198 61.2532 39.6911 60.9917 39.7624C60.6563 39.854 60.3208 39.9452 59.9852 40.0363C59.6658 40.1232 59.3464 40.2103 59.027 40.2974C58.9062 40.3302 58.7854 40.363 58.6609 40.3968C58.4937 40.4425 58.4937 40.4425 58.3231 40.4892C58.1754 40.5294 58.1754 40.5294 58.0247 40.5705C57.7892 40.633 57.7892 40.633 57.5857 40.7421C57.5857 41.0438 57.5857 41.3454 57.5857 41.6562C58.2431 41.5841 58.8631 41.4111 59.4992 41.2337C59.6701 41.1866 59.6701 41.1866 59.8445 41.1385C60.2068 41.0385 60.5689 40.9379 60.9309 40.8373C61.1772 40.7693 61.4235 40.7012 61.6699 40.6332C62.2721 40.4669 62.8743 40.3 63.4764 40.1328C63.4764 39.7976 63.4764 39.4624 63.4764 39.1171C63.2664 39.1171 63.0541 39.2009 62.8537 39.2554ZM61.5149 46.309C61.4189 46.6147 61.4003 46.8208 61.4451 47.1406C61.6948 47.5416 61.8501 47.7163 62.302 47.8642C62.7506 47.8485 62.9357 47.7357 63.2732 47.4453C63.4859 47.1771 63.4764 47.0378 63.4764 46.6899C63.3448 46.2213 63.175 46.0753 62.7654 45.8203C62.2384 45.7342 61.8341 45.8683 61.5149 46.309ZM54.2342 48.2578C54.0704 48.5852 54.0722 48.9193 54.1326 49.2734C54.3641 49.5842 54.5317 49.7404 54.8943 49.8764C55.3375 49.8875 55.5715 49.7596 55.8909 49.4575C56.1111 49.0904 56.1226 48.8827 56.0623 48.4609C55.8799 48.1812 55.7523 48.0012 55.4529 47.8515C54.8943 47.7988 54.6335 47.8584 54.2342 48.2578Z" fill="black"/>
<path d="M51.3591 12.9053C52.1734 13.2708 52.6944 13.8166 53.0599 14.6279C53.2401 15.1355 53.3303 15.6308 53.2186 16.164C53.0028 16.437 53.0028 16.437 52.7108 16.5703C52.3927 16.5639 52.1948 16.5403 51.94 16.345C51.7016 16.0438 51.6675 15.6893 51.5877 15.3202C51.4772 15.0043 51.3262 14.8675 51.0858 14.6406C51.085 14.7251 51.0842 14.8096 51.0833 14.8966C51.0754 15.696 51.0665 16.4953 51.0566 17.2946C51.0515 17.7055 51.0468 18.1164 51.043 18.5272C51.0392 18.9243 51.0345 19.3214 51.0291 19.7185C51.0273 19.8694 51.0257 20.0203 51.0245 20.1712C51.0137 21.4973 50.941 22.5481 50.0023 23.5571C49.261 24.2441 48.502 24.3591 47.5141 24.3375C46.7487 24.2423 46.0799 23.9081 45.5506 23.3432C45.4166 23.1604 45.4166 23.1604 45.2967 22.9687C45.2551 22.9045 45.2135 22.8402 45.1706 22.7739C44.7577 22.0152 44.7541 21.0855 44.9575 20.2587C45.3013 19.4001 45.9113 18.7663 46.7515 18.3889C47.5808 18.108 48.4767 18.1149 49.2702 18.5042C49.3331 18.5363 49.396 18.5685 49.4608 18.6015C49.4591 18.4998 49.4591 18.4998 49.4574 18.3961C49.4462 17.691 49.4385 16.9859 49.4329 16.2807C49.4304 16.0174 49.4269 15.7542 49.4225 15.491C49.4163 15.1128 49.4135 14.7348 49.4112 14.3566C49.4086 14.2387 49.406 14.1208 49.4033 13.9994C49.403 13.184 49.403 13.184 49.7017 12.8388C50.2485 12.5769 50.8024 12.7162 51.3591 12.9053ZM46.5726 20.4106C46.3254 20.915 46.2609 21.262 46.4139 21.8071C46.7317 22.3533 47.0732 22.6883 47.6835 22.8735C48.2486 22.8634 48.6074 22.6828 49.0355 22.3213C49.3789 21.9092 49.4653 21.6884 49.4481 21.147C49.3774 20.7249 49.2408 20.4497 48.953 20.125C48.6167 19.8985 48.2843 19.7475 47.8866 19.668C47.3433 19.7766 46.936 19.9913 46.5726 20.4106Z" fill="black"/>
<path d="M41.1757 40.47C42.1954 41.0962 42.8635 42.0238 43.1641 43.1797C43.4074 44.4476 43.1562 45.6547 42.4531 46.7344C41.7245 47.6722 40.6806 48.2748 39.5078 48.4609C38.2009 48.5712 37.157 48.1863 36.0864 47.4643C35.1753 46.6025 34.6948 45.4846 34.6074 44.2397C34.6329 43.0274 35.0415 41.9988 35.8694 41.1159C37.3461 39.7336 39.4102 39.5076 41.1757 40.47ZM36.9688 42.164C36.4134 42.8167 36.1001 43.5161 36.132 44.3885C36.2305 45.2549 36.6256 45.8544 37.2734 46.4297C37.9912 46.8932 38.6685 47.0174 39.5078 46.9375C40.3272 46.7113 40.9764 46.214 41.4248 45.4966C41.7758 44.8039 41.8253 44.1049 41.6279 43.3574C41.3596 42.6004 40.964 42.105 40.2787 41.6796C39.1042 41.1216 37.9289 41.3158 36.9688 42.164Z" fill="black"/>
<path d="M27.9297 49.375C28.1782 49.5442 28.348 49.6846 28.5517 49.8967C28.6082 49.9522 28.6646 50.0077 28.7227 50.0649C28.9078 50.2479 29.0898 50.4338 29.2718 50.6199C29.4001 50.7484 29.5285 50.8767 29.657 51.0049C29.9255 51.2736 30.1926 51.5437 30.4588 51.8149C30.7996 52.1621 31.1433 52.5063 31.4881 52.8496C31.7534 53.1142 32.0173 53.38 32.2809 53.6463C32.4071 53.7737 32.5338 53.9008 32.6607 54.0275C32.838 54.2049 33.0135 54.3839 33.1887 54.5634C33.2412 54.6154 33.2937 54.6673 33.3478 54.7208C33.671 55.0567 33.807 55.3047 33.8203 55.7734C33.668 56.0654 33.668 56.0654 33.4141 56.2812C33.084 56.3574 33.084 56.3574 32.7031 56.2812C31.971 55.7658 31.3576 55.0521 30.7262 54.4194C30.6161 54.3093 30.5059 54.1992 30.3957 54.0892C30.1665 53.8601 29.9376 53.6309 29.7087 53.4016C29.4151 53.1074 29.1211 52.8137 28.8269 52.5202C28.6001 52.2937 28.3735 52.0671 28.1471 51.8403C28.0387 51.7318 27.9302 51.6234 27.8216 51.5151C27.6707 51.3644 27.5201 51.2134 27.3695 51.0623C27.2409 50.9336 27.2409 50.9336 27.1097 50.8023C26.8463 50.5215 26.8156 50.4334 26.7871 50.0415C26.8125 49.6797 26.8125 49.6797 26.9141 49.4829C27.2413 49.3091 27.5724 49.315 27.9297 49.375Z" fill="black"/>
<path d="M50.4765 52.9297C50.7241 53.082 50.7241 53.082 50.8828 53.3359C50.9154 53.6161 50.9017 53.8646 50.8828 54.1484C51.0085 54.1401 51.1341 54.1317 51.2636 54.1231C51.5741 54.1247 51.6778 54.1375 51.9492 54.3071C52.1584 54.6472 52.1514 54.8736 52.1015 55.2656C51.9449 55.4793 51.8292 55.5541 51.5937 55.6719C51.3568 55.676 51.1197 55.6763 50.8828 55.6719C50.8953 55.8604 50.8953 55.8604 50.9082 56.0527C50.9071 56.3677 50.895 56.4655 50.7177 56.7383C50.4053 56.9356 50.2309 56.9437 49.8672 56.8906C49.6323 56.7954 49.6323 56.7954 49.4609 56.5859C49.3968 56.2821 49.3723 55.9818 49.3593 55.6719C49.2969 55.6704 49.2344 55.669 49.1701 55.6675C48.5014 55.6281 48.5014 55.6281 48.2295 55.3482C48.1201 54.9966 48.1281 54.8028 48.2422 54.4531C48.4072 54.2627 48.4072 54.2627 48.6484 54.1484C49.0293 54.1294 49.0293 54.1294 49.3593 54.1484C49.3631 54.086 49.3669 54.0235 49.3708 53.9592C49.3775 53.8771 49.3842 53.795 49.3911 53.7105C49.397 53.6292 49.4029 53.5479 49.4089 53.4641C49.5415 52.8784 49.938 52.8636 50.4765 52.9297Z" fill="black"/>
<path d="M60.9375 30.8906C61.1787 31.043 61.1787 31.043 61.3438 31.2969C61.3769 31.577 61.3627 31.8255 61.3438 32.1094C61.4694 32.101 61.5951 32.0926 61.7246 32.084C62.0351 32.0856 62.1388 32.0985 62.4102 32.2681C62.6194 32.6081 62.6124 32.8345 62.5625 33.2265C62.4058 33.4402 62.2902 33.515 62.0547 33.6328C61.8177 33.6369 61.5807 33.6372 61.3438 33.6328C61.3563 33.8213 61.3563 33.8213 61.3691 34.0137C61.368 34.3286 61.356 34.4264 61.1787 34.6992C60.8663 34.8965 60.6918 34.9046 60.3281 34.8515C60.0933 34.7563 60.0933 34.7563 59.9219 34.5469C59.8578 34.243 59.8333 33.9427 59.8203 33.6328C59.6569 33.6422 59.6569 33.6422 59.4902 33.6518C59.1094 33.6328 59.1094 33.6328 58.8682 33.5249C58.6162 33.2245 58.5949 33.005 58.6016 32.6172C58.8047 32.3188 58.8047 32.3188 59.1094 32.1094C59.4966 32.0776 59.4966 32.0776 59.8203 32.1094C59.8229 32.0469 59.8255 31.9845 59.8282 31.9201C59.8751 31.2525 59.8751 31.2525 60.0933 30.9858C60.4026 30.8604 60.6065 30.8423 60.9375 30.8906Z" fill="black"/>
<path d="M57.1289 12.5522C57.4844 12.6094 57.4844 12.6094 57.7319 12.7617C57.9628 13.131 57.9193 13.3973 57.8906 13.8281C58.0163 13.8197 58.142 13.8114 58.2715 13.8027C58.582 13.8044 58.6857 13.8172 58.957 13.9868C59.1703 14.3334 59.1736 14.5459 59.1094 14.9453C58.8999 15.1929 58.8999 15.1929 58.6016 15.3516C58.2144 15.377 58.2144 15.377 57.8906 15.3516C57.9032 15.5401 57.9032 15.5401 57.916 15.7324C57.9149 16.0474 57.9029 16.1452 57.7256 16.418C57.4069 16.6193 57.2458 16.6384 56.875 16.5703C56.583 16.3608 56.583 16.3608 56.3672 16.0625C56.3354 15.6753 56.3354 15.6753 56.3672 15.3516C56.2069 15.3673 56.2069 15.3673 56.0435 15.3833C55.6562 15.3516 55.6562 15.3516 55.3516 15.1421C55.1484 14.8438 55.1484 14.8438 55.1421 14.4756C55.25 14.1328 55.25 14.1328 55.415 13.936C55.7406 13.7904 56.015 13.8078 56.3672 13.8281C56.3546 13.6679 56.3546 13.6679 56.3418 13.5044C56.3672 13.1172 56.3672 13.1172 56.5259 12.8188C56.7734 12.6094 56.7734 12.6094 57.1289 12.5522Z" fill="black"/>
</g>
<defs>
<clipPath id="clip0_1271_2346">
<rect width="52" height="52" fill="white" transform="translate(13 12)"/>
</clipPath>
</defs>
</svg>
