<svg width="77" height="77" viewBox="0 0 77 77" fill="none" xmlns="http://www.w3.org/2000/svg">
<path fill-rule="evenodd" clip-rule="evenodd" d="M5.85983 24.3616C12.3619 16.9332 26.5529 25.4134 37.4031 24.356C47.7796 23.3447 56.9357 12.3672 66.0463 18.4961C75.1674 24.6321 69.7228 36.6126 70.0534 46.3206C70.3859 56.0875 76.5177 68.9306 67.9274 73.7468C59.3762 78.541 48.5552 67.6554 38.1296 64.2188C28.4798 61.0379 16.9304 62.59 10.6868 54.8783C3.29872 45.7531 -0.968451 32.1626 5.85983 24.3616Z" fill="#FFDF18"/>
<g clip-path="url(#clip0_1271_2343)">
<path d="M51.6935 10.1931C51.8002 10.1923 51.9068 10.1914 52.0167 10.1905C52.2412 10.1893 52.4657 10.189 52.6902 10.1895C53.0308 10.1896 53.3712 10.1849 53.7118 10.1798C54.9233 10.1723 55.9101 10.1679 56.8754 10.9851C57.5507 11.671 57.7287 12.6137 57.7335 13.5479C57.7323 13.6424 57.7311 13.7368 57.7298 13.8341C57.7298 13.937 57.7299 14.0399 57.7299 14.146C57.7297 14.4819 57.7271 14.8177 57.7244 15.1536C57.7238 15.3882 57.7233 15.6228 57.7229 15.8573C57.7217 16.4715 57.7183 17.0857 57.7145 17.6999C57.7111 18.3279 57.7095 18.9559 57.7078 19.584C57.7042 20.8138 57.6984 22.0437 57.6912 23.2736C57.7794 23.3082 57.8676 23.3429 57.9585 23.3786C58.2456 23.4953 58.5057 23.6284 58.7754 23.7807C58.8753 23.837 58.9753 23.8934 59.0783 23.9515C59.186 24.0128 59.2937 24.0741 59.4046 24.1373C59.5182 24.2018 59.6318 24.2663 59.7488 24.3327C61.0288 25.0624 62.2953 25.8146 63.5602 26.5702C63.9016 26.7733 64.2441 26.9744 64.5872 27.1747C64.7878 27.2927 64.9884 27.4107 65.189 27.5287C65.322 27.6055 65.322 27.6055 65.4577 27.6838C66.2492 28.1523 67.013 28.6906 67.4759 29.504C67.5543 29.6372 67.5543 29.6372 67.6343 29.7731C68.1381 30.8512 68.1744 32.1456 67.9087 33.2976C67.4661 34.4742 66.6469 35.32 65.5705 35.9434C64.893 36.25 64.2714 36.3396 63.5394 36.3363C63.4596 36.3381 63.3799 36.34 63.2978 36.3418C62.8378 36.3423 62.4572 36.2806 62.0217 36.1284C61.9316 36.0972 61.8414 36.0661 61.7485 36.034C61.6806 36.0099 61.6127 35.9858 61.5428 35.9611C61.5424 36.1562 61.5424 36.1562 61.542 36.3553C61.5355 39.4478 61.5272 42.5403 61.5168 45.6328C61.5156 46.0139 61.5143 46.395 61.513 46.7762C61.5128 46.852 61.5125 46.9279 61.5123 47.0061C61.5083 48.2325 61.5055 49.4589 61.5031 50.6854C61.5006 51.945 61.4968 53.2046 61.4919 54.4643C61.4892 55.1713 61.4871 55.8783 61.4864 56.5853C61.4857 57.2514 61.4834 57.9175 61.48 58.5836C61.479 58.8274 61.4786 59.0713 61.4788 59.3151C61.4798 61.2179 61.4128 62.8414 60.0582 64.3141C58.7915 65.5113 57.4445 65.7886 55.7542 65.7843C55.6055 65.7848 55.4568 65.7853 55.3037 65.7859C54.8927 65.7873 54.4817 65.7872 54.0707 65.787C53.6267 65.7869 53.1828 65.7882 52.7388 65.7892C51.8696 65.7911 51.0004 65.7917 50.1312 65.7919C49.4244 65.792 48.7176 65.7925 48.0107 65.7932C46.005 65.7952 43.9993 65.7962 41.9936 65.796C41.8855 65.796 41.7775 65.796 41.6661 65.796C41.5039 65.796 41.5039 65.796 41.3383 65.796C39.5857 65.7959 37.833 65.7981 36.0804 65.8013C34.2791 65.8045 32.4779 65.8061 30.6766 65.8059C29.666 65.8058 28.6554 65.8064 27.6448 65.8089C26.7843 65.8109 25.9237 65.8114 25.0631 65.8099C24.6245 65.8091 24.1859 65.8091 23.7473 65.8111C23.3448 65.8129 22.9424 65.8125 22.54 65.8106C22.3273 65.8101 22.1147 65.8118 21.9021 65.8136C20.3477 65.8011 19.0678 65.3661 17.9299 64.2951C16.9116 63.211 16.5353 61.9394 16.5386 60.4817C16.5379 60.3764 16.5373 60.2711 16.5366 60.1626C16.5347 59.8116 16.5343 59.4606 16.534 59.1096C16.5329 58.8572 16.5318 58.6049 16.5306 58.3525C16.5275 57.6687 16.5257 56.9849 16.5243 56.301C16.5225 55.5859 16.5195 54.8708 16.5166 54.1557C16.5119 52.9558 16.508 51.756 16.5046 50.5561C16.5012 49.3205 16.4973 48.085 16.4928 46.8494C16.4925 46.7732 16.4922 46.697 16.4919 46.6184C16.4905 46.236 16.4891 45.8535 16.4877 45.471C16.476 42.3011 16.4659 39.1311 16.4568 35.9611C16.3888 35.985 16.3207 36.009 16.2506 36.0337C16.1151 36.0803 16.1151 36.0803 15.9769 36.1279C15.8433 36.1744 15.8433 36.1744 15.7069 36.2218C15.2989 36.3415 14.9114 36.3567 14.4886 36.3505C14.3636 36.3492 14.3636 36.3492 14.2362 36.3479C12.8716 36.3069 11.8736 35.7237 10.9415 34.7574C10.0358 33.6523 9.86411 32.4794 9.9727 31.0962C10.0942 30.0531 10.6231 29.1282 11.4207 28.4489C12.1269 27.8956 12.9063 27.4594 13.6814 27.0118C13.8281 26.9266 13.9748 26.8413 14.1214 26.7559C14.4183 26.5832 14.7154 26.4107 15.0127 26.2385C15.5093 25.9508 16.0049 25.6613 16.5005 25.3718C17.1615 24.9857 17.8229 24.6005 18.4843 24.2151C19.9001 23.3899 21.3148 22.5629 22.7284 21.7338C23.7674 21.1243 24.8074 20.5166 25.8481 19.9101C26.74 19.3901 27.6308 18.8682 28.5213 18.3458C29.862 17.5594 31.204 16.7753 32.5469 15.9927C33.0177 15.7182 33.4882 15.4432 33.9588 15.1682C34.3028 14.9674 34.6472 14.7673 34.9916 14.5673C35.3555 14.3557 35.7175 14.1417 36.0766 13.9221C37.3705 13.1384 38.5968 12.756 40.0862 13.0973C40.7988 13.2802 41.3802 13.5735 42.0088 13.9491C42.1185 14.0128 42.2282 14.0765 42.3412 14.1421C42.7012 14.352 43.0596 14.5645 43.4178 14.7775C43.6131 14.893 43.8084 15.0085 44.0037 15.124C44.4569 15.3919 44.9099 15.6602 45.3617 15.9305C46.3278 16.5077 47.3061 17.0613 48.2889 17.6095C48.2893 17.5434 48.2897 17.4773 48.2901 17.4092C48.2949 16.7181 48.3027 16.0271 48.3124 15.3361C48.3156 15.0786 48.318 14.8211 48.3196 14.5635C48.322 14.1923 48.3273 13.8212 48.3331 13.45C48.3333 13.3357 48.3334 13.2214 48.3335 13.1037C48.3504 12.2803 48.5045 11.6908 49.0411 11.0405C49.1013 10.991 49.1615 10.9415 49.2234 10.8905C49.2824 10.8395 49.3414 10.7886 49.4022 10.7361C50.1505 10.2798 50.8369 10.1933 51.6935 10.1931ZM50.3279 12.2853C50.08 12.6571 50.07 12.7812 50.0595 13.2145C50.0562 13.3347 50.0529 13.455 50.0496 13.5789C50.0475 13.7088 50.0455 13.8387 50.0434 13.9725C50.0413 14.1062 50.0392 14.2399 50.037 14.3777C50.0334 14.6608 50.0305 14.9439 50.0283 15.227C50.0251 15.5167 50.0197 15.8065 50.012 16.0962C50.001 16.5141 49.9967 16.9317 49.9938 17.3497C49.9893 17.479 49.9847 17.6082 49.9801 17.7414C49.973 18.4142 49.973 18.4142 50.3116 18.9654C50.5738 19.1431 50.8355 19.2851 51.1209 19.422C51.2394 19.4936 51.3579 19.5652 51.48 19.639C51.5873 19.7001 51.6945 19.7612 51.805 19.8242C51.9261 19.8936 52.0471 19.9629 52.1719 20.0344C52.297 20.1057 52.4221 20.1769 52.5511 20.2504C53.4738 20.7787 54.394 21.3094 55.3009 21.8645C55.571 22.0586 55.571 22.0586 55.8787 22.1407C55.8892 20.9099 55.8973 19.679 55.9022 18.448C55.9046 17.8765 55.9078 17.3049 55.9129 16.7334C55.9178 16.1818 55.9205 15.6302 55.9217 15.0785C55.9225 14.8681 55.9242 14.6577 55.9266 14.4473C55.9299 14.1524 55.9304 13.8578 55.9302 13.5629C55.9318 13.476 55.9334 13.389 55.9351 13.2995C55.9319 12.8801 55.8925 12.6465 55.6631 12.2904C55.2317 11.8696 54.8284 11.9254 54.2552 11.9224C54.1613 11.9218 54.0674 11.9211 53.9707 11.9205C53.7717 11.9194 53.5728 11.9187 53.3739 11.9182C53.0703 11.9171 52.7668 11.9136 52.4632 11.91C52.2699 11.9093 52.0766 11.9087 51.8833 11.9083C51.7928 11.9069 51.7023 11.9055 51.609 11.904C51.0885 11.9061 50.7498 11.9471 50.3279 12.2853ZM34.25 17.0188C33.497 17.4697 32.7377 17.9092 31.9764 18.3458C30.9709 18.9232 29.9708 19.5089 28.9744 20.1017C27.8571 20.7664 26.7339 21.4202 25.6065 22.0677C24.7235 22.5758 23.846 23.0925 22.9705 23.6134C21.8585 24.2748 20.7412 24.9261 19.6195 25.571C18.5464 26.1885 17.4767 26.8118 16.41 27.4403C16.2738 27.5205 16.1377 27.6007 16.0015 27.6809C15.935 27.7201 15.8685 27.7593 15.8 27.7996C15.3596 28.0585 14.917 28.3132 14.4731 28.5659C14.3592 28.6314 14.2454 28.6969 14.128 28.7643C13.9185 28.8847 13.7083 29.0041 13.4973 29.122C12.6342 29.6211 11.9883 30.2229 11.699 31.2032C11.6054 32.0403 11.6213 32.7865 12.1522 33.4689C12.8387 34.201 13.4099 34.5846 14.4178 34.6654C15.2826 34.6422 15.9554 34.2323 16.6834 33.8087C16.7726 33.7571 16.8619 33.7054 16.9538 33.6522C17.4735 33.35 17.9906 33.0437 18.5065 32.7352C19.1752 32.3354 19.8475 31.9421 20.5208 31.5502C20.6341 31.4841 20.7475 31.4181 20.8643 31.35C21.0939 31.2162 21.3236 31.0825 21.5533 30.9487C23.1926 29.9941 24.8304 29.0373 26.4666 28.0775C27.5057 27.4681 28.5457 26.8603 29.5864 26.2538C30.5483 25.693 31.5089 25.1299 32.4693 24.5665C33.1949 24.1409 33.9207 23.7156 34.6473 23.2917C34.7644 23.2234 34.8816 23.1551 35.0022 23.0847C35.2286 22.9528 35.4552 22.8212 35.6819 22.6898C36.1874 22.3966 36.6897 22.1002 37.1855 21.7907C37.2726 21.7371 37.3597 21.6835 37.4494 21.6283C37.6076 21.5305 37.7649 21.4312 37.9209 21.3299C38.3332 21.0768 38.6991 20.9166 39.1984 20.9464C39.783 21.0878 40.2831 21.4336 40.7911 21.7443C40.9875 21.861 41.1839 21.9777 41.3804 22.0944C41.5846 22.2162 41.7883 22.339 41.9919 22.462C42.5085 22.7742 43.0282 23.0812 43.5477 23.3886C43.8025 23.5394 44.0571 23.6904 44.3116 23.8417C45.1802 24.358 46.0533 24.866 46.9295 25.3693C48.0643 26.021 49.1914 26.6848 50.316 27.3539C51.1846 27.8698 52.0574 28.3778 52.9334 28.881C53.9388 29.4584 54.9389 30.044 55.9354 30.6368C57.191 31.3837 58.4535 32.1179 59.7205 32.8454C60.1673 33.102 60.6127 33.3605 61.0569 33.6215C61.1563 33.6798 61.2556 33.738 61.358 33.798C61.5413 33.9055 61.7244 34.0135 61.9072 34.1219C61.9876 34.169 62.068 34.216 62.1508 34.2645C62.2198 34.3053 62.2889 34.3461 62.36 34.3881C62.9734 34.6922 63.6652 34.6863 64.3213 34.5362C65.2201 34.2315 65.8077 33.6394 66.2439 32.8033C66.3913 31.8825 66.3597 31.182 65.9355 30.3408C65.3497 29.5541 64.5123 29.1182 63.6685 28.6492C63.3122 28.451 62.9575 28.25 62.6026 28.0495C62.5313 28.0094 62.46 27.9692 62.3866 27.9279C61.751 27.5695 61.122 27.2008 60.4949 26.8278C59.6426 26.3216 58.7884 25.8188 57.9319 25.3197C57.8185 25.2536 57.705 25.1875 57.5881 25.1193C57.3585 24.9856 57.129 24.8519 56.8994 24.7182C55.2602 23.7637 53.6223 22.8068 51.9861 21.8471C51.0565 21.3018 50.1263 20.7576 49.1951 20.215C48.2639 19.6723 47.3336 19.128 46.4039 18.5827C45.7862 18.2204 45.1684 17.8583 44.5506 17.4962C44.4248 17.4225 44.2989 17.3487 44.1693 17.2728C43.0418 16.6123 41.9142 15.952 40.7769 15.3085C40.7037 15.2669 40.6305 15.2252 40.5551 15.1824C38.3315 13.9332 36.1258 15.8947 34.25 17.0188ZM38.2989 23.0439C38.1768 23.1169 38.0547 23.1899 37.9289 23.2652C37.8636 23.3045 37.7983 23.3439 37.7309 23.3845C37.3828 23.5942 37.0337 23.8022 36.6846 24.0103C36.6129 24.0531 36.5412 24.0959 36.4673 24.14C35.7675 24.5571 35.062 24.964 34.3553 25.3693C33.3498 25.9467 32.3498 26.5323 31.3533 27.1251C30.236 27.7899 29.1128 28.4436 27.9854 29.0912C27.1024 29.5992 26.2249 30.116 25.3494 30.6368C24.3412 31.2367 23.3292 31.8293 22.3121 32.4139C21.3557 32.9637 20.4018 33.5172 19.4517 34.0778C19.3451 34.1405 19.2386 34.2032 19.1288 34.2679C19.0319 34.3252 18.9351 34.3825 18.8353 34.4415C18.7077 34.5169 18.7077 34.5169 18.5775 34.5939C18.387 34.702 18.387 34.702 18.2693 34.8282C18.2572 35.1648 18.2526 35.4988 18.2527 35.8355C18.2523 35.9425 18.2518 36.0495 18.2514 36.1598C18.2501 36.5213 18.2497 36.8828 18.2493 37.2443C18.2486 37.5023 18.2478 37.7603 18.247 38.0184C18.2451 38.7218 18.2439 39.4251 18.2429 40.1285C18.2423 40.5679 18.2417 41.0073 18.2409 41.4467C18.239 42.6635 18.2374 43.8804 18.2366 45.0972C18.2363 45.4133 18.2361 45.7293 18.2359 46.0453C18.2358 46.1238 18.2358 46.2024 18.2357 46.2833C18.2348 47.5538 18.2319 48.8243 18.2282 50.0947C18.2245 51.3995 18.2225 52.7043 18.2221 54.0091C18.2218 54.7415 18.2208 55.4739 18.218 56.2063C18.2153 56.8961 18.2149 57.5858 18.216 58.2755C18.2161 58.5282 18.2154 58.7808 18.2138 59.0335C18.1803 61.2842 18.1803 61.2842 19.2889 63.18C19.9843 63.779 20.6915 64.0683 21.6033 64.07C21.729 64.0705 21.8546 64.071 21.9841 64.0715C22.1222 64.0715 22.2603 64.0715 22.4025 64.0715C22.5492 64.0719 22.6959 64.0723 22.8471 64.0727C23.2546 64.0739 23.6621 64.0743 24.0696 64.0746C24.509 64.075 24.9484 64.0761 25.3878 64.0771C26.4491 64.0794 27.5104 64.0805 28.5718 64.0815C29.0716 64.082 29.5715 64.0826 30.0714 64.0832C31.7334 64.0851 33.3953 64.0868 35.0572 64.0876C35.4885 64.0878 35.9197 64.088 36.3509 64.0882C36.4581 64.0883 36.5653 64.0884 36.6757 64.0884C38.4118 64.0894 40.1478 64.0922 41.8839 64.0959C43.6665 64.0996 45.4492 64.1017 47.2319 64.102C48.2327 64.1023 49.2334 64.1033 50.2342 64.1062C51.0866 64.1086 51.9389 64.1095 52.7912 64.1084C53.2259 64.1079 53.6606 64.1081 54.0953 64.1103C54.5671 64.1127 55.0389 64.1116 55.5108 64.1101C55.6473 64.1113 55.7839 64.1125 55.9246 64.1138C57.0752 64.1051 57.9991 63.8416 58.8515 63.0428C59.3987 62.3995 59.7403 61.6034 59.7483 60.7573C59.7495 60.6651 59.7506 60.5728 59.7518 60.4777C59.7524 60.3769 59.7531 60.2762 59.7538 60.1723C59.7555 60.0111 59.7555 60.011 59.7573 59.8465C59.7609 59.4853 59.7637 59.124 59.7665 58.7628C59.7689 58.5041 59.7713 58.2455 59.7737 57.9869C59.795 55.6274 59.8067 53.2678 59.8159 50.9083C59.8171 50.5926 59.8184 50.277 59.8197 49.9614C59.8202 49.8438 59.8202 49.8438 59.8207 49.7237C59.8261 48.453 59.837 47.1824 59.85 45.9117C59.8633 44.6065 59.8709 43.3014 59.8734 41.9961C59.875 41.2634 59.8792 40.531 59.8894 39.7984C59.899 39.1091 59.9016 38.4202 59.8989 37.7309C59.8991 37.4781 59.9019 37.2252 59.9074 36.9725C59.9893 35.7493 59.9893 35.7493 59.588 34.6408C59.1942 34.2901 58.7472 34.1116 58.2576 33.922C58.0411 33.7992 57.8264 33.6732 57.6147 33.5423C57.4019 33.4185 57.1891 33.2949 56.9761 33.1715C56.7375 33.0327 56.4988 32.8939 56.2602 32.7551C56.1401 32.6854 56.02 32.6156 55.8963 32.5438C55.3355 32.2179 54.7752 31.8911 54.2149 31.5643C54.1043 31.4998 53.9937 31.4354 53.8798 31.3689C52.908 30.802 51.9375 30.233 50.9671 29.6638C49.5848 28.8531 48.2008 28.0453 46.8162 27.2384C45.4122 26.4202 44.0086 25.6014 42.6064 24.7802C42.4637 24.6966 42.321 24.6131 42.1783 24.5296C41.2439 23.9826 40.3133 23.4302 39.3914 22.8625C38.9149 22.5965 38.7437 22.7762 38.2989 23.0439Z" fill="black"/>
<path d="M38.1072 37.1632C38.4261 37.4299 38.654 37.6506 38.8869 38C39.1423 38.0263 39.1423 38.0263 39.3542 37.7664C39.4046 37.7147 39.455 37.663 39.5069 37.6097C40.8694 36.2228 42.6128 35.5174 44.551 35.4512C46.4484 35.5182 48.0776 36.1815 49.3933 37.5774C50.8761 39.3738 51.1442 41.4188 51.008 43.6641C50.6548 46.8458 48.4469 49.6433 46.0236 51.5938C44.3226 52.9038 42.4816 53.9985 40.4729 54.7656C40.3706 54.8053 40.2684 54.8451 40.1631 54.886C38.6514 55.4118 37.2308 54.7194 35.8673 54.0634C33.9653 53.1147 32.303 51.8832 30.7307 50.4609C30.6146 50.3571 30.6146 50.3571 30.4961 50.2512C28.6059 48.4665 27.0813 45.7751 26.9561 43.1645C26.8963 41.0727 27.2079 39.2476 28.6279 37.6248C28.7983 37.4459 28.9704 37.2687 29.1447 37.0938C29.2074 37.0285 29.27 36.9632 29.3346 36.896C31.7453 34.5929 35.6832 35.3162 38.1072 37.1632ZM30.5041 38.2266C30.4344 38.2809 30.3648 38.3352 30.293 38.3912C29.3281 39.2384 28.7529 40.6459 28.6637 41.9055C28.5497 44.5735 29.7281 46.6853 31.4528 48.6626C33.1623 50.5072 36.2883 53.2548 38.9436 53.3638C39.8202 53.3329 40.6109 52.8886 41.3791 52.5C41.4927 52.4427 41.4927 52.4427 41.6087 52.3843C44.3581 50.9726 46.6988 48.9233 48.2893 46.2695C48.3468 46.1739 48.4043 46.0782 48.4636 45.9797C49.3545 44.3591 49.6005 42.3628 49.0858 40.5873C48.6318 39.3373 47.8946 38.3017 46.7033 37.6672C45.2566 37.0178 43.868 37.1186 42.4057 37.6672C41.2316 38.1825 40.4513 38.9602 39.7932 40.0391C39.5221 40.3864 39.4353 40.4763 39.0002 40.5488C38.5651 40.4763 38.4783 40.3864 38.2072 40.0391C38.1614 39.9647 38.1155 39.8904 38.0683 39.8138C37.2833 38.5443 36.0226 37.7044 34.5822 37.3203C33.0805 37.0422 31.7079 37.2486 30.5041 38.2266Z" fill="black"/>
</g>
<defs>
<clipPath id="clip0_1271_2343">
<rect width="58" height="58" fill="white" transform="translate(10 9)"/>
</clipPath>
</defs>
</svg>
