<svg width="77" height="77" viewBox="0 0 77 77" fill="none" xmlns="http://www.w3.org/2000/svg">
<path fill-rule="evenodd" clip-rule="evenodd" d="M5.85983 24.3616C12.3619 16.9332 26.5529 25.4134 37.4031 24.356C47.7796 23.3447 56.9357 12.3672 66.0463 18.4961C75.1674 24.6321 69.7228 36.6126 70.0534 46.3206C70.3859 56.0875 76.5177 68.9306 67.9274 73.7468C59.3762 78.541 48.5552 67.6554 38.1296 64.2188C28.4798 61.0379 16.9304 62.59 10.6868 54.8783C3.29872 45.7531 -0.968451 32.1626 5.85983 24.3616Z" fill="#FFDF18"/>
<path d="M64.2187 8.44622C64.5673 8.77543 64.6754 9.12264 64.7407 9.62574C64.8717 12.2471 62.987 14.852 61.6955 16.8437C61.6497 16.9143 61.6039 16.985 61.5567 17.0578C60.8597 18.1256 60.1219 19.1566 59.3847 20.1881C59.2448 20.3841 59.1055 20.5807 58.9663 20.7773C58.0544 22.0641 57.1125 23.3188 56.1348 24.5404C55.8665 24.8772 55.6028 25.2173 55.3475 25.5671C55.1428 25.8261 55.1428 25.8261 54.8962 26.0658C54.4659 26.5148 54.2067 26.8591 54.1028 27.5267C54.0804 28.0995 54.115 28.6683 54.1483 29.2397C54.1571 29.4549 54.1654 29.6701 54.1733 29.8853C54.1909 30.3416 54.2115 30.7974 54.2347 31.2533C54.271 31.9689 54.3003 32.6846 54.3282 33.4006C54.361 34.2318 54.3951 35.0629 54.4311 35.894C54.5035 37.5698 54.549 39.2447 54.5721 40.9224C54.5739 41.045 54.5758 41.1676 54.5777 41.2939C54.9225 64.7541 54.9225 64.7541 52.6721 67.539C52.2399 67.8761 51.9027 67.9841 51.383 67.9081C50.8839 67.699 50.6818 67.3201 50.4498 66.7993C49.0121 63.0499 48.697 58.7487 48.1604 54.7421C47.9931 55.1253 47.9967 55.5419 47.9636 55.9635C47.9466 56.1686 47.9296 56.3736 47.9126 56.5787C47.9038 56.6868 47.8949 56.795 47.8858 56.9064C47.0507 67.0507 47.0507 67.0507 45.5822 68.6464C45.2791 68.9218 45.1286 68.8921 44.7296 68.8848C44.2554 68.7943 44.0502 68.6004 43.7561 68.1542C43.4609 67.6074 43.2155 67.1463 43.2257 66.4931C43.3264 66.1855 43.3264 66.1855 43.5412 65.9394C43.8971 65.8625 43.8971 65.8625 44.2932 65.9394C44.524 66.2406 44.6727 66.5684 44.8303 66.9238C45.15 66.0827 45.3721 65.2618 45.5285 64.3629C45.551 64.235 45.5735 64.1071 45.5967 63.9753C46.5956 58.1155 46.8427 52.028 47.0457 46.0734C47.0569 45.7636 47.0707 45.4541 47.0861 45.1445C47.0914 45.0327 47.0966 44.9209 47.1019 44.8057C47.1089 44.6962 47.1158 44.5866 47.1229 44.4738C47.1287 44.3752 47.1345 44.2766 47.1404 44.175C47.2051 43.8574 47.2901 43.7399 47.5158 43.5449C47.8693 43.4932 48.0786 43.4918 48.3911 43.6945C48.6464 43.9762 48.6495 44.1186 48.6653 44.5198C48.6716 44.6438 48.6779 44.7678 48.6843 44.8956C48.6895 45.0309 48.6947 45.1661 48.7 45.3055C48.7154 45.5984 48.7315 45.8912 48.7481 46.1841C48.7568 46.3371 48.7654 46.4901 48.7744 46.6478C48.8604 47.9586 49.0197 49.2627 49.1666 50.566C49.1948 50.8169 49.2229 51.0677 49.2509 51.3186C49.9742 58.7589 49.9742 58.7589 51.7053 65.9394C52.025 65.4842 52.1389 65.0583 52.2424 64.4936C52.2604 64.3968 52.2785 64.3 52.2971 64.2003C52.6305 62.3296 52.782 60.4281 52.9004 58.5258C52.9085 58.396 52.9166 58.2662 52.925 58.1325C52.9519 57.6588 52.9741 57.185 52.9943 56.7109C53.0013 56.5507 53.0013 56.5507 53.0085 56.3873C53.1267 53.5607 53.123 50.7328 53.122 47.9036C53.1219 47.5014 53.122 47.0992 53.122 46.6971C53.1219 43.1789 53.0948 39.6633 53.0011 36.1467C52.9987 36.0587 52.9964 35.9706 52.994 35.88C52.9623 34.7023 52.9256 33.525 52.8869 32.3476C52.8778 32.0597 52.8687 31.7719 52.8596 31.484C52.812 29.9373 52.812 29.9373 52.7124 28.3942C52.5811 26.5406 52.5811 26.5406 53.1123 25.7305C53.4407 25.3036 53.8009 24.931 54.1801 24.5646C54.5366 24.2008 54.8365 23.7836 55.1428 23.3652C55.2448 23.229 55.3469 23.093 55.4491 22.9571C55.5485 22.824 55.6478 22.6909 55.747 22.5577C56.1546 22.0115 56.5643 21.4675 56.9766 20.926C57.564 20.1537 58.1375 19.374 58.6877 18.5663C58.8014 18.4016 58.9151 18.2369 59.0289 18.0722C61.7805 14.3006 61.7805 14.3006 63.3068 9.83002C62.6719 9.88452 62.2656 10.0961 61.7358 10.4914C61.6239 10.5732 61.6239 10.5732 61.5098 10.6567C60.8246 11.1697 60.2099 11.7572 59.5984 12.3781C59.3561 12.6207 59.1059 12.8515 58.8556 13.0831C58.2097 13.6856 57.5787 14.3072 56.9478 14.93C56.4433 15.4277 55.9377 15.9238 55.4317 16.4194C55.2572 16.5907 55.0833 16.7628 54.9095 16.935C54.0503 17.7821 53.16 18.5768 52.2535 19.3563C52.1071 19.4823 51.9609 19.6087 51.815 19.7355C50.8504 20.5741 49.867 21.3433 48.8049 22.0117C48.7419 22.0516 48.6788 22.0916 48.6139 22.1328C46.7845 23.2671 44.7355 23.6045 42.6818 23.7343C42.6 23.7399 42.5181 23.7455 42.4337 23.7512C41.1793 23.8274 41.1793 23.8274 40.812 23.5132C40.6408 23.2421 40.6408 23.2421 40.6475 22.7961C40.7483 22.3808 40.7483 22.3808 41.0705 22.1347C41.2784 22.1013 41.2784 22.1013 41.5162 22.0967C41.6053 22.0939 41.6945 22.0911 41.7863 22.0882C41.8824 22.0858 41.9786 22.0834 42.0776 22.0809C46.1787 21.9099 49.1096 20.1204 52.2424 17.2128C52.3438 17.1192 52.4451 17.0257 52.5496 16.9292C53.5697 15.9802 54.568 15.0009 55.5658 14.0213C55.6283 13.9599 55.6909 13.8984 55.7554 13.8351C56.0685 13.5274 56.3812 13.2192 56.6933 12.91C62.4979 7.16612 62.4979 7.16612 64.2187 8.44622Z" fill="black"/>
<path d="M48.7342 35.89C49.1064 36.2017 49.305 36.5278 49.4492 37.0234C49.5278 38.006 49.4529 38.7542 49.0195 39.6074C48.9661 39.7135 48.9126 39.8196 48.8576 39.9289C47.7921 41.9356 46.2705 43.7822 44.7294 45.3291C44.6303 45.43 44.6303 45.43 44.5293 45.533C44.293 45.7597 44.293 45.7597 44.0427 45.9486C43.6179 46.2977 43.3646 46.5628 43.2388 47.1565C43.2073 47.6725 43.2062 48.178 43.2158 48.6946C43.2158 48.8874 43.2154 49.0803 43.2145 49.2732C43.2136 49.6808 43.2154 50.0881 43.2197 50.4957C43.2262 51.13 43.226 51.7642 43.2244 52.3985C43.2239 52.6089 43.2234 52.8194 43.2229 53.0298C43.2227 53.1332 43.2224 53.2366 43.2222 53.3431C43.2217 53.6538 43.2218 53.9646 43.2221 54.2754C43.2233 55.7457 43.2011 57.2116 43.1247 58.6797C43.1202 58.7691 43.1156 58.8586 43.1108 58.9508C42.7018 66.6711 42.7018 66.6711 41.2851 68.5234C40.8557 68.8588 40.517 68.9643 39.9973 68.8531C39.3377 68.5979 39.0039 68.0361 38.6869 67.3545C38.3956 66.6434 38.2086 65.9282 38.0369 65.1689C37.9843 64.8453 37.9843 64.8453 37.8476 64.709C37.8241 64.8251 37.8006 64.9412 37.7763 65.0608C37.1894 67.833 37.1894 67.833 36.2342 68.6469C35.7422 68.9304 35.2477 68.9712 34.714 68.8315C34.0366 68.5172 33.6604 67.8951 33.3359 67.1699C32.378 64.4638 32.4223 61.3826 32.4356 58.5129C32.4363 58.2605 32.4358 58.008 32.435 57.7556C32.4293 56.0382 32.4407 54.3372 32.6251 52.6297C32.9579 50.5713 32.9579 50.5713 32.6309 48.5971C32.1578 47.9951 31.5882 47.6839 30.9412 47.3836C30.4933 47.1568 30.1318 46.8302 29.7507 46.4826C29.6116 46.3618 29.4724 46.241 29.3332 46.1202C28.6764 45.5365 28.0488 44.9158 27.4277 44.2832C27.3661 44.221 27.3044 44.1587 27.2408 44.0946C24.5296 41.3506 24.5296 41.3506 24.3964 39.5329C24.3772 38.8533 24.3862 38.3326 24.7422 37.7617C25.2691 37.1715 25.697 36.9328 26.4274 36.8619C27.9252 36.914 29.3658 37.8477 30.6168 38.7076C30.7286 38.7833 30.8403 38.859 30.9554 38.9369C31.2839 39.1596 31.6117 39.3833 31.9394 39.6074C34.4088 41.5436 34.4088 41.5436 37.2031 42.1914C38.9354 41.6054 40.4285 40.1456 41.8546 38.9297C46.8685 34.6551 46.8685 34.6551 48.7342 35.89ZM46.1728 37.554C46.0989 37.598 46.025 37.642 45.9489 37.6874C44.7317 38.4327 43.6396 39.3985 42.5339 40.338C38.2036 44.0153 38.2036 44.0153 36.1558 43.7372C34.2435 43.2848 32.4743 41.9028 30.8315 40.7579C28.641 39.084 28.641 39.084 26.1387 38.5C25.9079 38.6104 25.9079 38.6104 25.8164 38.8691C25.7745 40.0201 26.577 40.9819 27.2062 41.7915C27.6503 42.3323 28.1118 42.8242 28.6094 43.2988C28.7057 43.3954 28.8021 43.492 28.9014 43.5915C30.4728 45.1605 32.1929 46.5106 33.9207 47.8411C34.0879 47.9746 34.0879 47.9746 34.1953 48.0976C34.1909 48.3568 34.1777 48.6158 34.1617 48.8744C34.1567 48.9594 34.1516 49.0445 34.1464 49.1322C34.1117 49.7097 34.0736 50.287 34.0363 50.8643C33.1298 59.3023 33.1298 59.3023 34.9473 67.1314C35.1484 67.3176 35.1484 67.3176 35.3702 67.279C35.8277 67.0537 35.9827 66.4405 36.1606 65.9378C36.7212 64.1282 36.8451 62.1186 36.9299 60.2153C36.9364 60.0745 36.9364 60.0745 36.943 59.9309C36.9649 59.4519 36.9849 58.9731 37.002 58.4939C37.0095 58.3151 37.0171 58.1364 37.0248 57.9577C37.0307 57.7977 37.0367 57.6377 37.0428 57.4728C37.0957 57.08 37.0957 57.08 37.2407 56.8397C37.418 56.7109 37.418 56.7109 37.7469 56.7263C38.0625 56.834 38.0625 56.834 38.2773 57.2031C38.3252 57.5188 38.3627 57.8273 38.3931 58.1452C38.4135 58.34 38.4339 58.5348 38.4544 58.7297C38.4649 58.832 38.4754 58.9343 38.4862 59.0397C38.8299 63.2907 38.8299 63.2907 40.2109 67.1699C40.5334 67.0888 40.5334 67.0888 40.6436 66.8565C41.9317 63.2849 41.8364 58.7484 41.8371 54.9368C41.8376 54.3252 41.8409 53.7136 41.8437 53.1019C41.8469 52.3296 41.8494 51.5574 41.8492 50.785C41.8491 50.1546 41.8516 49.5242 41.8558 48.8937C41.8569 48.6549 41.8571 48.416 41.8563 48.1771C41.8552 47.8447 41.8575 47.5125 41.8605 47.1801C41.8595 47.0823 41.8584 46.9844 41.8572 46.8836C41.8654 46.3839 41.9069 46.1604 42.1891 45.7704C42.2807 45.6856 42.3724 45.6009 42.4668 45.5136C42.5732 45.3964 42.5732 45.3964 42.6818 45.2767C42.9076 45.0325 43.1336 44.7885 43.3597 44.5446C43.4372 44.4607 43.5147 44.3768 43.5945 44.2904C44.0414 43.8083 44.4946 43.3382 44.9618 42.8819C45.2318 42.6008 45.4646 42.2904 45.6995 41.9712C45.8472 41.775 46.0001 41.584 46.1561 41.3964C47.0303 40.3424 48.0733 39.0319 48.1601 37.5156C48.0637 37.281 48.0637 37.281 47.8379 37.1465C47.1912 37.0679 46.7467 37.2023 46.1728 37.554Z" fill="black"/>
<path d="M24.2254 10.4145C25.2731 11.3746 25.8948 12.626 26.4611 13.9982C26.52 14.1394 26.5789 14.2807 26.6396 14.4262C27.2151 15.8197 27.7253 17.244 28.2379 18.669C29.447 22.3841 29.447 22.3841 31.4025 25.58C31.4025 25.6612 31.4025 25.7424 31.4025 25.8261C31.4644 25.8607 31.5263 25.8953 31.5901 25.9309C31.7418 26.0194 31.8915 26.113 32.0374 26.2135C34.0216 27.5087 36.6703 27.4083 38.8847 27.4589C38.9954 27.4614 39.1062 27.4639 39.2202 27.4665C39.7823 27.4788 40.3443 27.4889 40.9064 27.496C41.0652 27.4986 41.0652 27.4986 41.2272 27.5013C41.4277 27.5047 41.6283 27.5071 41.8288 27.5084C42.8783 27.5277 42.8783 27.5277 43.219 27.9179C43.2679 28.6742 43.2679 28.6742 43.1115 29.0099C42.3737 29.4853 41.292 29.2674 40.4797 29.233C40.4052 29.23 40.3307 29.227 40.254 29.2239C39.7025 29.2016 39.1511 29.1758 38.5998 29.1484C38.5236 29.1446 38.4474 29.1409 38.369 29.1371C32.0061 28.8211 32.0061 28.8211 30.2234 26.6783C28.4293 24.267 27.4742 21.0867 26.4343 18.1895C25.3556 14.6362 25.3556 14.6362 23.3459 11.7988C23.275 11.7988 23.2041 11.7988 23.1311 11.7988C22.0617 14.2485 24.1631 19.3083 24.7761 21.7215C27.2387 31.4184 23.3895 40.891 19.8597 49.7462C19.6762 50.1597 19.6762 50.1597 19.6868 50.5201C20.2122 51.8299 21.4617 52.3643 22.5738 52.8426C25.0876 53.8773 27.7032 54.4106 30.361 54.6581C30.7536 54.6978 30.9602 54.7325 31.2951 54.9882C31.3341 55.2189 31.3341 55.2189 31.3287 55.4804C31.3283 55.5667 31.3279 55.653 31.3274 55.7419C31.2951 55.9726 31.2951 55.9726 31.0803 56.2187C27.9535 56.6344 24.2772 55.5182 21.4123 54.1269C21.3413 54.0925 21.2703 54.0581 21.1972 54.0226C20.0084 53.4315 18.8344 52.5845 18.2971 51.1738C18.1162 50.3512 18.2288 49.7641 18.5253 49.0051C18.5638 48.9006 18.6023 48.796 18.642 48.6884C18.7757 48.3264 18.9124 47.9659 19.049 47.6054C19.2653 47.0267 19.48 46.4473 19.6936 45.8674C19.7227 45.7884 19.7518 45.7093 19.7817 45.6279C23.6813 35.9754 23.6813 35.9754 24.2023 25.7088C24.1789 25.5939 24.1555 25.4789 24.1314 25.3604C23.7826 23.6939 23.3395 22.056 22.9096 20.4151C21.0261 13.2066 21.0261 13.2066 21.722 11.172C21.9707 10.6859 22.3377 10.2982 22.8067 10.117C23.3372 10.0171 23.7651 10.125 24.2254 10.4145Z" fill="black"/>
<path d="M38.2705 15.221C39.22 16.08 39.9551 17.1773 40.2108 18.5663C40.3535 20.3316 40.2174 21.8422 39.2642 23.2959C38.3656 24.4804 37.1788 25.2412 35.7964 25.3632C34.245 25.4019 33.0542 24.9405 31.9158 23.7261C31.0156 22.6507 30.5587 21.3003 30.5093 19.8198C30.5437 18.3235 31.0153 16.915 31.9125 15.8208C33.6683 13.9585 36.2736 13.6312 38.2705 15.221ZM32.9258 16.9258C32.169 17.8753 31.8974 18.8791 31.9095 20.1457C31.9855 21.1388 32.4107 22.0396 33.0135 22.7499C34.0187 23.6801 34.9583 23.8565 36.2362 23.7343C37.265 23.449 38.0338 22.553 38.5793 21.5511C39.0012 20.6324 39.023 19.6588 38.7875 18.674C38.46 17.5294 37.7664 16.7235 36.8807 16.1054C35.4879 15.4264 34.0338 15.7605 32.9258 16.9258Z" fill="black"/>
<path d="M48.8047 9.2149C48.9476 9.32149 48.9476 9.32149 49.0934 9.43023C50.0363 10.4812 50.6325 11.8393 50.6623 13.343C50.6742 15.0542 50.3583 16.3515 49.3179 17.6292C48.1244 18.9421 46.9361 19.2439 45.3441 19.2158C44.0263 19.1566 42.9152 18.3239 42.0216 17.2533C41.18 16.0437 40.8399 14.5564 40.9629 13.0294C41.155 11.5567 41.7183 10.2579 42.7333 9.30718C44.6609 7.77352 46.8539 7.67141 48.8047 9.2149ZM43.3262 10.8145C42.6298 11.7966 42.287 12.7336 42.3233 14.0036C42.4424 15.2554 42.9407 16.1381 43.7559 16.9669C44.4726 17.5353 45.3621 17.7905 46.2266 17.7051C47.3003 17.4612 48.1559 16.9017 48.7816 15.8614C49.2865 14.9019 49.4765 13.9084 49.2797 12.8039C49.0078 11.7012 48.5118 10.8523 47.6549 10.2368C46.2127 9.3914 44.5348 9.4776 43.3262 10.8145Z" fill="black"/>
<path d="M39.2151 32.8385C40.0903 33.6959 40.6809 34.5904 40.7752 35.9363C40.8141 37.2572 40.6287 38.2444 39.8885 39.2768C39.2292 40.0633 38.3313 40.6484 37.37 40.7399C36.1273 40.7648 35.1408 40.3849 34.2216 39.407C33.4699 38.477 33.1896 37.3679 33.2057 36.1227C33.2891 34.9091 33.7753 33.864 34.5577 33.0475C35.8916 31.8306 37.8101 31.6666 39.2151 32.8385ZM34.9715 34.8235C34.5732 35.5224 34.5355 36.2114 34.6249 37.0235C34.8524 37.9064 35.2305 38.3967 35.9152 38.862C36.5229 39.2326 37.2193 39.2454 37.8861 39.0355C38.5092 38.7118 38.9623 38.1747 39.2591 37.4715C39.4705 36.7274 39.4653 35.8503 39.1836 35.1316C38.8251 34.4326 38.3036 33.9513 37.6327 33.7012C36.4824 33.5449 35.7114 33.8032 34.9715 34.8235Z" fill="black"/>
<path d="M23.7217 56.4033C24.1161 56.4679 24.1887 56.489 24.42 56.834C24.4669 57.2064 24.4951 57.5579 24.5106 57.9323C24.5164 58.042 24.5222 58.1517 24.5282 58.2647C24.5406 58.4994 24.5524 58.7341 24.5636 58.9689C24.5927 59.5745 24.6268 60.1797 24.6612 60.7849C24.6679 60.9029 24.6745 61.0208 24.6813 61.1423C24.7778 62.8043 24.9852 64.4318 25.2793 66.0625C25.3502 66.0625 25.4211 66.0625 25.4942 66.0625C25.5062 65.9912 25.5182 65.9198 25.5305 65.8463C25.6297 65.2668 25.7357 64.6902 25.8521 64.1149C26.095 62.911 26.3321 61.7095 26.5038 60.4893C26.5156 60.4053 26.5274 60.3214 26.5396 60.2348C26.5967 59.8254 26.6514 59.4159 26.7041 59.0057C26.724 58.8577 26.7439 58.7096 26.7644 58.5571C26.7811 58.4262 26.7978 58.2953 26.815 58.1604C26.8962 57.7935 26.9806 57.594 27.2129 57.3262C27.5889 57.2646 27.5889 57.2646 27.9649 57.3262C28.1914 57.585 28.2824 57.7349 28.3034 58.1036C28.2918 58.2084 28.2802 58.3131 28.2683 58.4211C28.2554 58.5408 28.2426 58.6605 28.2294 58.7839C28.213 58.9119 28.1966 59.04 28.1797 59.1719C28.1632 59.3021 28.1467 59.4324 28.1296 59.5666C27.1941 66.5093 27.1941 66.5093 26.1991 67.8159C25.8706 68.0729 25.6779 68.1543 25.2793 68.1543C24.6894 67.911 24.3667 67.562 24.0995 66.9136C23.8188 66.1411 23.6583 65.396 23.5471 64.5706C23.5205 64.379 23.5205 64.379 23.4933 64.1836C23.3094 62.8052 23.2067 61.4242 23.1309 60.0332C23.119 59.8318 23.119 59.8318 23.1069 59.6264C23.0835 59.2212 23.0631 58.816 23.0436 58.4105C23.0366 58.2862 23.0296 58.162 23.0223 58.0339C23.0016 57.527 22.9924 57.1682 23.1598 56.6932C23.3457 56.4648 23.3457 56.4648 23.7217 56.4033Z" fill="black"/>
<path d="M29.1534 57.4492C29.5263 57.5946 29.5975 57.6785 29.7912 58.0645C29.8429 58.3749 29.8781 58.6645 29.9016 58.9777C29.9095 59.0674 29.9174 59.1571 29.9255 59.2495C29.9424 59.4417 29.9588 59.6339 29.9746 59.8263C30.0163 60.3295 30.063 60.8321 30.1097 61.3348C30.1189 61.4346 30.1281 61.5344 30.1376 61.6372C30.3048 63.4191 30.4795 65.2546 31.0803 66.9238C31.1157 66.8832 31.1512 66.8426 31.1877 66.8008C31.8546 66.7442 31.8546 66.7442 32.1478 66.9392C32.3228 67.293 32.3169 67.507 32.2619 67.9082C31.7475 68.7593 31.7475 68.7593 31.2951 68.8926C30.7537 68.8926 30.5441 68.8824 30.1403 68.4619C29.6241 67.6296 29.3812 66.6649 29.2004 65.678C29.1781 65.5582 29.1559 65.4384 29.133 65.315C28.759 63.2085 28.5293 61.0461 28.3947 58.9027C28.3876 58.81 28.3805 58.7174 28.3732 58.6219C28.3531 58.197 28.3676 57.9842 28.589 57.6352C28.8244 57.4492 28.8244 57.4492 29.1534 57.4492Z" fill="black"/>
<path d="M42.8963 30.5018C43.1217 30.6951 43.2079 30.8038 43.2588 31.1239C43.2587 31.2207 43.2587 31.3175 43.2586 31.4173C43.2593 31.5273 43.2599 31.6373 43.2606 31.7507C43.2596 31.8692 43.2586 31.9876 43.2576 32.1096C43.2577 32.2314 43.2577 32.3532 43.2578 32.4787C43.2575 32.7361 43.2565 32.9936 43.2547 33.251C43.2522 33.6461 43.2525 34.0411 43.2532 34.4362C43.2526 34.6861 43.2519 34.9359 43.2509 35.1858C43.251 35.3045 43.2511 35.4232 43.2512 35.5455C43.2502 35.6551 43.2492 35.7648 43.2481 35.8777C43.2476 35.9744 43.2471 36.0711 43.2466 36.1708C43.2186 36.4081 43.2186 36.4081 43.0038 36.6542C42.3346 36.7239 42.3346 36.7239 42.0694 36.5005C41.8947 36.2314 41.8888 36.0852 41.8878 35.752C41.8868 35.6448 41.8858 35.5377 41.8848 35.4272C41.8854 35.3119 41.8861 35.1965 41.8867 35.0776C41.8864 34.9589 41.8861 34.8401 41.8858 34.7177C41.8856 34.4666 41.8862 34.2155 41.8875 33.9643C41.8893 33.5795 41.8875 33.1948 41.8855 32.8099C41.8857 32.5661 41.8861 32.3222 41.8867 32.0784C41.8861 31.963 41.8854 31.8477 41.8848 31.7288C41.8858 31.6216 41.8868 31.5144 41.8878 31.404C41.8881 31.3098 41.8884 31.2155 41.8886 31.1184C41.9947 30.4767 42.3926 30.4297 42.8963 30.5018Z" fill="black"/>
</svg>
