<svg width="77" height="77" viewBox="0 0 77 77" fill="none" xmlns="http://www.w3.org/2000/svg">
<path fill-rule="evenodd" clip-rule="evenodd" d="M5.85983 24.3616C12.3619 16.9332 26.5529 25.4134 37.4031 24.356C47.7796 23.3447 56.9357 12.3672 66.0463 18.4961C75.1674 24.6321 69.7228 36.6126 70.0534 46.3206C70.3859 56.0875 76.5177 68.9306 67.9274 73.7468C59.3762 78.541 48.5552 67.6554 38.1296 64.2188C28.4798 61.0379 16.9304 62.59 10.6868 54.8783C3.29872 45.7531 -0.968451 32.1626 5.85983 24.3616Z" fill="#FFDF18"/>
<g clip-path="url(#clip0_1271_2386)">
<path d="M33.4511 12.0742C33.5212 12.1047 33.5913 12.1351 33.6635 12.1665C35.5056 12.9794 37.0636 14.2192 38.3925 15.7266C38.3925 15.7975 38.3925 15.8684 38.3925 15.9414C38.4634 15.9414 38.5343 15.9414 38.6073 15.9414C38.6514 15.8454 38.6514 15.8454 38.6964 15.7474C39.3488 14.5248 40.7746 13.6184 41.9374 12.9336C42.0356 12.8751 42.0356 12.8751 42.1358 12.8154C44.8732 11.2069 48.3983 10.4133 51.5315 11.1679C53.2334 11.6273 55.6078 12.6532 56.5694 14.2197C56.7057 14.5698 56.6377 14.8324 56.5468 15.1895C56.2996 15.4842 56.1484 15.5081 55.7659 15.5525C55.2719 15.5023 55.0549 15.3062 54.7139 14.9746C53.0512 13.4725 50.9203 12.6337 48.6605 12.6995C45.262 12.9356 42.17 14.489 39.8964 17.0157C39.7647 17.1979 39.6348 17.3813 39.507 17.5662C39.2476 17.9141 39.0803 18.0498 38.6476 18.1167C38.2248 18.1442 37.9814 18.0129 37.6405 17.7676C37.4416 17.5427 37.4416 17.5427 37.2511 17.2842C36.4753 16.2853 35.6042 15.4241 34.5253 14.7598C34.4643 14.7219 34.4032 14.6839 34.3403 14.6449C31.8833 13.1357 28.9655 12.3567 26.0855 12.9369C24.7215 13.2682 23.4411 13.9471 22.3866 14.8672C22.2828 14.9495 22.1789 15.0317 22.0719 15.1165C21.7353 15.397 21.4667 15.719 21.205 16.069C21.1591 16.1294 21.1132 16.1898 21.0659 16.252C20.6785 16.7698 20.3373 17.3096 20.0233 17.875C20.2848 17.968 20.5466 18.0595 20.8089 18.1503C20.883 18.1768 20.9572 18.2033 21.0336 18.2307C21.49 18.3939 21.49 18.3939 21.9569 18.3047C22.1191 18.1083 22.1191 18.1083 22.2792 17.8683C23.0393 16.8634 24.1579 16.1878 25.3944 15.9414C26.8957 15.8357 28.0071 16.1823 29.1915 17.1046C30.4174 18.2064 30.9798 19.8345 31.1172 21.4414C31.1668 22.994 30.7721 24.431 30.121 25.8242C30.0904 25.89 30.0598 25.9557 30.0283 26.0235C29.2299 27.7016 28.0694 29.109 26.7909 30.4434C26.7069 30.5392 26.6228 30.635 26.5362 30.7338C26.4563 30.8218 26.3764 30.9099 26.2941 31.0006C26.2262 31.0775 26.1584 31.1543 26.0885 31.2335C25.6211 31.5459 25.1332 31.561 24.5855 31.4748C24.2943 31.407 24.0092 31.3277 23.7227 31.2423C23.568 31.198 23.568 31.198 23.4101 31.1527C22.0409 30.7521 20.7462 30.257 19.4862 29.584C19.6822 30.295 19.9186 30.9604 20.2382 31.625C20.28 31.7123 20.3219 31.7996 20.365 31.8895C21.1516 33.4951 22.1388 34.9515 23.246 36.3516C23.2925 36.4129 23.339 36.4743 23.387 36.5375C23.6457 36.8684 23.8258 37.0653 24.2396 37.1573C25.1216 37.4126 25.7439 37.8803 26.2261 38.6616C26.37 38.9471 26.4702 39.2302 26.5694 39.534C26.7758 40.1382 27.0555 40.4616 27.5429 40.8633C27.6269 40.9343 27.711 41.0054 27.7976 41.0786C28.0471 41.2858 28.2989 41.4896 28.5524 41.6919C28.7341 41.8378 28.9144 41.9853 29.0946 42.1331C30.0842 42.9404 31.1085 43.6867 32.162 44.4082C32.2301 44.455 32.2982 44.5018 32.3684 44.55C34.1051 45.7384 35.9172 46.7967 37.7498 47.8292C37.9323 47.9354 38.1094 48.0509 38.2851 48.168C38.6769 48.1302 38.9766 48 39.3198 47.8134C39.4143 47.7622 39.5087 47.7111 39.606 47.6583C39.7564 47.575 39.7564 47.575 39.9098 47.4899C40.0143 47.4324 40.1188 47.3749 40.2264 47.3156C41.2526 46.7446 42.2447 46.1261 43.2265 45.4825C43.2997 45.4345 43.3729 45.3866 43.4484 45.3372C44.3876 44.7207 45.3131 44.0846 46.2343 43.4414C46.1419 43.3646 46.0495 43.2877 45.9544 43.2085C44.6338 42.0996 43.4288 40.9371 42.3671 39.5742C42.28 39.4675 42.1929 39.3607 42.1031 39.2507C40.0288 36.6812 38.9095 33.6485 39.1444 30.336C39.3726 28.5952 40.2723 27.0077 41.6151 25.8914C42.7504 25.0278 43.953 24.675 45.3845 24.7727C47.1557 25.0194 48.5751 25.9347 49.6718 27.3282C49.7427 27.4345 49.8136 27.5408 49.8866 27.6504C50.0023 27.6039 50.0023 27.6039 50.1203 27.5564C51.9135 26.8421 53.5795 26.4815 55.4726 27.1133C56.3985 27.5318 57.0983 28.0399 57.7284 28.8321C57.9297 28.5301 57.9869 28.3853 58.0545 28.0423C58.0727 27.9508 58.0909 27.8593 58.1096 27.765C58.1278 27.6696 58.1461 27.5742 58.1648 27.4759C58.1834 27.3829 58.2021 27.29 58.2213 27.1943C58.7754 24.3622 58.581 21.2416 57.3189 18.6136C57.1055 18.1685 56.9918 17.839 57.0839 17.3379C57.245 17.0761 57.245 17.0761 57.5136 16.9082C57.8149 16.8428 58.0772 16.8153 58.3729 16.9082C60.1028 18.7035 60.3644 22.2827 60.3443 24.6156C60.2903 26.7337 59.9474 28.9867 59.0309 30.9134C58.777 31.4734 58.7762 31.9757 58.7967 32.5768C58.8447 34.2381 58.2532 35.862 57.2987 37.211C57.1745 37.3379 57.1745 37.3379 57.0478 37.4674C56.7888 37.7346 56.5949 37.9462 56.4393 38.2852C56.5138 38.6749 56.6554 38.9861 56.8246 39.3443C57.3025 40.4058 56.7812 41.544 56.4393 42.5821C56.3962 42.7134 56.353 42.8448 56.3085 42.9801C55.9978 43.9229 55.6826 44.8642 55.3651 45.8047C55.4318 45.7852 55.4984 45.7657 55.5671 45.7455C55.8689 45.6574 56.1709 45.5699 56.4729 45.4825C56.5778 45.4517 56.6827 45.421 56.7908 45.3893C56.8915 45.3602 56.9923 45.3311 57.096 45.3012C57.1889 45.2742 57.2817 45.2472 57.3773 45.2194C57.621 45.1602 57.621 45.1602 57.9433 45.1602C57.9417 45.0415 57.9417 45.0415 57.94 44.9205C57.9343 44.1642 57.9666 43.4216 58.035 42.6687C58.0448 42.5562 58.0546 42.4437 58.0647 42.3278C58.0969 41.9603 58.1299 41.5929 58.1631 41.2254C58.1862 40.9676 58.2092 40.7097 58.2323 40.4519C58.2806 39.9133 58.3295 39.3747 58.3786 38.8362C58.4412 38.1484 58.5019 37.4604 58.562 36.7724C58.6088 36.2404 58.6571 35.7086 58.7058 35.1768C58.7288 34.9233 58.7512 34.6697 58.7731 34.4161C58.8039 34.0608 58.8368 33.7058 58.8701 33.3507C58.8786 33.2475 58.8871 33.1442 58.8958 33.0379C59.0144 31.828 59.3791 30.8254 60.3065 30.0137C61.3015 29.3308 62.2469 29.2886 63.4218 29.3692C64.3819 29.594 65.1184 30.3189 65.6768 31.1018C65.9947 31.6921 66.037 32.2387 66.0319 32.8928C66.0315 32.9898 66.031 33.0867 66.0305 33.1866C66.0087 34.6341 65.8587 36.076 65.725 37.5166C65.6858 37.9403 65.6478 38.3641 65.6096 38.788C65.5454 39.4978 65.4805 40.2076 65.4151 40.9174C65.3397 41.7348 65.2654 42.5523 65.1917 43.3699C65.1203 44.1622 65.0483 44.9545 64.976 45.7467C64.9454 46.0815 64.915 46.4163 64.8848 46.7512C64.8491 47.1454 64.8129 47.5395 64.7763 47.9336C64.7568 48.1451 64.7378 48.3567 64.7188 48.5683C64.5563 50.3014 64.3726 51.5564 63.0001 52.7347C62.5567 53.0935 62.1065 53.4424 61.6514 53.7862C61.2309 54.1058 60.8226 54.4398 60.414 54.7744C59.7855 55.2882 59.1495 55.7892 58.5043 56.2817C58.129 56.5683 57.7572 56.8593 57.386 57.1512C57.3287 57.1962 57.2713 57.2412 57.2122 57.2876C57.0942 57.3805 56.977 57.4745 56.8607 57.5695C56.6542 57.7285 56.6542 57.7285 56.3751 57.9075C55.8032 58.297 55.8032 58.297 55.4775 58.888C55.432 59.2498 55.4201 59.5996 55.4188 59.9643C55.4138 60.0974 55.4088 60.2305 55.4037 60.3677C55.3928 60.6571 55.3837 60.9461 55.3772 61.2355C55.3593 61.9886 55.3224 62.7407 55.2833 63.4928C55.2713 63.7408 55.2621 63.9887 55.2533 64.2367C55.2462 64.3903 55.239 64.5439 55.2317 64.6975C55.2236 64.8998 55.2236 64.8998 55.2154 65.1062C55.1343 65.5505 55.0617 65.7006 54.7206 66C54.3232 66.0827 53.9296 66.0733 53.5249 66.0695C53.4029 66.0705 53.281 66.0714 53.1553 66.0724C52.7517 66.0747 52.3481 66.0732 51.9444 66.0714C51.6643 66.0717 51.3841 66.0722 51.104 66.0729C50.5166 66.0739 49.9293 66.0726 49.342 66.07C48.6632 66.0671 47.9845 66.0681 47.3057 66.071C46.6524 66.0738 45.9991 66.0735 45.3458 66.0719C45.0679 66.0715 44.79 66.072 44.5121 66.0732C44.124 66.0746 43.7361 66.0725 43.3479 66.0695C43.2326 66.0706 43.1173 66.0717 42.9985 66.0728C42.2258 66.0618 42.2258 66.0617 41.8643 65.7585C41.718 65.4534 41.6752 65.2948 41.6963 64.961C41.7014 64.8632 41.7065 64.7655 41.7117 64.6647C41.7196 64.5588 41.7274 64.4529 41.7356 64.3438C41.7421 64.2313 41.7487 64.1188 41.7555 64.0029C41.7779 63.63 41.8038 63.2574 41.83 62.8848C41.847 62.6229 41.864 62.3609 41.8808 62.099C41.9441 61.1332 42.013 60.1677 42.082 59.2023C42.1115 58.7876 42.1405 58.3728 42.1694 57.9581C42.1785 57.8336 42.1876 57.7092 42.1969 57.581C42.3128 56.0402 42.3128 56.0402 42.0515 54.5327C41.534 52.7893 41.5517 51.0255 42.3805 49.3832C42.7633 48.7158 43.2177 48.1702 43.7636 47.6309C43.8349 47.5572 43.9062 47.4836 43.9797 47.4077C44.9855 46.4344 46.2874 45.8089 47.6062 45.3779C48.0373 45.2327 48.3182 45.0933 48.5976 44.7305C48.7391 44.4314 48.7391 44.4314 48.8393 44.1128C48.8753 44.007 48.9113 43.9012 48.9484 43.7922C48.9744 43.7119 49.0004 43.6316 49.0272 43.5489C48.9644 43.6024 48.9015 43.656 48.8367 43.7112C46.2369 45.8855 43.3201 47.6491 40.3865 49.3295C40.2752 49.3945 40.164 49.4595 40.0494 49.5264C38.7921 50.2373 38.7921 50.2373 38.0371 50.0352C37.3064 49.7665 36.6418 49.3648 35.9755 48.9669C35.8625 48.9001 35.7495 48.8333 35.6331 48.7645C35.2992 48.5664 34.9659 48.3673 34.6327 48.168C34.4612 48.0664 34.2897 47.9649 34.1183 47.8634C31.9738 46.5832 29.8822 45.1616 27.9725 43.5489C28.0249 43.7557 28.0818 43.9614 28.1404 44.1665C28.1716 44.2812 28.2027 44.3958 28.2348 44.514C28.5625 45.148 29.2756 45.3273 29.9129 45.563C31.3487 46.1215 32.4746 46.8593 33.5585 47.9532C33.6222 48.0133 33.6859 48.0733 33.7515 48.1353C34.7958 49.2076 35.267 50.7633 35.3108 52.2165C35.2975 53.1518 35.137 54.0757 34.8366 54.9628C34.593 55.9788 34.7658 57.0802 34.8396 58.1144C34.858 58.3729 34.8759 58.6314 34.8937 58.8899C34.9316 59.4382 34.9701 59.9866 35.0087 60.5349C35.0534 61.1719 35.0979 61.8088 35.1418 62.4458C35.1594 62.6988 35.1773 62.9519 35.1953 63.2049C35.2256 63.6352 35.252 64.0655 35.2772 64.4961C35.2846 64.5974 35.292 64.6987 35.2996 64.803C35.3165 65.1668 35.2966 65.4235 35.135 65.7524C34.6827 66.142 34.2304 66.075 33.6519 66.0695C33.5299 66.0705 33.4079 66.0714 33.2823 66.0724C32.8786 66.0747 32.475 66.0732 32.0714 66.0714C31.7912 66.0717 31.5111 66.0722 31.2309 66.0729C30.6436 66.0739 30.0563 66.0726 29.469 66.07C28.7901 66.0671 28.1114 66.0681 27.4326 66.071C26.7793 66.0738 26.126 66.0735 25.4727 66.0719C25.1949 66.0715 24.917 66.072 24.6391 66.0732C24.251 66.0746 23.863 66.0725 23.4749 66.0695C23.3596 66.0706 23.2443 66.0717 23.1255 66.0728C22.3534 66.0618 22.3534 66.0618 21.9944 65.7632C21.8421 65.4475 21.7886 65.2352 21.7728 64.8865C21.7668 64.7739 21.7607 64.6612 21.7544 64.5452C21.7499 64.4245 21.7455 64.3037 21.7408 64.1793C21.7345 64.0539 21.7282 63.9284 21.7218 63.7992C21.702 63.3982 21.6851 62.9972 21.6682 62.5961C21.6497 62.197 21.6305 61.7979 21.6112 61.3988C21.5995 61.1507 21.5882 60.9026 21.5775 60.6545C21.554 60.1219 21.527 59.5897 21.4848 59.0582C21.4782 58.9741 21.4717 58.8899 21.465 58.8032C21.389 58.4411 21.1681 58.2974 20.876 58.0911C20.3679 57.6798 20.3679 57.6798 20.2558 57.3849C20.2372 56.9972 20.3266 56.7853 20.5672 56.4865C20.9828 56.2831 21.187 56.3358 21.6347 56.4395C21.9607 56.6359 21.9607 56.6359 22.2859 56.896C22.3449 56.9429 22.4038 56.9899 22.4645 57.0382C23.1303 57.5774 23.75 58.1679 24.3716 58.7567C24.7986 59.1577 25.2371 59.5425 25.7033 59.8971C25.947 60.105 26.0586 60.2142 26.1464 60.5215C26.1274 60.8816 26.0994 61.1632 25.9248 61.4816C25.6565 61.6288 25.4129 61.6783 25.1074 61.6704C24.651 61.5341 24.3515 61.1899 24.0193 60.8614C23.783 60.6143 23.783 60.6143 23.4608 60.4141C23.4608 61.7394 23.5173 63.0643 23.5683 64.3887C26.8296 64.3887 30.0909 64.3887 33.4511 64.3887C33.3846 63.4116 33.3181 62.4346 33.2496 61.4279C33.2292 61.1229 33.2087 60.8179 33.1876 60.5037C32.9496 57.0209 32.3422 54.4802 29.6846 52.0553C29.5087 51.9043 29.3319 51.7543 29.1542 51.6055C29.0642 51.5264 28.9742 51.4474 28.8814 51.3659C26.1946 49.0635 22.617 47.9741 19.2668 47.0606C17.7504 46.6373 17.7504 46.6373 17.4452 46.127C17.3863 45.8598 17.3863 45.8598 17.3597 45.5545C17.3434 45.3805 17.3434 45.3805 17.3269 45.203C17.3113 45.0129 17.3113 45.0129 17.2954 44.819C17.2833 44.6853 17.2712 44.5515 17.2587 44.4137C17.2326 44.1232 17.207 43.8328 17.1823 43.5422C17.1431 43.0826 17.1016 42.6233 17.0598 42.1639C16.9571 41.0305 16.8572 39.8969 16.7578 38.7632C16.6818 37.8966 16.605 37.03 16.5257 36.1636C16.4852 35.7199 16.4464 35.2761 16.4088 34.8321C16.3794 34.4903 16.3477 34.1487 16.3164 33.807C16.3066 33.6852 16.2968 33.5635 16.2866 33.438C16.218 32.7182 16.1294 31.9838 15.5567 31.4739C15.0583 31.1212 14.4887 31.1 13.9003 31.1953C13.3714 31.45 13.1132 31.7641 12.8261 32.2696C12.5728 33.9041 12.9499 35.7297 13.101 37.3726C13.14 37.7982 13.1781 38.2239 13.2164 38.6495C13.2806 39.3629 13.3456 40.0761 13.4109 40.7894C13.4862 41.6117 13.5605 42.434 13.6342 43.2565C13.7056 44.052 13.7776 44.8475 13.85 45.6429C13.8806 45.9797 13.911 46.3165 13.9412 46.6533C13.9768 47.0498 14.013 47.4463 14.0497 47.8426C14.0693 48.056 14.0882 48.2694 14.1072 48.4828C14.2553 50.1528 14.2553 50.1528 15.2796 51.4322C15.3894 51.5138 15.4992 51.5953 15.6123 51.6793C15.736 51.7723 15.8597 51.8653 15.9833 51.9584C16.0469 52.006 16.1105 52.0537 16.1761 52.1028C16.5019 52.3489 16.8225 52.6015 17.1431 52.8543C17.2056 52.9035 17.268 52.9528 17.3324 53.0035C17.4548 53.1 17.5771 53.1966 17.6994 53.2932C17.8675 53.4258 18.0361 53.5578 18.2047 53.6897C18.3019 53.7663 18.3991 53.8429 18.4993 53.9218C18.5842 53.9884 18.6691 54.055 18.7565 54.1236C19.0171 54.3501 19.0518 54.463 19.0901 54.808C19.0473 55.2449 18.9614 55.4032 18.6268 55.6875C18.0917 55.7603 17.7915 55.7491 17.3567 55.4198C17.2166 55.3007 17.0783 55.1794 16.9417 55.0564C16.791 54.9273 16.6402 54.7983 16.4893 54.6695C16.4151 54.6053 16.3409 54.541 16.2645 54.4747C15.9575 54.2134 15.6387 53.9697 15.3169 53.7271C12.712 51.7298 12.712 51.7298 12.4564 50.2583C12.4189 49.9402 12.3889 49.6222 12.3615 49.3031C12.35 49.18 12.3385 49.0569 12.3266 48.9301C12.2949 48.5891 12.2643 48.2481 12.2342 47.9069C12.2018 47.541 12.168 47.1753 12.1345 46.8095C12.0829 46.2452 12.0318 45.6808 11.9813 45.1164C11.8855 44.0477 11.7865 42.9793 11.6864 41.9109C11.6162 41.1603 11.5468 40.4096 11.4777 39.6588C11.429 39.1304 11.3801 38.6021 11.3304 38.0738C11.2831 37.5699 11.2368 37.0659 11.1912 36.5618C11.1743 36.3766 11.1571 36.1913 11.1394 36.0062C11.0445 35.007 10.9799 34.0098 10.9627 33.006C10.9582 32.8688 10.9582 32.8688 10.9537 32.7288C10.948 31.7511 11.3232 31.0197 11.9818 30.3133C12.7786 29.5466 13.5403 29.3242 14.6399 29.3301C15.6252 29.3555 16.3302 29.6714 17.042 30.3444C17.8397 31.2185 18.0041 32.1588 18.1053 33.3019C18.1211 33.4703 18.1211 33.4703 18.1372 33.642C18.1716 34.0118 18.205 34.3817 18.2383 34.7516C18.262 35.01 18.2858 35.2683 18.3096 35.5267C18.3594 36.068 18.4086 36.6093 18.4575 37.1507C18.5199 37.8419 18.5835 38.5331 18.6475 39.2242C18.6968 39.7579 18.7455 40.2916 18.794 40.8253C18.8172 41.08 18.8406 41.3347 18.8642 41.5894C18.8971 41.9468 18.9293 42.3043 18.9613 42.6619C18.971 42.7655 18.9807 42.8692 18.9907 42.976C19.0549 43.7055 19.0668 44.4281 19.0565 45.1602C19.1571 45.1783 19.1571 45.1783 19.2597 45.1968C19.824 45.3001 20.3711 45.4386 20.9222 45.5983C21.123 45.6563 21.123 45.6563 21.3279 45.7154C21.4291 45.7449 21.5304 45.7744 21.6347 45.8047C21.5973 45.6932 21.5599 45.5817 21.5214 45.4668C21.3813 45.0484 21.2414 44.63 21.1016 44.2115C21.0414 44.0312 20.981 43.851 20.9207 43.6708C19.7391 40.1441 19.7391 40.1441 20.3166 38.8605C20.661 38.2216 21.0594 37.7603 21.6347 37.3184C21.5985 37.2705 21.5624 37.2226 21.5252 37.1733C19.5903 34.592 17.8255 31.6606 17.1968 28.4561C17.0535 27.8418 16.7427 27.5154 16.308 27.0722C15.3447 26.0278 14.7612 24.6625 14.6522 23.2461C14.6467 23.1779 14.6412 23.1096 14.6355 23.0393C14.5766 21.6984 14.9723 20.3906 15.8179 19.3487C16.2867 18.8482 16.9488 18.2402 17.6638 18.1784C18.026 18.0265 18.1194 17.6517 18.271 17.3111C19.5474 14.6195 21.6345 12.589 24.4276 11.5371C27.3806 10.5669 30.627 10.8228 33.4511 12.0742ZM23.6757 18.8418C23.3743 19.2792 23.1241 19.7404 22.8759 20.2094C22.7089 20.4532 22.7089 20.4532 22.3262 20.5807C21.7958 20.6197 21.4586 20.3582 21.0283 20.0776C20.2732 19.5955 19.386 19.6245 18.5194 19.7012C17.7365 19.8828 17.2531 20.3436 16.8007 20.9903C16.3065 21.8304 16.2794 22.8606 16.4851 23.7967C16.9737 25.4513 18.1165 26.7814 19.5936 27.6504C19.6611 27.6905 19.7286 27.7306 19.7981 27.7719C21.308 28.6558 23.2853 29.6856 25.0722 29.6914C25.3813 29.5156 25.3813 29.5156 25.6294 29.2215C25.6781 29.1689 25.7269 29.1164 25.7771 29.0623C25.9406 28.8817 26.0977 28.6969 26.2538 28.5098C26.3111 28.4412 26.3684 28.3725 26.4275 28.3018C28.0754 26.2963 29.5879 23.9036 29.369 21.2051C29.1644 19.9308 28.669 18.9045 27.6503 18.0899C26.2836 17.2141 24.7076 17.6701 23.6757 18.8418ZM42.1858 27.7041C40.9591 29.2157 40.7155 30.9268 40.8632 32.8067C40.9416 33.3295 41.1046 33.8175 41.2929 34.3106C41.3318 34.4179 41.3707 34.5252 41.4108 34.6358C41.9685 36.0746 42.7878 37.3164 43.7636 38.5C43.8401 38.5931 43.8401 38.5931 43.9181 38.6881C44.644 39.5657 45.3993 40.4097 46.2343 41.1856C46.2985 41.2516 46.3628 41.3177 46.429 41.3857C46.8694 41.6146 47.3243 41.4578 47.7778 41.327C48.0604 41.2346 48.339 41.1347 48.6177 41.0312C48.7199 40.9934 48.8222 40.9557 48.9275 40.9168C50.5113 40.3187 52.0725 39.6288 53.4315 38.6075C53.5246 38.5381 53.6176 38.4687 53.7135 38.3972C55.3877 37.1033 56.7992 35.4059 57.0839 33.2364C57.1792 31.9272 56.9865 30.7117 56.1171 29.6914C55.3502 28.8918 54.548 28.5086 53.4315 28.4762C52.2278 28.494 51.279 28.957 50.3134 29.626C49.9551 29.82 49.7505 29.8346 49.3495 29.7989C49.2697 29.7922 49.19 29.7856 49.1078 29.7787C48.8267 29.6482 48.8159 29.4387 48.705 29.1543C48.0154 27.8908 47.1574 27.0649 45.779 26.6031C44.4291 26.237 43.1444 26.7047 42.1858 27.7041ZM61.1282 31.6874C60.7004 32.3163 60.6269 32.8931 60.5702 33.6408C60.5589 33.7649 60.5477 33.8891 60.5361 34.017C60.4995 34.4255 60.4662 34.8342 60.4328 35.243C60.4078 35.5282 60.3827 35.8134 60.3572 36.0986C60.2975 36.772 60.24 37.4457 60.1834 38.1194C60.1005 39.1058 60.0147 40.0919 59.9283 41.078C59.9219 41.1507 59.9156 41.2234 59.909 41.2983C59.8963 41.4434 59.8836 41.5884 59.8709 41.7335C59.828 42.2231 59.7865 42.7128 59.7453 43.2026C59.7232 43.4604 59.7011 43.7182 59.6789 43.976C59.6695 44.0913 59.6601 44.2066 59.6503 44.3254C59.4862 46.2107 59.4862 46.2107 59.0977 46.5585C58.7873 46.6696 58.4827 46.7682 58.1631 46.8496C57.9756 46.8987 57.9756 46.8987 57.7842 46.9488C57.6506 46.9833 57.517 47.0179 57.3793 47.0535C54.282 47.8776 50.858 48.9467 48.3827 51.0684C48.256 51.1756 48.256 51.1756 48.1267 51.2849C45.6849 53.4129 43.9956 56.1439 43.748 59.4288C43.7205 59.8377 43.6981 60.2466 43.6763 60.6558C43.6634 60.8634 43.6503 61.0709 43.6371 61.2785C43.5734 62.3185 43.5487 63.3441 43.5487 64.3887C46.8101 64.3887 50.0714 64.3887 53.4315 64.3887C53.521 63.7744 53.521 63.7744 53.5729 63.1622C53.5797 63.0374 53.5797 63.0374 53.5866 62.9101C53.5908 62.8242 53.595 62.7383 53.5994 62.6498C53.6039 62.5607 53.6085 62.4715 53.6132 62.3797C53.6465 61.6884 53.6588 60.9988 53.6464 60.3067C53.2548 60.524 52.9612 60.7624 52.646 61.0788C52.3252 61.3696 52.1126 61.5502 51.6725 61.5689C51.2831 61.4883 51.2831 61.4883 51.0615 61.3205C50.9135 60.9356 50.9574 60.7014 51.0683 60.3067C51.2396 60.1203 51.4206 59.9427 51.6054 59.7696C51.7343 59.6459 51.8633 59.5223 51.9923 59.3986C52.8056 58.6287 53.6281 57.8881 54.5058 57.1914C54.641 57.0813 54.7761 56.9709 54.9111 56.8604C55.6852 56.2267 56.4662 55.6059 57.2618 54.9994C57.6746 54.6818 58.0773 54.3521 58.4804 54.0225C58.9986 53.5988 59.5196 53.1802 60.0514 52.7737C60.2178 52.6464 60.2178 52.6464 60.3875 52.5165C60.5701 52.3769 60.7528 52.2374 60.9355 52.098C61.1404 51.9412 61.3445 51.7835 61.5486 51.6256C61.6427 51.5541 61.6427 51.5541 61.7387 51.481C62.4671 50.9152 62.7304 50.4671 62.8847 49.5645C62.9473 49.0652 62.9927 48.5649 63.0372 48.0637C63.051 47.9141 63.0648 47.7646 63.0786 47.615C63.1158 47.211 63.1522 46.807 63.1884 46.403C63.2189 46.064 63.2497 45.7251 63.2806 45.3862C63.3535 44.5851 63.4257 43.784 63.4975 42.9829C63.5712 42.161 63.6459 41.3391 63.7212 40.5173C63.7861 39.8082 63.8504 39.0991 63.9142 38.3898C63.9521 37.9679 63.9903 37.5459 64.0291 37.124C64.5333 34.2351 64.5333 34.2351 63.8515 31.625C63.3176 31.1547 63.0056 31.0479 62.3048 31.059C61.7971 31.1116 61.4596 31.2997 61.1282 31.6874ZM22.0845 39.3258C21.8164 39.7318 21.7436 40.0634 21.7421 40.541C21.8101 40.843 21.8835 41.1071 21.9871 41.3954C22.0272 41.5137 22.0272 41.5137 22.0681 41.6345C22.1546 41.8883 22.2436 42.1412 22.3329 42.3941C22.3933 42.5683 22.4537 42.7426 22.5139 42.9169C22.6034 43.1757 22.6931 43.4345 22.7837 43.6929C22.9498 44.1677 23.1075 44.6437 23.2544 45.1249C23.2856 45.2242 23.3168 45.3234 23.349 45.4257C23.4036 45.6002 23.456 45.7753 23.5055 45.9513C23.6436 46.3765 23.7873 46.5994 24.178 46.8005C24.3318 46.8648 24.4867 46.9268 24.6425 46.9864C24.7903 47.0512 24.9378 47.1165 25.0852 47.1823C25.1603 47.2147 25.2354 47.2471 25.3128 47.2805C27.3381 48.1555 29.0719 49.1678 30.6862 50.6874C30.9242 50.9088 31.166 51.1172 31.4168 51.3235C32.1071 51.9194 32.7316 52.6747 33.2362 53.4317C33.3071 53.4317 33.378 53.4317 33.4511 53.4317C33.7136 52.2365 33.5646 51.0899 32.9593 50.0156C32.7771 49.7451 32.5852 49.4929 32.3768 49.2422C32.3231 49.1764 32.2694 49.1107 32.214 49.0429C31.3228 48.0594 30.1032 47.4816 28.8844 47.0208C28.5556 46.8963 28.2323 46.7688 27.9121 46.6238C27.8344 46.5897 27.7568 46.5557 27.6767 46.5206C26.9768 46.002 26.6578 45.2407 26.3944 44.4372C26.3608 44.3392 26.3272 44.2412 26.2926 44.1402C26.1864 43.8294 26.0824 43.518 25.9785 43.2064C25.8401 42.7974 25.701 42.3887 25.5619 41.9799C25.5286 41.8821 25.4954 41.7843 25.4611 41.6835C25.0163 40.0103 25.0163 40.0103 23.8905 38.8223C23.1357 38.5692 22.6389 38.7961 22.0845 39.3258ZM54.9354 39.5742C54.8842 39.6094 54.8329 39.6445 54.7801 39.6806C54.5392 39.8451 54.2976 40.0084 54.0559 40.1718C53.9682 40.2319 53.8804 40.292 53.79 40.3539C53.4003 40.6165 53.0259 40.8681 52.5889 41.0446C52.0176 41.2795 51.6401 41.4809 51.3754 42.0504C51.2018 42.4876 51.0632 42.9337 50.9324 43.3854C50.1908 45.9289 50.1908 45.9289 49.3415 46.4887C48.8772 46.7358 48.3899 46.9183 47.8996 47.1071C46.2806 47.734 44.6223 48.7517 43.8479 50.3752C43.3584 51.5527 43.3335 52.6313 43.6561 53.8614C43.9662 53.5812 44.1728 53.2561 44.4014 52.908C46.179 50.2792 49.011 48.1777 51.999 47.1219C52.073 47.0957 52.147 47.0695 52.2232 47.0425C52.4145 46.9785 52.6081 46.9212 52.8017 46.8647C53.1459 46.6402 53.1783 46.5574 53.317 46.1864C53.3536 46.0897 53.3902 45.993 53.4279 45.8933C53.4646 45.7932 53.5012 45.693 53.539 45.5899C53.5908 45.4511 53.5908 45.4511 53.6436 45.3095C53.8722 44.692 54.092 44.0714 54.3116 43.4507C54.392 43.2247 54.4731 42.999 54.5551 42.7736C54.6744 42.4451 54.7911 42.1157 54.9073 41.786C54.9441 41.6863 54.9809 41.5866 55.0189 41.4838C55.2449 40.8311 55.2948 40.3618 55.1503 39.6817C55.0439 39.6285 55.0439 39.6285 54.9354 39.5742Z" fill="black"/>
</g>
<defs>
<clipPath id="clip0_1271_2386">
<rect width="55" height="55" fill="white" transform="translate(11 11)"/>
</clipPath>
</defs>
</svg>
