<svg width="77" height="77" viewBox="0 0 77 77" fill="none" xmlns="http://www.w3.org/2000/svg">
<path fill-rule="evenodd" clip-rule="evenodd" d="M5.85983 24.3616C12.3619 16.9332 26.5529 25.4134 37.4031 24.356C47.7796 23.3447 56.9357 12.3672 66.0463 18.4961C75.1674 24.6321 69.7228 36.6126 70.0534 46.3206C70.3859 56.0875 76.5177 68.9306 67.9274 73.7468C59.3762 78.541 48.5552 67.6554 38.1296 64.2188C28.4798 61.0379 16.9304 62.59 10.6868 54.8783C3.29872 45.7531 -0.968451 32.1626 5.85983 24.3616Z" fill="#FFDF18"/>
<path d="M26.5156 11.282C26.9574 11.6915 27.2848 12.0088 27.4354 12.6113C27.4354 13.214 27.4354 13.8166 27.4354 14.4375C30.4486 14.4375 33.4618 14.4375 36.5662 14.4375C36.5662 13.7994 36.5662 13.1613 36.5662 12.5039C37.1463 11.3437 37.1463 11.3437 37.8553 11.1074C38.652 11.0364 39.257 11.0309 39.8963 11.5371C40.6642 12.5273 40.4334 12.9554 40.4334 14.4375C43.4466 14.4375 46.4598 14.4375 49.5643 14.4375C49.5643 13.7994 49.5643 13.1613 49.5643 12.5039C49.8851 11.8623 50.1745 11.3794 50.8534 11.1074C51.4254 11.038 52.0384 11.0062 52.5654 11.2685C53.023 11.6421 53.3759 12.0593 53.4745 12.6577C53.4841 12.9306 53.4787 13.198 53.4651 13.4707C53.4626 13.5642 53.4602 13.6576 53.4577 13.7539C53.4514 13.9819 53.4418 14.2097 53.4315 14.4375C53.6272 14.4341 53.6272 14.4341 53.8269 14.4307C54.316 14.4228 54.8051 14.4179 55.2942 14.4139C55.5049 14.4117 55.7157 14.4088 55.9264 14.4051C57.7121 14.3742 59.0143 14.543 60.3866 15.7895C61.6829 17.1699 61.7358 18.919 61.7302 20.7064C61.7305 20.8816 61.7308 21.0569 61.7313 21.2321C61.7322 21.7105 61.7317 22.1888 61.7311 22.6672C61.7306 23.1844 61.7313 23.7015 61.7319 24.2186C61.7329 25.2304 61.7327 26.2423 61.732 27.2541C61.7315 28.0767 61.7315 28.8992 61.7317 29.7218C61.7317 29.839 61.7318 29.9562 61.7318 30.077C61.7319 30.3152 61.732 30.5533 61.732 30.7915C61.7326 33.0229 61.7319 35.2543 61.7308 37.4857C61.7298 39.399 61.73 41.3123 61.731 43.2257C61.7321 45.4493 61.7326 47.6729 61.7319 49.8965C61.7319 50.1337 61.7318 50.371 61.7317 50.6082C61.7317 50.725 61.7316 50.8417 61.7316 50.962C61.7314 51.7832 61.7317 52.6045 61.7322 53.4258C61.7329 54.4271 61.7327 55.4284 61.7315 56.4297C61.731 56.9403 61.7308 57.4508 61.7315 57.9614C61.7321 58.4293 61.7318 58.8972 61.7306 59.3652C61.7304 59.5339 61.7305 59.7026 61.731 59.8713C61.7363 61.713 61.5555 63.3134 60.2356 64.7067C59.0372 65.751 57.9141 65.9249 56.3859 65.922C56.2258 65.9225 56.0658 65.9231 55.9057 65.9237C55.4667 65.9252 55.0278 65.9254 54.5888 65.9254C54.115 65.9256 53.6412 65.927 53.1674 65.9282C52.1318 65.9306 51.0962 65.9315 50.0606 65.932C49.4136 65.9324 48.7667 65.9331 48.1197 65.9339C46.3275 65.936 44.5354 65.9377 42.7432 65.938C42.6286 65.9381 42.5139 65.9381 42.3958 65.9381C42.1634 65.9381 41.931 65.9382 41.6986 65.9382C41.5832 65.9382 41.4678 65.9383 41.349 65.9383C41.2335 65.9383 41.118 65.9383 40.999 65.9383C39.1279 65.9387 37.2568 65.9416 35.3857 65.9456C33.4635 65.9497 31.5413 65.9518 29.6191 65.9518C28.5403 65.9519 27.4616 65.9528 26.3828 65.9559C25.4641 65.9586 24.5455 65.9593 23.6268 65.9577C23.1584 65.957 22.6901 65.957 22.2217 65.9595C21.7921 65.9617 21.3627 65.9614 20.9331 65.9592C20.7785 65.9588 20.6238 65.9593 20.4692 65.9609C19.0189 65.9744 17.7521 65.6355 16.6932 64.6035C15.3538 63.1496 15.2635 61.5234 15.2694 59.6236C15.2692 59.4484 15.2688 59.2732 15.2684 59.098C15.2675 58.6196 15.268 58.1412 15.2686 57.6628C15.2691 57.1457 15.2684 56.6286 15.2678 56.1115C15.2668 55.0996 15.267 54.0878 15.2676 53.076C15.2681 52.2534 15.2682 51.4308 15.268 50.6082C15.2679 50.491 15.2679 50.3738 15.2679 50.253C15.2678 50.0149 15.2677 49.7768 15.2677 49.5386C15.267 47.3072 15.2677 45.0758 15.2689 42.8444C15.2699 40.931 15.2697 39.0177 15.2687 37.1044C15.2676 34.8808 15.2671 32.6572 15.2678 30.4336C15.2678 30.1963 15.2679 29.9591 15.268 29.7218C15.268 29.6051 15.268 29.4884 15.2681 29.3681C15.2683 28.5468 15.2679 27.7255 15.2674 26.9043C15.2668 25.903 15.267 24.9017 15.2681 23.9004C15.2687 23.3898 15.2689 22.8793 15.2682 22.3687C15.2676 21.9008 15.2679 21.4328 15.2691 20.9649C15.2693 20.7962 15.2692 20.6275 15.2687 20.4588C15.2634 18.617 15.4442 17.0167 16.7641 15.6233C17.7769 14.7408 18.8051 14.4012 20.1169 14.4165C20.2655 14.417 20.2655 14.417 20.4171 14.4174C20.7312 14.4186 21.0453 14.4213 21.3593 14.4241C21.5733 14.4251 21.7872 14.4261 22.0011 14.427C22.5235 14.4294 23.0458 14.4331 23.5682 14.4375C23.562 14.3001 23.5557 14.1628 23.5493 14.0212C23.5443 13.8377 23.5394 13.6542 23.5346 13.4707C23.5301 13.3805 23.5256 13.2904 23.521 13.1975C23.5077 12.5126 23.6621 12.064 24.1053 11.5371C24.8003 10.9698 25.7024 10.8975 26.5156 11.282ZM24.8573 12.6113C24.7176 13.0303 24.7324 13.4296 24.7318 13.8664C24.7314 13.9579 24.7311 14.0494 24.7307 14.1437C24.7302 14.3372 24.7299 14.5307 24.7299 14.7242C24.7297 15.0201 24.7277 15.3159 24.7257 15.6118C24.7254 15.7998 24.7252 15.9879 24.7251 16.176C24.7243 16.2644 24.7235 16.3528 24.7227 16.4439C24.7183 17.0339 24.7183 17.0339 24.9647 17.5527C25.2653 17.703 25.4916 17.6873 25.8241 17.6601C26.0438 17.4951 26.1344 17.3986 26.188 17.1267C26.1886 17.0466 26.1891 16.9666 26.1897 16.8841C26.1918 16.7475 26.1918 16.7475 26.1939 16.6081C26.1935 16.5101 26.1932 16.4121 26.1929 16.3111C26.1935 16.21 26.194 16.109 26.1946 16.0049C26.1953 15.7911 26.1952 15.5774 26.1942 15.3637C26.1933 15.0366 26.1964 14.7098 26.1998 14.3827C26.2 14.1751 26.1999 13.9675 26.1996 13.7598C26.2008 13.662 26.202 13.5642 26.2033 13.4634C26.1988 12.9171 26.1988 12.9171 25.955 12.4388C25.5075 12.1577 25.2148 12.2785 24.8573 12.6113ZM38.0466 12.4388C37.7563 12.8636 37.7958 13.2566 37.802 13.7598C37.8019 13.861 37.8017 13.9621 37.8015 14.0663C37.8017 14.2799 37.803 14.4934 37.8052 14.707C37.8083 15.0342 37.8074 15.3613 37.806 15.6886C37.8067 15.8961 37.8076 16.1036 37.8087 16.3111C37.8084 16.4091 37.8081 16.5071 37.8078 16.6081C37.8091 16.6992 37.8105 16.7903 37.8119 16.8841C37.8125 16.9641 37.8131 17.0442 37.8137 17.1267C37.8672 17.3984 37.9587 17.4943 38.1776 17.6601C38.6187 17.718 38.6187 17.718 39.0007 17.5249C39.1783 17.2937 39.1857 17.1733 39.1878 16.8841C39.1898 16.7475 39.1898 16.7475 39.1919 16.6081C39.1916 16.5101 39.1913 16.4121 39.1909 16.3111C39.1915 16.21 39.1921 16.109 39.1927 16.0049C39.1933 15.7911 39.1932 15.5774 39.1923 15.3637C39.1914 15.0366 39.1945 14.7098 39.1979 14.3827C39.198 14.1751 39.198 13.9675 39.1977 13.7598C39.1989 13.662 39.2001 13.5642 39.2013 13.4634C39.1968 12.9171 39.1968 12.9171 38.9531 12.4388C38.6134 12.2254 38.3863 12.2254 38.0466 12.4388ZM51.051 12.4393C50.7517 12.8624 50.7938 13.2534 50.8001 13.7598C50.7999 13.861 50.7998 13.9621 50.7996 14.0663C50.7998 14.2799 50.801 14.4934 50.8032 14.707C50.8064 15.0342 50.8055 15.3613 50.8041 15.6886C50.8047 15.8961 50.8056 16.1036 50.8068 16.3111C50.8065 16.4091 50.8061 16.5071 50.8058 16.6081C50.8072 16.6992 50.8085 16.7903 50.81 16.8841C50.8105 16.9641 50.8111 17.0442 50.8117 17.1267C50.8653 17.3984 50.9568 17.4943 51.1756 17.6601C51.6269 17.7168 51.6269 17.7168 52.0149 17.5124C52.3151 17.1016 52.2691 16.6946 52.2717 16.2045C52.2723 16.1131 52.2729 16.0217 52.2735 15.9275C52.2745 15.7338 52.2752 15.5401 52.2756 15.3464C52.2767 15.0507 52.28 14.7552 52.2834 14.4595C52.2841 14.2713 52.2847 14.0831 52.2851 13.8949C52.2871 13.7626 52.2871 13.7626 52.2891 13.6277C52.2872 13.1317 52.2575 12.7947 51.9276 12.3965C51.5575 12.2626 51.3869 12.2219 51.051 12.4393ZM17.3604 16.8956C15.5085 19.1489 16.5858 24.5926 16.5858 26.0391C31.0491 26.0391 45.5123 26.0391 60.4139 26.0391C61.0265 21.2632 61.0265 21.2632 59.3397 16.5859C58.4786 15.8662 57.5552 15.5651 56.4422 15.5877C56.3554 15.5881 56.2685 15.5886 56.179 15.589C55.9054 15.5908 55.6319 15.5949 55.3584 15.599C55.1713 15.6006 54.9842 15.6021 54.7971 15.6034C54.3419 15.6069 53.8867 15.6125 53.4315 15.6191C53.4275 15.7512 53.4234 15.8833 53.4193 16.0194C53.4123 16.1948 53.4051 16.3702 53.3979 16.5456C53.3955 16.6325 53.3931 16.7193 53.3906 16.8087C53.3633 17.4196 53.2684 17.905 52.8407 18.3739C52.2552 18.8298 51.7937 18.9251 51.0682 18.8418C50.4393 18.6487 50.0921 18.356 49.7791 17.7676C49.5515 17.0848 49.6066 16.3376 49.5643 15.6191C46.5511 15.6191 43.5379 15.6191 40.4334 15.6191C40.398 16.2572 40.3625 16.8953 40.326 17.5527C39.7194 18.6143 39.7194 18.6143 39.0369 18.8418C38.3958 18.8992 37.8622 18.8991 37.3182 18.5195C36.4267 17.6328 36.6452 17.0405 36.5662 15.6191C33.5531 15.6191 30.5399 15.6191 27.4354 15.6191C27.3999 16.2218 27.3645 16.8244 27.328 17.4453C27.099 18.0983 26.8647 18.4094 26.2537 18.7344C25.6987 18.9194 25.1681 18.9122 24.6156 18.7209C24.1666 18.4148 23.8509 18.0785 23.6756 17.5527C23.6601 17.4016 23.6492 17.25 23.6416 17.0983C23.6371 17.0121 23.6326 16.9259 23.628 16.8371C23.6238 16.7475 23.6195 16.658 23.6152 16.5658C23.6106 16.475 23.6059 16.3842 23.6011 16.2907C23.5898 16.0669 23.5789 15.843 23.5682 15.6191C23.0218 15.6111 22.4755 15.6053 21.9291 15.6014C21.7436 15.5998 21.5582 15.5976 21.3728 15.5948C19.7426 15.5708 18.5416 15.6525 17.3604 16.8956ZM16.5858 27.3281C16.5791 32.9801 16.5725 38.632 16.5656 44.4552C16.5627 46.241 16.5598 48.0268 16.5567 49.8668C16.5557 51.465 16.5557 51.465 16.555 53.0632C16.5547 53.7761 16.5535 54.489 16.5518 55.2019C16.5497 56.0241 16.5488 56.8463 16.5492 57.6685C16.5494 58.089 16.5491 58.5096 16.5474 58.9301C16.5455 59.3807 16.5461 59.8313 16.547 60.2818C16.5456 60.4782 16.5456 60.4782 16.5442 60.6785C16.5503 61.8362 16.8057 62.7371 17.5526 63.6367C18.4942 64.566 19.6631 64.7753 20.9427 64.767C21.0155 64.7665 21.0883 64.766 21.1632 64.7655C21.3194 64.766 21.4755 64.7667 21.6317 64.7675C22.0579 64.7693 22.484 64.7684 22.9102 64.7671C23.3709 64.7661 23.8317 64.7676 24.2924 64.7688C25.1939 64.7707 26.0953 64.7703 26.9968 64.7691C27.7296 64.7681 28.4625 64.768 29.1953 64.7684C29.352 64.7685 29.352 64.7685 29.5118 64.7686C29.724 64.7688 29.9362 64.7689 30.1484 64.769C32.1365 64.7703 34.1246 64.7689 36.1128 64.7666C37.8174 64.7646 39.522 64.765 41.2266 64.7669C43.2078 64.7692 45.189 64.7701 47.1702 64.7688C47.3816 64.7687 47.593 64.7686 47.8044 64.7684C47.9084 64.7684 48.0124 64.7683 48.1195 64.7682C48.8512 64.7679 49.5829 64.7685 50.3146 64.7695C51.2066 64.7707 52.0987 64.7704 52.9908 64.7681C53.4457 64.767 53.9005 64.7665 54.3554 64.7679C54.7723 64.7692 55.1892 64.7685 55.6061 64.7662C55.7564 64.7657 55.9067 64.766 56.0569 64.767C57.3366 64.7753 58.5054 64.566 59.4471 63.6367C60.3034 62.6053 60.4621 61.5931 60.4527 60.2818C60.4531 60.0706 60.4531 60.0706 60.4535 59.855C60.4542 59.4654 60.4529 59.0758 60.4513 58.6863C60.4499 58.2592 60.4504 57.8321 60.4506 57.405C60.4508 56.5766 60.4493 55.7483 60.4472 54.92C60.4449 53.9614 60.4446 53.0029 60.4444 52.0444C60.4427 49.5147 60.4382 46.9849 60.434 44.4552C60.4241 35.9773 60.4241 35.9773 60.4139 27.3281C45.9506 27.3281 31.4873 27.3281 16.5858 27.3281Z" fill="black"/>
<path d="M48.0434 36.2303C50.5657 38.7161 52.0033 42.0685 52.086 45.5991C52.1129 49.4799 50.8098 52.9322 48.074 55.7143C45.3774 58.37 41.8514 59.6017 38.1129 59.5942C36.9846 59.5779 35.9346 59.4203 34.8477 59.125C34.777 59.1066 34.7063 59.0882 34.6334 59.0692C32.455 58.4864 30.563 57.2186 28.9395 55.6875C28.8668 55.6217 28.7941 55.5559 28.7192 55.4882C26.4057 53.3138 25.0547 49.9918 24.9242 46.8541C24.8292 42.8586 26.0196 39.3407 28.7712 36.4082C29.2288 35.9576 29.7175 35.558 30.2286 35.1699C30.3519 35.0744 30.3519 35.0744 30.4778 34.9769C35.8201 31.029 43.2734 31.7705 48.0434 36.2303ZM29.3692 37.6406C27.7452 39.5563 26.6604 41.706 26.254 44.1933C26.24 44.276 26.226 44.3587 26.2116 44.4439C25.7839 47.5174 26.6685 50.7308 28.4792 53.2248C28.8596 53.7118 29.2637 54.1676 29.6915 54.6133C29.77 54.6973 29.8485 54.7814 29.9294 54.868C32.1288 57.1602 35.29 58.2798 38.417 58.373C41.8821 58.4123 44.9857 56.9091 47.4295 54.5327C49.6787 52.2745 50.8262 49.1483 50.8871 45.9927C50.8014 43.0495 49.8552 40.3382 47.9532 38.0703C47.8744 37.9728 47.7956 37.8753 47.7144 37.7749C45.7047 35.4128 42.6507 33.9337 39.5743 33.666C35.7415 33.4508 31.9974 34.7764 29.3692 37.6406Z" fill="black"/>
<path d="M29.9 21.8209C29.9763 21.8204 30.0526 21.8199 30.1312 21.8194C30.3875 21.8181 30.6438 21.8183 30.9001 21.8184C31.0836 21.8178 31.2671 21.8171 31.4506 21.8162C31.9495 21.8143 32.4485 21.8138 32.9474 21.8137C33.3636 21.8135 33.7798 21.8127 34.196 21.812C35.1777 21.8102 36.1594 21.8097 37.1411 21.8098C38.1545 21.81 39.168 21.8077 40.1815 21.8043C41.051 21.8015 41.9205 21.8003 42.79 21.8005C43.3096 21.8005 43.8292 21.7999 44.3488 21.7976C44.8373 21.7956 45.3259 21.7955 45.8144 21.7971C45.9939 21.7973 46.1733 21.7968 46.3528 21.7955C46.5975 21.7939 46.8421 21.7949 47.0868 21.7965C47.2924 21.7963 47.2924 21.7963 47.502 21.7962C47.8459 21.8496 47.8459 21.8496 48.1086 22.0468C48.2756 22.2793 48.2756 22.2793 48.2689 22.615C48.1682 22.9239 48.1682 22.9239 47.8459 23.1387C47.5156 23.1663 47.5156 23.1663 47.1005 23.1674C47.0242 23.1679 46.9479 23.1684 46.8693 23.1689C46.6129 23.1703 46.3567 23.1701 46.1003 23.1699C45.9168 23.1706 45.7333 23.1713 45.5498 23.1721C45.0509 23.174 44.552 23.1745 44.0531 23.1746C43.6369 23.1748 43.2207 23.1756 42.8045 23.1764C41.8228 23.1781 40.8411 23.1787 39.8594 23.1785C38.8459 23.1784 37.8324 23.1807 36.819 23.184C35.9495 23.1869 35.08 23.188 34.2104 23.1879C33.6908 23.1878 33.1713 23.1884 32.6517 23.1907C32.1631 23.1928 31.6746 23.1928 31.186 23.1912C31.0066 23.191 30.8271 23.1915 30.6477 23.1928C30.4029 23.1945 30.1583 23.1935 29.9136 23.1918C29.7081 23.192 29.7081 23.192 29.4984 23.1922C29.1545 23.1387 29.1545 23.1387 28.8918 22.9415C28.7248 22.709 28.7248 22.709 28.7315 22.3733C28.929 21.7677 29.3391 21.8224 29.9 21.8209Z" fill="black"/>
<path d="M38.6211 39.2587C38.9299 39.3594 38.9299 39.3594 39.1447 39.6816C39.1756 39.9634 39.1756 39.9634 39.1811 40.3061C39.1835 40.4345 39.1859 40.5629 39.1884 40.6952C39.1902 40.9036 39.1902 40.9036 39.1922 41.1163C39.1933 41.2227 39.1933 41.2227 39.1944 41.3312C39.1982 41.707 39.2008 42.0826 39.2022 42.4584C39.204 42.8448 39.2103 43.231 39.2176 43.6174C39.2225 43.9159 39.2239 44.2144 39.2244 44.5129C39.2257 44.724 39.2305 44.9351 39.2354 45.1462C39.2323 45.7852 39.2227 46.2302 38.7943 46.7267C38.6631 46.852 38.5295 46.9747 38.3928 47.0938C38.3072 47.184 38.2215 47.2742 38.1333 47.3671C38.0576 47.4429 37.9819 47.5188 37.9039 47.5969C37.8201 47.6809 37.7362 47.7648 37.6499 47.8514C37.5649 47.9359 37.4799 48.0204 37.3924 48.1075C37.3054 48.195 37.2184 48.2824 37.1287 48.3725C37.004 48.4971 37.004 48.4971 36.8767 48.6241C36.8016 48.6991 36.7265 48.774 36.6491 48.8513C36.3892 49.0922 36.2813 49.1325 35.9221 49.1549C35.5998 49.1348 35.5998 49.1348 35.385 48.9199C35.2981 48.5834 35.2981 48.5834 35.385 48.168C35.6056 47.9839 35.6056 47.9839 35.8982 47.7928C36.7794 47.189 37.5892 46.5687 37.8176 45.4716C37.9709 44.2457 37.9368 43.0094 37.8997 41.7773C37.8957 41.6432 37.8916 41.5092 37.8875 41.3711C37.8782 41.1151 37.8661 40.8592 37.8509 40.6035C37.8455 40.4885 37.8401 40.3735 37.8345 40.255C37.8284 40.1543 37.8222 40.0536 37.8158 39.9499C37.8879 39.4646 38.1392 39.249 38.6211 39.2587Z" fill="black"/>
<path d="M38.8222 34.7403C39.0791 34.9234 39.1379 35.0234 39.1911 35.3374C39.1922 36.1634 39.1922 36.1634 38.9699 36.5396C38.7148 36.6739 38.7148 36.6739 38.3791 36.6671C38.0703 36.5664 38.0703 36.5664 37.8554 36.2442C37.8231 35.9655 37.8231 35.9655 37.8219 35.6533C37.8201 35.5503 37.8183 35.4473 37.8164 35.3412C37.8554 35.0625 37.8554 35.0625 37.9985 34.867C38.2771 34.67 38.4914 34.6989 38.8222 34.7403Z" fill="black"/>
<path d="M48.8125 45.3347C48.9255 45.3339 49.0385 45.3331 49.1549 45.3322C49.457 45.375 49.457 45.375 49.6555 45.5185C49.8509 45.8007 49.8278 46.0094 49.7793 46.3418C49.6249 46.5432 49.6249 46.5432 49.3496 46.6641C48.8457 46.7223 48.3871 46.7411 47.9531 46.4492C47.8524 46.08 47.8524 46.08 47.8457 45.6973C48.0985 45.3142 48.3772 45.3315 48.8125 45.3347Z" fill="black"/>
<path d="M28.1876 45.3347C28.3006 45.3339 28.4136 45.3331 28.53 45.3322C28.8322 45.375 28.8322 45.375 29.034 45.5147C29.1544 45.6973 29.1544 45.6973 29.1477 46.08C29.047 46.4492 29.047 46.4492 28.8561 46.5776C28.3693 46.7539 27.8489 46.7512 27.3752 46.5432C27.2208 46.3418 27.2208 46.3418 27.1738 46.0195C27.2208 45.6973 27.2208 45.6973 27.3446 45.5185C27.6275 45.314 27.842 45.3322 28.1876 45.3347Z" fill="black"/>
<path d="M38.4998 55.3115C38.8221 55.3652 38.8221 55.3652 39.0009 55.5499C39.1677 55.8349 39.1876 56.004 39.1846 56.332C39.1855 56.4229 39.1863 56.5137 39.1872 56.6073C39.1357 56.9222 39.0429 57.0707 38.8221 57.2988C38.4998 57.3525 38.4998 57.3525 38.1776 57.2988C37.8759 56.9873 37.8111 56.7605 37.815 56.332C37.8142 56.2412 37.8134 56.1504 37.8125 56.0568C37.8869 55.6017 38.0427 55.3877 38.4998 55.3115Z" fill="black"/>
<path d="M45.4961 52.4111C46.0076 52.4771 46.1848 52.6335 46.522 53.0078C46.6643 53.2168 46.6643 53.2168 46.7314 53.5659C46.6643 53.8613 46.6643 53.8613 46.5501 54.0695C46.342 54.1836 46.342 54.1836 45.9862 54.197C45.5308 54.0581 45.3433 53.9064 45.0559 53.5374C44.8776 53.1931 44.9451 52.9316 45.0529 52.5723C45.1604 52.4648 45.1604 52.4648 45.4961 52.4111Z" fill="black"/>
<path d="M31.4974 52.3977C31.6669 52.4309 31.6669 52.4309 31.8399 52.4648C32.0547 52.7871 32.0547 52.7871 32.0614 53.1429C31.9108 53.6655 31.6571 53.9077 31.1953 54.1836C30.8656 54.251 30.7463 54.2383 30.4635 54.0627C30.2636 53.7471 30.2651 53.585 30.3359 53.2168C30.6536 52.7501 30.9343 52.49 31.4974 52.3977Z" fill="black"/>
<path d="M46.1068 37.7883C46.2763 37.8216 46.2763 37.8216 46.4492 37.8555C46.6641 38.1777 46.6641 38.1777 46.6708 38.5336C46.5202 39.0561 46.2664 39.2984 45.8047 39.5742C45.4749 39.6417 45.3557 39.6289 45.0729 39.4534C44.873 39.1377 44.8745 38.9756 44.9453 38.6074C45.263 38.1408 45.5437 37.8806 46.1068 37.7883Z" fill="black"/>
<path d="M30.8867 37.8018C31.3982 37.8678 31.5754 38.0241 31.9126 38.3985C32.0549 38.6074 32.0549 38.6074 32.122 38.9565C32.0549 39.252 32.0549 39.252 31.9408 39.4601C31.7326 39.5742 31.7326 39.5742 31.3768 39.5876C30.9215 39.4487 30.734 39.2971 30.4465 38.928C30.2683 38.5837 30.3357 38.3223 30.4436 37.9629C30.551 37.8555 30.551 37.8555 30.8867 37.8018Z" fill="black"/>
</svg>
