<svg width="77" height="77" viewBox="0 0 77 77" fill="none" xmlns="http://www.w3.org/2000/svg">
<path fill-rule="evenodd" clip-rule="evenodd" d="M5.85983 24.3616C12.3619 16.9332 26.5529 25.4134 37.4031 24.356C47.7796 23.3447 56.9357 12.3672 66.0463 18.4961C75.1674 24.6321 69.7228 36.6126 70.0534 46.3206C70.3859 56.0875 76.5177 68.9306 67.9274 73.7468C59.3762 78.541 48.5552 67.6554 38.1296 64.2188C28.4798 61.0379 16.9304 62.59 10.6868 54.8783C3.29872 45.7531 -0.968451 32.1626 5.85983 24.3616Z" fill="#FFDF18"/>
<g clip-path="url(#clip0_1272_2540)">
<path d="M51.6935 10.193C51.8002 10.1921 51.9068 10.1913 52.0167 10.1904C52.2412 10.1892 52.4657 10.1888 52.6902 10.1893C53.0308 10.1895 53.3712 10.1847 53.7118 10.1797C54.9233 10.1721 55.9101 10.1678 56.8754 10.9849C57.5507 11.6709 57.7287 12.6136 57.7335 13.5478C57.7323 13.6422 57.7311 13.7367 57.7298 13.834C57.7298 13.9369 57.7299 14.0398 57.7299 14.1459C57.7297 14.4818 57.7271 14.8176 57.7244 15.1535C57.7238 15.3881 57.7233 15.6226 57.7229 15.8572C57.7217 16.4714 57.7183 17.0856 57.7145 17.6998C57.7111 18.3278 57.7095 18.9558 57.7078 19.5838C57.7042 20.8137 57.6984 22.0436 57.6912 23.2734C57.7794 23.3081 57.8676 23.3428 57.9585 23.3785C58.2456 23.4951 58.5057 23.6283 58.7754 23.7805C58.8753 23.8369 58.9753 23.8933 59.0783 23.9514C59.186 24.0127 59.2937 24.074 59.4046 24.1372C59.5182 24.2017 59.6318 24.2661 59.7488 24.3325C61.0288 25.0622 62.2953 25.8145 63.5602 26.5701C63.9016 26.7732 64.2441 26.9742 64.5872 27.1746C64.7878 27.2926 64.9884 27.4106 65.189 27.5286C65.322 27.6054 65.322 27.6054 65.4577 27.6837C66.2492 28.1522 67.013 28.6904 67.4759 29.5039C67.5543 29.6371 67.5543 29.6371 67.6343 29.7729C68.1381 30.8511 68.1744 32.1454 67.9087 33.2975C67.4661 34.474 66.6469 35.3198 65.5705 35.9432C64.893 36.2499 64.2714 36.3395 63.5394 36.3362C63.4596 36.338 63.3799 36.3398 63.2978 36.3417C62.8378 36.3421 62.4572 36.2804 62.0217 36.1283C61.9316 36.0971 61.8414 36.0659 61.7485 36.0338C61.6806 36.0098 61.6127 35.9857 61.5428 35.9609C61.5424 36.1561 61.5424 36.1561 61.542 36.3552C61.5355 39.4477 61.5272 42.5402 61.5168 45.6327C61.5156 46.0138 61.5143 46.3949 61.513 46.776C61.5128 46.8519 61.5125 46.9278 61.5123 47.0059C61.5083 48.2324 61.5055 49.4588 61.5031 50.6853C61.5006 51.9449 61.4968 53.2045 61.4919 54.4641C61.4892 55.1711 61.4871 55.8781 61.4864 56.5852C61.4857 57.2513 61.4834 57.9174 61.48 58.5835C61.479 58.8273 61.4786 59.0712 61.4788 59.315C61.4798 61.2178 61.4128 62.8413 60.0582 64.314C58.7915 65.5111 57.4445 65.7885 55.7542 65.7842C55.6055 65.7847 55.4568 65.7852 55.3037 65.7858C54.8927 65.7871 54.4817 65.7871 54.0707 65.7868C53.6267 65.7868 53.1828 65.788 52.7388 65.7891C51.8696 65.791 51.0004 65.7916 50.1312 65.7918C49.4244 65.7919 48.7176 65.7923 48.0107 65.793C46.005 65.795 43.9993 65.7961 41.9936 65.7959C41.8855 65.7959 41.7775 65.7959 41.6661 65.7959C41.5039 65.7959 41.5039 65.7959 41.3383 65.7959C39.5857 65.7958 37.833 65.7979 36.0804 65.8011C34.2791 65.8044 32.4779 65.806 30.6766 65.8058C29.666 65.8057 28.6554 65.8063 27.6448 65.8087C26.7843 65.8108 25.9237 65.8113 25.0631 65.8098C24.6245 65.809 24.1859 65.809 23.7473 65.811C23.3448 65.8128 22.9424 65.8124 22.54 65.8105C22.3273 65.8099 22.1147 65.8116 21.9021 65.8134C20.3477 65.8009 19.0678 65.366 17.9299 64.295C16.9116 63.2109 16.5353 61.9392 16.5386 60.4816C16.5379 60.3763 16.5373 60.2709 16.5366 60.1624C16.5347 59.8114 16.5343 59.4605 16.534 59.1095C16.5329 58.8571 16.5318 58.6047 16.5306 58.3524C16.5275 57.6686 16.5257 56.9847 16.5243 56.3009C16.5225 55.5858 16.5195 54.8707 16.5166 54.1556C16.5119 52.9557 16.508 51.7558 16.5046 50.556C16.5012 49.3204 16.4973 48.0849 16.4928 46.8493C16.4925 46.7731 16.4922 46.6969 16.4919 46.6183C16.4905 46.2358 16.4891 45.8534 16.4877 45.4709C16.476 42.3009 16.4659 39.1309 16.4568 35.9609C16.3888 35.9849 16.3207 36.0089 16.2506 36.0336C16.1151 36.0802 16.1151 36.0802 15.9769 36.1278C15.8433 36.1742 15.8433 36.1742 15.7069 36.2216C15.2989 36.3414 14.9114 36.3565 14.4886 36.3503C14.3636 36.3491 14.3636 36.3491 14.2362 36.3477C12.8716 36.3068 11.8736 35.7236 10.9415 34.7573C10.0358 33.6522 9.86411 32.4793 9.9727 31.096C10.0942 30.0529 10.6231 29.128 11.4207 28.4488C12.1269 27.8955 12.9063 27.4592 13.6814 27.0117C13.8281 26.9265 13.9748 26.8412 14.1214 26.7558C14.4183 26.583 14.7154 26.4106 15.0127 26.2384C15.5093 25.9506 16.0049 25.6612 16.5005 25.3717C17.1615 24.9856 17.8229 24.6004 18.4843 24.215C19.9001 23.3898 21.3148 22.5628 22.7284 21.7337C23.7674 21.1242 24.8074 20.5165 25.8481 19.91C26.74 19.39 27.6308 18.8681 28.5213 18.3457C29.862 17.5593 31.204 16.7752 32.5469 15.9926C33.0177 15.7181 33.4882 15.4431 33.9588 15.1681C34.3028 14.9673 34.6472 14.7672 34.9916 14.5672C35.3555 14.3555 35.7175 14.1415 36.0766 13.922C37.3705 13.1383 38.5968 12.7558 40.0862 13.0972C40.7988 13.2801 41.3802 13.5734 42.0088 13.949C42.1185 14.0127 42.2282 14.0764 42.3412 14.142C42.7012 14.3519 43.0596 14.5644 43.4178 14.7773C43.6131 14.8929 43.8084 15.0084 44.0037 15.1238C44.4569 15.3918 44.9099 15.66 45.3617 15.9304C46.3278 16.5076 47.3061 17.0611 48.2889 17.6094C48.2893 17.5433 48.2897 17.4772 48.2901 17.409C48.2949 16.718 48.3027 16.027 48.3124 15.336C48.3156 15.0785 48.318 14.8209 48.3196 14.5634C48.322 14.1921 48.3273 13.821 48.3331 13.4498C48.3333 13.3356 48.3334 13.2213 48.3335 13.1036C48.3504 12.2802 48.5045 11.6907 49.0411 11.0404C49.1013 10.9909 49.1615 10.9414 49.2234 10.8904C49.2824 10.8394 49.3414 10.7885 49.4022 10.7359C50.1505 10.2797 50.8369 10.1932 51.6935 10.193ZM50.3279 12.2852C50.08 12.657 50.07 12.7811 50.0595 13.2143C50.0562 13.3346 50.0529 13.4548 50.0496 13.5787C50.0475 13.7087 50.0455 13.8386 50.0434 13.9724C50.0413 14.1061 50.0392 14.2398 50.037 14.3775C50.0334 14.6606 50.0305 14.9437 50.0283 15.2268C50.0251 15.5166 50.0197 15.8064 50.012 16.096C50.001 16.514 49.9967 16.9315 49.9938 17.3496C49.9893 17.4789 49.9847 17.6081 49.9801 17.7412C49.973 18.4141 49.973 18.4141 50.3116 18.9653C50.5738 19.143 50.8355 19.285 51.1209 19.4219C51.2394 19.4935 51.3579 19.5651 51.48 19.6388C51.5873 19.7 51.6945 19.7611 51.805 19.8241C51.9261 19.8935 52.0471 19.9628 52.1719 20.0343C52.297 20.1055 52.4221 20.1768 52.5511 20.2502C53.4738 20.7786 54.394 21.3092 55.3009 21.8644C55.571 22.0584 55.571 22.0584 55.8787 22.1406C55.8892 20.9097 55.8973 19.6788 55.9022 18.4479C55.9046 17.8763 55.9078 17.3048 55.9129 16.7332C55.9178 16.1816 55.9205 15.63 55.9217 15.0784C55.9225 14.868 55.9242 14.6576 55.9266 14.4471C55.9299 14.1523 55.9304 13.8576 55.9302 13.5628C55.9318 13.4759 55.9334 13.3889 55.9351 13.2993C55.9319 12.8799 55.8925 12.6464 55.6631 12.2903C55.2317 11.8694 54.8284 11.9253 54.2552 11.9223C54.1613 11.9217 54.0674 11.921 53.9707 11.9203C53.7717 11.9193 53.5728 11.9185 53.3739 11.9181C53.0703 11.917 52.7668 11.9135 52.4632 11.9099C52.2699 11.9092 52.0766 11.9086 51.8833 11.9081C51.7928 11.9067 51.7023 11.9053 51.609 11.9039C51.0885 11.906 50.7498 11.947 50.3279 12.2852ZM34.25 17.0186C33.497 17.4696 32.7377 17.9091 31.9764 18.3457C30.9709 18.9231 29.9708 19.5087 28.9744 20.1016C27.8571 20.7663 26.7339 21.4201 25.6065 22.0676C24.7235 22.5757 23.846 23.0924 22.9705 23.6133C21.8585 24.2747 20.7412 24.926 19.6195 25.5709C18.5464 26.1883 17.4767 26.8117 16.41 27.4402C16.2738 27.5204 16.1377 27.6006 16.0015 27.6808C15.935 27.72 15.8685 27.7591 15.8 27.7995C15.3596 28.0584 14.917 28.313 14.4731 28.5658C14.3592 28.6313 14.2454 28.6967 14.128 28.7642C13.9185 28.8846 13.7083 29.0039 13.4973 29.1219C12.6342 29.621 11.9883 30.2228 11.699 31.2031C11.6054 32.0402 11.6213 32.7864 12.1522 33.4687C12.8387 34.2009 13.4099 34.5845 14.4178 34.6653C15.2826 34.6421 15.9554 34.2322 16.6834 33.8086C16.7726 33.7569 16.8619 33.7053 16.9538 33.6521C17.4735 33.3499 17.9906 33.0436 18.5065 32.7351C19.1752 32.3353 19.8475 31.942 20.5208 31.55C20.6341 31.484 20.7475 31.418 20.8643 31.3499C21.0939 31.2161 21.3236 31.0823 21.5533 30.9486C23.1926 29.994 24.8304 29.0372 26.4666 28.0774C27.5057 27.468 28.5457 26.8602 29.5864 26.2537C30.5483 25.6929 31.5089 25.1298 32.4693 24.5664C33.1949 24.1408 33.9207 23.7154 34.6473 23.2916C34.7644 23.2233 34.8816 23.1549 35.0022 23.0845C35.2286 22.9527 35.4552 22.8211 35.6819 22.6897C36.1874 22.3964 36.6897 22.1 37.1855 21.7906C37.2726 21.737 37.3597 21.6834 37.4494 21.6282C37.6076 21.5304 37.7649 21.4311 37.9209 21.3298C38.3332 21.0766 38.6991 20.9165 39.1984 20.9462C39.783 21.0877 40.2831 21.4335 40.7911 21.7441C40.9875 21.8609 41.1839 21.9776 41.3804 22.0943C41.5846 22.2161 41.7883 22.3388 41.9919 22.4619C42.5085 22.7741 43.0282 23.0811 43.5477 23.3885C43.8025 23.5393 44.0571 23.6903 44.3116 23.8416C45.1802 24.3579 46.0533 24.8659 46.9295 25.3691C48.0643 26.0209 49.1914 26.6847 50.316 27.3538C51.1846 27.8697 52.0574 28.3777 52.9334 28.8809C53.9388 29.4583 54.9389 30.0439 55.9354 30.6367C57.191 31.3836 58.4535 32.1178 59.7205 32.8453C60.1673 33.1018 60.6127 33.3604 61.0569 33.6214C61.1563 33.6796 61.2556 33.7379 61.358 33.7978C61.5413 33.9054 61.7244 34.0133 61.9072 34.1218C61.9876 34.1689 62.068 34.2159 62.1508 34.2644C62.2198 34.3052 62.2889 34.346 62.36 34.388C62.9734 34.6921 63.6652 34.6861 64.3213 34.5361C65.2201 34.2314 65.8077 33.6393 66.2439 32.8032C66.3913 31.8823 66.3597 31.1819 65.9355 30.3407C65.3497 29.554 64.5123 29.1181 63.6685 28.649C63.3122 28.4509 62.9575 28.2499 62.6026 28.0494C62.5313 28.0092 62.46 27.9691 62.3866 27.9277C61.751 27.5694 61.122 27.2006 60.4949 26.8276C59.6426 26.3215 58.7884 25.8186 57.9319 25.3196C57.8185 25.2535 57.705 25.1873 57.5881 25.1192C57.3585 24.9855 57.129 24.8518 56.8994 24.7181C55.2602 23.7635 53.6223 22.8067 51.9861 21.8469C51.0565 21.3017 50.1263 20.7575 49.1951 20.2148C48.2639 19.6721 47.3336 19.1279 46.4039 18.5826C45.7862 18.2203 45.1684 17.8582 44.5506 17.4961C44.4248 17.4223 44.2989 17.3486 44.1693 17.2726C43.0418 16.6122 41.9142 15.9519 40.7769 15.3083C40.7037 15.2667 40.6305 15.2251 40.5551 15.1822C38.3315 13.9331 36.1258 15.8946 34.25 17.0186ZM38.2989 23.0438C38.1768 23.1168 38.0547 23.1898 37.9289 23.265C37.8636 23.3044 37.7983 23.3438 37.7309 23.3843C37.3828 23.594 37.0337 23.8021 36.6846 24.0102C36.6129 24.053 36.5412 24.0958 36.4673 24.1399C35.7675 24.557 35.062 24.9638 34.3553 25.3691C33.3498 25.9465 32.3498 26.5322 31.3533 27.125C30.236 27.7898 29.1128 28.4435 27.9854 29.091C27.1024 29.5991 26.2249 30.1159 25.3494 30.6367C24.3412 31.2365 23.3292 31.8291 22.3121 32.4138C21.3557 32.9636 20.4018 33.5171 19.4517 34.0776C19.3451 34.1404 19.2386 34.2031 19.1288 34.2678C19.0319 34.3251 18.9351 34.3824 18.8353 34.4414C18.7077 34.5168 18.7077 34.5168 18.5775 34.5938C18.387 34.7019 18.387 34.7019 18.2693 34.8281C18.2572 35.1647 18.2526 35.4987 18.2527 35.8354C18.2523 35.9424 18.2518 36.0494 18.2514 36.1596C18.2501 36.5211 18.2497 36.8826 18.2493 37.2441C18.2486 37.5022 18.2478 37.7602 18.247 38.0183C18.2451 38.7216 18.2439 39.425 18.2429 40.1284C18.2423 40.5678 18.2417 41.0072 18.2409 41.4466C18.239 42.6634 18.2374 43.8803 18.2366 45.0971C18.2363 45.4131 18.2361 45.7292 18.2359 46.0452C18.2358 46.1237 18.2358 46.2023 18.2357 46.2832C18.2348 47.5537 18.2319 48.8241 18.2282 50.0946C18.2245 51.3994 18.2225 52.7042 18.2221 54.009C18.2218 54.7414 18.2208 55.4738 18.218 56.2062C18.2153 56.8959 18.2149 57.5856 18.216 58.2754C18.2161 58.528 18.2154 58.7807 18.2138 59.0334C18.1803 61.2841 18.1803 61.2841 19.2889 63.1799C19.9843 63.7789 20.6915 64.0682 21.6033 64.0699C21.729 64.0704 21.8546 64.0709 21.9841 64.0714C22.1222 64.0714 22.2603 64.0714 22.4025 64.0714C22.5492 64.0718 22.6959 64.0722 22.8471 64.0726C23.2546 64.0738 23.6621 64.0742 24.0696 64.0745C24.509 64.0749 24.9484 64.076 25.3878 64.077C26.4491 64.0792 27.5104 64.0804 28.5718 64.0814C29.0716 64.0819 29.5715 64.0825 30.0714 64.0831C31.7334 64.085 33.3953 64.0866 35.0572 64.0875C35.4885 64.0877 35.9197 64.0879 36.3509 64.0881C36.4581 64.0882 36.5653 64.0882 36.6757 64.0883C38.4118 64.0892 40.1478 64.0921 41.8839 64.0958C43.6665 64.0995 45.4492 64.1016 47.2319 64.1019C48.2327 64.1022 49.2334 64.1032 50.2342 64.1061C51.0866 64.1085 51.9389 64.1094 52.7912 64.1083C53.2259 64.1078 53.6606 64.108 54.0953 64.1102C54.5671 64.1126 55.0389 64.1114 55.5108 64.1099C55.6473 64.1112 55.7839 64.1124 55.9246 64.1137C57.0752 64.1049 57.9991 63.8415 58.8515 63.0427C59.3987 62.3994 59.7403 61.6033 59.7483 60.7572C59.7495 60.6649 59.7506 60.5726 59.7518 60.4776C59.7524 60.3768 59.7531 60.276 59.7538 60.1722C59.7555 60.0109 59.7555 60.0109 59.7573 59.8464C59.7609 59.4851 59.7637 59.1239 59.7665 58.7627C59.7689 58.504 59.7713 58.2454 59.7737 57.9867C59.795 55.6273 59.8067 53.2677 59.8159 50.9081C59.8171 50.5925 59.8184 50.2769 59.8197 49.9613C59.8202 49.8436 59.8202 49.8436 59.8207 49.7236C59.8261 48.4529 59.837 47.1822 59.85 45.9116C59.8633 44.6064 59.8709 43.3012 59.8734 41.996C59.875 41.2633 59.8792 40.5309 59.8894 39.7983C59.899 39.109 59.9016 38.4201 59.8989 37.7308C59.8991 37.4779 59.9019 37.2251 59.9074 36.9723C59.9893 35.7492 59.9893 35.7492 59.588 34.6406C59.1942 34.29 58.7472 34.1115 58.2576 33.9219C58.0411 33.7991 57.8264 33.6731 57.6147 33.5422C57.4019 33.4184 57.1891 33.2948 56.9761 33.1714C56.7375 33.0326 56.4988 32.8938 56.2602 32.755C56.1401 32.6852 56.02 32.6155 55.8963 32.5436C55.3355 32.2178 54.7752 31.891 54.2149 31.5642C54.1043 31.4997 53.9937 31.4352 53.8798 31.3688C52.908 30.8019 51.9375 30.2329 50.9671 29.6637C49.5848 28.853 48.2008 28.0451 46.8162 27.2383C45.4122 26.4201 44.0086 25.6012 42.6064 24.7801C42.4637 24.6965 42.321 24.613 42.1783 24.5295C41.2439 23.9825 40.3133 23.4301 39.3914 22.8623C38.9149 22.5964 38.7437 22.7761 38.2989 23.0438Z" fill="black"/>
<path d="M38.1072 37.1632C38.4261 37.4299 38.654 37.6506 38.8869 38C39.1423 38.0263 39.1423 38.0263 39.3542 37.7664C39.4046 37.7147 39.455 37.663 39.5069 37.6097C40.8694 36.2228 42.6128 35.5174 44.551 35.4512C46.4484 35.5182 48.0776 36.1815 49.3933 37.5774C50.8761 39.3738 51.1442 41.4188 51.008 43.6641C50.6548 46.8458 48.4469 49.6433 46.0236 51.5938C44.3226 52.9038 42.4816 53.9985 40.4729 54.7656C40.3706 54.8053 40.2684 54.8451 40.1631 54.886C38.6514 55.4118 37.2308 54.7194 35.8673 54.0634C33.9653 53.1147 32.303 51.8832 30.7307 50.4609C30.6146 50.3571 30.6146 50.3571 30.4961 50.2512C28.6059 48.4665 27.0813 45.7751 26.9561 43.1645C26.8963 41.0727 27.2079 39.2476 28.6279 37.6248C28.7983 37.4459 28.9704 37.2687 29.1447 37.0938C29.2074 37.0285 29.27 36.9632 29.3346 36.896C31.7453 34.5929 35.6832 35.3162 38.1072 37.1632ZM30.5041 38.2266C30.4344 38.2809 30.3648 38.3352 30.293 38.3912C29.3281 39.2384 28.7529 40.6459 28.6637 41.9055C28.5497 44.5735 29.7281 46.6853 31.4528 48.6626C33.1623 50.5072 36.2883 53.2548 38.9436 53.3638C39.8202 53.3329 40.6109 52.8886 41.3791 52.5C41.4927 52.4427 41.4927 52.4427 41.6087 52.3843C44.3581 50.9726 46.6988 48.9233 48.2893 46.2695C48.3468 46.1739 48.4043 46.0782 48.4636 45.9797C49.3545 44.3591 49.6005 42.3628 49.0858 40.5873C48.6318 39.3373 47.8946 38.3017 46.7033 37.6672C45.2566 37.0178 43.868 37.1186 42.4057 37.6672C41.2316 38.1825 40.4513 38.9602 39.7932 40.0391C39.5221 40.3864 39.4353 40.4763 39.0002 40.5488C38.5651 40.4763 38.4783 40.3864 38.2072 40.0391C38.1614 39.9647 38.1155 39.8904 38.0683 39.8138C37.2833 38.5443 36.0226 37.7044 34.5822 37.3203C33.0805 37.0422 31.7079 37.2486 30.5041 38.2266Z" fill="black"/>
</g>
<defs>
<clipPath id="clip0_1272_2540">
<rect width="58" height="58" fill="white" transform="translate(10 9)"/>
</clipPath>
</defs>
</svg>
