<svg width="77" height="77" viewBox="0 0 77 77" fill="none" xmlns="http://www.w3.org/2000/svg">
<path fill-rule="evenodd" clip-rule="evenodd" d="M5.85983 24.3616C12.3619 16.9332 26.5529 25.4134 37.4031 24.356C47.7796 23.3447 56.9357 12.3672 66.0463 18.4961C75.1674 24.6321 69.7228 36.6126 70.0534 46.3206C70.3859 56.0875 76.5177 68.9306 67.9274 73.7468C59.3762 78.541 48.5552 67.6554 38.1296 64.2188C28.4798 61.0379 16.9304 62.59 10.6868 54.8783C3.29872 45.7531 -0.968451 32.1626 5.85983 24.3616Z" fill="#FFDF18"/>
<g clip-path="url(#clip0_1271_2337)">
<path d="M27.1976 11.9821C27.2844 11.9808 27.3712 11.9795 27.4607 11.9781C27.6011 11.977 27.6011 11.977 27.7444 11.9758C27.8412 11.975 27.9381 11.9742 28.0378 11.9734C28.243 11.972 28.4481 11.9709 28.6533 11.9701C28.9654 11.9683 29.2773 11.9639 29.5894 11.9594C29.789 11.9584 29.9886 11.9575 30.1882 11.9568C30.2808 11.955 30.3734 11.9532 30.4688 11.9514C31.1763 11.9538 31.7078 12.1196 32.2524 12.5801C32.2977 12.6358 32.343 12.6916 32.3897 12.7491C32.46 12.8319 32.46 12.8319 32.5317 12.9165C32.8878 13.4904 32.8932 14.0717 32.8971 14.7252C32.898 14.8217 32.8989 14.9181 32.8999 15.0176C32.9014 15.2218 32.9023 15.4261 32.9026 15.6304C32.9038 15.9371 32.9088 16.2436 32.914 16.5503C32.9242 17.7965 32.7821 18.8533 32.3516 20.0235C32.2505 20.3269 32.2362 20.5298 32.234 20.8468C32.233 20.954 32.232 21.0613 32.231 21.1717C32.2304 21.2894 32.2298 21.407 32.2292 21.5282C32.2282 21.652 32.2272 21.7759 32.2261 21.9035C32.2235 22.2432 32.2213 22.5829 32.2192 22.9226C32.217 23.2776 32.2142 23.6326 32.2115 23.9876C32.2064 24.6599 32.2019 25.3321 32.1975 26.0044C32.1925 26.7697 32.1869 27.5351 32.1813 28.3004C32.1697 29.8748 32.1589 31.4491 32.1485 33.0235C32.2176 33.0437 32.2867 33.064 32.3579 33.0849C32.4488 33.1118 32.5398 33.1387 32.6336 33.1665C32.7236 33.193 32.8136 33.2196 32.9064 33.2469C34.3731 33.7094 35.5617 34.6802 36.6172 35.7657C36.7415 35.7252 36.8657 35.6848 36.9937 35.6431C40.8747 34.4083 45.0349 34.5029 48.7032 36.375C50.6514 37.4277 50.6514 37.4277 50.9375 38C50.9924 38.4116 50.9723 38.5624 50.7217 38.9014C50.3672 39.1635 50.2527 39.1722 49.8204 39.1172C49.5509 38.9884 49.3109 38.8226 49.065 38.6539C47.8037 37.8304 46.5022 37.2683 45.0469 36.8829C44.9269 36.8503 44.8068 36.8177 44.6831 36.7841C42.346 36.249 39.8777 36.5052 37.6329 37.2891C37.6677 37.3493 37.7025 37.4094 37.7384 37.4714C38.6052 39.0054 38.7498 40.8589 38.4454 42.5704C38.4392 42.7184 38.4365 42.8666 38.439 43.0147C38.4411 43.1362 38.4432 43.2577 38.4454 43.3829C38.5242 43.3424 38.603 43.3019 38.6842 43.2603C40.4798 42.3796 42.4294 42.1622 44.3406 42.8016C45.89 43.375 47.1452 44.3951 47.9922 45.8204C48.0388 45.8981 48.0854 45.9759 48.1335 46.056C49.0039 47.6448 49.2034 49.6383 48.719 51.3853C48.0106 53.3501 46.778 54.813 44.8799 55.7371C43.683 56.2912 42.582 56.3201 41.2891 56.2813C41.2617 56.3693 41.2344 56.4573 41.2062 56.5479C40.5388 58.451 38.982 60.2363 37.3282 61.3594C40.2703 62.6024 43.7338 62.5582 46.6914 61.3918C48.1257 60.7985 49.3577 60.0411 50.5313 59.0235C50.6411 58.9365 50.7511 58.8497 50.8614 58.7632C52.1443 57.6261 53.0992 56.1135 53.7813 54.5547C53.8099 54.4897 53.8386 54.4247 53.8681 54.3577C54.9422 51.8647 55.2341 48.8514 54.4922 46.2266C54.4737 46.1578 54.4551 46.0889 54.436 46.018C53.9974 44.4245 53.2732 42.8675 52.2388 41.5738C51.7911 41.0103 51.7911 41.0103 51.7627 40.5899C51.8516 40.2344 51.8516 40.2344 52.0611 39.9742C52.3594 39.8282 52.3594 39.8282 52.6958 39.7964C53.8516 40.2078 54.5997 41.869 55.1209 42.9144C56.0875 44.9704 56.5684 47.069 56.5552 49.3433C56.5548 49.4506 56.5548 49.4506 56.5543 49.56C56.5351 52.7598 55.5243 55.6024 53.6797 58.211C53.9675 58.5627 54.2613 58.8983 54.5866 59.2155C54.6399 59.2675 54.6932 59.3195 54.748 59.3731C54.8545 59.4764 54.9617 59.579 55.0696 59.6808C55.673 60.2663 55.9773 60.8513 56.0411 61.6958C55.9847 62.5278 55.6277 63.1457 55 63.6954C54.5531 63.9672 54.2135 64.0439 53.6924 64.0445C53.5754 64.0464 53.4583 64.0484 53.3377 64.0504C52.2381 63.9003 51.6314 63.0959 50.9086 62.3213C50.8265 62.2357 50.7444 62.1502 50.6598 62.062C50.5863 61.9832 50.5127 61.9044 50.437 61.8233C50.2432 61.6407 50.2432 61.6407 50.0217 61.6769C49.8135 61.7687 49.6145 61.8654 49.4157 61.9763C49.3383 62.0187 49.2609 62.0611 49.1812 62.1048C49.0577 62.1726 49.0577 62.1726 48.9317 62.2417C47.4796 63.0185 46.054 63.4906 44.4375 63.7969C44.3383 63.8158 44.2391 63.8346 44.1368 63.8541C41.4759 64.2371 38.6841 63.891 36.2241 62.8051C35.7694 62.6257 35.463 62.5209 34.9906 62.6837C34.8822 62.7369 34.7738 62.79 34.6621 62.8448C31.3689 64.3719 27.3811 64.3376 23.9949 63.134C20.812 61.8735 18.0989 59.6708 16.711 56.4844C16.2595 55.3225 15.9924 54.1377 15.9556 52.8916C15.9521 52.8227 15.9486 52.7538 15.945 52.6828C15.9417 52.292 15.9922 52.1274 16.2337 51.8149C16.5079 51.6094 16.5079 51.6094 16.876 51.6094C17.2001 51.7054 17.3307 51.7479 17.5235 52.0157C17.6579 52.2845 17.6568 52.5444 17.6803 52.8402C17.892 55.4131 19.0081 57.7267 20.9766 59.4297C23.6289 61.5529 26.9966 62.5336 30.3775 62.21C33.4863 61.85 36.2735 60.4576 38.3184 58.0777C39.92 56.035 40.4499 53.7648 40.2735 51.2032C40.0378 49.3889 39.1699 47.8678 38.0264 46.4805C36.9915 45.218 36.6311 43.9929 36.7188 42.3672C36.7354 42.2694 36.752 42.1716 36.7692 42.0709C37.0479 40.3659 36.6485 38.819 35.7032 37.3907C34.9046 36.2839 33.8423 35.5923 32.6331 34.991C32.5422 34.9458 32.4513 34.9005 32.3576 34.8539C32.2886 34.8196 32.2196 34.7853 32.1485 34.75C32.1429 35.9923 32.1417 37.2344 32.1461 38.4767C32.148 39.0536 32.1484 39.6304 32.1454 40.2073C32.1425 40.7644 32.1436 41.3215 32.1473 41.8786C32.1481 42.0907 32.1474 42.3029 32.1453 42.515C32.0819 43.8308 32.0819 43.8308 32.6444 44.9613C32.7155 45.0204 32.7866 45.0795 32.8599 45.1403C33.4377 45.6313 33.6877 46.5098 33.7735 47.2422C33.8895 48.7315 33.4774 49.8198 32.6309 51.0191C31.6567 52.0154 30.5129 52.4542 29.1397 52.5489C27.865 52.5218 26.6964 52.0375 25.7627 51.1714C24.7638 50.0799 24.4573 48.8928 24.5023 47.4517C24.555 46.4946 24.9174 45.5347 25.6029 44.851C25.9431 44.4425 25.9236 44.0494 25.9186 43.5358C25.9196 43.4407 25.9207 43.3455 25.9218 43.2474C25.9247 42.9341 25.9241 42.621 25.9234 42.3077C25.9247 42.09 25.9263 41.8723 25.9281 41.6545C25.9321 41.0825 25.9331 40.5105 25.9336 39.9385C25.9345 39.3543 25.9383 38.7702 25.9419 38.1861C25.9484 37.0408 25.9518 35.8954 25.9532 34.75C25.6933 34.8768 25.4337 35.0042 25.1744 35.1321C25.1014 35.1676 25.0284 35.2031 24.9532 35.2397C24.3154 35.5553 23.7427 35.9257 23.251 36.4461C23.1094 36.5782 23.1094 36.5782 22.9063 36.5782C22.8785 36.6379 22.8508 36.6976 22.8222 36.7591C22.7067 36.9778 22.5798 37.1487 22.4239 37.3399C21.4534 38.6236 21.0706 40.0591 21.1797 41.6563C21.2047 41.804 21.2047 41.804 21.2301 41.9546C21.4603 43.3535 21.2193 44.6621 20.4581 45.8569C20.2241 46.183 19.9725 46.4925 19.7198 46.8042C18.9807 47.7168 18.4528 48.7316 18.0099 49.8182C17.9297 49.9844 17.9297 49.9844 17.7266 50.1875C17.4178 50.2379 17.122 50.2318 16.8125 50.1875C16.5132 49.9698 16.5112 49.8013 16.4507 49.4385C16.5079 48.0438 17.6052 46.6889 18.4455 45.6581C19.2559 44.6451 19.6509 43.7824 19.5547 42.4688C19.538 42.3561 19.5212 42.2434 19.5039 42.1272C19.2194 40.0576 19.734 37.9918 20.995 36.3174C22.2044 34.7657 23.7727 33.6518 25.6485 33.0235C25.749 33.0235 25.8496 33.0235 25.9532 33.0235C25.9541 31.4263 25.9516 29.8291 25.945 28.2319C25.942 27.4901 25.9401 26.7483 25.941 26.0064C25.9417 25.359 25.9402 24.7116 25.9363 24.0641C25.9342 23.7221 25.9336 23.3801 25.9348 23.0381C25.9394 21.6311 25.9191 20.366 25.3826 19.0503C25.2035 18.6074 25.1293 18.2185 25.1211 17.7436C25.1186 17.6144 25.1186 17.6144 25.1161 17.4825C25.1116 17.0896 25.1074 16.6966 25.1051 16.3036C25.1034 16.0972 25.1007 15.8909 25.0968 15.6846C25.0543 13.4124 25.0543 13.4124 25.6485 12.711C26.1259 12.2729 26.5344 11.9908 27.1976 11.9821ZM26.8672 13.8282C26.6177 14.3271 26.7339 15.0951 26.7301 15.6497C26.7284 15.8293 26.7257 16.0089 26.7218 16.1885C26.7161 16.4505 26.714 16.7122 26.7125 16.9742C26.7102 17.0518 26.7079 17.1295 26.7055 17.2094C26.7089 18.1116 26.9793 18.6758 27.2735 19.6172C28.413 19.6172 29.5525 19.6172 30.7266 19.6172C31.1829 18.3352 31.1829 18.3352 31.2983 17.0706C31.2985 16.9836 31.2988 16.8965 31.299 16.8068C31.2989 16.6264 31.2976 16.4459 31.295 16.2655C31.2915 15.9891 31.293 15.7131 31.2949 15.4367C31.2942 15.2598 31.2932 15.083 31.2919 14.9061C31.2924 14.8241 31.2929 14.7421 31.2935 14.6576C31.2858 14.2938 31.2674 14.0755 31.0467 13.7798C30.511 13.4004 29.8619 13.5009 29.2322 13.4991C29.0209 13.4981 28.8097 13.495 28.5984 13.4917C28.4629 13.4911 28.3274 13.4906 28.1919 13.4902C28.0694 13.4892 27.9469 13.4883 27.8206 13.4873C27.4384 13.5275 27.1937 13.6284 26.8672 13.8282ZM27.5782 21.2422C27.5782 28.5822 27.5782 35.9221 27.5782 43.4844C27.7793 43.4509 27.9804 43.4174 28.1875 43.3829C28.9584 43.3829 29.7293 43.3829 30.5235 43.3829C30.5235 36.0765 30.5235 28.77 30.5235 21.2422C29.5515 21.2422 28.5796 21.2422 27.5782 21.2422ZM39.1563 44.9063C39.1563 45.3138 39.3591 45.4894 39.607 45.7886C41.1501 47.7357 41.9426 49.95 41.9175 52.4346C41.9175 52.5589 41.9174 52.6831 41.9173 52.8111C41.9143 53.4351 41.8931 54.0395 41.7969 54.6563C43.0519 54.7737 44.2404 54.3875 45.2358 53.6212C46.2828 52.7366 47.0676 51.5684 47.2813 50.1875C47.3976 48.4642 47.0007 47.096 45.8912 45.7505C44.9945 44.7857 43.7117 44.1588 42.3932 44.0732C41.1775 44.0566 40.1876 44.2474 39.1563 44.9063ZM27.0704 45.6172C26.4314 46.2683 26.1476 46.9741 26.0992 47.877C26.1213 48.7079 26.4138 49.3811 26.962 50.0047C27.5948 50.593 28.2595 50.8447 29.1143 50.9302C29.9149 50.8657 30.7562 50.557 31.336 49.9844C31.905 49.285 32.1975 48.591 32.1743 47.6822C32.0679 46.7051 31.5766 45.9881 30.8357 45.3677C29.6364 44.4756 28.1857 44.7465 27.0704 45.6172ZM51.9468 59.9883C51.8535 60.0732 51.7601 60.158 51.6639 60.2454C51.5557 60.3444 51.5557 60.3444 51.4454 60.4454C51.8311 60.9169 52.239 61.3678 52.6578 61.8101C52.7075 61.8654 52.7572 61.9207 52.8084 61.9776C53.09 62.2693 53.245 62.3713 53.6516 62.4242C53.9978 62.4038 53.9978 62.4038 54.2383 62.1529C54.42 61.8122 54.3988 61.72 54.2891 61.3594C54.1623 61.1618 54.1623 61.1618 53.9908 60.9849C53.9278 60.9164 53.8648 60.848 53.7999 60.7774C53.1922 60.1434 53.1922 60.1434 52.5625 59.5313C52.3399 59.5313 52.0971 59.8514 51.9468 59.9883Z" fill="black"/>
<path d="M67.0656 19.3431C67.5293 19.7014 67.8163 20.1838 67.9998 20.7344C68.0691 21.5005 68.0557 22.1334 67.5936 22.7656C67.0639 23.331 66.5428 23.6168 65.8063 23.832C65.7145 23.8607 65.6227 23.8894 65.528 23.9189C65.2332 24.0105 64.9377 24.099 64.6419 24.1875C64.4394 24.2497 64.237 24.3121 64.0346 24.3746C63.6391 24.4965 63.2433 24.6172 62.8471 24.7367C62.4004 24.8715 61.9547 25.009 61.5094 25.1484C61.301 25.2133 61.0926 25.2781 60.8841 25.3428C60.7927 25.3712 60.7012 25.3996 60.607 25.4289C60.2857 25.5264 60.0095 25.6094 59.6717 25.6094C59.6731 30.2362 59.677 34.863 59.6846 39.4897C59.6855 40.0355 59.6864 40.5813 59.6872 41.1271C59.6874 41.2357 59.6876 41.3444 59.6877 41.4563C59.6904 43.2175 59.6914 44.9787 59.6916 46.74C59.6919 48.5461 59.6942 50.3521 59.6982 52.1582C59.7006 53.2734 59.7015 54.3886 59.7005 55.5037C59.7 56.2676 59.7013 57.0315 59.7041 57.7954C59.7056 58.2366 59.7064 58.6779 59.7049 59.1191C59.7036 59.5227 59.7045 59.9261 59.7074 60.3296C59.708 60.476 59.7078 60.6225 59.7066 60.7689C59.7052 60.967 59.7071 61.1652 59.7092 61.3634C59.7093 61.4738 59.7094 61.5841 59.7096 61.6978C59.7489 61.9898 59.7489 61.9898 60.0141 62.1625C60.2769 62.3012 60.2769 62.3012 60.554 62.2163C60.8269 62.0467 60.8787 61.96 60.992 61.6641C61.0225 61.384 61.0225 61.384 61.0178 61.0725C61.0186 60.8901 61.0186 60.8901 61.0195 60.7039C61.0191 60.5702 61.0187 60.4364 61.0183 60.2986C61.0186 60.1552 61.0189 60.0118 61.0194 59.8684C61.0204 59.4739 61.0202 59.0794 61.0197 58.6848C61.0195 58.2595 61.0204 57.8343 61.0212 57.409C61.0224 56.6719 61.0229 55.9348 61.023 55.1978C61.0231 54.1318 61.0247 53.0658 61.0266 51.9997C61.0297 50.2698 61.0322 48.5399 61.034 46.81C61.0341 46.7065 61.0342 46.6029 61.0343 46.4962C61.0355 45.3403 61.0366 44.1844 61.0374 43.0285C61.0377 42.6092 61.0381 42.1898 61.0384 41.7705C61.0385 41.667 61.0385 41.5635 61.0386 41.4569C61.0399 39.7335 61.0424 38.01 61.0459 36.2865C61.0479 35.2228 61.049 34.1591 61.0487 33.0953C61.0486 32.3669 61.0496 31.6386 61.0514 30.9102C61.0524 30.4895 61.053 30.0688 61.0522 29.6481C61.0514 29.2634 61.0521 28.8787 61.0539 28.494C61.0545 28.2881 61.0535 28.0822 61.0526 27.8762C61.0538 27.6942 61.0538 27.6942 61.0551 27.5085C61.0552 27.4033 61.0553 27.2982 61.0553 27.1898C61.0936 26.9297 61.0936 26.9297 61.2301 26.7467C61.4874 26.5605 61.6928 26.536 62.0077 26.5234C62.2929 26.6466 62.461 26.7433 62.6297 27.006C62.7405 27.2907 62.7442 27.5171 62.7444 27.8227C62.745 27.9436 62.7456 28.0645 62.7462 28.189C62.7459 28.322 62.7455 28.4549 62.7451 28.5919C62.7454 28.7344 62.7458 28.877 62.7463 29.0195C62.7473 29.4117 62.7471 29.8039 62.7466 30.1961C62.7464 30.6189 62.7473 31.0417 62.7481 31.4645C62.7494 32.2931 62.7495 33.1218 62.7493 33.9504C62.7491 34.624 62.7493 35.2975 62.7497 35.9711C62.7498 36.0669 62.7499 36.1627 62.7499 36.2614C62.75 36.456 62.7502 36.6506 62.7503 36.8452C62.7514 38.6715 62.7512 40.4977 62.7506 42.324C62.75 43.9945 62.7512 45.6649 62.7531 47.3354C62.7551 49.0504 62.7559 50.7654 62.7555 52.4804C62.7553 53.4433 62.7556 54.4062 62.757 55.3691C62.7582 56.1891 62.7584 57.0091 62.7571 57.8291C62.7565 58.2474 62.7564 58.6657 62.7577 59.084C62.7588 59.4672 62.7584 59.8504 62.757 60.2337C62.7566 60.4373 62.7577 60.641 62.7589 60.8447C62.7526 61.8863 62.6186 62.6574 61.8874 63.4252C61.3887 63.881 60.8385 64 60.1795 64C59.4813 63.9186 58.945 63.6216 58.4784 63.0923C58.1229 62.6085 58.0213 62.2458 58.0217 61.6479C58.0213 61.5213 58.0209 61.3947 58.0205 61.2642C58.0211 61.124 58.0217 60.9838 58.0223 60.8436C58.0222 60.6945 58.022 60.5453 58.0218 60.3961C58.0213 59.9862 58.0221 59.5763 58.0231 59.1663C58.024 58.7243 58.0237 58.2823 58.0236 57.8402C58.0235 57.0743 58.0241 56.3085 58.0252 55.5426C58.0269 54.4352 58.0274 53.3279 58.0277 52.2206C58.0281 50.424 58.0295 48.6275 58.0314 46.8309C58.0333 45.0856 58.0347 43.3404 58.0356 41.5951C58.0356 41.4875 58.0357 41.38 58.0357 41.2691C58.036 40.7295 58.0362 40.1899 58.0365 39.6503C58.0386 35.1731 58.0422 30.696 58.0467 26.2188C57.9788 26.2404 57.9108 26.262 57.8408 26.2843C57.1973 26.4889 56.5535 26.6922 55.9091 26.8941C55.578 26.9979 55.247 27.1022 54.9163 27.2077C54.5353 27.3291 54.1537 27.4484 53.772 27.5676C53.5958 27.6243 53.5958 27.6243 53.416 27.6821C52.4683 27.9752 51.6953 28.0855 50.7644 27.6736C50.1949 27.3453 49.8633 26.8401 49.665 26.2215C49.5116 25.5635 49.6319 25.0714 49.8551 24.4505C50.3722 23.6418 51.0956 23.3325 51.9883 23.0791C52.2162 23.0103 52.444 22.9415 52.6719 22.8727C52.7885 22.8382 52.9051 22.8038 53.0252 22.7684C53.5799 22.6029 54.1307 22.4254 54.6821 22.2491C55.7118 21.9227 56.7423 21.5985 57.7728 21.2745C58.5797 21.0209 59.386 20.7655 60.1915 20.5075C60.7309 20.3349 61.2707 20.1634 61.8107 19.9928C62.1327 19.891 62.4543 19.7884 62.7756 19.6847C63.1334 19.5693 63.4918 19.4562 63.8505 19.3435C63.9546 19.3093 64.0588 19.2751 64.1662 19.2399C65.1581 18.9327 66.1306 18.8176 67.0656 19.3431ZM64.628 20.8401C64.5216 20.8734 64.5216 20.8734 64.413 20.9073C64.1777 20.9811 63.9429 21.0561 63.708 21.1311C63.541 21.1837 63.374 21.2363 63.2069 21.2887C62.7596 21.4294 62.3127 21.571 61.8658 21.7129C61.1267 21.9473 60.3871 22.1799 59.6475 22.4128C59.37 22.5003 59.0925 22.5879 58.815 22.6755C57.726 23.019 56.6355 23.3571 55.5426 23.688C55.4184 23.7257 55.2943 23.7634 55.1664 23.8022C54.7086 23.9411 54.2508 24.0798 53.7924 24.2166C53.4887 24.3072 53.1854 24.399 52.8821 24.491C52.7955 24.5164 52.7089 24.5418 52.6197 24.5679C52.1314 24.7173 51.7448 24.8833 51.3436 25.2031C51.2002 25.4961 51.2002 25.4961 51.242 25.8125C51.4238 26.1298 51.4238 26.1298 51.7498 26.3203C52.4338 26.2893 53.0532 26.0834 53.701 25.8732C53.8124 25.8377 53.9238 25.8022 54.0386 25.7657C54.2797 25.6888 54.5207 25.6116 54.7616 25.5341C55.3425 25.3473 55.9241 25.1623 56.5056 24.9772C56.7085 24.9126 56.9114 24.8479 57.1143 24.7832C58.0683 24.4793 59.0236 24.1801 59.98 23.884C60.0461 23.8635 60.1122 23.8431 60.1803 23.822C60.759 23.6429 61.3378 23.4641 61.9167 23.2856C62.6924 23.0464 63.4676 22.8058 64.242 22.5625C64.3372 22.5327 64.4323 22.503 64.5303 22.4723C64.7891 22.3908 65.0475 22.3079 65.3057 22.2245C65.38 22.2012 65.4543 22.1779 65.5309 22.1539C66.0188 21.9973 66.0188 21.9973 66.3748 21.6484C66.4298 21.2797 66.422 21.1079 66.2098 20.7979C65.7077 20.4543 65.169 20.6689 64.628 20.8401Z" fill="black"/>
<path d="M27.6797 54.7579C27.8256 54.8876 27.9716 55.0174 28.1169 55.1479C28.4494 55.3754 28.8089 55.4037 29.2031 55.3673C29.5656 55.2305 29.8594 54.9997 30.1743 54.7769C30.505 54.6159 30.6836 54.6521 31.0312 54.7579C31.2679 54.9211 31.3253 55.0315 31.4185 55.3038C31.4426 55.6415 31.4064 55.7843 31.2344 56.0782C30.6979 56.6964 29.9689 57.0108 29.167 57.1292C28.2121 57.168 27.4653 56.8383 26.7367 56.2429C26.4573 55.9788 26.461 55.8754 26.4355 55.4752C26.4404 55.0929 26.4404 55.0929 26.5942 54.8658C26.9814 54.622 27.2504 54.6401 27.6797 54.7579Z" fill="black"/>
<path d="M22.9062 53.539C23.2296 53.7178 23.2954 53.7928 23.414 54.1484C23.4316 54.4167 23.4421 54.6798 23.4457 54.9482C23.4487 55.0201 23.4516 55.092 23.4546 55.166C23.4592 55.5398 23.4268 55.7528 23.2275 56.0726C22.9463 56.3396 22.7844 56.3828 22.3983 56.3828C21.9347 56.1664 21.9347 56.1664 21.789 55.875C21.7596 55.5583 21.7608 55.2407 21.7572 54.9228C21.7543 54.8351 21.7513 54.7474 21.7483 54.657C21.7418 54.0127 21.7418 54.0127 21.9719 53.6839C22.2975 53.4727 22.5265 53.4916 22.9062 53.539Z" fill="black"/>
<path d="M35.6014 53.5392C35.8231 53.682 35.8231 53.682 36.0076 53.9454C36.0706 54.2848 36.0689 54.6167 36.0647 54.961C36.0672 55.0527 36.0696 55.1443 36.0721 55.2387C36.0706 55.9049 36.0706 55.9049 35.7731 56.2437C35.4002 56.4336 35.1869 56.3919 34.7889 56.2813C34.5732 56.1179 34.4944 56.0301 34.4431 55.7621C34.4399 55.4971 34.4377 55.2324 34.4397 54.9674C34.4367 54.8292 34.4367 54.8292 34.4336 54.6883C34.4341 54.0174 34.4341 54.0174 34.6679 53.6816C34.9962 53.4715 35.2204 53.4847 35.6014 53.5392Z" fill="black"/>
</g>
<defs>
<clipPath id="clip0_1271_2337">
<rect width="52" height="52" fill="white" transform="translate(16 12)"/>
</clipPath>
</defs>
</svg>
