<svg width="77" height="77" viewBox="0 0 77 77" fill="none" xmlns="http://www.w3.org/2000/svg">
<path fill-rule="evenodd" clip-rule="evenodd" d="M5.85983 24.3616C12.3619 16.9332 26.5529 25.4134 37.4031 24.356C47.7796 23.3447 56.9357 12.3672 66.0463 18.4961C75.1674 24.6321 69.7228 36.6126 70.0534 46.3206C70.3859 56.0875 76.5177 68.9306 67.9274 73.7468C59.3762 78.541 48.5552 67.6554 38.1296 64.2188C28.4798 61.0379 16.9304 62.59 10.6868 54.8783C3.29872 45.7531 -0.968451 32.1626 5.85983 24.3616Z" fill="#FFDF18"/>
<g clip-path="url(#clip0_1272_2537)">
<path d="M47.416 22.2792C47.526 22.3375 47.6361 22.3958 47.7496 22.4559C49.0032 23.1512 51.1574 24.3911 51.8203 25.7167C51.8639 26.1094 51.8433 26.3171 51.6591 26.6701C51.3644 26.9207 51.1646 27.0027 50.7746 26.9781C50.2331 26.8007 49.8552 26.3213 49.457 25.9316C46.1674 23.0655 41.7553 21.5831 37.4073 21.8647C33.6294 22.1557 30.0074 23.6731 27.2206 26.2538C27.1624 26.3074 27.1041 26.361 27.044 26.4162C23.8046 29.4276 22.0127 33.6985 21.8357 38.0917C21.7578 42.5609 23.4025 46.7545 26.4687 49.9941C26.6089 50.1465 26.6089 50.1465 26.7519 50.3021C27.5362 51.1354 28.4098 51.8066 29.3699 52.4282C29.5839 52.5722 29.5839 52.5722 29.7644 52.7257C30.496 53.3002 31.4385 53.1936 32.3232 53.1966C32.4952 53.1991 32.6673 53.2018 32.8393 53.2048C33.2581 53.2115 33.6768 53.215 34.0956 53.2167C34.0934 53.0857 34.0911 52.9546 34.0888 52.8196C34.081 52.3291 34.0761 51.8387 34.072 51.3481C34.0699 51.1366 34.067 50.9252 34.0632 50.7137C34.058 50.4081 34.0556 50.1025 34.0537 49.7969C34.0515 49.7037 34.0492 49.6106 34.047 49.5146C34.0466 48.5257 34.3763 47.6837 35.0557 46.9603C35.8397 46.2921 36.6338 46.1269 37.6406 46.1269C37.6406 44.9571 37.6406 43.7872 37.6406 42.582C37.2861 42.4756 36.9316 42.3693 36.5663 42.2597C35.5267 41.5925 34.8396 40.7741 34.4628 39.593C34.2412 38.4396 34.3894 37.2984 35.0133 36.3016C35.6419 35.4371 36.4762 34.7642 37.5331 34.5253C38.8188 34.3696 39.9436 34.4945 41.0265 35.2517C41.8396 35.9165 42.3404 36.728 42.582 37.748C42.7041 39.049 42.5305 40.1757 41.689 41.2023C41.0665 41.8824 40.4663 42.315 39.5742 42.582C39.5033 42.582 39.4324 42.582 39.3593 42.582C39.3593 43.7518 39.3593 44.9216 39.3593 46.1269C39.6075 46.1269 39.8556 46.1269 40.1113 46.1269C40.9783 46.276 41.6787 46.6397 42.2337 47.3278C42.7906 48.127 42.9364 48.7945 42.9252 49.7549C42.9249 49.8541 42.9246 49.9534 42.9243 50.0556C42.9231 50.3708 42.9204 50.686 42.9177 51.0012C42.9166 51.2156 42.9156 51.43 42.9147 51.6444C42.9124 52.1686 42.9087 52.6926 42.9042 53.2167C43.397 53.2254 43.8892 53.2275 44.3821 53.224C44.5489 53.2236 44.7158 53.225 44.8827 53.2282C46.2311 53.2521 46.991 52.9738 48.0605 52.1425C48.18 52.0565 48.2999 51.971 48.4202 51.8861C51.9164 49.3938 54.1919 45.4903 54.9355 41.2929C55.5782 37.181 54.7482 33.1652 52.5722 29.6309C52.2843 29.1465 52.1336 28.8532 52.2499 28.2949C52.3641 28.0397 52.3641 28.0397 52.5722 27.8652C52.9222 27.7761 53.1886 27.7141 53.5377 27.8266C55.3911 29.079 56.3013 33.0908 56.7109 35.1155C57.6379 40.0312 56.4239 45.0324 53.6712 49.1583C53.3361 49.6433 52.9625 50.0901 52.5722 50.5312C52.4793 50.6371 52.3864 50.7431 52.2906 50.8522C50.6728 52.6719 50.6728 52.6719 49.753 53.1331C48.8339 53.62 48.8339 53.62 48.2839 54.4654C48.143 55.2752 48.1948 56.0924 48.235 56.9094C48.2484 57.3936 48.2572 57.8778 48.2661 58.3621C48.2704 58.5352 48.2704 58.5352 48.2748 58.7118C48.2969 59.8995 48.1296 60.9856 47.5637 62.0455C47.5079 62.1528 47.5079 62.1528 47.4509 62.2622C46.548 63.938 45.1018 65.176 43.2851 65.7629C42.3812 66.0132 41.5116 66.0473 40.5812 66.0427C40.4224 66.043 40.2636 66.0433 40.1047 66.0437C39.7739 66.0442 39.4432 66.0435 39.1124 66.042C38.692 66.0401 38.2717 66.0412 37.8513 66.0431C37.524 66.0443 37.1966 66.0439 36.8692 66.0431C36.7144 66.0429 36.5595 66.0431 36.4047 66.0439C35.0046 66.0492 33.5373 65.9025 32.4037 64.9891C32.2041 64.7351 32.2187 64.4805 32.2325 64.1675C32.2695 63.9589 32.2695 63.9589 32.4373 63.6904C32.794 63.4709 33.051 63.4438 33.4511 63.5292C33.7849 63.6532 34.1082 63.7907 34.4322 63.9384C34.9319 64.146 35.389 64.1877 35.9275 64.1928C36.0563 64.1942 36.1851 64.1955 36.3178 64.197C36.4563 64.1978 36.5948 64.1986 36.7375 64.1994C36.8088 64.1998 36.88 64.2002 36.9534 64.2007C37.3312 64.2029 37.7089 64.2045 38.0866 64.2055C38.4729 64.2067 38.8592 64.2104 39.2454 64.2146C39.5457 64.2175 39.846 64.2183 40.1463 64.2187C40.3567 64.2195 40.5671 64.2223 40.7776 64.2252C42.3818 64.2214 43.741 63.7349 44.9251 62.6363C46.9075 60.5069 46.4893 57.694 46.5566 54.9355C41.3101 54.9355 36.0636 54.9355 30.6581 54.9355C30.5163 58.2209 30.5163 58.2209 31.437 61.4211C31.7826 62.0703 31.7826 62.0703 31.7391 62.4617C31.5707 62.9273 31.5707 62.9273 31.3027 63.0996C30.9905 63.2063 30.8183 63.2221 30.4999 63.131C29.7568 62.7508 29.4014 61.6022 29.1542 60.8437C28.9536 60.0236 28.9186 59.2424 28.9402 58.4019C28.9422 58.1649 28.9439 57.9279 28.9453 57.6909C28.9481 57.3223 28.9529 56.9542 28.9633 56.5857C29.0621 55.2965 29.0621 55.2965 28.7083 54.0989C28.3729 53.7663 27.9733 53.6066 27.5429 53.4316C27.3595 53.301 27.1796 53.1652 27.0058 53.022C26.9194 52.9511 26.833 52.8802 26.744 52.8072C22.9001 49.5258 20.5435 45.1491 20.0473 40.0966C19.6872 35.4654 21.0011 30.5059 24.045 26.9252C24.193 26.7555 24.3423 26.5873 24.4931 26.42C24.6432 26.2531 24.7909 26.0841 24.9383 25.9148C25.5696 25.1982 26.2445 24.5766 27.0058 23.998C27.0656 23.9516 27.1254 23.9052 27.187 23.8575C29.823 21.818 32.8443 20.6107 36.1367 20.1308C36.2823 20.1094 36.2823 20.1094 36.4308 20.0876C40.2338 19.6448 44.0661 20.4735 47.416 22.2792ZM36.5991 37.1077C36.2047 37.7094 36.0299 38.3124 36.1367 39.0371C36.3975 39.8269 36.8037 40.3547 37.5331 40.7558C38.1713 41.0179 38.7296 41.0115 39.3711 40.7822C40.0327 40.485 40.3919 40.0665 40.7357 39.4265C40.9897 38.6509 40.8962 38.0349 40.541 37.3183C40.2103 36.7715 39.7368 36.4612 39.1445 36.2441C38.1414 36.0632 37.2625 36.3097 36.5991 37.1077ZM36.2642 48.3089C35.7997 48.8796 35.7843 49.3731 35.7934 50.0801C35.7936 50.1598 35.7938 50.2395 35.7941 50.3216C35.7952 50.6175 35.7982 50.9134 35.801 51.2093C35.8054 51.8718 35.8098 52.5342 35.8144 53.2167C37.5869 53.2167 39.3593 53.2167 41.1855 53.2167C41.1943 52.5609 41.2032 51.9051 41.2123 51.2294C41.2182 50.9215 41.2182 50.9215 41.2242 50.6074C41.2255 50.4421 41.2265 50.2768 41.2274 50.1116C41.2307 49.986 41.2307 49.986 41.2341 49.8578C41.2345 49.2489 41.1003 48.7828 40.7558 48.2753C40.1019 47.7556 39.3082 47.826 38.5134 47.8255C38.4094 47.8242 38.3054 47.8229 38.1982 47.8215C37.4668 47.82 36.8503 47.8271 36.2642 48.3089Z" fill="black"/>
<path d="M33.5597 60.076C33.6497 60.0752 33.7398 60.0744 33.8326 60.0736C33.9811 60.0732 33.9811 60.0732 34.1326 60.0728C34.2888 60.0717 34.2888 60.0717 34.4481 60.0706C34.7936 60.0685 35.1391 60.0672 35.4846 60.0662C35.6024 60.0657 35.7202 60.0653 35.8415 60.0648C36.4647 60.0626 37.0879 60.0611 37.7111 60.0601C38.3558 60.0589 39.0004 60.0552 39.6451 60.0509C40.14 60.0481 40.6348 60.0472 41.1297 60.0468C41.3674 60.0463 41.6051 60.045 41.8428 60.0431C42.1751 60.0404 42.5073 60.0405 42.8396 60.0413C42.9382 60.0399 43.0368 60.0385 43.1383 60.0371C43.8034 60.0426 43.8034 60.0426 44.1441 60.29C44.3493 60.5932 44.4007 60.7999 44.4082 61.166C44.1793 61.6564 44.1793 61.6564 43.8711 61.8105C43.7278 61.821 43.584 61.825 43.4403 61.8256C43.3052 61.8265 43.3052 61.8265 43.1674 61.8275C43.0684 61.8276 42.9694 61.8277 42.8674 61.8278C42.7633 61.8284 42.6592 61.8289 42.5519 61.8294C42.2064 61.831 41.8609 61.8317 41.5154 61.8323C41.2759 61.833 41.0364 61.8336 40.7968 61.8342C40.2942 61.8353 39.7916 61.8359 39.2889 61.8363C38.6442 61.8369 37.9996 61.8395 37.3549 61.8425C36.86 61.8445 36.3652 61.8451 35.8703 61.8453C35.6326 61.8456 35.3949 61.8465 35.1572 61.8479C34.8249 61.8497 34.4927 61.8495 34.1604 61.8488C34.0618 61.8498 33.9632 61.8508 33.8617 61.8518C33.2005 61.8474 33.2005 61.8474 32.8559 61.6696C32.6016 61.3752 32.5984 61.1172 32.5918 60.7363C32.827 60.2212 33.0063 60.0792 33.5597 60.076Z" fill="black"/>
<path d="M33.4735 56.8267C33.5655 56.8255 33.6575 56.8243 33.7523 56.8231C33.9032 56.8235 33.9032 56.8235 34.0572 56.824C34.1634 56.8231 34.2697 56.8222 34.3791 56.8212C34.731 56.8187 35.0829 56.8186 35.4348 56.8188C35.679 56.818 35.9232 56.8172 36.1673 56.8163C36.6795 56.8148 37.1916 56.8147 37.7037 56.8153C38.3606 56.8159 39.0173 56.8126 39.6742 56.8083C40.1786 56.8055 40.6829 56.8052 41.1873 56.8056C41.4295 56.8054 41.6717 56.8044 41.9139 56.8025C42.2524 56.8001 42.5907 56.8011 42.9292 56.803C43.0798 56.8009 43.0798 56.8009 43.2334 56.7987C43.909 56.8075 43.909 56.8075 44.2595 57.1175C44.4627 57.5116 44.4181 57.7365 44.3009 58.1582C44.1313 58.3794 44.0118 58.4639 43.7638 58.5879C43.435 58.599 43.1087 58.6036 42.7799 58.6035C42.6268 58.604 42.6268 58.604 42.4707 58.6046C42.1322 58.6056 41.7936 58.6058 41.4551 58.6059C41.2204 58.6063 40.9857 58.6066 40.751 58.607C40.2585 58.6076 39.766 58.6078 39.2734 58.6078C38.6418 58.6078 38.0101 58.6092 37.3784 58.6111C36.8935 58.6123 36.4086 58.6125 35.9237 58.6124C35.6908 58.6126 35.4579 58.613 35.225 58.6139C34.8994 58.6149 34.5738 58.6146 34.2482 58.614C34.1517 58.6146 34.0551 58.6152 33.9556 58.6158C33.8668 58.6153 33.7779 58.6149 33.6864 58.6144C33.6094 58.6145 33.5324 58.6145 33.4532 58.6146C33.1978 58.5831 33.0267 58.5047 32.8068 58.373C32.5815 58.0834 32.5925 57.9333 32.6121 57.5606C32.7388 57.0244 32.9187 56.8295 33.4735 56.8267Z" fill="black"/>
<path d="M57.8359 48.5976C58.1753 48.754 58.1753 48.754 58.5182 48.9539C58.6118 49.0078 58.6118 49.0078 58.7073 49.0629C58.9054 49.1774 59.1025 49.2937 59.2996 49.41C59.4292 49.4852 59.5588 49.5602 59.6885 49.6351C60.0753 49.8593 60.4597 50.0875 60.8438 50.3164C60.9429 50.375 60.9429 50.375 61.0441 50.4349C61.2382 50.55 61.4317 50.6661 61.6251 50.7826C61.7383 50.8504 61.8514 50.9183 61.9681 50.9882C62.2402 51.1758 62.2402 51.1758 62.4551 51.498C62.5 51.9102 62.5138 52.1546 62.2939 52.5118C61.9144 52.7491 61.5954 52.7598 61.166 52.6797C60.7332 52.4889 60.3386 52.2444 59.9374 51.9949C59.7088 51.8565 59.4803 51.7182 59.2517 51.5799C59.1397 51.5112 59.0276 51.4426 58.9121 51.3719C58.619 51.1945 58.3235 51.0235 58.0248 50.8556C57.8992 50.7845 57.8992 50.7845 57.7711 50.712C57.6174 50.6253 57.4632 50.5394 57.3085 50.4545C56.8906 50.2149 56.6322 50.0114 56.4395 49.5644C56.4536 49.2117 56.4805 49.0036 56.7013 48.7252C57.097 48.4245 57.3572 48.4999 57.8359 48.5976Z" fill="black"/>
<path d="M20.1308 48.5976C20.4152 48.7777 20.4482 48.9039 20.547 49.2287C20.5635 49.6399 20.4773 49.7718 20.2382 50.1015C19.9939 50.2835 19.9939 50.2835 19.707 50.4452C19.601 50.5059 19.495 50.5666 19.3857 50.6291C19.2727 50.6921 19.1596 50.755 19.0431 50.8199C18.8089 50.9525 18.5748 51.0853 18.3407 51.2181C18.2252 51.2833 18.1096 51.3485 17.9906 51.4156C17.6944 51.5857 17.4034 51.7614 17.1137 51.9424C16.9922 52.0175 16.9922 52.0175 16.8683 52.0942C16.7207 52.1861 16.5738 52.2793 16.428 52.374C15.9213 52.6848 15.5687 52.7369 14.9745 52.6796C14.706 52.5118 14.706 52.5118 14.5448 52.25C14.4844 51.8807 14.4844 51.8807 14.5448 51.498C15.0077 50.9155 15.6588 50.598 16.2971 50.2358C16.4119 50.1701 16.5267 50.1045 16.645 50.0369C16.8757 49.905 17.1066 49.7735 17.3376 49.6422C17.6226 49.4785 17.9045 49.3109 18.1854 49.1402C18.2622 49.0944 18.339 49.0486 18.4182 49.0014C18.5572 48.9185 18.6953 48.8341 18.8324 48.7481C19.302 48.4733 19.6079 48.4667 20.1308 48.5976Z" fill="black"/>
<path d="M62.0256 24.3203C62.2942 24.4881 62.2942 24.4881 62.4553 24.75C62.5157 25.1192 62.5157 25.1192 62.4553 25.5019C61.9925 26.0844 61.3414 26.4019 60.703 26.7641C60.5882 26.8298 60.4734 26.8954 60.3552 26.963C60.1245 27.0949 59.8936 27.2265 59.6626 27.3577C59.3775 27.5214 59.0956 27.6891 58.8147 27.8597C58.7379 27.9055 58.6611 27.9513 58.582 27.9985C58.443 28.0814 58.3048 28.1658 58.1678 28.2518C57.6981 28.5266 57.3923 28.5332 56.8694 28.4023C56.585 28.2222 56.552 28.096 56.4531 27.7712C56.4367 27.3601 56.5228 27.2281 56.762 26.8984C57.0062 26.7164 57.0062 26.7164 57.2932 26.5547C57.4522 26.4637 57.4522 26.4637 57.6144 26.3708C57.7275 26.3078 57.8405 26.2449 57.957 26.18C58.1912 26.0474 58.4254 25.9146 58.6595 25.7818C58.775 25.7166 58.8905 25.6515 59.0095 25.5843C59.3058 25.4142 59.5968 25.2385 59.8864 25.0575C59.9674 25.0074 60.0484 24.9573 60.1319 24.9057C60.2795 24.8138 60.4263 24.7207 60.5721 24.6259C61.0788 24.3151 61.4315 24.263 62.0256 24.3203Z" fill="black"/>
<path d="M15.834 24.3203C16.2669 24.5111 16.6615 24.7556 17.0627 25.0051C17.2912 25.1435 17.5197 25.2818 17.7483 25.4201C17.9164 25.5231 17.9164 25.5231 18.0879 25.6281C18.3811 25.8054 18.6766 25.9765 18.9753 26.1444C19.059 26.1918 19.1427 26.2391 19.229 26.2879C19.3827 26.3746 19.5368 26.4605 19.6915 26.5455C20.1094 26.7851 20.3678 26.9886 20.5606 27.4355C20.5472 27.7704 20.5093 27.9896 20.3323 28.2748C20.0127 28.4772 19.7561 28.4931 19.3789 28.5098C19.07 28.4051 18.804 28.2428 18.5263 28.0734C18.4453 28.026 18.3643 27.9786 18.2808 27.9298C18.1013 27.8247 17.9223 27.7187 17.7437 27.612C17.417 27.4188 17.0874 27.2312 16.7572 27.044C16.5233 26.9105 16.2894 26.777 16.0556 26.6433C15.9429 26.5795 15.8303 26.5156 15.7143 26.4498C15.6088 26.3888 15.5033 26.3277 15.3947 26.2648C15.3007 26.2109 15.2067 26.157 15.1098 26.1014C14.8541 25.9224 14.7057 25.7686 14.545 25.502C14.4929 25.0851 14.4839 24.8492 14.7061 24.4882C15.0857 24.2509 15.4046 24.2402 15.834 24.3203Z" fill="black"/>
<path d="M52.25 14.5449C52.5118 14.706 52.5118 14.706 52.6797 14.9746C52.8026 15.8275 52.436 16.3534 51.9949 17.0626C51.8565 17.2911 51.7182 17.5197 51.5799 17.7482C51.5112 17.8603 51.4426 17.9724 51.3719 18.0878C51.1946 18.381 51.0235 18.6765 50.8556 18.9752C50.8082 19.0589 50.7609 19.1426 50.7121 19.2289C50.6254 19.3826 50.5395 19.5368 50.4545 19.6915C50.2149 20.1093 50.0114 20.3677 49.5645 20.5605C49.2296 20.5471 49.0104 20.5092 48.7252 20.3322C48.5228 20.0126 48.5069 19.7561 48.4902 19.3789C48.5949 19.0699 48.7572 18.8039 48.9266 18.5262C48.974 18.4452 49.0214 18.3642 49.0702 18.2807C49.1753 18.1012 49.2813 17.9222 49.388 17.7436C49.5812 17.4169 49.7688 17.0874 49.956 16.7571C50.0895 16.5232 50.223 16.2893 50.3567 16.0555C50.4205 15.9429 50.4844 15.8302 50.5502 15.7142C50.6112 15.6087 50.6723 15.5033 50.7352 15.3946C50.7891 15.3006 50.843 15.2066 50.8986 15.1097C51.2722 14.576 51.6029 14.464 52.25 14.5449Z" fill="black"/>
<path d="M25.5018 14.5449C26.0843 15.0077 26.4018 15.6589 26.764 16.2972C26.8296 16.412 26.8953 16.5268 26.9629 16.6451C27.0948 16.8758 27.2263 17.1066 27.3576 17.3377C27.5213 17.6227 27.6889 17.9046 27.8596 18.1855C27.9054 18.2623 27.9512 18.3391 27.9984 18.4183C28.0813 18.5572 28.1656 18.6954 28.2516 18.8325C28.5265 19.3021 28.5331 19.6079 28.4022 20.1308C28.2221 20.4153 28.0959 20.4482 27.7711 20.5471C27.3599 20.5635 27.2279 20.4774 26.8983 20.2383C26.7163 19.994 26.7163 19.994 26.5546 19.707C26.4939 19.601 26.4332 19.495 26.3707 19.3858C26.3077 19.2727 26.2448 19.1597 26.1799 19.0432C26.0473 18.809 25.9145 18.5748 25.7817 18.3408C25.7165 18.2252 25.6513 18.1097 25.5842 17.9907C25.4141 17.6945 25.2384 17.4034 25.0574 17.1138C24.9823 16.9923 24.9823 16.9923 24.9056 16.8684C24.8137 16.7207 24.7205 16.5739 24.6258 16.4281C24.315 15.9214 24.2629 15.5687 24.3202 14.9746C24.6245 14.4876 24.9535 14.4583 25.5018 14.5449Z" fill="black"/>
<path d="M60.4172 37.6216C60.5298 37.6203 60.6424 37.6189 60.7584 37.6175C60.8805 37.6167 61.0026 37.6159 61.1283 37.6151C61.2534 37.6142 61.3784 37.6133 61.5073 37.6124C61.7722 37.6109 62.0372 37.6098 62.3021 37.6089C62.7079 37.6071 63.1136 37.6024 63.5193 37.5976C63.7764 37.5966 64.0335 37.5956 64.2906 37.5949C64.4122 37.593 64.5339 37.5912 64.6592 37.5892C64.7724 37.5895 64.8857 37.5898 65.0024 37.5902C65.1019 37.5895 65.2015 37.5889 65.304 37.5883C65.6518 37.6567 65.7797 37.7992 66.0001 38.0703C66.0572 38.2852 66.0572 38.2852 66.0538 38.5C66.0549 38.5709 66.056 38.6418 66.0572 38.7149C65.9741 39.0275 65.817 39.1545 65.5704 39.3594C65.3055 39.414 65.3055 39.414 65.0058 39.415C64.837 39.417 64.837 39.417 64.6647 39.4191C64.4832 39.4178 64.4832 39.4178 64.2981 39.4165C64.111 39.4171 64.111 39.4171 63.9201 39.4177C63.6564 39.418 63.3928 39.4172 63.1291 39.4154C62.7252 39.4131 62.3215 39.4154 61.9176 39.4181C61.6615 39.4179 61.4054 39.4173 61.1493 39.4165C61.0283 39.4173 60.9074 39.4182 60.7827 39.4191C60.6702 39.4178 60.5576 39.4164 60.4416 39.415C60.2933 39.4145 60.2933 39.4145 60.142 39.414C59.7957 39.3427 59.6681 39.1998 59.4473 38.9297C59.2994 38.5549 59.328 38.4222 59.4809 38.0435C59.7488 37.6069 59.9314 37.6268 60.4172 37.6216Z" fill="black"/>
<path d="M11.9942 37.585C12.1068 37.5837 12.2194 37.5823 12.3353 37.5809C12.5168 37.5822 12.5168 37.5822 12.7019 37.5836C12.889 37.583 12.889 37.583 13.0799 37.5823C13.3436 37.582 13.6072 37.5828 13.8709 37.5846C14.2748 37.5869 14.6785 37.5846 15.0824 37.5819C15.3385 37.5822 15.5946 37.5827 15.8507 37.5836C15.9717 37.5827 16.0926 37.5818 16.2173 37.5809C16.3298 37.5823 16.4424 37.5836 16.5584 37.585C16.7067 37.5855 16.7067 37.5855 16.8581 37.5861C17.2043 37.6574 17.3319 37.8003 17.5527 38.0703C17.7006 38.4452 17.672 38.5779 17.5191 38.9566C17.3378 39.252 17.3378 39.252 17.123 39.3594C16.9432 39.3713 16.763 39.3765 16.5828 39.3784C16.4702 39.3798 16.3576 39.3812 16.2416 39.3826C16.1195 39.3834 15.9975 39.3842 15.8717 39.385C15.7466 39.3858 15.6216 39.3867 15.4928 39.3876C15.2278 39.3891 14.9629 39.3902 14.6979 39.3911C14.2921 39.3929 13.8865 39.3977 13.4807 39.4024C13.2236 39.4035 12.9665 39.4044 12.7095 39.4051C12.5878 39.407 12.4662 39.4089 12.3408 39.4108C12.2276 39.4105 12.1143 39.4102 11.9976 39.4099C11.8981 39.4105 11.7986 39.4111 11.696 39.4118C11.3482 39.3434 11.2203 39.2009 10.9999 38.9297C10.9429 38.7149 10.9429 38.7149 10.9462 38.5C10.9446 38.3937 10.9446 38.3937 10.9429 38.2852C11.0872 37.7419 11.4737 37.5868 11.9942 37.585Z" fill="black"/>
<path d="M38.5001 10.9462C38.571 10.9451 38.6419 10.944 38.715 10.9429C39.0276 11.0259 39.1546 11.183 39.3595 11.4296C39.4141 11.6945 39.4141 11.6945 39.4151 11.9942C39.4165 12.1068 39.4178 12.2194 39.4192 12.3353C39.4184 12.4563 39.4175 12.5773 39.4166 12.7019C39.417 12.8266 39.4174 12.9514 39.4178 13.0799C39.4181 13.3436 39.4173 13.6072 39.4155 13.8709C39.4132 14.2748 39.4155 14.6785 39.4183 15.0824C39.418 15.3385 39.4174 15.5946 39.4166 15.8507C39.4175 15.9717 39.4183 16.0926 39.4192 16.2173C39.4179 16.3298 39.4165 16.4424 39.4151 16.5584C39.4146 16.7067 39.4146 16.7067 39.4141 16.8581C39.3428 17.2043 39.1999 17.3319 38.9298 17.5527C38.555 17.7006 38.4223 17.672 38.0436 17.5191C37.7482 17.3378 37.7482 17.3378 37.6408 17.123C37.6289 16.9432 37.6237 16.763 37.6218 16.5828C37.6204 16.4702 37.619 16.3576 37.6176 16.2416C37.6168 16.1195 37.616 15.9975 37.6152 15.8717C37.6143 15.7466 37.6134 15.6216 37.6125 15.4928C37.6111 15.2278 37.6099 14.9629 37.6091 14.6979C37.6072 14.2921 37.6025 13.8865 37.5978 13.4807C37.5967 13.2236 37.5958 12.9665 37.595 12.7095C37.5932 12.5878 37.5913 12.4662 37.5893 12.3408C37.5897 12.2276 37.59 12.1143 37.5903 11.9976C37.5897 11.8981 37.589 11.7986 37.5884 11.696C37.6841 11.2092 38.0073 10.9385 38.5001 10.9462Z" fill="black"/>
</g>
<defs>
<clipPath id="clip0_1272_2537">
<rect width="55" height="55" fill="white" transform="translate(11 11)"/>
</clipPath>
</defs>
</svg>
