<svg width="77" height="77" viewBox="0 0 77 77" fill="none" xmlns="http://www.w3.org/2000/svg">
<path fill-rule="evenodd" clip-rule="evenodd" d="M5.85983 24.3616C12.3619 16.9332 26.5529 25.4134 37.4031 24.356C47.7796 23.3447 56.9357 12.3672 66.0463 18.4961C75.1674 24.6321 69.7228 36.6126 70.0534 46.3206C70.3859 56.0875 76.5177 68.9306 67.9274 73.7468C59.3762 78.541 48.5552 67.6554 38.1296 64.2188C28.4798 61.0379 16.9304 62.59 10.6868 54.8783C3.29872 45.7531 -0.968451 32.1626 5.85983 24.3616Z" fill="#FFDF18"/>
<g clip-path="url(#clip0_1271_2340)">
<path d="M15.1679 27.1798C15.4113 27.496 15.5996 27.8376 15.7909 28.1872C15.8426 28.2787 15.8944 28.3701 15.9478 28.4643C16.0501 28.6452 16.1516 28.8266 16.2523 29.0083C16.4615 29.3853 16.6761 29.759 16.8906 30.1329C16.9783 30.0174 17.066 29.9019 17.1564 29.783C17.2753 29.6329 17.3943 29.4829 17.5135 29.3331C17.5709 29.2568 17.6282 29.1805 17.6873 29.1019C18.0147 28.6965 18.1517 28.5486 18.6829 28.4607C19.1206 28.5359 19.3507 28.634 19.7053 28.8947C19.7989 28.9618 19.8925 29.0289 19.9889 29.098C20.2129 29.2716 20.2129 29.2716 20.3359 29.3946C20.3297 29.6186 20.3297 29.6186 20.2975 29.9022C20.2878 29.9939 20.2781 30.0855 20.2681 30.18C20.2129 30.502 20.2129 30.502 20.0845 30.9111C19.9569 31.4013 19.9507 31.8041 19.9668 32.3093C19.9844 33.1661 19.899 33.9681 19.7207 34.8087C20.8578 35.6882 22.0033 36.5524 23.1718 37.3898C23.9867 37.9751 24.7893 38.5759 25.5907 39.1794C26.4993 39.8634 27.4149 40.5373 28.334 41.2071C28.3371 41.1073 28.3403 41.0076 28.3436 40.9048C28.4169 39.4724 28.69 38.443 29.6754 37.3773C30.0718 37.0229 30.3766 36.7774 30.9179 36.7774C30.9137 36.6642 30.9094 36.5509 30.905 36.4342C30.8512 33.9188 31.5874 31.6946 33.2943 29.8205C35.8557 27.3686 39.157 26.9559 42.5367 27.0216C45.3143 27.1029 47.8508 28.0611 49.8672 30.0098C51.6007 31.9998 52.1172 34.208 52.082 36.7774C52.1933 36.8101 52.3047 36.8428 52.4194 36.8764C53.1839 37.1569 53.7412 37.6931 54.1123 38.4155C54.2968 38.8692 54.2968 38.8692 54.2968 39.1153C53.497 39.4844 53.497 39.4844 52.9433 39.4844C52.8169 39.2994 52.8169 39.2994 52.7049 39.0461C52.2762 38.2813 51.4854 38.0076 50.7285 37.6387C50.6879 37.5981 50.6473 37.5575 50.6054 37.5157C50.606 37.2787 50.6074 37.0417 50.6135 36.8048C50.6672 34.6328 50.1979 32.6777 48.7059 31.0327C48.6018 30.9388 48.4978 30.8449 48.3906 30.7481C48.2764 30.6339 48.1622 30.5197 48.0445 30.4021C46.4195 29.0438 44.191 28.4864 42.1152 28.4102C42.0221 28.4053 41.929 28.4004 41.8331 28.3953C39.1458 28.3188 36.3544 28.991 34.3632 30.8712C33.0677 32.2199 32.3511 33.89 32.3849 35.7568C32.3896 35.9156 32.3896 35.9156 32.3945 36.0776C32.4008 36.2924 32.406 36.5073 32.4099 36.7221C32.4127 36.8156 32.4156 36.9091 32.4185 37.0054C32.3907 37.3119 32.3122 37.5024 32.1484 37.7618C31.8812 37.8872 31.8812 37.8872 31.5639 37.9848C30.914 38.2224 30.5541 38.5385 30.1797 39.1153C30.1335 39.1845 30.0873 39.2536 30.0398 39.3249C29.8797 39.7509 29.8932 40.1738 29.8951 40.6226C29.8931 40.7119 29.8911 40.8012 29.8891 40.8932C29.8885 41.5405 29.973 42.1173 30.3027 42.6837C30.6301 43.0025 30.6301 43.0025 31.041 43.2528C31.194 43.355 31.3469 43.4576 31.4995 43.5604C31.5827 43.6156 31.6658 43.6708 31.7515 43.7276C32.2794 44.0871 32.7893 44.4716 33.302 44.8524C33.5054 45.0027 33.7089 45.153 33.9124 45.3032C34.0627 45.4144 34.213 45.5256 34.3632 45.6368C34.3306 45.5147 34.2979 45.3925 34.2642 45.2667C33.3924 41.9425 33.3924 41.9425 33.625 40.4688C33.8941 40.1689 33.8941 40.1689 34.2402 39.9766C35.1354 39.2157 35.4996 38.2072 35.7086 37.0783C35.9004 36.6386 36.1613 36.5118 36.5781 36.2852C36.8725 36.1815 37.1702 36.087 37.4702 36.0007C38.7815 35.5879 39.6258 35 40.3373 33.7993C40.5031 33.4793 40.6385 33.16 40.7694 32.8245C40.8794 32.5549 40.8794 32.5549 41.0078 32.3477C41.4077 32.217 41.4077 32.217 41.7461 32.2247C42.099 32.6028 42.2902 32.9516 42.4613 33.4321C42.8533 34.457 43.5788 35.2133 44.5761 35.67C45.0421 35.8333 45.5074 35.9832 45.9806 36.1242C46.448 36.2948 46.781 36.4542 47.1601 36.7774C47.2977 37.0875 47.3916 37.3467 47.4754 37.6695C47.7821 38.7025 48.1097 39.4629 49.0058 40.0997C49.3071 40.3264 49.369 40.4279 49.424 40.8082C49.4124 42.4793 49.0895 44.033 48.6367 45.6368C48.6953 45.5936 48.7538 45.5505 48.8142 45.506C52.067 43.1092 55.3199 40.7123 58.5727 38.3155C58.7176 38.2088 58.7176 38.2088 58.8653 38.0999C59.0589 37.9573 59.2524 37.8147 59.4459 37.6722C59.9533 37.2985 60.4603 36.9244 60.9668 36.5496C61.072 36.4719 61.1772 36.3941 61.2855 36.3141C61.4861 36.1658 61.6865 36.0175 61.8868 35.869C62.3839 35.5018 62.8845 35.1462 63.4023 34.8087C63.3409 34.6281 63.3409 34.6281 63.2783 34.4439C63.1281 33.918 63.1481 33.4355 63.1716 32.8938C63.1952 31.9736 63.0721 31.252 62.7597 30.3809C62.6482 29.9484 62.6494 29.6964 62.7871 29.2716C63.0423 29.038 63.0423 29.038 63.3639 28.8563C63.4684 28.7944 63.5729 28.7326 63.6806 28.6688C64.0818 28.5074 64.3275 28.4661 64.7558 28.5333C65.0615 28.7895 65.0615 28.7895 65.3403 29.1254C65.4336 29.2354 65.5268 29.3453 65.6229 29.4585C65.8632 29.7637 65.8632 29.7637 66.1093 30.1329C66.5915 29.3863 67.0275 28.6178 67.4585 27.8409C67.8196 27.1921 67.8196 27.1921 67.955 27.0567C68.664 26.9885 69.0189 27.1235 69.5931 27.5335C69.7195 27.622 69.8459 27.7105 69.9762 27.8017C70.2929 28.0411 70.2929 28.0411 70.539 28.2872C70.5361 28.6073 70.5361 28.6073 70.4929 28.9793C70.4792 29.1027 70.4656 29.2261 70.4515 29.3533C70.4398 29.4481 70.4281 29.543 70.416 29.6407C70.5873 29.6293 70.5873 29.6293 70.762 29.6176C71.1543 29.6407 71.1543 29.6407 71.3409 29.7711C71.6035 30.1146 71.7365 30.497 71.8824 30.8995C71.9147 30.9868 71.947 31.0741 71.9802 31.164C72.048 31.3486 72.1153 31.5335 72.1821 31.7185C72.2839 31.9992 72.3884 32.2788 72.4931 32.5585C72.5589 32.7386 72.6245 32.9188 72.6899 33.099C72.7211 33.1816 72.7522 33.2642 72.7843 33.3492C72.9933 33.9388 73.028 34.4296 73 35.0548C72.7262 35.1969 72.4519 35.3378 72.1771 35.4777C72.0476 35.544 72.0476 35.544 71.9154 35.6116C71.4019 35.8694 70.886 36.1021 70.3511 36.3121C70.2368 36.3578 70.1224 36.4034 70.0046 36.4504C69.7813 36.5383 69.5569 36.6234 69.3313 36.7053C68.5019 37.0347 68.1266 37.4716 67.7089 38.254C67.7902 38.3403 67.8714 38.4266 67.955 38.5155C68.2508 38.9407 68.2639 39.0991 68.2011 39.6075C67.9796 39.9689 67.9796 39.9689 67.6705 40.3458C67.615 40.4146 67.5596 40.4834 67.5024 40.5542C67.3851 40.6997 67.2671 40.8446 67.1485 40.9891C66.9216 41.2673 66.7015 41.5506 66.4812 41.8341C65.8673 42.6236 65.2366 43.3991 64.604 44.1736C64.0921 44.8022 63.5977 45.442 63.1062 46.0867C62.676 46.6459 62.2267 47.1897 61.7801 47.7358C61.3688 48.24 60.9667 48.7492 60.5722 49.2667C60.0454 49.9577 59.5001 50.6316 58.95 51.3042C58.5387 51.8083 58.1366 52.3176 57.7422 52.835C57.2164 53.5246 56.6723 54.1973 56.1232 54.8685C55.576 55.5391 55.0458 56.2216 54.5218 56.9105C54.2968 57.2032 54.2968 57.2032 54.1738 57.3262C54.1584 57.7007 54.1509 58.0725 54.1485 58.4472C54.1473 58.5648 54.1461 58.6824 54.1448 58.8036C54.1409 59.1944 54.1379 59.5853 54.1349 59.9761C54.1323 60.2463 54.1297 60.5164 54.1271 60.7866C54.1203 61.4993 54.1142 62.2119 54.1083 62.9246C54.1021 63.6512 54.0953 64.3778 54.0885 65.1044C54.0752 66.5312 54.0627 67.958 54.0507 69.3848C53.6447 69.3848 53.2386 69.3848 52.8203 69.3848C52.7888 67.7622 52.7648 66.1396 52.7501 64.5167C52.7431 63.763 52.7336 63.0094 52.7182 62.2558C52.7034 61.5274 52.6954 60.7991 52.6919 60.0706C52.6894 59.7938 52.6845 59.517 52.6772 59.2403C52.6401 57.7843 52.6186 56.6431 53.6409 55.5253C53.7576 55.4059 53.8757 55.2879 53.9952 55.1713C54.3058 54.8532 54.5676 54.4967 54.8352 54.1424C55.3278 53.5135 55.8295 52.8924 56.3348 52.2736C56.8152 51.6853 57.2892 51.0934 57.7498 50.4895C58.2494 49.8346 58.7604 49.19 59.2762 48.5479C59.6931 48.0284 60.1072 47.5067 60.5184 46.9826C60.5739 46.9119 60.6294 46.8411 60.6867 46.7682C60.9637 46.4149 61.2404 46.0613 61.5167 45.7074C62.186 44.8516 62.8657 44.0053 63.5531 43.1638C64.075 42.5229 64.5807 41.8715 65.0793 41.2124C65.2807 40.9539 65.4823 40.7059 65.6974 40.4597C65.8518 40.2815 65.8518 40.2815 66.0094 40.0997C66.1025 39.9956 66.1956 39.8916 66.2915 39.7844C66.5086 39.5023 66.5086 39.5023 66.4558 39.1966C66.3376 38.8109 66.1685 38.571 65.9214 38.2525C65.8341 38.1391 65.7468 38.0256 65.6568 37.9086C65.5192 37.7332 65.5192 37.7332 65.3787 37.5542C65.2875 37.4357 65.1962 37.3173 65.1021 37.1953C64.6455 36.5963 64.6455 36.5963 64.1406 36.0391C64.0522 36.108 63.9639 36.1768 63.8729 36.2477C62.2075 37.5378 60.5049 38.7768 58.7951 40.0071C58.1141 40.4982 57.4409 40.9989 56.7703 41.5043C55.8456 42.2008 54.9126 42.886 53.9798 43.5718C53.5877 43.8602 53.1959 44.1489 52.8041 44.4377C52.6096 44.5809 52.4152 44.7242 52.2208 44.8674C51.7319 45.2275 51.2432 45.5879 50.7549 45.9487C49.7047 46.7244 48.652 47.4961 47.5915 48.2576C47.1529 48.5728 46.7167 48.8903 46.2853 49.2152C44.597 50.4852 42.953 51.3793 40.7617 51.1739C38.9749 50.8947 37.658 49.989 36.27 48.8975C35.7246 48.4693 35.1656 48.0626 34.6017 47.6594C33.9038 47.1591 33.2109 46.6535 32.5252 46.1367C31.5203 45.3792 30.5074 44.6328 29.4935 43.8873C29.0042 43.5275 28.5153 43.1671 28.0263 42.8067C27.8315 42.6632 27.6367 42.5196 27.4419 42.3761C23.935 39.7921 23.935 39.7921 23.6425 39.5765C23.4487 39.4337 23.2549 39.291 23.061 39.1482C22.5581 38.7779 22.0556 38.4068 21.5539 38.0348C21.4504 37.9582 21.3469 37.8816 21.2402 37.8026C21.0445 37.6577 20.8488 37.5126 20.6534 37.3672C20.0272 36.9041 19.388 36.4655 18.7363 36.0391C18.4592 36.4132 18.1824 36.7875 17.9057 37.1619C17.8277 37.2673 17.7496 37.3726 17.6692 37.4811C17.5176 37.6865 17.3665 37.8924 17.2162 38.0989C17.0936 38.2672 16.9698 38.4347 16.8437 38.6004C16.5813 38.9427 16.5813 38.9427 16.5519 39.3555C16.6529 39.6304 16.7712 39.8017 16.9588 40.0257C17.0237 40.104 17.0885 40.1824 17.1552 40.2632C17.2253 40.3463 17.2953 40.4294 17.3674 40.515C17.5143 40.6924 17.661 40.8699 17.8077 41.0475C17.9182 41.1809 17.9182 41.1809 18.0309 41.3169C18.3385 41.6911 18.6381 42.0712 18.9362 42.453C18.9912 42.5231 19.0462 42.5933 19.1028 42.6656C19.3227 42.9466 19.5422 43.2279 19.7618 43.5092C20.4192 44.3509 21.083 45.1864 21.7586 46.0136C22.3401 46.7256 22.9047 47.4474 23.4621 48.1785C23.8258 48.6513 24.2034 49.1126 24.581 49.5743C25.0641 50.1651 25.541 50.7592 26.0037 51.3662C26.4426 51.9413 26.8889 52.5094 27.3419 53.0734C27.8342 53.6866 28.3246 54.3011 28.8108 54.9191C28.8634 54.9859 28.9161 55.0527 28.9703 55.1215C29.0708 55.2494 29.1704 55.3781 29.2689 55.5075C29.3847 55.6546 29.5055 55.7979 29.6308 55.937C30.2048 56.6097 30.2835 57.1186 30.2635 57.9862C30.2636 58.1718 30.2636 58.1718 30.2638 58.3612C30.2633 58.7674 30.2576 59.1734 30.2518 59.5795C30.2504 59.8623 30.2493 60.145 30.2486 60.4278C30.2458 61.1698 30.2385 61.9117 30.2303 62.6537C30.2228 63.4117 30.2194 64.1697 30.2157 64.9278C30.2078 66.4135 30.1952 67.8992 30.1797 69.3848C29.7736 69.3848 29.3675 69.3848 28.9492 69.3848C28.9504 69.2371 28.9516 69.0893 28.9528 68.937C28.9632 67.5395 28.9672 66.1421 28.9648 64.7446C28.9638 64.0262 28.965 63.308 28.9715 62.5896C28.9777 61.8954 28.9779 61.2015 28.9739 60.5073C28.9735 60.2434 28.9751 59.9795 28.979 59.7156C29.0353 57.9474 29.0353 57.9474 28.2248 56.4429C28.0191 56.241 27.8098 56.0426 27.5957 55.8497C27.469 55.6993 27.3454 55.5462 27.227 55.3892C27.0129 55.1144 26.7985 54.8398 26.5839 54.5654C26.47 54.4193 26.3561 54.2732 26.2422 54.127C25.5304 53.2149 24.813 52.3084 24.0811 51.4123C23.4996 50.7003 22.9351 49.9785 22.3777 49.2475C22.014 48.7746 21.6364 48.3134 21.2588 47.8516C20.6745 47.1372 20.1072 46.4131 19.5476 45.6791C19.1839 45.2063 18.8063 44.745 18.4287 44.2833C17.8436 43.5677 17.2739 42.843 16.7137 42.1078C16.2842 41.5473 15.8395 40.9987 15.395 40.45C14.9373 39.8826 14.7276 39.6094 14.7988 38.8692C15.0449 38.4539 15.0449 38.4539 15.291 38.1309C14.8816 37.3041 14.4758 36.9585 13.6241 36.6284C13.5242 36.5867 13.4243 36.545 13.3214 36.502C13.0049 36.3704 12.6869 36.2431 12.3686 36.116C12.0489 35.9856 11.7296 35.8543 11.4106 35.7222C11.2126 35.6405 11.0142 35.56 10.8153 35.4806C10.1365 35.2048 10.1365 35.2048 9.99996 34.9317C9.95393 34.2718 10.0735 33.7508 10.31 33.1422C10.3578 33.0147 10.3578 33.0147 10.4066 32.8846C10.4739 32.7062 10.5419 32.5281 10.6105 32.3502C10.7151 32.0786 10.8173 31.8063 10.9192 31.5337C10.9852 31.3598 11.0512 31.1859 11.1175 31.012C11.1479 30.9311 11.1783 30.8502 11.2096 30.7669C11.3731 30.346 11.5293 29.968 11.8457 29.6407C12.2379 29.6099 12.2379 29.6099 12.5839 29.6407C12.5622 29.553 12.5405 29.4653 12.5181 29.3749C12.4482 28.9902 12.4148 28.6763 12.4609 28.2872C12.7655 27.8921 13.138 27.6697 13.5683 27.4259C13.6579 27.3697 13.7476 27.3136 13.8399 27.2557C14.3647 26.9526 14.6177 26.8385 15.1679 27.1798ZM14.1836 28.6563C13.8913 29.0032 13.8913 29.0032 13.9985 29.3855C14.0367 29.523 14.075 29.6605 14.1143 29.8022C14.2745 30.379 14.3192 30.7772 14.1836 31.3634C13.5075 31.5958 13.3608 31.4086 12.5839 31.1173C12.2185 32.1324 11.8531 33.1475 11.4765 34.1934C11.7354 34.3153 11.9942 34.4371 12.261 34.5626C12.3491 34.6043 12.4373 34.646 12.5281 34.689C12.9867 34.9043 13.4475 35.1088 13.9163 35.3009C14.0146 35.3419 14.1129 35.383 14.2141 35.4253C14.4049 35.5047 14.5964 35.582 14.7889 35.657C15.4713 35.9441 15.7676 36.2679 16.1523 36.9005C16.5762 36.7592 16.6408 36.6604 16.8944 36.3069C16.9637 36.2107 17.0331 36.1145 17.1045 36.0153C17.2118 35.8634 17.2118 35.8634 17.3213 35.7084C17.3928 35.6096 17.4643 35.5107 17.538 35.4088C18.3461 34.2781 18.7057 33.4326 18.544 32.0401C18.4705 31.388 18.5607 30.886 18.7363 30.2559C18.4357 30.5471 18.1516 30.8336 17.887 31.1586C17.8043 31.2592 17.7217 31.3597 17.6366 31.4633C17.5593 31.5606 17.4821 31.6578 17.4025 31.758C17.1367 31.9786 17.1367 31.9786 16.7748 32.0723C16.3459 31.9655 16.3142 31.9192 16.0884 31.5633C15.9844 31.3748 15.8829 31.185 15.7832 30.9942C15.6678 30.7914 15.552 30.5889 15.4357 30.3867C15.257 30.0714 15.0789 29.7558 14.9024 29.4393C14.8161 29.2878 14.8161 29.2878 14.7281 29.1331C14.6766 29.0415 14.6251 28.9498 14.5721 28.8553C14.5251 28.7896 14.4781 28.724 14.4297 28.6563C14.3484 28.6563 14.2672 28.6563 14.1836 28.6563ZM68.5703 28.6563C68.3086 29.1176 68.0472 29.5791 67.7859 30.0406C67.7116 30.1715 67.6374 30.3023 67.5609 30.4371C67.4895 30.5632 67.4182 30.6893 67.3446 30.8193C67.2789 30.9352 67.2132 31.0512 67.1454 31.1707C66.971 31.4767 66.971 31.4767 66.8416 31.766C66.7246 31.9786 66.7246 31.9786 66.4477 32.1093C66.0457 32.1002 65.8715 31.9781 65.5792 31.7094C65.1508 31.2504 64.7679 30.7543 64.3867 30.2559C64.2235 30.6182 64.2235 30.6182 64.3804 30.9462C64.5468 31.4829 64.5106 31.9457 64.4867 32.5015C64.4716 33.4715 64.5404 34.1295 65.125 34.9317C65.1824 35.0113 65.2398 35.0909 65.299 35.1729C65.7227 35.7572 66.1584 36.3309 66.6015 36.9005C67.0016 36.8113 67.0016 36.8113 67.1833 36.4281C67.5161 35.9651 67.8549 35.8029 68.3679 35.5989C68.4543 35.5623 68.5407 35.5256 68.6298 35.4879C68.9039 35.3722 69.1792 35.2595 69.4547 35.147C69.7313 35.0324 70.0076 34.9171 70.2835 34.8009C70.4548 34.729 70.6266 34.658 70.7987 34.5881C71.2437 34.4267 71.2437 34.4267 71.5234 34.0704C71.4497 33.7964 71.4497 33.7964 71.3244 33.4898C71.258 33.3177 71.258 33.3177 71.1903 33.1422C71.1429 33.0222 71.0955 32.9021 71.0466 32.7784C71.0001 32.6583 70.9536 32.5383 70.9058 32.4145C70.679 31.8195 70.679 31.8195 70.416 31.2403C70.2891 31.2835 70.1622 31.3266 70.0315 31.371C69.5571 31.4858 69.2837 31.4773 68.8164 31.3634C68.6762 30.7602 68.7287 30.3175 68.8702 29.7176C68.9233 29.4878 68.9233 29.4878 68.9774 29.2533C69.0055 29.1375 69.0335 29.0217 69.0625 28.9024C68.9 28.8212 68.7376 28.74 68.5703 28.6563ZM41.3769 34.8087C41.2071 34.9906 41.0442 35.179 40.8847 35.3701C40.2132 36.1246 39.5417 36.7701 38.5492 37.048C37.6295 37.2705 37.6295 37.2705 36.9219 37.8453C36.684 38.3346 36.5476 38.8527 36.405 39.3759C36.2038 40.0144 35.8119 40.5651 35.264 40.9413C34.9432 41.184 34.9432 41.184 34.928 41.5671C35.2168 44.3803 36.1846 46.8301 38.3483 48.7115C39.4617 49.5686 40.7185 49.9524 42.1152 49.8204C43.7936 49.5245 45.2086 48.4811 46.1906 47.121C47.2422 45.499 47.7966 43.8527 48.0214 41.9454C48.0448 41.7477 48.0448 41.7477 48.0686 41.546C48.055 41.1829 48.055 41.1829 47.7407 40.9524C47.5752 40.8348 47.5752 40.8348 47.4062 40.7149C46.847 40.0159 46.505 39.2892 46.2373 38.4386C46.0377 37.8013 46.0377 37.8013 45.5451 37.3773C45.3878 37.3417 45.2304 37.3062 45.0683 37.2696C43.7168 36.8503 42.5833 36.2257 41.7461 35.0548C41.6851 34.9329 41.6851 34.9329 41.623 34.8087C41.5418 34.8087 41.4606 34.8087 41.3769 34.8087Z" fill="black"/>
<path d="M39.5928 7.26924C40.3071 7.68498 40.8971 8.16299 41.3769 8.84578C41.3769 8.92699 41.3769 9.0082 41.3769 9.09188C41.4581 9.09188 41.5394 9.09188 41.623 9.09188C41.6649 8.9929 41.6649 8.9929 41.7076 8.89192C42.2339 7.93965 43.0542 7.34334 44.084 7.00008C45.0585 6.92454 45.9954 6.85759 46.791 7.49227C47.6144 8.24436 48.1979 9.2358 48.2913 10.3626C48.3838 13.3099 47.6264 15.4476 45.6183 17.6363C44.6482 18.666 43.0044 20.4095 41.5351 20.5722C41.0397 20.5269 40.7241 20.3396 40.3233 20.0661C40.249 20.0166 40.1746 19.9671 40.098 19.9161C37.6332 18.2384 35.3778 15.9119 34.7324 12.9063C34.6292 11.5129 34.5234 9.97477 35.2246 8.72274C35.2982 8.58823 35.3718 8.45372 35.4476 8.31514C36.4994 7.02291 38.0069 6.50401 39.5928 7.26924ZM43.2813 9.00344C42.728 9.64746 42.2861 10.3883 41.9922 11.1837C41.5049 11.2446 41.5049 11.2446 41.0078 11.3067C40.9588 11.1449 40.9588 11.1449 40.9088 10.9799C40.4934 9.81801 39.778 8.90762 38.6699 8.35359C38.1562 8.27941 37.661 8.24804 37.1842 8.4752C36.5596 8.95619 36.2433 9.5587 36.0859 10.3223C35.841 12.4578 36.3589 14.1534 37.6855 15.8595C38.5863 16.9641 39.606 17.8577 40.7617 18.6895C40.8673 18.768 40.973 18.8466 41.0818 18.9275C41.3726 19.0925 41.3726 19.0925 41.6836 18.9856C43.9782 17.6989 45.9399 15.623 46.8073 13.1193C47.0799 11.9469 47.1269 10.4289 46.5862 9.3322C46.2373 8.82205 45.8315 8.47482 45.2683 8.22286C44.5411 8.24017 43.8212 8.50878 43.2813 9.00344Z" fill="black"/>
<path d="M59.5547 11.4523C60.1218 11.9063 60.5525 12.4307 60.6952 13.1524C60.7726 13.0945 60.85 13.0366 60.9298 12.9769C62.084 12.1373 62.9349 11.7724 64.3866 11.9219C65.2391 12.2164 65.8003 12.8699 66.2323 13.6446C66.7548 15.1793 66.4738 16.8516 65.8281 18.3078C65.3792 19.1007 64.7769 19.7651 64.1406 20.4121C64.0156 20.5394 64.0156 20.5394 63.8882 20.6693C62.7569 21.7452 60.7781 23.1146 59.2023 23.2835C58.7984 23.2362 58.6699 23.1589 58.3804 22.8808C58.297 22.8013 58.2136 22.7218 58.1276 22.64C58.041 22.5545 57.9544 22.469 57.8652 22.3809C57.7314 22.2584 57.7314 22.2584 57.595 22.1333C55.8613 20.4993 54.462 18.1626 54.3769 15.7452C54.3589 14.2948 54.6104 12.9594 55.5273 11.7989C56.7282 10.6223 58.1696 10.5471 59.5547 11.4523ZM56.7577 12.5371C56.067 13.1489 55.8329 14.158 55.721 15.0432C55.6316 17.2959 56.7431 19.1408 58.2189 20.7428C58.4274 20.9623 58.6374 21.1805 58.8495 21.3965C58.9108 21.4734 58.972 21.5504 59.0351 21.6296C59.2187 21.7959 59.2187 21.7959 59.5027 21.7503C61.3929 21.1358 63.4275 19.6302 64.4328 17.9127C64.9979 16.7841 65.2928 15.6332 65.0019 14.3828C64.8411 13.9612 64.6466 13.6301 64.2867 13.3446C63.5935 13.1664 63.0432 13.251 62.4251 13.5859C61.8179 14.0215 61.3529 14.6268 60.9413 15.2442C60.5568 15.2672 60.5568 15.2672 60.203 15.2442C60.1307 15.0691 60.1307 15.0691 60.0569 14.8904C59.9829 14.7211 59.9085 14.5519 59.8339 14.3828C59.792 14.2835 59.7502 14.1842 59.707 14.0819C59.3632 13.3224 58.9537 12.7366 58.2343 12.291C57.6315 12.1112 57.3097 12.2361 56.7577 12.5371Z" fill="black"/>
<path d="M27.099 11.4484C28.0735 12.3332 28.5401 13.6012 28.6226 14.8985C28.6999 17.1456 27.9257 19.1791 26.4881 20.9043C26.0037 20.7428 25.7218 20.5451 25.3806 20.166C25.5394 19.7393 25.7273 19.3721 25.9728 18.9893C26.8928 17.4854 27.3868 15.9738 27.0149 14.2093C26.7514 13.352 26.4862 12.8851 25.7575 12.3679C25.2842 12.2245 24.8945 12.3605 24.4501 12.5448C23.7429 13.1069 23.4681 13.8706 23.261 14.7274C23.1537 15.0324 23.0543 15.1735 22.7967 15.3671C22.3891 15.3902 22.3891 15.3902 21.9353 15.2441C21.7209 15.0153 21.5531 14.7746 21.3783 14.5145C21.0186 14.0088 20.5383 13.6407 19.9666 13.3984C19.4368 13.3182 19.0023 13.2956 18.5592 13.6137C17.9759 14.4538 18.0276 15.362 18.1209 16.3515C18.4547 18.0334 19.6955 19.3467 21.0658 20.2919C22.0514 20.9216 23.0826 21.4161 24.1502 21.8886C24.0284 22.3353 23.9065 22.782 23.781 23.2421C23.1994 23.1258 22.7481 22.9388 22.2276 22.6731C22.0967 22.6064 22.0967 22.6064 21.9631 22.5384C19.836 21.4404 17.7704 19.8996 16.8904 17.582C16.4653 16.0677 16.2908 14.5871 17.026 13.1297C17.4239 12.5328 17.9279 12.1502 18.6131 11.9218C19.9713 11.7674 20.9641 12.0983 22.0392 12.9312C22.1705 13.0406 22.1705 13.0406 22.3045 13.1523C22.3324 13.0457 22.3603 12.9391 22.3891 12.8293C22.7653 11.8618 23.4827 11.3757 24.3963 10.9375C25.3921 10.6715 26.2746 10.8334 27.099 11.4484Z" fill="black"/>
<path d="M38.7978 44.1404C38.9961 44.1386 38.9961 44.1386 39.1985 44.1368C39.3424 44.1363 39.4864 44.1358 39.6347 44.1352C39.7814 44.1345 39.9281 44.1338 40.0793 44.1331C40.3903 44.1319 40.7014 44.1311 41.0124 44.1306C41.4899 44.1295 41.9673 44.1256 42.4448 44.1218C42.7462 44.121 43.0477 44.1203 43.3491 44.1198C43.4928 44.1183 43.6365 44.1168 43.7845 44.1152C43.9172 44.1156 44.0498 44.116 44.1864 44.1163C44.3035 44.1159 44.4206 44.1155 44.5413 44.115C44.6804 44.1374 44.6804 44.1374 44.8223 44.1602C45.0684 44.5293 45.0684 44.5293 45.0607 44.9216C44.8146 45.9226 44.1914 46.6585 43.3458 47.2364C42.3568 47.7409 41.2119 47.8084 40.1446 47.4974C39.1362 47.0287 38.4185 46.3199 38.0033 45.2864C37.9039 44.9187 37.9379 44.6427 38.0548 44.2833C38.2611 44.0769 38.5146 44.1424 38.7978 44.1404ZM39.7774 45.3907C39.9206 45.8202 40.086 45.9433 40.4796 46.1535C41.1287 46.3801 41.8714 46.3801 42.5205 46.1535C42.9141 45.9433 43.0795 45.8202 43.2227 45.3907C42.0858 45.3907 40.9488 45.3907 39.7774 45.3907Z" fill="black"/>
<path d="M45.4683 40.8071C45.8126 41.0888 46.1293 41.3635 46.4219 41.6992C46.4219 41.821 46.4219 41.9428 46.4219 42.0683C46.0564 42.2714 45.691 42.4744 45.3145 42.6836C45.1774 42.5351 45.1774 42.5351 45.0376 42.3836C44.6744 42.0216 44.6744 42.0216 44.207 41.9453C43.7831 42.1472 43.6094 42.288 43.3457 42.6836C42.8 42.5121 42.4999 42.2399 42.1152 41.8222C43.0188 40.6889 44.0642 40.0511 45.4683 40.8071Z" fill="black"/>
<path d="M40.0071 40.8475C40.3986 41.1553 40.6585 41.5054 40.8848 41.9453C40.7296 42.0725 40.573 42.1977 40.4156 42.3222C40.3286 42.3921 40.2415 42.4621 40.1518 42.5341C40.0688 42.5835 39.9859 42.6328 39.9004 42.6836C39.5312 42.5606 39.5312 42.5606 39.3082 42.3068C39.0529 42.0401 39.0529 42.0401 38.6853 41.9992C38.158 42.0941 37.9474 42.317 37.5625 42.6836C37.2377 42.4806 36.9128 42.2776 36.5781 42.0684C36.7485 41.387 37.1272 41.1155 37.6855 40.7149C38.4469 40.3624 39.2772 40.4261 40.0071 40.8475Z" fill="black"/>
</g>
<defs>
<clipPath id="clip0_1271_2340">
<rect width="63" height="63" fill="white" transform="translate(10 7)"/>
</clipPath>
</defs>
</svg>
