<svg width="44" height="44" viewBox="0 0 44 44" fill="white"
    xmlns="http://www.w3.org/2000/svg">
    <path d="M30.25 5.5H13.75C9.19365 5.5 5.5 9.19365 5.5 13.75V30.25C5.5 34.8063 9.19365 38.5 13.75 38.5H30.25C34.8063 38.5 38.5 34.8063 38.5 30.25V13.75C38.5 9.19365 34.8063 5.5 30.25 5.5Z" stroke="#231F20" stroke-width="1.5" stroke-linecap="round" stroke-linejoin="round"/>
    <path d="M28.3469 21.0589C28.5449 22.394 28.3169 23.7575 27.6953 24.9555C27.0736 26.1535 26.0901 27.125 24.8845 27.7317C23.679 28.3385 22.3128 28.5497 20.9803 28.3353C19.6477 28.1209 18.4168 27.4918 17.4624 26.5374C16.5081 25.5831 15.8789 24.3521 15.6645 23.0196C15.4501 21.6871 15.6613 20.3209 16.2681 19.1153C16.8749 17.9097 17.8464 16.9262 19.0444 16.3046C20.2423 15.683 21.6058 15.4549 22.9409 15.6529C24.3027 15.8548 25.5635 16.4894 26.5369 17.4629C27.5104 18.4364 28.145 19.6971 28.3469 21.0589Z" stroke="#231F20" stroke-width="1.5" stroke-linecap="round" stroke-linejoin="round"/>
    <path d="M31.167 11.9167H32.0837" stroke="#231F20" stroke-width="1.5" stroke-linecap="round" stroke-linejoin="round"/>
</svg>
