<svg width="44" height="44" viewBox="0 0 44 44" fill="none"
    xmlns="http://www.w3.org/2000/svg">
    <g clip-path="url(#clip0_396_2508)">
        <path d="M30.7656 5.5H13.2344C8.9628 5.5 5.5 8.9628 5.5 13.2344V30.7656C5.5 35.0372 8.9628 38.5 13.2344 38.5H30.7656C35.0372 38.5 38.5 35.0372 38.5 30.7656V13.2344C38.5 8.9628 35.0372 5.5 30.7656 5.5Z" fill="url(#paint0_radial_396_2508)"/>
        <path d="M30.7656 5.5H13.2344C8.9628 5.5 5.5 8.9628 5.5 13.2344V30.7656C5.5 35.0372 8.9628 38.5 13.2344 38.5H30.7656C35.0372 38.5 38.5 35.0372 38.5 30.7656V13.2344C38.5 8.9628 35.0372 5.5 30.7656 5.5Z" fill="url(#paint1_radial_396_2508)"/>
        <path d="M22.0009 12C19.2851 12 18.9442 12.0119 17.8776 12.0604C16.813 12.1092 16.0863 12.2777 15.4505 12.525C14.7927 12.7804 14.2348 13.1221 13.679 13.6781C13.1227 14.234 12.781 14.7919 12.5248 15.4494C12.2768 16.0854 12.1081 16.8124 12.0602 17.8764C12.0125 18.9431 12 19.2841 12 22C12 24.7159 12.012 25.0557 12.0604 26.1223C12.1094 27.1868 12.2779 27.9135 12.525 28.5493C12.7806 29.2071 13.1223 29.765 13.6783 30.3208C14.234 30.8771 14.7919 31.2196 15.4492 31.475C16.0855 31.7223 16.8123 31.8908 17.8767 31.9396C18.9434 31.9881 19.284 32 21.9997 32C24.7158 32 25.0556 31.9881 26.1222 31.9396C27.1868 31.8908 27.9143 31.7223 28.5506 31.475C29.2081 31.2196 29.7652 30.8771 30.3208 30.3208C30.8771 29.765 31.2187 29.2071 31.475 28.5496C31.7208 27.9135 31.8896 27.1866 31.9396 26.1225C31.9875 25.0559 32 24.7159 32 22C32 19.2841 31.9875 18.9433 31.9396 17.8766C31.8896 16.8121 31.7208 16.0855 31.475 15.4497C31.2187 14.7919 30.8771 14.234 30.3208 13.6781C29.7646 13.1219 29.2083 12.7802 28.55 12.5251C27.9125 12.2777 27.1854 12.1091 26.1208 12.0604C25.0541 12.0119 24.7145 12 21.9978 12H22.0009ZM21.1038 13.8021C21.3701 13.8017 21.6672 13.8021 22.0009 13.8021C24.671 13.8021 24.9874 13.8117 26.0418 13.8596C27.0168 13.9042 27.546 14.0671 27.8985 14.204C28.3652 14.3852 28.6979 14.6019 29.0477 14.952C29.3977 15.302 29.6143 15.6353 29.796 16.102C29.9329 16.454 30.096 16.9832 30.1404 17.9581C30.1883 19.0123 30.1987 19.3289 30.1987 21.9977C30.1987 24.6665 30.1883 24.9832 30.1404 26.0373C30.0958 27.0122 29.9329 27.5414 29.796 27.8935C29.6148 28.3602 29.3977 28.6925 29.0477 29.0423C28.6977 29.3923 28.3654 29.6089 27.8985 29.7902C27.5464 29.9277 27.0168 30.0902 26.0418 30.1348C24.9876 30.1827 24.671 30.1931 22.0009 30.1931C19.3307 30.1931 19.0142 30.1827 17.9601 30.1348C16.9851 30.0898 16.4559 29.9269 16.1031 29.79C15.6365 29.6087 15.3031 29.3921 14.9531 29.0421C14.6031 28.6921 14.3865 28.3596 14.2048 27.8927C14.0679 27.5406 13.9048 27.0114 13.8604 26.0365C13.8125 24.9823 13.8029 24.6657 13.8029 21.9952C13.8029 19.3247 13.8125 19.0098 13.8604 17.9556C13.905 16.9807 14.0679 16.4515 14.2048 16.099C14.3861 15.6323 14.6031 15.299 14.9532 14.949C15.3033 14.599 15.6365 14.3823 16.1032 14.2007C16.4557 14.0632 16.9851 13.9007 17.9601 13.8559C18.8826 13.8142 19.2401 13.8017 21.1038 13.7996V13.8021ZM27.3389 15.4625C26.6764 15.4625 26.1389 15.9995 26.1389 16.6621C26.1389 17.3245 26.6764 17.862 27.3389 17.862C28.0014 17.862 28.5389 17.3245 28.5389 16.6621C28.5389 15.9996 28.0014 15.4621 27.3389 15.4621V15.4625ZM22.0009 16.8646C19.1649 16.8646 16.8655 19.1639 16.8655 22C16.8655 24.8361 19.1649 27.1343 22.0009 27.1343C24.837 27.1343 27.1356 24.8361 27.1356 22C27.1356 19.164 24.8368 16.8646 22.0007 16.8646H22.0009ZM22.0009 18.6666C23.8418 18.6666 25.3343 20.1589 25.3343 22C25.3343 23.8409 23.8418 25.3334 22.0009 25.3334C20.16 25.3334 18.6676 23.8409 18.6676 22C18.6676 20.1589 20.1599 18.6666 22.0009 18.6666Z" fill="white"/>
    </g>
    <defs>
        <radialGradient id="paint0_radial_396_2508" cx="0" cy="0" r="1" gradientUnits="userSpaceOnUse" gradientTransform="translate(14.2656 41.0416) rotate(-90) scale(32.7055 30.4187)">
            <stop stop-color="#FFDD55"/>
            <stop offset="0.1" stop-color="#FFDD55"/>
            <stop offset="0.5" stop-color="#FF543E"/>
            <stop offset="1" stop-color="#C837AB"/>
        </radialGradient>
        <radialGradient id="paint1_radial_396_2508" cx="0" cy="0" r="1" gradientUnits="userSpaceOnUse" gradientTransform="translate(-0.0276289 7.87716) rotate(78.681) scale(14.6195 60.2621)">
            <stop stop-color="#3771C8"/>
            <stop offset="0.128" stop-color="#3771C8"/>
            <stop offset="1" stop-color="#6600FF" stop-opacity="0"/>
        </radialGradient>
        <clipPath id="clip0_396_2508">
            <rect x="5.5" y="5.5" width="33" height="33" rx="16.5" fill="white"/>
        </clipPath>
    </defs>
</svg>
