<svg width="80" height="81" viewBox="0 0 80 81" fill="none" xmlns="http://www.w3.org/2000/svg">
<path fill-rule="evenodd" clip-rule="evenodd" d="M19.3909 19.7491C27.5348 15.4154 34.3146 25.3333 42.856 26.9988C51.0245 28.5915 62.7228 22.0831 66.7706 28.9876C70.8231 35.9001 61.439 44.0491 57.3624 51.7431C53.2611 59.4836 52.1038 70.9718 43.5697 72.7755C35.0745 74.5711 31.8723 63.5406 25.6477 58.4463C19.8862 53.731 10.6044 52.293 9.39384 44.8057C7.96137 35.9462 10.8385 24.3003 19.3909 19.7491Z" fill="#FFDF18"/>
<path d="M41.5001 24.3082C41.7592 24.5192 41.9663 24.7673 42.1798 25.0234C42.2403 25.0054 42.2403 25.0054 42.302 24.9869C42.4896 24.9312 42.6775 24.8762 42.8654 24.8213C42.9604 24.7929 42.9604 24.7929 43.0574 24.7639C43.969 24.4988 44.8339 24.4347 45.7783 24.4349C45.9744 24.4346 46.1704 24.432 46.3665 24.4294C47.5189 24.4222 48.6011 24.6194 49.7033 24.9531C49.7442 24.9073 49.7852 24.8614 49.8274 24.8141C50.5339 24.061 51.295 23.6946 52.318 23.6611C53.2458 23.6768 53.969 23.9726 54.6405 24.6087C55.3813 25.3909 55.5832 26.2485 55.5612 27.296C55.5215 28.1242 55.0883 28.8323 54.4845 29.3828C54.5121 29.4626 54.5396 29.5423 54.568 29.6245C54.6747 29.947 54.7768 30.2708 54.8756 30.5957C54.8978 30.6659 54.8978 30.6659 54.9203 30.7375C55.1678 31.5624 55.2074 32.3804 55.1964 33.2368C55.1957 33.3343 55.1951 33.4317 55.1945 33.5292C55.1929 33.7643 55.1906 33.9993 55.1877 34.2344C55.2299 34.2546 55.2721 34.2748 55.3156 34.2956C55.8641 34.5797 56.2177 35.085 56.4445 35.6494C56.6602 36.3894 56.5784 37.2026 56.2423 37.8906C55.8783 38.4746 55.3581 39.0011 54.6955 39.2266C54.5271 39.2504 54.3586 39.2738 54.1901 39.2969C53.8354 39.3604 53.8354 39.3604 53.5919 39.6037C53.5375 39.7473 53.4878 39.8927 53.4419 40.0393C52.9279 41.5487 51.4319 42.8328 50.0466 43.5241C49.8105 43.6344 49.5701 43.7295 49.3253 43.8188C49.2816 43.8351 49.2378 43.8513 49.1927 43.868C48.2 44.2064 47.2121 44.2528 46.1735 44.2463C45.9585 44.2451 45.7435 44.2462 45.5285 44.2476C44.8303 44.2482 44.1814 44.2423 43.5158 44.0078C43.5182 44.0884 43.5207 44.169 43.5232 44.252C43.5252 44.3596 43.5271 44.4671 43.529 44.5747C43.5316 44.654 43.5316 44.654 43.5343 44.735C43.5392 45.1092 43.4877 45.3661 43.3048 45.6953C43.1483 45.829 43.0015 45.8875 42.8127 45.9766C42.8518 45.992 42.891 46.0074 42.9313 46.0233C43.6945 46.3404 44.3026 46.8258 44.654 47.5872C44.9728 48.4087 44.8972 49.1757 44.5705 49.9844C44.1877 50.733 43.5948 51.178 42.8127 51.4609C42.527 51.5302 42.2628 51.537 41.9689 51.5312C41.9428 51.6183 41.9167 51.7053 41.8898 51.7949C41.3206 53.4737 40.0372 54.7716 38.4964 55.5962C37.4606 56.096 36.398 56.3347 35.2508 56.3336C35.1766 56.3339 35.1024 56.3343 35.026 56.3346C34.8703 56.335 34.7145 56.335 34.5588 56.3347C34.3239 56.3345 34.0892 56.3361 33.8544 56.3379C31.6181 56.3447 29.8134 55.7261 28.2074 54.157C27.7108 53.6358 27.1876 53.0081 26.969 52.3094C26.8864 52.048 26.807 51.8242 26.6408 51.6016C26.3506 51.5067 26.0946 51.4854 25.7918 51.4752C25.436 51.4568 25.1866 51.3571 24.883 51.1797C24.8105 51.1376 24.7379 51.0956 24.6632 51.0522C24.0554 50.5898 23.5844 49.9919 23.4767 49.2109C23.417 48.3631 23.5107 47.6546 24.0392 46.9609C24.0979 46.8739 24.0979 46.8739 24.1579 46.7852C24.53 46.3828 25.0256 46.138 25.5158 45.9062C25.4135 45.8258 25.4135 45.8258 25.3092 45.7437C25.1346 45.6062 25.0973 45.5648 25.0236 45.3438C25.0142 45.1444 25.0087 44.9469 25.0068 44.7475C25.0063 44.688 25.0057 44.6285 25.0051 44.5673C25.0041 44.4409 25.0034 44.3144 25.0028 44.188C25.002 44.0607 25.0006 43.9334 24.9985 43.8062C24.9729 42.2495 25.2827 40.9062 26.3595 39.7188C26.4087 39.6638 26.458 39.6089 26.5087 39.5523C27.1843 38.8369 28.1373 38.262 29.1017 38.0312C29.1945 38.0312 29.2873 38.0312 29.383 38.0312C29.269 37.8465 29.1546 37.662 29.0402 37.4775C29.0078 37.4251 28.9755 37.3726 28.9421 37.3185C28.9109 37.2682 28.8796 37.2179 28.8474 37.1661C28.8187 37.1197 28.7899 37.0733 28.7603 37.0255C28.6782 36.8957 28.6782 36.8957 28.5392 36.7656C28.5524 36.5782 28.5891 36.5034 28.7272 36.375C28.7769 36.3411 28.8267 36.3072 28.8779 36.2723C28.9316 36.2352 28.9853 36.198 29.0406 36.1597C29.097 36.1218 29.1534 36.084 29.2116 36.0449C29.2683 36.0059 29.325 35.967 29.3834 35.9268C29.5234 35.8307 29.6639 35.7354 29.8048 35.6406C30.019 35.7327 30.1295 35.8122 30.252 36.0103C30.277 36.0499 30.302 36.0896 30.3277 36.1304C30.3582 36.1805 30.3887 36.2306 30.4201 36.2822C30.5187 36.4417 30.6173 36.6013 30.7189 36.7656C30.9509 36.3944 31.183 36.0231 31.422 35.6406C31.6512 35.7323 31.8439 35.8139 32.054 35.9334C32.1036 35.9615 32.1533 35.9896 32.2044 36.0186C32.2805 36.0621 32.2805 36.0621 32.3581 36.1064C32.4362 36.1508 32.4362 36.1508 32.5159 36.196C32.6435 36.2685 32.7711 36.3412 32.8986 36.4141C32.8283 36.7656 32.8283 36.7656 32.2658 37.75C33.9016 37.7848 33.9016 37.7848 35.5705 37.8203C35.4776 37.5419 35.3848 37.2634 35.2892 36.9766C35.1887 36.2964 35.3177 35.6254 35.6814 35.0402C35.9845 34.632 36.3262 34.2099 36.8361 34.0938C36.8344 34.0244 36.8344 34.0244 36.8327 33.9536C36.8052 32.6156 36.8621 31.402 37.3357 30.141C37.4322 29.8801 37.4918 29.718 37.3986 29.4531C37.299 29.3386 37.299 29.3386 37.1745 29.2334C36.5737 28.6548 36.2752 27.9403 36.2489 27.1148C36.2381 26.0934 36.5411 25.2919 37.2412 24.5365C38.4734 23.3946 40.1466 23.4605 41.5001 24.3082ZM45.4845 34.0938C45.4563 34.1303 45.4281 34.1668 45.3991 34.2044C44.9152 34.7981 44.2667 35.135 43.5158 35.2891C43.3848 35.297 43.2536 35.3014 43.1224 35.3035C43.0436 35.3049 42.9648 35.3063 42.8836 35.3077C42.7989 35.3089 42.7142 35.3101 42.627 35.3113C42.54 35.3128 42.453 35.3142 42.3633 35.3157C42.1326 35.3196 41.9019 35.3231 41.6712 35.3265C41.4355 35.33 41.1999 35.3339 40.9642 35.3378C40.5022 35.3453 40.0403 35.3525 39.5783 35.3594C39.5767 35.6038 39.5758 35.8483 39.575 36.0927C39.5745 36.1611 39.5741 36.2295 39.5736 36.3C39.5311 37.2886 39.5311 37.2886 39.8318 38.1859C40.0499 38.3499 40.285 38.4591 40.5319 38.5718C41.5929 39.0808 42.4634 39.903 42.9533 40.9844C42.9813 41.0923 43.007 41.2009 43.0307 41.3098C43.1055 41.6427 43.1788 41.9658 43.3752 42.25C43.795 42.5066 44.2276 42.5148 44.7111 42.5312C44.7576 42.5331 44.8041 42.5349 44.8519 42.5367C45.2312 42.551 45.6104 42.5586 45.9899 42.562C46.0433 42.5625 46.0967 42.563 46.1517 42.5636C47.9358 42.5726 49.4714 42.1238 50.8019 40.8764C52.107 39.522 52.465 37.9398 52.4499 36.1196C52.4494 36.0092 52.4494 36.0092 52.4489 35.8965C52.4481 35.7174 52.4469 35.5384 52.4455 35.3594C52.3542 35.359 52.3542 35.359 52.2611 35.3586C51.685 35.3559 51.1089 35.3519 50.5328 35.3464C50.2367 35.3437 49.9406 35.3414 49.6445 35.3403C49.3582 35.3392 49.0719 35.3368 48.7856 35.3335C48.6769 35.3324 48.5683 35.3319 48.4596 35.3318C47.6727 35.331 46.9636 35.2568 46.3107 34.7705C46.254 34.7285 46.1972 34.6866 46.1388 34.6433C45.9144 34.4665 45.6978 34.2839 45.4845 34.0938ZM37.2453 35.8477C37.049 36.0693 36.9751 36.2588 36.9767 36.5547C37.0288 36.8967 37.1317 37.1666 37.3942 37.3984C37.6084 37.5551 37.6084 37.5551 37.8908 37.6094C37.8908 36.9133 37.8908 36.2172 37.8908 35.5C37.5863 35.5 37.4635 35.6473 37.2453 35.8477ZM54.133 35.5703C54.133 36.22 54.133 36.8697 54.133 37.5391C54.5801 37.2766 54.5801 37.2766 54.8086 36.8329C54.8715 36.4675 54.8226 36.2189 54.6381 35.8983C54.5339 35.7518 54.4324 35.655 54.2736 35.5703C54.2272 35.5703 54.1808 35.5703 54.133 35.5703ZM31.1408 44.6406C31.0869 44.7018 31.0869 44.7018 31.032 44.7642C30.3461 45.5012 29.5352 45.8243 28.548 45.915C28.4862 45.9211 28.4244 45.9272 28.3607 45.9334C28.2093 45.9483 28.0579 45.9625 27.9064 45.9766C27.9028 46.4379 27.9004 46.8992 27.8987 47.3606C27.898 47.5171 27.897 47.6736 27.8958 47.83C27.8805 49.8288 28.0675 51.5072 29.5236 53.0078C29.5624 53.0518 29.6012 53.0957 29.6411 53.141C30.4992 54.0819 31.8728 54.5635 33.1178 54.6334C33.4511 54.646 33.7841 54.6481 34.1176 54.6472C34.2907 54.647 34.4637 54.6486 34.6368 54.6504C36.3636 54.6574 37.82 54.2182 39.0861 53.0078C39.1302 52.9689 39.1744 52.93 39.2198 52.89C40.1774 52.015 40.6475 50.6266 40.7141 49.3562C40.7291 48.8038 40.7226 48.2516 40.7165 47.6992C40.7154 47.5316 40.7144 47.364 40.7136 47.1963C40.7115 46.7897 40.7075 46.3831 40.7033 45.9766C40.6181 45.976 40.5329 45.9754 40.4452 45.9748C39.6394 45.9694 38.8336 45.9632 38.0279 45.9563C37.6137 45.9528 37.1995 45.9496 36.7853 45.9469C36.385 45.9443 35.9848 45.941 35.5845 45.9373C35.4324 45.936 35.2802 45.935 35.1281 45.9341C32.5074 45.9195 32.5074 45.9195 31.589 45.0229C31.5339 44.9664 31.4788 44.9098 31.422 44.8516C31.3291 44.7801 31.2355 44.7096 31.1408 44.6406ZM25.4455 47.9453C25.2372 48.2199 25.1395 48.4827 25.1554 48.8286C25.2136 49.1754 25.3911 49.4085 25.6564 49.6328C25.793 49.7244 25.793 49.7244 25.9377 49.7734C26.0073 49.7502 26.0769 49.727 26.1486 49.7031C26.1254 49.0302 26.1022 48.3573 26.0783 47.6641C25.7836 47.6641 25.6728 47.7597 25.4455 47.9453ZM42.3908 47.6641C42.3908 48.337 42.3908 49.0098 42.3908 49.7031C42.7635 49.554 42.917 49.4242 43.0939 49.0703C43.1321 48.7219 43.1336 48.4466 42.9752 48.1299C42.8157 47.9487 42.6585 47.8028 42.4611 47.6641C42.4379 47.6641 42.4147 47.6641 42.3908 47.6641Z" fill="black"/>
<path d="M32.1953 49.4219C32.7522 49.4219 33.3091 49.4219 33.8828 49.4219C33.906 49.4683 33.9292 49.5147 33.9531 49.5625C34.0691 49.5625 34.1852 49.5625 34.3047 49.5625C34.3279 49.5161 34.3511 49.4697 34.375 49.4219C34.9551 49.4219 35.5352 49.4219 36.1328 49.4219C36.0545 50.1263 35.9619 50.5015 35.4297 50.9688C35.3731 51.0195 35.3166 51.0703 35.2583 51.1226C34.7651 51.4714 34.1813 51.4478 33.6016 51.3906C33.0791 51.242 32.705 50.9247 32.4062 50.4766C32.2047 50.0993 32.1953 49.8684 32.1953 49.4219Z" fill="black"/>
<path d="M43.9375 38.1016C44.5176 38.1016 45.0977 38.1016 45.6953 38.1016C45.6953 38.148 45.6953 38.1944 45.6953 38.2422C45.9638 38.2228 45.9638 38.2228 46.1875 38.1016C46.3127 38.0954 46.4382 38.094 46.5635 38.0947C46.6394 38.0949 46.7153 38.0951 46.7935 38.0954C46.9134 38.0963 46.9134 38.0963 47.0356 38.0972C47.1559 38.0976 47.1559 38.0976 47.2786 38.0981C47.4774 38.099 47.6762 38.1001 47.875 38.1016C47.8659 38.2011 47.8563 38.3006 47.8464 38.4001C47.8385 38.4832 47.8385 38.4832 47.8304 38.568C47.751 39.0824 47.4515 39.415 47.0609 39.7399C46.5546 40.0951 45.9913 40.1454 45.3918 40.0423C44.8854 39.9067 44.492 39.5809 44.1894 39.1573C43.9883 38.7944 43.9859 38.5375 43.9375 38.1016Z" fill="black"/>
<path d="M37.5916 47.4663C37.7826 47.6202 37.8362 47.7065 37.8905 47.9453C37.881 48.2145 37.8588 48.3811 37.7059 48.6045C37.4796 48.7594 37.3202 48.7844 37.0467 48.7891C36.8209 48.7081 36.6738 48.654 36.5419 48.4496C36.4754 48.2734 36.4757 48.1623 36.4974 47.9761C36.5028 47.9223 36.5081 47.8686 36.5136 47.8132C36.5625 47.6349 36.6211 47.5665 36.7655 47.4531C37.0689 47.352 37.2947 47.3381 37.5916 47.4663Z" fill="black"/>
<path d="M31.3513 47.3828C31.6058 47.5461 31.7442 47.6542 31.8479 47.9409C31.8412 48.2685 31.7215 48.4893 31.492 48.7188C31.208 48.7898 31.0445 48.8051 30.7669 48.7056C30.5687 48.5719 30.5003 48.5239 30.4373 48.2969C30.4051 48.0021 30.405 47.8559 30.5647 47.6026C30.8051 47.3691 31.0263 47.3446 31.3513 47.3828Z" fill="black"/>
<path d="M49.2109 36.0625C49.444 36.2311 49.5402 36.3487 49.6328 36.6206C49.6328 36.8885 49.5648 37.0332 49.4218 37.2578C49.161 37.4317 48.9507 37.4444 48.6484 37.3984C48.437 37.2905 48.3295 37.2143 48.2526 36.9856C48.2075 36.7343 48.2112 36.5898 48.3144 36.3525C48.5651 36.0481 48.8336 35.9912 49.2109 36.0625Z" fill="black"/>
<path d="M43.028 36.032C43.2418 36.08 43.3656 36.1892 43.5155 36.3438C43.6245 36.5618 43.6062 36.736 43.5859 36.9766C43.4596 37.1702 43.3712 37.2948 43.164 37.3984C42.6758 37.4465 42.6758 37.4465 42.3905 37.2622C42.2266 37.0111 42.1977 36.8609 42.2164 36.566C42.3123 36.1312 42.6243 36.0068 43.028 36.032Z" fill="black"/>
</svg>
