<svg width="80" height="81" viewBox="0 0 80 81" fill="none" xmlns="http://www.w3.org/2000/svg">
<path fill-rule="evenodd" clip-rule="evenodd" d="M19.4866 19.7492C27.6305 15.4154 34.4103 25.3334 42.9517 26.9988C51.1202 28.5916 62.8185 22.0831 66.8663 28.9877C70.9188 35.9002 61.5347 44.0492 57.4581 51.7432C53.3568 59.4837 52.1995 70.9718 43.6654 72.7756C35.1702 74.5711 31.968 63.5406 25.7434 58.4463C19.9819 53.7311 10.7001 52.293 9.48955 44.8058C8.05708 35.9462 10.9342 24.3004 19.4866 19.7492Z" fill="#FFDF18"/>
<path d="M50.4339 20.5205L44.9941 20.7783L23.3748 37.7338L45.8449 33.308C46.3433 32.9127 46.7816 32.5346 47.1683 32.1822L44.0488 24.3877L45.3808 23.8549L48.2769 31.0908C53.0121 25.9174 46.5238 24.9807 50.4339 20.5205ZM48.7753 32.3283L47.641 33.351L48.466 35.4221C47.6839 35.3877 46.816 35.3705 45.8449 35.3619L23.3748 39.7963C23.3748 39.7963 23.404 39.9853 23.447 40.2689C23.6498 41.601 22.7827 42.8643 21.4644 43.1564C20.697 43.3283 20.037 43.4744 20.037 43.4744L20.3764 45.2963L49.0933 47.9174L59.9214 43.2854L59.8441 39.5557C52.8746 38.808 58.8644 36.1697 50.0472 35.5166L48.7753 32.3283ZM25.2955 42.3658L48.8957 44.2736L47.3402 45.6572L23.2193 43.4314L25.2955 42.3658ZM25.1795 46.9721L26.3525 55.3166L26.0543 55.8494L26.0853 57.2072L27.5574 57.3447L29.0269 56.8119V55.6775L28.6144 55.3424L29.3964 47.3502L25.1795 46.9721ZM33.9082 48.0119V54.5002L42.9488 55.2736V48.8111L41.5136 48.6822V53.7268L35.3433 53.2111V48.1408L33.9082 48.0119ZM51.9378 48.2439L49.4113 49.1807L47.28 49.0088L48.6207 57.551L48.2855 57.9893L48.3543 59.5361L49.8238 59.6822L51.1902 59.0463L51.216 57.9119L50.8808 57.5768L51.9378 48.2439ZM34.0027 55.9439L31.5621 56.7603L31.8285 57.9979L40.6199 58.8658L42.4246 58.2299L42.5191 56.6572L34.0027 55.9439Z" fill="#231F20"/>
</svg>
