<svg width="80" height="81" viewBox="0 0 80 81" fill="none" xmlns="http://www.w3.org/2000/svg">
<path fill-rule="evenodd" clip-rule="evenodd" d="M19.3909 19.7491C27.5348 15.4154 34.3146 25.3333 42.856 26.9988C51.0245 28.5915 62.7228 22.0831 66.7706 28.9876C70.8231 35.9001 61.439 44.0491 57.3624 51.7431C53.2611 59.4836 52.1038 70.9718 43.5697 72.7755C35.0745 74.5711 31.8723 63.5406 25.6477 58.4463C19.8862 53.731 10.6044 52.293 9.39384 44.8057C7.96137 35.9462 10.8385 24.3003 19.3909 19.7491Z" fill="#FFDF18"/>
<g clip-path="url(#clip0_1272_2676)">
<path d="M36.078 23.4502C37.719 24.717 38.7887 26.5213 39.0683 28.5852C39.2015 29.8186 39.0217 31.0687 38.8752 32.292C38.8548 32.4679 38.8344 32.6437 38.8142 32.8196C38.7651 33.2444 38.715 33.6691 38.6642 34.0938C38.9659 34.1402 39.2675 34.1866 39.5783 34.2344C39.5892 34.0886 39.5892 34.0886 39.6003 33.94C39.6321 33.6625 39.6742 33.4684 39.8595 33.25C40.0657 33.1274 40.1864 33.1084 40.4264 33.1182C40.6633 33.1887 40.7592 33.2715 40.9142 33.4609C41.1728 33.978 40.8579 34.9824 40.778 35.5396C40.7661 35.627 40.7542 35.7144 40.7419 35.8045C40.73 35.8883 40.718 35.9721 40.7058 36.0584C40.6952 36.1336 40.6846 36.2088 40.6736 36.2862C40.6091 36.6009 40.5519 36.7259 40.2814 36.9063C39.9619 36.9372 39.7961 36.9473 39.5124 36.7964C39.2237 36.4553 39.2896 35.9959 39.297 35.5703C39.0186 35.5239 38.7402 35.4775 38.4533 35.4297C38.4499 35.4958 38.4465 35.5619 38.443 35.6301C38.402 36.3756 38.3261 37.1142 38.2379 37.8555C38.2247 37.9689 38.2115 38.0823 38.1983 38.1958C38.1664 38.4691 38.1342 38.7424 38.1017 39.0156C38.2291 39.041 38.3565 39.0658 38.484 39.0903C38.555 39.1042 38.626 39.1181 38.6991 39.1324C38.7572 39.1402 38.8153 39.1481 38.8752 39.1563C38.9879 39.0436 38.9755 38.9026 38.9982 38.7476C39.0469 38.4991 39.0744 38.3969 39.2399 38.1983C39.494 38.074 39.65 38.0616 39.9298 38.1016C40.1234 38.2278 40.2481 38.3162 40.3517 38.5234C40.357 39.2076 40.2471 39.8954 40.154 40.5713C40.1432 40.6547 40.1324 40.7381 40.1214 40.824C40.1099 40.9032 40.0985 40.9824 40.0867 41.064C40.0768 41.135 40.0669 41.206 40.0568 41.2791C39.989 41.5155 39.8856 41.6494 39.7189 41.8281C39.5206 41.9273 39.3765 41.9157 39.1564 41.8984C38.8963 41.7979 38.823 41.7261 38.7038 41.4722C38.6534 41.1195 38.7155 40.8336 38.8048 40.4922C38.7506 40.4879 38.6964 40.4837 38.6406 40.4793C38.5701 40.4734 38.4996 40.4675 38.4269 40.4614C38.3568 40.4557 38.2866 40.45 38.2143 40.4441C38.0314 40.4219 38.0314 40.4219 37.8908 40.3516C37.8874 40.4119 37.884 40.4721 37.8805 40.5342C37.8348 41.2833 37.7585 42.0272 37.6754 42.773C37.6622 42.8935 37.649 43.014 37.6358 43.1345C37.6038 43.4257 37.5716 43.7168 37.5392 44.0078C37.8177 44.0542 38.0961 44.1006 38.383 44.1484C38.3801 44.0745 38.3772 44.0005 38.3742 43.9243C38.3846 43.606 38.4243 43.4155 38.6379 43.1773C38.8807 43.0558 39.1011 43.0429 39.3673 43.0938C39.5383 43.2253 39.6233 43.3245 39.7189 43.5156C39.7238 44.2146 39.6203 44.9128 39.5212 45.603C39.5104 45.6828 39.4996 45.7626 39.4886 45.8447C39.3792 46.5674 39.3792 46.5674 39.0861 46.8203C38.8062 46.9017 38.6622 46.9225 38.3962 46.7983C38.2423 46.6797 38.2423 46.6797 38.1017 46.5391C38.0855 46.3482 38.0855 46.3482 38.0885 46.1216C38.0892 46.0097 38.0892 46.0097 38.0899 45.8955C38.1017 45.6953 38.1017 45.6953 38.172 45.4844C37.8936 45.438 37.6152 45.3916 37.3283 45.3438C37.3198 45.4357 37.3112 45.5276 37.3025 45.6223C37.2906 45.7492 37.2787 45.876 37.2668 46.0029C37.2605 46.0698 37.2543 46.1367 37.2478 46.2055C37.2125 46.5788 37.173 46.9512 37.1273 47.3234C36.9382 48.7195 36.9382 48.7195 37.4689 49.9844C37.8832 50.3632 38.3714 50.5854 38.9397 50.5691C39.5944 50.4696 39.9827 49.9532 40.3636 49.4605C40.5713 49.1712 40.7348 48.864 40.8966 48.5474C40.9324 48.478 40.9682 48.4086 41.005 48.337C41.6421 47.0795 42.1667 45.7699 42.6017 44.4297C42.6216 44.3696 42.6415 44.3095 42.662 44.2475C43.5152 41.6528 43.9146 38.9833 44.0269 36.2583C44.0298 36.1902 44.0326 36.1221 44.0355 36.0519C44.0404 35.9253 44.0447 35.7985 44.0481 35.6718C44.0501 35.6159 44.0521 35.5601 44.0541 35.5025C44.0561 35.43 44.0561 35.43 44.0581 35.3561C44.0821 35.193 44.135 35.0788 44.2189 34.9375C44.4621 34.7574 44.6986 34.778 44.9923 34.7969C45.1714 34.8638 45.3294 34.9322 45.4981 35.0187C45.5708 35.0545 45.5708 35.0545 45.6449 35.0911C45.8065 35.171 45.9673 35.2522 46.1281 35.3335C46.2441 35.3912 46.3601 35.4488 46.4761 35.5063C46.7906 35.6626 47.1045 35.8202 47.4183 35.9779C47.7468 36.143 48.0759 36.307 48.4049 36.4712C48.9572 36.7471 49.5092 37.0238 50.0609 37.301C50.6986 37.6214 51.337 37.9404 51.9757 38.2588C52.5904 38.5652 53.2045 38.8726 53.8184 39.1803C54.0796 39.3113 54.341 39.4418 54.6025 39.5721C54.9105 39.7256 55.218 39.88 55.5252 40.0349C55.6379 40.0917 55.7509 40.1481 55.8639 40.2042C56.0183 40.2809 56.1722 40.3586 56.3259 40.4366C56.3707 40.4586 56.4155 40.4805 56.4617 40.5032C56.7392 40.6458 56.9163 40.7923 57.0861 41.0547C57.1526 41.3983 57.1526 41.3983 57.0861 41.6172C56.7928 42.0036 56.3198 42.2566 55.926 42.5327C55.4684 42.8563 55.0471 43.2177 54.6252 43.5859C54.5757 43.6284 54.5262 43.6708 54.4752 43.7145C54.3363 43.8342 54.1992 43.9557 54.0627 44.0781C54.0297 44.1075 53.9967 44.137 53.9628 44.1673C53.3994 44.6719 52.8737 45.197 52.3752 45.7656C52.314 45.8347 52.2528 45.9038 52.1898 45.9749C51.3958 46.884 50.6807 47.8583 50.08 48.9052C49.894 49.2268 49.7031 49.5455 49.5132 49.8648C49.3903 50.0717 49.2677 50.2788 49.1452 50.4859C49.121 50.5268 49.0967 50.5677 49.0718 50.6099C48.8802 50.9337 48.6889 51.2578 48.4977 51.5819C48.3862 51.7709 48.2743 51.9597 48.1624 52.1484C48.0165 52.3947 47.8721 52.6418 47.7285 52.8894C46.4388 55.0995 44.6133 56.908 42.0955 57.649C42.0073 57.672 41.9191 57.695 41.8283 57.7188C41.7807 57.7322 41.7332 57.7457 41.6842 57.7596C40.8774 57.9834 40.077 58.0276 39.2443 58.0308C39.1719 58.0314 39.1719 58.0314 39.0979 58.0321C38.1661 58.0375 37.2516 57.9148 36.3659 57.6133C36.289 57.5872 36.289 57.5872 36.2106 57.5606C35.1513 57.1814 34.1732 56.6225 33.3205 55.8906C33.2321 55.8168 33.2321 55.8168 33.1419 55.7415C31.4457 54.2864 30.4127 52.1289 30.2267 49.9141C30.1735 49.188 30.2133 48.4916 30.3437 47.7758C30.3561 47.7064 30.3685 47.637 30.3813 47.5655C30.5407 46.6882 30.729 45.8169 30.9167 44.9452C30.9566 44.7585 30.9965 44.5718 31.0365 44.3851C31.1318 43.9395 31.2274 43.494 31.3232 43.0485C31.4004 42.689 31.4775 42.3295 31.5546 41.97C32.1839 39.0326 32.8175 36.0962 33.4581 33.1612C33.4717 33.0986 33.4854 33.0361 33.4995 32.9716C33.5619 32.6855 33.6244 32.3994 33.687 32.1134C33.7414 31.8646 33.7954 31.6159 33.8492 31.367C33.8729 31.2574 33.8967 31.1478 33.9206 31.0382C33.9594 30.8601 33.9978 30.6819 34.0361 30.5037C34.0479 30.4497 34.0598 30.3956 34.072 30.34C34.2902 29.3168 34.3308 28.337 33.7679 27.4154C33.2334 26.6237 32.454 26.186 31.5297 25.9666C30.5835 25.8118 29.6931 26.0644 28.8908 26.5703C28.1249 27.1722 27.6348 28.019 27.4142 28.9609C27.3855 29.2046 27.38 29.4458 27.3782 29.691C27.3771 29.7497 27.3759 29.8084 27.3747 29.8689C27.3707 30.0848 27.3684 30.3007 27.3659 30.5166C27.3586 31.001 27.3514 31.4853 27.3439 31.9844C26.2766 31.9844 25.2092 31.9844 24.1095 31.9844C24.1066 31.4609 24.1037 30.9373 24.1007 30.398C24.0995 30.235 24.0982 30.0721 24.0969 29.9042C24.0874 27.8705 24.4409 25.9958 25.8673 24.4609C25.9258 24.3969 25.9843 24.3328 26.0445 24.2668C28.6568 21.5244 33.0484 21.2026 36.078 23.4502ZM52.5378 41.2261C52.4665 41.283 52.4665 41.283 52.3938 41.3412C51.7495 41.8121 51.7495 41.8121 51.4391 42.4873C51.4393 42.7415 51.4393 42.7415 51.5797 42.9092C51.7643 43.0389 51.8682 43.0883 52.0939 43.0938C52.3798 42.947 52.6015 42.753 52.8366 42.5357C52.9019 42.4756 52.9673 42.4155 53.0346 42.3536C53.4124 42.0454 53.4124 42.0454 53.5705 41.6172C53.4608 41.343 53.397 41.2203 53.1486 41.0547C52.8811 41.0245 52.7464 41.059 52.5378 41.2261ZM49.5627 44.1484C48.903 44.9304 48.3039 45.7706 47.7474 46.6286C47.7045 46.6946 47.7045 46.6946 47.6608 46.7619C47.5481 46.9787 47.553 47.1465 47.5939 47.3828C47.7203 47.5544 47.8182 47.6383 48.0114 47.7256C48.2264 47.7386 48.3202 47.7055 48.508 47.5938C48.7028 47.3851 48.8541 47.1428 49.014 46.9073C49.1103 46.7654 49.2068 46.6236 49.3034 46.4819C49.3534 46.4085 49.3534 46.4085 49.4044 46.3336C49.7289 45.8613 50.078 45.4132 50.4666 44.9911C50.6922 44.7445 50.8433 44.5716 50.8283 44.2188C50.6968 43.9283 50.6143 43.8223 50.3141 43.709C49.9507 43.7336 49.7952 43.8882 49.5627 44.1484ZM32.2834 48.3829C32.0997 48.6439 32.1405 48.9568 32.1515 49.2637C32.1531 49.3358 32.1546 49.4079 32.1562 49.4822C32.2177 51.2379 32.9561 52.7313 34.1642 53.9922C34.2054 54.037 34.2465 54.0817 34.2889 54.1279C35.1844 55.0738 36.7241 55.9312 38.049 56.0005C38.3108 55.9806 38.3108 55.9806 38.4884 55.8423C38.6082 55.6577 38.6588 55.5488 38.6642 55.3281C38.53 54.9964 38.3496 54.9071 38.0314 54.7656C37.8829 54.7229 37.7333 54.6835 37.5832 54.647C36.6524 54.3875 35.8597 53.9464 35.1486 53.2891C35.1026 53.2479 35.0567 53.2068 35.0093 53.1644C33.8527 52.0767 33.4633 50.6227 33.3782 49.0897C33.3736 49.0188 33.3691 48.9478 33.3644 48.8748C33.361 48.8109 33.3575 48.7471 33.354 48.6813C33.3144 48.4765 33.2533 48.3765 33.1095 48.2266C32.7584 48.1139 32.5631 48.1332 32.2834 48.3829Z" fill="black"/>
<path d="M24.8082 33.0907C24.8812 33.0906 24.9543 33.0904 25.0296 33.0903C25.1834 33.0902 25.3373 33.0905 25.4912 33.091C25.7259 33.0918 25.9605 33.0911 26.1952 33.0902C26.3452 33.0902 26.4951 33.0904 26.6451 33.0907C26.7149 33.0904 26.7846 33.0901 26.8564 33.0898C27.4596 33.0939 27.8822 33.1556 28.3282 33.6016C28.5967 34.0555 28.5754 34.4625 28.5743 34.9771C28.5763 35.0628 28.5783 35.1485 28.5804 35.2367C28.5817 35.8607 28.5817 35.8607 28.3788 36.1523C28.0785 36.3426 27.8344 36.3528 27.482 36.3551C27.3535 36.3561 27.3535 36.3561 27.2224 36.3571C27.1301 36.3574 27.0377 36.3577 26.9426 36.358C26.8464 36.3584 26.7503 36.3588 26.6541 36.3593C26.4526 36.36 26.2511 36.3604 26.0496 36.3606C25.7924 36.361 25.5352 36.3627 25.278 36.3647C25.0794 36.366 24.8807 36.3664 24.6821 36.3665C24.5414 36.3668 24.4008 36.3681 24.2602 36.3695C23.4409 36.3675 23.4409 36.3675 23.0548 36.1328C22.824 35.7866 22.8882 35.3971 22.8878 34.9902C22.8861 34.9048 22.8843 34.8193 22.8826 34.7312C22.881 34.245 22.8972 33.9228 23.1954 33.5313C23.6523 33.0743 24.2007 33.0882 24.8082 33.0907Z" fill="black"/>
</g>
<defs>
<clipPath id="clip0_1272_2676">
<rect width="36" height="36" fill="white" transform="translate(22 22)"/>
</clipPath>
</defs>
</svg>
