<svg width="80" height="81" viewBox="0 0 80 81" fill="none" xmlns="http://www.w3.org/2000/svg">
<path fill-rule="evenodd" clip-rule="evenodd" d="M19.4866 19.7492C27.6305 15.4154 34.4103 25.3334 42.9517 26.9988C51.1202 28.5916 62.8185 22.0831 66.8663 28.9877C70.9188 35.9002 61.5347 44.0492 57.4581 51.7432C53.3568 59.4837 52.1995 70.9718 43.6654 72.7756C35.1702 74.5711 31.968 63.5406 25.7434 58.4463C19.9819 53.7311 10.7001 52.293 9.48955 44.8058C8.05708 35.9462 10.9342 24.3004 19.4866 19.7492Z" fill="#FFDF18"/>
<path d="M56.7156 19.9316C56.2515 20.1516 55.4609 20.5332 54.3781 21.1468C52.8656 22.0045 51.1383 23.1784 50.4336 24.0919C50.2789 24.2921 50.0039 24.9848 49.8492 25.5743C49.7461 25.9602 49.7289 26.0916 49.6945 26.2833L53.4758 30.0645C53.6648 30.0302 53.8023 30.013 54.189 29.9098C54.782 29.7552 55.4781 29.4802 55.6758 29.3255C56.5867 28.6208 57.764 26.902 58.6148 25.3904C59.2336 24.3059 59.6117 23.5161 59.8351 23.0495L56.7156 19.9316ZM55.4781 22.3405L57.4289 24.2852L56.3289 25.3801L54.3781 23.4353L55.4781 22.3405ZM48.8523 27.6239L21.7468 54.7372C22.4222 54.995 23.0926 55.4505 23.7036 56.0606C24.3129 56.6708 24.7666 57.3411 25.0287 58.0114L52.1351 30.9067L48.8523 27.6239ZM48.139 30.2622H48.1476C48.5061 30.2673 48.8484 30.4123 49.1015 30.6661C49.3587 30.9239 49.5031 31.2731 49.5031 31.6372C49.5031 32.0013 49.3587 32.3505 49.1015 32.6083C48.9737 32.7369 48.8218 32.839 48.6544 32.9086C48.487 32.9783 48.3075 33.0141 48.1262 33.0141C47.9448 33.0141 47.7653 32.9783 47.5979 32.9086C47.4305 32.839 47.2786 32.7369 47.1508 32.6083C46.8936 32.3505 46.7492 32.0013 46.7492 31.6372C46.7492 31.2731 46.8936 30.9239 47.1508 30.6661C47.2802 30.5363 47.4344 30.4337 47.6041 30.3643C47.7738 30.2949 47.9557 30.2602 48.139 30.2622ZM44.2633 34.1552C44.6175 34.1602 44.9562 34.3018 45.2086 34.5505C45.3372 34.6783 45.4393 34.8302 45.5089 34.9976C45.5786 35.165 45.6144 35.3445 45.6144 35.5259C45.6144 35.7072 45.5786 35.8867 45.5089 36.0541C45.4393 36.2215 45.3372 36.3735 45.2086 36.5012C44.9508 36.7584 44.6016 36.9028 44.2375 36.9028C43.8734 36.9028 43.5241 36.7584 43.2664 36.5012C43.1378 36.3735 43.0357 36.2215 42.966 36.0541C42.8964 35.8867 42.8605 35.7072 42.8605 35.5259C42.8605 35.3445 42.8964 35.165 42.966 34.9976C43.0357 34.8302 43.1378 34.6783 43.2664 34.5505C43.3976 34.4212 43.5534 34.3195 43.7247 34.2516C43.8959 34.1837 44.0791 34.1509 44.2633 34.1552ZM40.3703 38.0395C40.7288 38.0447 41.071 38.1896 41.3242 38.4434C41.5813 38.7012 41.7257 39.0504 41.7257 39.4145C41.7257 39.7786 41.5813 40.1279 41.3242 40.3856C41.0664 40.6428 40.7172 40.7872 40.3531 40.7872C39.989 40.7872 39.6398 40.6428 39.382 40.3856C39.1249 40.1279 38.9805 39.7786 38.9805 39.4145C38.9805 39.0504 39.1249 38.7012 39.382 38.4434C39.5115 38.3136 39.6656 38.211 39.8353 38.1416C40.0051 38.0723 40.187 38.0376 40.3703 38.0395ZM36.4773 41.9325H36.4859C36.8414 41.9398 37.1802 42.0846 37.4312 42.3364C37.6884 42.5942 37.8328 42.9434 37.8328 43.3075C37.8328 43.6716 37.6884 44.0208 37.4312 44.2786C37.1735 44.5357 36.8242 44.6801 36.4601 44.6801C36.096 44.6801 35.7468 44.5357 35.489 44.2786C35.2319 44.0208 35.0875 43.6716 35.0875 43.3075C35.0875 42.9434 35.2319 42.5942 35.489 42.3364C35.6185 42.2066 35.7727 42.104 35.9424 42.0346C36.1121 41.9653 36.294 41.9305 36.4773 41.9325ZM32.5929 45.8255C32.9502 45.8283 33.2923 45.9701 33.5469 46.2208C33.6755 46.3486 33.7775 46.5005 33.8472 46.6679C33.9169 46.8353 33.9527 47.0149 33.9527 47.1962C33.9527 47.3775 33.9169 47.557 33.8472 47.7244C33.7775 47.8918 33.6755 48.0438 33.5469 48.1716C33.4191 48.3002 33.2671 48.4023 33.0997 48.4719C32.9323 48.5416 32.7528 48.5774 32.5715 48.5774C32.3901 48.5774 32.2106 48.5416 32.0432 48.4719C31.8758 48.4023 31.7239 48.3002 31.5961 48.1716C31.4675 48.0438 31.3654 47.8918 31.2957 47.7244C31.2261 47.557 31.1902 47.3775 31.1902 47.1962C31.1902 47.0149 31.2261 46.8353 31.2957 46.6679C31.3654 46.5005 31.4675 46.3486 31.5961 46.2208C31.7273 46.0915 31.8831 45.9898 32.0544 45.9219C32.2256 45.854 32.4088 45.8212 32.5929 45.8255ZM20.5909 56.0434C20.4672 56.0434 20.4079 56.0778 20.3976 56.0864C20.3795 56.1036 20.2944 56.2841 20.4345 56.7309C20.5806 57.1778 20.939 57.7708 21.4675 58.295C21.996 58.8278 22.5855 59.1887 23.035 59.3348C23.4784 59.4723 23.6615 59.3864 23.6795 59.3692C23.6976 59.352 23.7826 59.163 23.6426 58.7247C23.4973 58.2778 23.1381 57.6848 22.6096 57.152C22.0811 56.6278 21.4915 56.2669 21.0421 56.1208C20.8762 56.0692 20.7465 56.052 20.6485 56.0434H20.5909Z" fill="#231F20"/>
</svg>
