<svg width="44" height="44" viewBox="0 0 44 44" fill="none"
    xmlns="http://www.w3.org/2000/svg">
    <g clip-path="url(#clip0_396_2587)">
        <path d="M21.5 5C17.1249 5 12.9252 6.73946 9.83398 9.8327C6.73965 12.9272 5.00089 17.1238 5 21.5C5 25.8743 6.74023 30.0741 9.83398 33.1673C12.9252 36.2605 17.1249 38 21.5 38C25.8751 38 30.0748 36.2605 33.166 33.1673C36.2598 30.0741 38 25.8743 38 21.5C38 17.1257 36.2598 12.9259 33.166 9.8327C30.0748 6.73946 25.8751 5 21.5 5Z" fill="url(#paint0_linear_396_2587)"/>
        <path d="M12.4689 21.3257C17.2797 19.2302 20.4869 17.8487 22.0905 17.1811C26.6744 15.2751 27.6257 14.9441 28.247 14.9329C28.3837 14.9307 28.6879 14.9644 28.8864 15.1249C29.0514 15.2603 29.0978 15.4433 29.121 15.5719C29.1416 15.7002 29.17 15.9929 29.1468 16.2213C28.8993 18.8303 27.8242 25.1617 27.2777 28.084C27.0482 29.3205 26.5919 29.735 26.151 29.7755C25.192 29.8637 24.4649 29.1423 23.5368 28.5342C22.0853 27.582 21.2655 26.9896 19.8552 26.0607C18.2259 24.9872 19.2829 24.397 20.211 23.4328C20.4534 23.1804 24.6763 19.3403 24.7563 18.992C24.7666 18.9484 24.7769 18.786 24.6789 18.7004C24.5835 18.6146 24.4417 18.6439 24.3386 18.6672C24.1916 18.7002 21.8739 20.2336 17.3777 23.2673C16.7202 23.7195 16.1247 23.9399 15.5884 23.9283C15.0006 23.9157 13.8663 23.5952 13.0232 23.3214C11.992 22.9855 11.1695 22.8079 11.2417 22.2373C11.2778 21.9403 11.6877 21.6364 12.4689 21.3257Z" fill="white"/>
    </g>
    <defs>
        <linearGradient id="paint0_linear_396_2587" x1="1655" y1="5" x2="1655" y2="3305" gradientUnits="userSpaceOnUse">
            <stop stop-color="#2AABEE"/>
            <stop offset="1" stop-color="#229ED9"/>
        </linearGradient>
        <clipPath id="clip0_396_2587">
            <rect width="33" height="33" fill="white" transform="translate(5 5)"/>
        </clipPath>
    </defs>
</svg>
