<svg width="44" height="44" viewBox="0 0 44 44" fill="none"
    xmlns="http://www.w3.org/2000/svg">
    <path d="M38.8902 5.02267C38.7716 4.92018 38.6273 4.85207 38.4728 4.82571C38.3183 4.79936 38.1595 4.81576 38.0137 4.87314L3.18148 18.5045C2.82639 18.6424 2.52573 18.8919 2.32481 19.2155C2.12389 19.5391 2.03359 19.9192 2.06754 20.2986C2.10148 20.678 2.25782 21.0361 2.51299 21.3188C2.76817 21.6016 3.10835 21.7938 3.48226 21.8664L13.0626 23.7467V34.3755C13.0625 34.7867 13.1854 35.1885 13.4154 35.5294C13.6454 35.8703 13.972 36.1346 14.3534 36.2885C14.5987 36.3869 14.8607 36.4376 15.1251 36.438C15.4018 36.4373 15.6756 36.381 15.9302 36.2724C16.1847 36.1637 16.4148 36.0049 16.6066 35.8055L21.4191 30.8211L28.8098 37.3025C29.1844 37.6329 29.6663 37.8162 30.1659 37.8181C30.384 37.8172 30.6008 37.783 30.8087 37.7167C31.1489 37.609 31.455 37.4139 31.6963 37.1509C31.9375 36.8879 32.1056 36.5662 32.1837 36.218L39.1652 5.86486C39.2002 5.71274 39.1931 5.55397 39.1446 5.40559C39.0962 5.25722 39.0082 5.12484 38.8902 5.02267ZM3.43757 20.1752C3.42749 20.092 3.44622 20.0079 3.49063 19.9369C3.53505 19.8659 3.60246 19.8123 3.68164 19.785L33.6996 8.03736L13.5902 22.4491L3.74867 20.5172C3.66525 20.505 3.58865 20.4642 3.53192 20.4018C3.4752 20.3395 3.44185 20.2594 3.43757 20.1752ZM15.6184 34.8499C15.5233 34.9478 15.4013 35.0152 15.2678 35.0435C15.1343 35.0718 14.9954 35.0598 14.8688 35.0089C14.7421 34.9581 14.6335 34.8707 14.5567 34.7579C14.4799 34.645 14.4385 34.5119 14.4376 34.3755V24.6989L20.381 29.9067L15.6184 34.8499ZM30.843 35.9052C30.8165 36.0219 30.7599 36.1296 30.6788 36.2178C30.5978 36.3059 30.4952 36.3713 30.3811 36.4076C30.2671 36.4439 30.1455 36.4498 30.0285 36.4247C29.9114 36.3995 29.803 36.3443 29.7138 36.2644L14.8552 23.2345L37.4912 7.01298L30.843 35.9052Z" fill="#231F20"/>
</svg>
