<svg width="44" height="44" viewBox="0 0 44 44" fill="none"
    xmlns="http://www.w3.org/2000/svg">
    <g clip-path="url(#clip0_396_2546)">
        <path d="M28.9738 17.5223C31.2355 18.9949 34.0064 19.8613 36.999 19.8613V14.6166C36.4326 14.6168 35.8677 14.563 35.3136 14.4559V18.5843C32.3213 18.5843 29.5508 17.718 27.2885 16.2455V26.9485C27.2885 32.3028 22.5227 36.6429 16.6444 36.6429C14.451 36.6429 12.4122 36.0389 10.7188 35.0031C12.6516 36.8032 15.3472 37.9198 18.3292 37.9198C24.2081 37.9198 28.974 33.5797 28.974 28.2252V17.5223H28.9738ZM31.0529 12.2311C29.897 11.0809 29.138 9.59459 28.9738 7.95133V7.27679H27.3766C27.7787 9.36529 29.1501 11.1496 31.0529 12.2311ZM14.4368 30.8946C13.7909 30.1234 13.4418 29.1799 13.4435 28.2099C13.4435 25.7611 15.6233 23.7756 18.3127 23.7756C18.8138 23.7753 19.3119 23.8454 19.7896 23.9833V18.6213C19.2314 18.5517 18.6681 18.522 18.105 18.533V22.7064C17.627 22.5684 17.1286 22.4984 16.6273 22.4988C13.938 22.4988 11.7583 24.4841 11.7583 26.9332C11.7583 28.6649 12.8478 30.1642 14.4368 30.8946Z" fill="#FF004F"/>
        <path d="M27.2889 16.2454C29.5513 17.7178 32.3216 18.5842 35.3141 18.5842V14.4558C33.6437 14.1317 32.165 13.3368 31.0533 12.2311C29.1503 11.1495 27.7791 9.36518 27.3771 7.27679H23.182V28.225C23.1725 30.6671 20.9964 32.6445 18.3129 32.6445C16.7316 32.6445 15.3267 31.9581 14.437 30.8944C12.8483 30.1642 11.7587 28.6648 11.7587 26.9333C11.7587 24.4844 13.9383 22.4989 16.6276 22.4989C17.1428 22.4989 17.6395 22.5719 18.1053 22.7065V18.5331C12.3301 18.6418 7.68555 22.9395 7.68555 28.2251C7.68555 30.8637 8.84211 33.2556 10.7193 35.0034C12.4128 36.0389 14.4514 36.6431 16.6449 36.6431C22.5234 36.6431 27.2891 32.3027 27.2891 26.9485L27.2889 16.2454Z" fill="black"/>
        <path d="M35.3138 14.4557V13.3397C33.8075 13.3417 32.331 12.9575 31.053 12.2311C32.1842 13.359 33.6738 14.1369 35.3138 14.4559M27.3767 7.27669C27.3384 7.07714 27.309 6.87626 27.2885 6.67454V6H21.4961V26.9484C21.4869 29.3903 19.3109 31.3677 16.6272 31.3677C15.8664 31.3688 15.116 31.2067 14.4366 30.8947C15.3263 31.9581 16.7312 32.6444 18.3125 32.6444C20.9959 32.6444 23.1722 30.6673 23.1816 28.2251V7.2768L27.3767 7.27669ZM18.1053 18.533V17.3447C17.6212 17.2844 17.1333 17.2543 16.6447 17.2544C10.7656 17.2544 6 21.5947 6 26.9484C6 30.305 7.87296 33.2631 10.7191 35.0031C8.84195 33.2555 7.68538 30.8634 7.68538 28.225C7.68538 22.9395 12.3298 18.6417 18.1053 18.533Z" fill="#00F2EA"/>
    </g>
    <defs>
        <clipPath id="clip0_396_2546">
            <rect width="31" height="32" fill="white" transform="translate(6 6)"/>
        </clipPath>
    </defs>
</svg>
