<svg width="44" height="44" viewBox="0 0 44 44" fill="none"
    xmlns="http://www.w3.org/2000/svg">
    <path d="M38.5 14.6667V29.3333C38.5 31.7645 37.5342 34.0961 35.8151 35.8151C34.0961 37.5342 31.7645 38.5 29.3333 38.5H14.6667C12.2355 38.5 9.90394 37.5342 8.18485 35.8151C6.46577 34.0961 5.5 31.7645 5.5 29.3333V14.6667C5.5 12.2355 6.46577 9.90394 8.18485 8.18485C9.90394 6.46577 12.2355 5.5 14.6667 5.5H29.3333C31.7645 5.5 34.0961 6.46577 35.8151 8.18485C37.5342 9.90394 38.5 12.2355 38.5 14.6667Z" stroke="#231F20" stroke-width="1.5" stroke-linecap="round" stroke-linejoin="round"/>
    <path d="M18.333 22C17.2452 22 16.1818 22.3226 15.2774 22.9269C14.3729 23.5313 13.668 24.3902 13.2517 25.3952C12.8354 26.4002 12.7265 27.5061 12.9387 28.573C13.1509 29.6399 13.6747 30.6199 14.4439 31.3891C15.2131 32.1583 16.1931 32.6821 17.26 32.8943C18.3269 33.1065 19.4328 32.9976 20.4378 32.5813C21.4428 32.1651 22.3017 31.4601 22.9061 30.5556C23.5104 29.6512 23.833 28.5878 23.833 27.5V11C24.4435 12.8333 26.7663 16.5 31.1663 16.5" stroke="#231F20" stroke-width="1.5" stroke-linecap="round" stroke-linejoin="round"/>
</svg>
