<svg width="80" height="81" viewBox="0 0 80 81" fill="none"
    xmlns="http://www.w3.org/2000/svg">
    <path fill-rule="evenodd" clip-rule="evenodd" d="M19.4866 19.7492C27.6305 15.4154 34.4103 25.3334 42.9517 26.9988C51.1202 28.5916 62.8185 22.0831 66.8663 28.9877C70.9188 35.9002 61.5347 44.0492 57.4581 51.7432C53.3568 59.4837 52.1995 70.9718 43.6654 72.7756C35.1702 74.5711 31.968 63.5406 25.7434 58.4463C19.9819 53.7311 10.7001 52.293 9.48955 44.8058C8.05708 35.9462 10.9342 24.3004 19.4866 19.7492Z" fill="#FFDF18"/>
    <path d="M30.9287 32.4484C30.9287 30.0173 31.8945 27.6857 33.6136 25.9666C35.3326 24.2475 37.6642 23.2817 40.0954 23.2817C42.5265 23.2817 44.8581 24.2475 46.5772 25.9666C48.2963 27.6857 49.262 30.0173 49.262 32.4484V37.9484C49.262 40.3796 48.2963 42.7111 46.5772 44.4302C44.8581 46.1493 42.5265 47.1151 40.0954 47.1151C37.6642 47.1151 35.3326 46.1493 33.6136 44.4302C31.8945 42.7111 30.9287 40.3796 30.9287 37.9484V32.4484Z" stroke="#231F20" stroke-width="1.5"/>
    <path d="M41.929 32.4485H49.2624M41.929 37.9485H49.2624M40.0957 52.6152V58.1152" stroke="#231F20" stroke-width="1.5" stroke-linecap="round"/>
    <path d="M56.137 36.115C56.137 35.7503 55.9922 35.4006 55.7343 35.1427C55.4765 34.8849 55.1267 34.74 54.762 34.74C54.3974 34.74 54.0476 34.8849 53.7898 35.1427C53.5319 35.4006 53.387 35.7503 53.387 36.115H56.137ZM26.8037 36.115C26.8037 35.7503 26.6588 35.4006 26.401 35.1427C26.1431 34.8849 25.7934 34.74 25.4287 34.74C25.064 34.74 24.7143 34.8849 24.4564 35.1427C24.1986 35.4006 24.0537 35.7503 24.0537 36.115H26.8037ZM46.534 49.579C46.2151 49.756 45.9795 50.0524 45.8791 50.4031C45.7787 50.7538 45.8217 51.13 45.9987 51.449C46.1757 51.768 46.4721 52.0036 46.8228 52.1039C47.1735 52.2043 47.5497 52.1613 47.8687 51.9843L46.534 49.579ZM53.387 36.115V37.9483H56.137V36.115H53.387ZM26.8037 37.9483V36.115H24.0537V37.9483H26.8037ZM40.0954 51.24C36.5702 51.24 33.1894 49.8396 30.6968 47.347C28.2041 44.8543 26.8037 41.4735 26.8037 37.9483H24.0537C24.0537 42.2028 25.7438 46.2831 28.7522 49.2915C31.7606 52.2999 35.8409 53.99 40.0954 53.99V51.24ZM53.387 37.9483C53.3879 40.3224 52.7527 42.6533 51.5475 44.6987C50.3423 46.7441 48.6112 48.4293 46.534 49.579L47.8687 51.9843C50.3749 50.5965 52.4636 48.5626 53.9176 46.0943C55.3717 43.6259 56.1381 40.8131 56.137 37.9483H53.387Z" fill="#231F20"/>
</svg>
