<svg width="44" height="44" viewBox="0 0 44 44" fill="none" xmlns="http://www.w3.org/2000/svg">
<path d="M39.5189 13.1948C39.3105 12.4184 38.9016 11.7104 38.3331 11.142C37.7647 10.5735 37.0567 10.1646 36.2803 9.95622C34.1592 9.13672 13.6093 8.73522 7.64732 9.97914C6.87079 10.1876 6.16276 10.5967 5.59431 11.1653C5.02586 11.7339 4.61699 12.442 4.40874 13.2186C3.45082 17.4197 3.37841 26.5021 4.43257 30.7976C4.64096 31.574 5.04989 32.2819 5.61834 32.8504C6.18678 33.4188 6.89474 33.8278 7.67116 34.0361C11.8722 35.0032 31.8446 35.1389 36.3042 34.0361C37.0806 33.8278 37.7885 33.4188 38.357 32.8504C38.9254 32.2819 39.3344 31.574 39.5427 30.7976C40.5639 26.2206 40.6363 17.7011 39.5189 13.1948Z" stroke="#231F20" stroke-width="1.5" stroke-linecap="round" stroke-linejoin="round"/>
<path d="M28.0198 21.9954L18.4434 16.5037V27.4872L28.0198 21.9954Z" stroke="#231F20" stroke-width="1.5" stroke-linecap="round" stroke-linejoin="round"/>
</svg>
