<svg width="44" height="44" viewBox="0 0 44 44" fill="none" xmlns="http://www.w3.org/2000/svg">
<g clip-path="url(#clip0_396_2563)">
<path d="M43.0283 10.1471C42.7759 9.15224 42.2836 8.24526 41.6004 7.51648C40.9172 6.78771 40.0669 6.26255 39.1343 5.9933C35.7198 5 21.9777 5 21.9777 5C21.9777 5 8.23491 5.03007 4.82044 6.02337C3.88776 6.29263 3.03748 6.81782 2.35428 7.54663C1.67108 8.27544 1.17879 9.18245 0.926439 10.1773C-0.106358 16.6486 -0.506998 26.5094 0.954799 32.7218C1.20718 33.7167 1.69947 34.6236 2.38268 35.3524C3.06588 36.0812 3.91614 36.6064 4.8488 36.8756C8.26327 37.8689 22.0057 37.8689 22.0057 37.8689C22.0057 37.8689 35.748 37.8689 39.1623 36.8756C40.095 36.6064 40.9453 36.0812 41.6285 35.3525C42.3117 34.6237 42.804 33.7167 43.0564 32.7218C44.1458 26.2414 44.4815 16.3866 43.0283 10.1471Z" fill="#FF0000"/>
<path d="M17.6035 28.4777L29.0036 21.4344L17.6035 14.3911V28.4777Z" fill="white"/>
</g>
<defs>
<clipPath id="clip0_396_2563">
<rect width="44" height="33" fill="white" transform="translate(0 5)"/>
</clipPath>
</defs>
</svg>
